<svg width="18" height="14" viewBox="0 0 18 14" fill="none" xmlns="http://www.w3.org/2000/svg">
<path fill-rule="evenodd" clip-rule="evenodd" d="M0.75 13.25C0.75 12.8358 1.08579 12.5 1.5 12.5H16.5C16.9142 12.5 17.25 12.8358 17.25 13.25C17.25 13.6642 16.9142 14 16.5 14H1.5C1.08579 14 0.75 13.6642 0.75 13.25Z" fill="#2F2F2F"/>
<path fill-rule="evenodd" clip-rule="evenodd" d="M0.75 7.25C0.75 6.83579 1.08579 6.5 1.5 6.5H16.5C16.9142 6.5 17.25 6.83579 17.25 7.25C17.25 7.66421 16.9142 8 16.5 8H1.5C1.08579 8 0.75 7.66421 0.75 7.25Z" fill="#2F2F2F"/>
<path fill-rule="evenodd" clip-rule="evenodd" d="M0.75 1.25C0.75 0.835786 1.08579 0.5 1.5 0.5H16.5C16.9142 0.5 17.25 0.835786 17.25 1.25C17.25 1.66421 16.9142 2 16.5 2H1.5C1.08579 2 0.75 1.66421 0.75 1.25Z" fill="#2F2F2F"/>
</svg>
