<svg width="31" height="24" viewBox="0 0 31 24" fill="none" xmlns="http://www.w3.org/2000/svg">
<path d="M14.7529 19.1492C14.7529 19.1492 15.2352 21.2022 17.9072 22.729C19.5913 23.691 23.1325 24.6892 24.9404 23.3532C26.9986 21.8315 27.4422 20.3253 27.5402 19.7708C27.6382 19.2163 27.3442 17.6869 27.3442 17.6869L23.9578 16.4824C23.9578 16.4824 18.3585 17.8494 18.2605 17.8494C18.1651 17.8519 14.7529 19.1492 14.7529 19.1492Z" fill="#E06767"/>
<path d="M27.3544 20.431C27.4292 20.2376 27.4756 20.0725 27.5091 19.9359C26.9108 19.7759 26.217 19.518 25.5877 19.2498C25.6393 19.2266 25.6909 19.2034 25.7399 19.1776C26.0494 19.0203 26.3537 18.8372 26.5729 18.5689C26.8102 18.2801 26.9185 17.9061 26.9056 17.5321L23.9577 16.4824C23.9577 16.4824 18.3584 17.8494 18.2604 17.8494C18.1624 17.8494 14.7528 19.1466 14.7503 19.1492C14.7064 19.1647 15.0675 19.923 15.0907 19.9616C15.4183 20.5729 16.1714 21.424 16.6872 21.8857C16.6872 21.8857 16.4499 21.3389 16.8987 21.1351C17.0973 21.0449 17.3371 21.0887 17.5409 21.1687C18.0515 21.3724 18.6912 22.1565 20.2902 22.9973C21.376 23.5698 22.4928 24.0083 22.8538 23.9928C23.3361 23.9722 24.2105 23.7375 24.2105 23.7375C24.2105 23.7375 23.0963 23.6317 21.3064 22.7987C20.7648 22.5459 18.7608 21.5607 18.5699 21.0113C18.5158 20.8566 18.3223 20.5832 18.6731 20.4285C19.2096 20.1886 20.6719 21.4498 21.9279 22.0275C23.4238 22.7136 25.0538 23.2629 25.0538 23.2629C25.2292 23.1288 25.3943 22.9947 25.549 22.8606C24.716 22.6465 23.901 22.3525 23.1143 22.0095C22.3303 21.669 21.5617 21.228 20.8524 20.7431C20.4011 20.4336 20.089 19.9126 20.5739 19.8456C21.3683 19.7347 22.3948 20.4904 23.4238 21.0242C24.3523 21.5065 25.4665 21.7283 26.511 21.8599C26.6451 21.6922 26.8644 21.3724 26.8644 21.3724C26.8644 21.3724 26.4698 21.3054 25.304 21.0474C24.7933 20.934 24.2981 20.787 23.8442 20.5316C23.7256 20.4646 23.3103 20.039 23.8777 19.843C24.4452 19.647 24.9842 20.0364 25.8405 20.235C26.6993 20.4388 27.3467 20.4491 27.3544 20.431Z" fill="#B05353"/>
<path d="M29.3169 9.76143C29.3169 9.76143 29.2525 7.67235 28.1306 5.82313C27.1634 4.22923 25.7836 4.06675 25.7836 4.06675C25.7836 4.06675 25.5102 3.06348 24.5507 2.2949C23.5913 1.52632 21.6183 0.884126 21.6183 0.884126C17.6671 -0.895462 15.204 0.561737 15.204 0.561737C15.204 0.561737 9.34431 -0.830984 4.6529 3.14859C4.6529 3.14859 2.28528 4.26276 1.31811 6.36732C0.784232 7.53308 1.01377 9.43388 1.01377 9.43388C-0.629121 11.3424 -0.177777 14.3651 1.66629 15.8791C2.54577 16.5987 3.63157 17.0758 4.7638 17.197C5.20741 17.2434 5.43179 17.1377 5.61749 17.589C5.89087 18.2544 6.10494 18.9379 6.65429 19.415C7.21396 19.8999 7.86647 20.2765 8.56025 20.5344C9.90655 21.0322 11.4282 21.0863 12.7874 20.5989C13.2388 20.4364 14.6856 20.4209 14.6856 20.4209C14.6856 20.4209 15.4516 21.0528 18.17 20.9522C20.8884 20.8516 22.0361 19.6781 22.6577 19.4589C23.1348 19.2913 23.7203 18.9224 24.2413 19.0179C24.5379 19.072 24.8035 19.2242 25.0743 19.3531C25.8326 19.7168 26.6837 19.9154 27.5193 19.838C30.6787 19.5466 31.0114 15.9075 30.6994 13.4057C30.3847 10.8808 29.3169 9.76143 29.3169 9.76143Z" fill="#FFB3B3"/>
<path d="M5.98115 14.7006C5.91667 14.8476 5.27189 16.2558 4.73028 16.4827C3.79406 16.8773 2.3446 15.9385 1.79009 15.6806C1.68177 15.629 1.60955 15.758 1.60955 15.758C1.51928 15.8741 1.75398 16.1139 1.87262 16.199C2.3317 16.5292 3.43298 17.2771 4.25056 17.4809C5.30542 17.7439 6.09721 17.4809 6.09721 17.4809C6.09721 17.4809 6.38607 15.3686 6.40928 15.2731C6.43249 15.1777 6.40928 14.3369 6.40928 14.3369L5.98115 14.7006Z" fill="#EA6363"/>
<path d="M15.1962 20.6609C15.1962 20.6609 14.6649 20.5783 13.8499 20.5912C13.0349 20.6041 11.8872 20.8388 11.8872 20.8388C11.8872 20.8388 12.697 20.47 13.0581 20.1476C13.4192 19.8227 13.4914 19.0334 13.4321 18.564C13.3702 18.0843 13.2077 17.8419 11.9801 17.5866L15.6579 17.3828C14.4251 18.203 14.2007 19.8923 15.1962 20.6609Z" fill="#F07371"/>
<path d="M26.3301 12.9005C25.6905 12.9856 25.0689 12.8644 24.517 12.5368C24.2771 12.3924 24.2513 12.052 24.4628 11.8689C24.6047 11.7476 24.8084 11.7399 24.9658 11.8431C25.8581 12.4285 26.766 12.0442 27.2509 11.7425C28.4888 10.9713 29.1027 9.6044 29.0201 8.17041C29.2677 8.60886 29.4483 9.09373 29.4921 9.59408C29.603 10.8088 28.7287 11.7554 27.7512 12.3666C27.2844 12.6606 26.8021 12.8386 26.3301 12.9005Z" fill="#F07371"/>
<path d="M29.0953 14.1096C28.8167 14.1096 28.515 14.0503 28.2287 13.8749C27.9347 13.6944 27.7696 13.4519 27.6226 13.1528C27.5014 12.9078 27.3311 12.7556 27.0191 12.7788C26.7999 12.7969 26.5884 12.9207 26.3691 12.8897C26.6606 12.3739 27.1274 11.9612 27.6768 11.7368C27.9295 11.6337 28.2132 11.5692 28.4711 11.6492C28.4995 11.8297 28.3783 11.9973 28.3086 12.1676C28.1874 12.4693 28.2364 12.8304 28.4324 13.0883C28.5665 13.2637 28.8219 13.452 29.0566 13.4365C29.2113 13.4262 29.3196 13.2946 29.4718 13.2817C29.9438 13.2482 30.0624 13.9394 29.5982 14.0477C29.4486 14.0838 29.2784 14.1096 29.0953 14.1096Z" fill="#F07371"/>
<path d="M24.5559 4.54637C24.3677 4.56958 24.1768 4.54895 24.0788 4.38388C23.9524 4.16982 24.0582 3.90159 24.2929 3.81906C24.9402 3.5921 25.6675 3.63336 26.2994 3.88611C26.8513 4.10792 27.1841 4.48447 27.4033 4.7398C27.6225 4.99513 27.7721 5.50064 27.7721 5.50064C27.2227 5.0235 26.9107 4.27298 24.5559 4.54637Z" fill="#F07371"/>
<path d="M22.0853 4.04892C21.5282 4.0257 22.0699 4.04892 22.0647 4.04892C21.1826 4.04892 20.1278 3.74458 19.9859 2.73873C19.7306 0.907558 22.4335 1.61939 23.4239 1.75609C23.4239 1.75609 22.6424 0.953982 21.6185 0.884346C21.1414 0.853396 20.6488 0.866292 20.1845 0.99009C19.6739 1.12678 19.4159 1.51107 18.9517 1.70192C18.6009 1.84378 18.2012 1.78961 17.8401 1.68129C17.5074 1.58071 16.4268 1.00041 16.3958 1.72256C16.3881 1.92115 16.5299 2.09137 16.7234 2.11974C17.5074 2.23064 18.5906 2.5814 18.993 3.32934C19.1787 3.67237 19.2225 4.0876 19.1142 4.46157C19.0626 4.64469 18.9878 4.87939 19.14 4.99545C19.256 5.08572 19.434 5.0264 19.5397 4.92324C19.6455 4.82007 19.7125 4.6808 19.8183 4.57763C20.1484 4.25267 20.4476 4.48479 20.7984 4.60858C21.2033 4.75301 21.6314 4.82265 22.0621 4.82265C22.0724 4.82265 21.3064 4.74786 22.0905 4.82265C22.872 4.89487 22.6398 4.07213 22.0853 4.04892Z" fill="#F07371"/>
<path d="M9.68735 3.20795C9.25922 2.82109 9.05547 1.31489 10.2857 0.538574C10.2857 0.538574 9.61514 0.561786 9.05547 1.00024C8.57833 1.37421 8.48291 2.02156 8.59639 2.70503C8.62476 2.88041 8.48807 3.04031 8.31011 3.03C7.67049 2.99647 7.03345 3.11253 6.4841 3.36528C6.27519 3.46329 6.20297 3.72636 6.32677 3.92237C6.43251 4.08743 6.64142 4.14417 6.81938 4.06164C7.43579 3.77794 8.33332 3.62577 9.05289 3.80631C9.78278 3.98943 10.296 4.20091 10.8686 5.19387C10.9666 5.36151 11.1781 5.42083 11.338 5.31251C11.4618 5.2274 11.5134 5.06749 11.4618 4.92822C10.9718 3.57677 10.2651 3.72894 9.68735 3.20795Z" fill="#F07371"/>
<path d="M11.284 7.8528C11.2221 7.64132 11.0055 7.52526 10.8017 7.58716C10.1827 7.77285 9.28779 7.71869 8.88803 7.31635C8.35415 6.08095 7.94923 5.86173 7.30188 5.64251C7.04396 5.55482 6.78605 5.77662 6.81184 6.04485C6.82732 6.19701 6.9279 6.32597 7.07491 6.36982C7.534 6.50651 7.99566 7.12292 8.23294 7.75222C8.44958 8.3222 8.47537 9.07272 7.98534 9.60918C7.85896 9.74845 7.83317 9.94962 7.94408 10.1018L7.94923 10.1095C8.09108 10.3055 8.37479 10.321 8.53985 10.1431C8.71523 9.9522 8.89835 9.70461 8.97572 9.45443C9.05567 9.18878 9.03246 8.95151 9.262 8.74002C9.51733 8.50274 9.75977 8.55174 10.0667 8.55174C10.3813 8.55174 10.7192 8.43826 11.0158 8.33252C11.217 8.26804 11.3459 8.05398 11.284 7.8528Z" fill="#F07371"/>
<path d="M3.3763 11.3503C3.28861 11.3503 3.2035 11.3477 3.11323 11.3399C1.9191 11.2368 1.29237 10.3779 1.00867 9.43656C0.72497 8.49518 0.964827 7.47127 0.964827 7.47127C1.3259 10.2567 2.77794 10.5327 3.18028 10.5688C3.94112 10.6358 4.66843 10.3057 4.86702 9.80279C5.18168 9.00842 4.21709 8.22953 3.74511 7.74724C3.43304 7.42743 3.31698 6.88324 3.39951 6.45252C3.44077 6.23072 3.53878 6.01408 3.7219 5.87222C3.90244 5.73295 4.35636 5.60658 4.29446 6.00376C4.27641 6.12756 4.19645 6.23072 4.14745 6.3442C3.79411 7.14888 5.05014 7.89425 5.39316 8.49002C5.67429 8.97232 5.79808 9.5552 5.5866 10.0865C5.28742 10.8448 4.38215 11.3503 3.3763 11.3503Z" fill="#F07371"/>
<path d="M3.1004 11.1441C3.30931 11.1699 3.52337 11.1338 3.71165 11.0409C3.89219 10.9532 4.05467 10.8139 4.25326 10.7985C4.34869 10.7933 4.46733 10.8501 4.45186 10.9429C4.4467 10.9764 4.66592 11.0383 4.63755 11.0564C4.12431 11.3762 2.82444 11.6934 3.72197 13.9966C3.79418 14.1797 3.73744 14.386 3.5698 14.4866C3.37379 14.6052 3.1133 14.5279 3.02045 14.319C2.77543 13.7799 2.65679 13.1841 2.66453 12.591C2.67227 12.0132 2.73159 11.5077 2.34472 11.0254C2.30345 10.9764 2.25961 10.9068 2.29314 10.8526C2.31377 10.8191 2.35504 10.8062 2.39372 10.7959C2.55363 10.7546 2.72385 10.7108 2.88633 10.7443C2.95855 10.7598 3.76581 11.206 3.77355 11.1905" fill="#F07371"/>
<path d="M26.1085 14.8681C25.5746 14.8037 25.0252 14.8423 24.5197 15.0332C24.0916 15.1957 23.7718 15.5232 23.2792 15.4149C22.9852 15.3504 22.7247 15.1622 22.5415 14.9223C22.1547 14.4194 22.2063 13.8907 22.3507 13.3181C22.4951 12.7507 22.4797 12.093 22.2243 11.5591C22.1573 11.4173 22.0438 11.2909 21.8968 11.2393C21.7472 11.1877 21.5641 11.2316 21.4764 11.3631C21.3887 11.4972 21.4222 11.6752 21.4532 11.8325C21.5537 12.3148 21.6827 12.8358 21.5383 13.3078C21.4016 13.7565 21.2133 14.1589 20.8909 14.5045C20.2797 15.1622 19.3925 15.4639 18.6265 15.2705C18.0616 15.1286 17.6051 14.734 17.2982 14.1305C17.1899 13.6585 17.0764 13.0447 16.491 12.9776C16.3723 12.9648 16.2434 12.9828 16.1531 13.0576C16.0628 13.135 16.0216 13.2588 16.0216 13.3774C16.0216 13.674 16.3053 13.8958 16.3568 14.1873C16.5193 15.0796 15.9261 16.101 15.026 16.5961C14.3297 16.9804 12.4185 17.1971 10.706 15.7605C10.6338 15.6986 10.6338 15.58 10.5642 15.5155C10.5177 15.4742 10.4584 15.4484 10.3991 15.4381C10.1438 15.3891 9.87811 15.6316 9.90132 15.8895C9.92195 16.1242 10.1154 16.3047 10.2882 16.4646C10.737 16.8824 10.5358 17.0501 10.4584 17.2745C10.4404 17.3312 10.4068 17.3828 10.4017 17.4421C10.3862 17.6072 10.6389 17.553 10.804 17.5401C10.9691 17.5272 11.1187 17.4369 11.2786 17.3905C11.4797 17.3338 12.4005 17.6716 12.581 17.7103C13.1046 17.8238 13.2851 17.8754 13.7365 17.8754C14.3013 17.8754 14.781 18.1668 15.1937 17.78C15.7817 17.2306 16.2382 16.8721 16.7592 16.6942C17.0171 16.6065 17.3266 16.5626 17.5432 16.7303C17.698 16.8489 17.7676 17.0475 17.8218 17.2332C17.9327 17.6149 18.0152 18.0043 18.1777 18.368C18.3402 18.7291 18.5981 19.0669 18.9592 19.2294C19.0726 19.281 19.2016 19.3145 19.3254 19.2862C19.4492 19.2578 19.5575 19.152 19.5601 19.0282C19.5627 18.9431 19.5188 18.8658 19.4724 18.7961C19.2944 18.5124 19.083 18.2494 18.9256 17.9553C18.7683 17.6613 18.6651 17.3183 18.7296 16.9907C18.8483 16.3847 19.5498 16.2144 20.0527 16.0623C20.535 15.9153 21.0173 15.6393 21.5357 15.6677C21.8607 15.6857 22.5493 16.0648 22.7556 16.3176C22.7969 16.3692 22.8149 16.4337 22.8253 16.5007C22.9129 17.0449 22.5132 17.5349 22.134 17.9321C22.067 18.0018 21.9974 18.1075 22.0541 18.1875C22.0747 18.2158 22.1057 18.2313 22.1366 18.2416C22.41 18.3474 22.7298 18.2545 22.9619 18.0766C23.4726 17.6897 23.6506 17.0269 24.0864 16.5678C24.4449 16.1938 24.9272 15.9488 25.4147 15.7889C27.1582 15.2163 27.2484 16.5884 27.5605 17.357C27.8726 18.1256 28.3342 17.5943 28.3394 17.3828C28.3574 16.3795 27.7152 15.059 26.1085 14.8681Z" fill="#F07371"/>
<path d="M9.78026 18.9406C9.51461 18.9251 9.33923 18.6491 9.44756 18.4041C9.62036 18.0121 9.94533 17.6226 10.3657 17.3235C11.0053 16.8695 11.645 16.787 12.2872 16.9701L12.4187 17.6252C12.0035 17.5066 11.2607 17.6381 10.8145 17.9553C10.4921 18.1849 10.2703 18.466 10.162 18.7007C10.0923 18.8529 9.94533 18.9509 9.78026 18.9406Z" fill="#F07371"/>
<path d="M26.4826 7.05326C26.4336 6.72572 26.1782 6.42138 25.8481 6.41106C25.6856 6.40591 25.5051 6.49102 25.4613 6.64834C25.4406 6.71798 25.4509 6.79535 25.4535 6.86757C25.4741 7.40402 25.0434 7.92242 24.5121 7.99722C23.9112 8.08233 23.4676 7.71094 23.0137 7.40144C22.5804 7.10742 22.0388 6.90883 21.5384 6.76698C20.205 6.39301 19.0573 6.64318 18.183 7.74446C17.858 8.15454 17.5485 8.60331 17.092 8.85606C16.375 9.25325 14.8611 9.28161 14.4149 8.50272C13.8295 7.48397 13.8088 4.35293 15.6864 4.70885C16.2667 4.81975 16.6974 5.32268 16.7387 5.69665C16.7645 5.93393 16.6175 6.14026 16.4292 6.30016C16.2848 6.42396 16.2538 6.63287 16.3518 6.79277C16.4756 6.99652 16.7542 7.04037 16.9347 6.8882C17.4634 6.43428 17.546 5.95714 17.5073 5.61154C17.3861 4.51026 16.1455 3.88869 15.1603 3.86032C14.9436 3.85258 14.6935 3.78295 14.6109 3.5792C14.5748 3.49151 14.58 3.39608 14.5722 3.30323C14.5207 2.64556 13.8475 1.93115 13.3214 1.5907C13.1279 1.46433 12.8674 1.54686 12.7669 1.75319C12.6818 1.93115 12.7488 2.14005 12.9139 2.24838C13.4142 2.5785 13.7186 3.05822 13.8191 3.6772C13.9326 4.38904 13.7779 5.11635 13.4787 5.76371C13.3291 6.08867 13.146 6.40333 12.9319 6.69219C12.7488 6.94236 12.4883 7.11 12.3697 7.40918C12.3568 7.44271 12.3439 7.47882 12.3542 7.51234C12.3723 7.57682 12.4522 7.59488 12.5193 7.59746C12.7101 7.60519 12.901 7.56393 13.0712 7.48397C12.9732 7.8631 13.2259 8.23192 13.4349 8.56204C13.6438 8.89217 13.8114 9.34094 13.5741 9.65301C13.5638 9.6659 13.5509 9.6788 13.5406 9.69427C13.0325 9.90834 12.5425 10.1998 12.1608 10.6021C11.5031 11.2985 11.0156 11.9252 10.0536 12.2347C9.20253 12.5107 8.25599 12.4771 7.4281 12.1444C7.26819 12.08 7.10571 12.0052 6.93291 12.0103C6.76011 12.0155 6.57699 12.1367 6.57183 12.3095C6.56925 12.3972 6.6131 12.4771 6.65179 12.5571C7.09024 13.4469 6.28555 14.0246 5.94253 14.7983C5.62014 15.5205 5.45508 16.3123 5.45508 17.1041C5.45508 17.9681 5.75168 18.5974 6.82201 19.6961C7.30688 20.1913 7.94134 20.4853 8.47522 20.6581C8.64286 20.7122 8.7486 20.4827 8.59902 20.3873C7.49773 19.6858 7.32493 19.0642 6.98965 18.4246C6.18497 16.8848 7.06444 14.5378 8.57838 13.3463C9.16384 12.8872 9.99432 12.9233 10.701 13.1658C11.4593 13.4262 11.908 13.9833 12.478 14.5017C12.6327 14.6436 12.8313 14.7958 13.0299 14.7339C13.2105 14.6797 13.3007 14.4656 13.2801 14.2799C13.2595 14.0942 13.1537 13.9292 13.0531 13.7718C12.9422 13.599 12.8313 13.4262 12.7179 13.2534C12.5708 13.0265 12.4187 12.7892 12.3723 12.521C12.3207 12.2295 12.5786 11.2211 15.0287 10.597C15.444 10.4912 15.867 10.5376 16.2848 10.6563C16.847 10.8162 17.2494 11.2288 17.7213 11.5512C17.8529 11.6415 17.9973 11.7369 18.1572 11.7421C18.3584 11.7498 18.5544 11.5977 18.5957 11.3991C18.6524 11.1257 18.4461 10.8807 18.3094 10.6382C17.8554 9.8387 18.3842 8.77095 19.0522 8.26029C19.6505 7.80636 20.4371 7.63872 21.1825 7.71609C22.3173 7.83215 23.4366 8.59041 23.6971 9.69943C23.7565 9.94961 23.8287 10.272 24.084 10.3055C24.3677 10.3442 24.5199 9.96508 24.4915 9.6788C24.4631 9.39252 24.3703 9.07013 24.5482 8.84317C24.6308 8.74 24.7546 8.68068 24.8758 8.62652C25.224 8.47435 25.5876 8.34798 25.8997 8.12875C26.2118 7.91211 26.4723 7.5794 26.4955 7.20027C26.4929 7.15643 26.4903 7.10484 26.4826 7.05326Z" fill="#EA6363"/>
<path d="M12.5165 7.59501C12.7073 7.60275 12.8982 7.56149 13.0684 7.48153C12.9704 7.86066 13.2231 8.22948 13.4321 8.5596C13.5842 8.80204 13.7957 9.23275 13.5662 9.67378C13.5662 9.67378 13.9118 9.48035 14.4714 9.31786C15.0311 9.15538 15.5779 9.11927 15.5779 9.11927C15.1807 9.03674 14.5927 8.81235 14.4121 8.50028C13.8267 7.48153 13.806 4.35049 15.6836 4.70641C16.2639 4.81731 16.6946 5.32024 16.7359 5.69421C16.7617 5.93149 16.6147 6.13782 16.4264 6.29772C16.282 6.42152 16.251 6.63043 16.349 6.79033C16.4728 6.99408 16.7514 7.03793 16.9319 6.88576C17.4606 6.43183 17.5432 5.9547 17.5045 5.6091C17.3833 4.50782 16.1427 3.88625 15.1575 3.85788C14.9408 3.85014 14.6907 3.78051 14.6081 3.57676C14.572 3.48907 14.5772 3.39364 14.5694 3.30079C14.5179 2.64312 13.8447 1.9287 13.3186 1.58826C13.1251 1.46189 12.8646 1.54442 12.7641 1.75075C12.679 1.9287 12.746 2.13761 12.9111 2.24594C13.4114 2.57606 13.7158 3.05578 13.8163 3.67476C13.9298 4.3866 13.7751 5.11391 13.4759 5.76127C13.3263 6.08623 13.1432 6.40088 12.9291 6.68975C12.746 6.93992 12.4855 7.10756 12.3669 7.40674C12.354 7.44027 12.3411 7.47637 12.3514 7.5099C12.3695 7.57438 12.4494 7.59244 12.5165 7.59501Z" fill="#F07371"/>
</svg>
