<svg width="48" height="49" viewBox="0 0 48 49" fill="none" xmlns="http://www.w3.org/2000/svg">
<path d="M43.36 48.6778H4C1.792 48.6778 0 46.8858 0 44.6778V10.5138C0 8.2098 1.868 6.3418 4.172 6.3418H43.184C45.488 6.3418 47.356 8.2098 47.356 10.5138V44.6778C47.36 46.8858 45.568 48.6778 43.36 48.6778Z" fill="url(#paint0_linear_619_39183)"/>
<path d="M47.36 19.83H0V3.90996C0 2.14196 1.432 0.709961 3.2 0.709961H44.16C45.928 0.709961 47.36 2.14196 47.36 3.90996V19.83Z" fill="#1E88E5"/>
<path d="M47.36 19.83H0V3.90996C0 2.14196 1.432 0.709961 3.2 0.709961H44.16C45.928 0.709961 47.36 2.14196 47.36 3.90996V19.83Z" fill="url(#paint1_radial_619_39183)"/>
<path opacity="0.2" d="M43.928 1.87773C45.16 1.87773 46.16 2.87773 46.16 4.10973V44.3577C46.16 46.0617 44.776 47.4457 43.072 47.4457H4.288C2.584 47.4457 1.2 46.0617 1.2 44.3577V4.10973C1.2 2.87773 2.2 1.87773 3.432 1.87773H43.928ZM43.928 0.677734H3.432C1.536 0.677734 0 2.21373 0 4.10973V44.3577C0 46.7257 1.92 48.6457 4.288 48.6457H43.072C45.44 48.6457 47.36 46.7257 47.36 44.3577V4.10973C47.36 2.21373 45.824 0.677734 43.928 0.677734Z" fill="#D84315"/>
<path d="M25.584 31.6657H24.468C24.212 31.6657 24 31.4577 24 31.1977V30.1457C24 29.8897 24.208 29.6777 24.468 29.6777H25.584C25.84 29.6777 26.052 29.8857 26.052 30.1457V31.1977C26.052 31.4537 25.844 31.6657 25.584 31.6657Z" fill="#9E9E9E"/>
<path d="M25.584 31.6657H24.468C24.212 31.6657 24 31.4577 24 31.1977V30.1457C24 29.8897 24.208 29.6777 24.468 29.6777H25.584C25.84 29.6777 26.052 29.8857 26.052 30.1457V31.1977C26.052 31.4537 25.844 31.6657 25.584 31.6657Z" fill="url(#paint2_radial_619_39183)"/>
<path d="M25.584 31.6657H24.468C24.212 31.6657 24 31.4577 24 31.1977V30.1457C24 29.8897 24.208 29.6777 24.468 29.6777H25.584C25.84 29.6777 26.052 29.8857 26.052 30.1457V31.1977C26.052 31.4537 25.844 31.6657 25.584 31.6657Z" fill="url(#paint3_radial_619_39183)"/>
<path d="M31.167 31.6657H30.051C29.795 31.6657 29.583 31.4577 29.583 31.1977V30.1457C29.583 29.8897 29.791 29.6777 30.051 29.6777H31.167C31.423 29.6777 31.635 29.8857 31.635 30.1457V31.1977C31.635 31.4537 31.423 31.6657 31.167 31.6657Z" fill="#9E9E9E"/>
<path d="M31.167 31.6657H30.051C29.795 31.6657 29.583 31.4577 29.583 31.1977V30.1457C29.583 29.8897 29.791 29.6777 30.051 29.6777H31.167C31.423 29.6777 31.635 29.8857 31.635 30.1457V31.1977C31.635 31.4537 31.423 31.6657 31.167 31.6657Z" fill="url(#paint4_radial_619_39183)"/>
<path d="M31.167 31.6657H30.051C29.795 31.6657 29.583 31.4577 29.583 31.1977V30.1457C29.583 29.8897 29.791 29.6777 30.051 29.6777H31.167C31.423 29.6777 31.635 29.8857 31.635 30.1457V31.1977C31.635 31.4537 31.423 31.6657 31.167 31.6657Z" fill="url(#paint5_radial_619_39183)"/>
<path d="M36.752 31.6657H35.636C35.38 31.6657 35.168 31.4577 35.168 31.1977V30.1457C35.168 29.8897 35.376 29.6777 35.636 29.6777H36.752C37.008 29.6777 37.22 29.8857 37.22 30.1457V31.1977C37.216 31.4537 37.008 31.6657 36.752 31.6657Z" fill="#9E9E9E"/>
<path d="M36.752 31.6657H35.636C35.38 31.6657 35.168 31.4577 35.168 31.1977V30.1457C35.168 29.8897 35.376 29.6777 35.636 29.6777H36.752C37.008 29.6777 37.22 29.8857 37.22 30.1457V31.1977C37.216 31.4537 37.008 31.6657 36.752 31.6657Z" fill="url(#paint6_radial_619_39183)"/>
<path d="M36.752 31.6657H35.636C35.38 31.6657 35.168 31.4577 35.168 31.1977V30.1457C35.168 29.8897 35.376 29.6777 35.636 29.6777H36.752C37.008 29.6777 37.22 29.8857 37.22 30.1457V31.1977C37.216 31.4537 37.008 31.6657 36.752 31.6657Z" fill="url(#paint7_radial_619_39183)"/>
<path d="M41.584 31.6657H40.468C40.212 31.6657 40 31.4577 40 31.1977V30.1457C40 29.8897 40.208 29.6777 40.468 29.6777H41.584C41.84 29.6777 42.052 29.8857 42.052 30.1457V31.1977C42.048 31.4537 41.84 31.6657 41.584 31.6657Z" fill="#9E9E9E"/>
<path d="M41.584 31.6657H40.468C40.212 31.6657 40 31.4577 40 31.1977V30.1457C40 29.8897 40.208 29.6777 40.468 29.6777H41.584C41.84 29.6777 42.052 29.8857 42.052 30.1457V31.1977C42.048 31.4537 41.84 31.6657 41.584 31.6657Z" fill="url(#paint8_radial_619_39183)"/>
<path d="M41.584 31.6657H40.468C40.212 31.6657 40 31.4577 40 31.1977V30.1457C40 29.8897 40.208 29.6777 40.468 29.6777H41.584C41.84 29.6777 42.052 29.8857 42.052 30.1457V31.1977C42.048 31.4537 41.84 31.6657 41.584 31.6657Z" fill="url(#paint9_radial_619_39183)"/>
<path d="M25.584 36.5974H24.468C24.212 36.5974 24 36.3894 24 36.1294V35.0774C24 34.8214 24.208 34.6094 24.468 34.6094H25.584C25.84 34.6094 26.052 34.8174 26.052 35.0774V36.1294C26.052 36.3854 25.844 36.5974 25.584 36.5974Z" fill="#9E9E9E"/>
<path d="M25.584 36.5974H24.468C24.212 36.5974 24 36.3894 24 36.1294V35.0774C24 34.8214 24.208 34.6094 24.468 34.6094H25.584C25.84 34.6094 26.052 34.8174 26.052 35.0774V36.1294C26.052 36.3854 25.844 36.5974 25.584 36.5974Z" fill="url(#paint10_radial_619_39183)"/>
<path d="M25.584 36.5974H24.468C24.212 36.5974 24 36.3894 24 36.1294V35.0774C24 34.8214 24.208 34.6094 24.468 34.6094H25.584C25.84 34.6094 26.052 34.8174 26.052 35.0774V36.1294C26.052 36.3854 25.844 36.5974 25.584 36.5974Z" fill="url(#paint11_radial_619_39183)"/>
<path d="M31.167 36.5974H30.051C29.795 36.5974 29.583 36.3894 29.583 36.1294V35.0774C29.583 34.8214 29.791 34.6094 30.051 34.6094H31.167C31.423 34.6094 31.635 34.8174 31.635 35.0774V36.1294C31.635 36.3854 31.423 36.5974 31.167 36.5974Z" fill="#9E9E9E"/>
<path d="M31.167 36.5974H30.051C29.795 36.5974 29.583 36.3894 29.583 36.1294V35.0774C29.583 34.8214 29.791 34.6094 30.051 34.6094H31.167C31.423 34.6094 31.635 34.8174 31.635 35.0774V36.1294C31.635 36.3854 31.423 36.5974 31.167 36.5974Z" fill="url(#paint12_radial_619_39183)"/>
<path d="M31.167 36.5974H30.051C29.795 36.5974 29.583 36.3894 29.583 36.1294V35.0774C29.583 34.8214 29.791 34.6094 30.051 34.6094H31.167C31.423 34.6094 31.635 34.8174 31.635 35.0774V36.1294C31.635 36.3854 31.423 36.5974 31.167 36.5974Z" fill="url(#paint13_radial_619_39183)"/>
<path d="M36.752 36.5974H35.636C35.38 36.5974 35.168 36.3894 35.168 36.1294V35.0774C35.168 34.8214 35.376 34.6094 35.636 34.6094H36.752C37.008 34.6094 37.22 34.8174 37.22 35.0774V36.1294C37.216 36.3854 37.008 36.5974 36.752 36.5974Z" fill="#9E9E9E"/>
<path d="M36.752 36.5974H35.636C35.38 36.5974 35.168 36.3894 35.168 36.1294V35.0774C35.168 34.8214 35.376 34.6094 35.636 34.6094H36.752C37.008 34.6094 37.22 34.8174 37.22 35.0774V36.1294C37.216 36.3854 37.008 36.5974 36.752 36.5974Z" fill="url(#paint14_radial_619_39183)"/>
<path d="M36.752 36.5974H35.636C35.38 36.5974 35.168 36.3894 35.168 36.1294V35.0774C35.168 34.8214 35.376 34.6094 35.636 34.6094H36.752C37.008 34.6094 37.22 34.8174 37.22 35.0774V36.1294C37.216 36.3854 37.008 36.5974 36.752 36.5974Z" fill="url(#paint15_radial_619_39183)"/>
<path d="M41.584 36.5974H40.468C40.212 36.5974 40 36.3894 40 36.1294V35.0774C40 34.8214 40.208 34.6094 40.468 34.6094H41.584C41.84 34.6094 42.052 34.8174 42.052 35.0774V36.1294C42.048 36.3854 41.84 36.5974 41.584 36.5974Z" fill="#9E9E9E"/>
<path d="M41.584 36.5974H40.468C40.212 36.5974 40 36.3894 40 36.1294V35.0774C40 34.8214 40.208 34.6094 40.468 34.6094H41.584C41.84 34.6094 42.052 34.8174 42.052 35.0774V36.1294C42.048 36.3854 41.84 36.5974 41.584 36.5974Z" fill="url(#paint16_radial_619_39183)"/>
<path d="M41.584 36.5974H40.468C40.212 36.5974 40 36.3894 40 36.1294V35.0774C40 34.8214 40.208 34.6094 40.468 34.6094H41.584C41.84 34.6094 42.052 34.8174 42.052 35.0774V36.1294C42.048 36.3854 41.84 36.5974 41.584 36.5974Z" fill="url(#paint17_radial_619_39183)"/>
<path d="M25.584 41.53H24.468C24.212 41.53 24 41.322 24 41.062V40.01C24 39.754 24.208 39.542 24.468 39.542H25.584C25.84 39.542 26.052 39.75 26.052 40.01V41.062C26.052 41.318 25.844 41.53 25.584 41.53Z" fill="#9E9E9E"/>
<path d="M25.584 41.53H24.468C24.212 41.53 24 41.322 24 41.062V40.01C24 39.754 24.208 39.542 24.468 39.542H25.584C25.84 39.542 26.052 39.75 26.052 40.01V41.062C26.052 41.318 25.844 41.53 25.584 41.53Z" fill="url(#paint18_radial_619_39183)"/>
<path d="M25.584 41.53H24.468C24.212 41.53 24 41.322 24 41.062V40.01C24 39.754 24.208 39.542 24.468 39.542H25.584C25.84 39.542 26.052 39.75 26.052 40.01V41.062C26.052 41.318 25.844 41.53 25.584 41.53Z" fill="url(#paint19_radial_619_39183)"/>
<path d="M31.167 41.53H30.051C29.795 41.53 29.583 41.322 29.583 41.062V40.01C29.583 39.754 29.791 39.542 30.051 39.542H31.167C31.423 39.542 31.635 39.75 31.635 40.01V41.062C31.635 41.318 31.423 41.53 31.167 41.53Z" fill="#9E9E9E"/>
<path d="M31.167 41.53H30.051C29.795 41.53 29.583 41.322 29.583 41.062V40.01C29.583 39.754 29.791 39.542 30.051 39.542H31.167C31.423 39.542 31.635 39.75 31.635 40.01V41.062C31.635 41.318 31.423 41.53 31.167 41.53Z" fill="url(#paint20_radial_619_39183)"/>
<path d="M31.167 41.53H30.051C29.795 41.53 29.583 41.322 29.583 41.062V40.01C29.583 39.754 29.791 39.542 30.051 39.542H31.167C31.423 39.542 31.635 39.75 31.635 40.01V41.062C31.635 41.318 31.423 41.53 31.167 41.53Z" fill="url(#paint21_radial_619_39183)"/>
<path d="M36.752 41.53H35.636C35.38 41.53 35.168 41.322 35.168 41.062V40.01C35.168 39.754 35.376 39.542 35.636 39.542H36.752C37.008 39.542 37.22 39.75 37.22 40.01V41.062C37.216 41.318 37.008 41.53 36.752 41.53Z" fill="#9E9E9E"/>
<path d="M36.752 41.53H35.636C35.38 41.53 35.168 41.322 35.168 41.062V40.01C35.168 39.754 35.376 39.542 35.636 39.542H36.752C37.008 39.542 37.22 39.75 37.22 40.01V41.062C37.216 41.318 37.008 41.53 36.752 41.53Z" fill="url(#paint22_radial_619_39183)"/>
<path d="M36.752 41.53H35.636C35.38 41.53 35.168 41.322 35.168 41.062V40.01C35.168 39.754 35.376 39.542 35.636 39.542H36.752C37.008 39.542 37.22 39.75 37.22 40.01V41.062C37.216 41.318 37.008 41.53 36.752 41.53Z" fill="url(#paint23_radial_619_39183)"/>
<path d="M41.584 41.53H40.468C40.212 41.53 40 41.322 40 41.062V40.01C40 39.754 40.208 39.542 40.468 39.542H41.584C41.84 39.542 42.052 39.75 42.052 40.01V41.062C42.048 41.318 41.84 41.53 41.584 41.53Z" fill="#9E9E9E"/>
<path d="M41.584 41.53H40.468C40.212 41.53 40 41.322 40 41.062V40.01C40 39.754 40.208 39.542 40.468 39.542H41.584C41.84 39.542 42.052 39.75 42.052 40.01V41.062C42.048 41.318 41.84 41.53 41.584 41.53Z" fill="url(#paint24_radial_619_39183)"/>
<path d="M41.584 41.53H40.468C40.212 41.53 40 41.322 40 41.062V40.01C40 39.754 40.208 39.542 40.468 39.542H41.584C41.84 39.542 42.052 39.75 42.052 40.01V41.062C42.048 41.318 41.84 41.53 41.584 41.53Z" fill="url(#paint25_radial_619_39183)"/>
<path d="M5.79199 13.6774V7.3774H7.15999L9.45499 11.1124L8.47399 11.1034L10.796 7.3774H12.11V13.6774H10.625V11.7154C10.625 11.1754 10.637 10.6894 10.661 10.2574C10.691 9.8254 10.739 9.3964 10.805 8.9704L10.976 9.4384L9.22999 12.1474H8.63599L6.92599 9.4564L7.09699 8.9704C7.16299 9.3724 7.20799 9.7864 7.23199 10.2124C7.26199 10.6324 7.27699 11.1334 7.27699 11.7154V13.6774H5.79199Z" fill="white"/>
<path d="M16.9694 13.7674C16.4894 13.7674 16.0514 13.6864 15.6554 13.5244C15.2594 13.3624 14.9144 13.1344 14.6204 12.8404C14.3264 12.5464 14.0984 12.2014 13.9364 11.8054C13.7744 11.4094 13.6934 10.9744 13.6934 10.5004C13.6934 10.0264 13.7744 9.5914 13.9364 9.1954C14.0984 8.7994 14.3264 8.4544 14.6204 8.1604C14.9144 7.8664 15.2594 7.6384 15.6554 7.4764C16.0514 7.3144 16.4864 7.2334 16.9604 7.2334C17.4344 7.2334 17.8694 7.3144 18.2654 7.4764C18.6614 7.6384 19.0064 7.8664 19.3004 8.1604C19.5944 8.4544 19.8194 8.7994 19.9754 9.1954C20.1374 9.5914 20.2184 10.0264 20.2184 10.5004C20.2184 10.9684 20.1374 11.4034 19.9754 11.8054C19.8194 12.2014 19.5944 12.5464 19.3004 12.8404C19.0064 13.1344 18.6614 13.3624 18.2654 13.5244C17.8694 13.6864 17.4374 13.7674 16.9694 13.7674ZM16.9604 12.3274C17.2064 12.3274 17.4314 12.2824 17.6354 12.1924C17.8454 12.1024 18.0254 11.9764 18.1754 11.8144C18.3314 11.6464 18.4514 11.4514 18.5354 11.2294C18.6194 11.0074 18.6614 10.7644 18.6614 10.5004C18.6614 10.2364 18.6194 9.9934 18.5354 9.7714C18.4514 9.5494 18.3314 9.3574 18.1754 9.1954C18.0254 9.0274 17.8454 8.8984 17.6354 8.8084C17.4314 8.7184 17.2064 8.6734 16.9604 8.6734C16.7144 8.6734 16.4864 8.7184 16.2764 8.8084C16.0724 8.8984 15.8924 9.0274 15.7364 9.1954C15.5804 9.3574 15.4604 9.5494 15.3764 9.7714C15.2984 9.9934 15.2594 10.2364 15.2594 10.5004C15.2594 10.7644 15.2984 11.0104 15.3764 11.2384C15.4604 11.4604 15.5804 11.6524 15.7364 11.8144C15.8924 11.9764 16.0724 12.1024 16.2764 12.1924C16.4864 12.2824 16.7144 12.3274 16.9604 12.3274Z" fill="white"/>
<path d="M21.8071 13.6774V7.3774H23.1751L26.4781 11.8774L26.1811 11.8324C26.1511 11.6344 26.1271 11.4454 26.1091 11.2654C26.0911 11.0854 26.0731 10.9084 26.0551 10.7344C26.0431 10.5604 26.0311 10.3834 26.0191 10.2034C26.0131 10.0234 26.0071 9.8284 26.0011 9.6184C26.0011 9.4084 26.0011 9.1804 26.0011 8.9344V7.3774H27.4861V13.6774H26.1001L22.6531 9.0334L23.1121 9.0964C23.1421 9.3844 23.1661 9.6304 23.1841 9.8344C23.2081 10.0324 23.2261 10.2094 23.2381 10.3654C23.2561 10.5214 23.2681 10.6624 23.2741 10.7884C23.2801 10.9144 23.2831 11.0404 23.2831 11.1664C23.2891 11.2864 23.2921 11.4214 23.2921 11.5714V13.6774H21.8071Z" fill="white"/>
<path d="M30.8398 13.6774V8.7274H28.9678V7.3774H34.2868V8.7274H32.3698V13.6774H30.8398Z" fill="white"/>
<path d="M39.6803 13.6774V7.3774H41.2103V13.6774H39.6803ZM35.7743 13.6774V7.3774H37.3043V13.6774H35.7743ZM36.3683 11.2204L36.3773 9.8524H40.4903V11.2204H36.3683Z" fill="white"/>
<path d="M6 42.6777V27.6777H12.3994C13.5205 27.6777 14.5471 27.8634 15.4789 28.2349C16.4108 28.592 17.2116 29.1063 17.8814 29.7777C18.5658 30.4492 19.09 31.242 19.454 32.1563C19.818 33.0706 20 34.0777 20 35.1777C20 36.2777 19.818 37.292 19.454 38.2206C19.09 39.1349 18.5658 39.9277 17.8814 40.5992C17.2116 41.2563 16.4108 41.7706 15.4789 42.142C14.5471 42.4992 13.5205 42.6777 12.3994 42.6777H6ZM9.71295 40.192L9.21061 39.4634H12.2902C12.9017 39.4634 13.4477 39.3634 13.9282 39.1634C14.4087 38.9492 14.8164 38.6563 15.1513 38.2849C15.5008 37.9134 15.7702 37.4634 15.9594 36.9349C16.1487 36.4063 16.2434 35.8206 16.2434 35.1777C16.2434 34.5349 16.1487 33.9492 15.9594 33.4206C15.7702 32.892 15.5008 32.442 15.1513 32.0706C14.8164 31.6992 14.4087 31.4134 13.9282 31.2134C13.4477 30.9992 12.9017 30.892 12.2902 30.892H9.14509L9.71295 30.2063V40.192Z" fill="#FF7044"/>
<defs>
<linearGradient id="paint0_linear_619_39183" x1="23.68" y1="19.731" x2="23.68" y2="48.5818" gradientUnits="userSpaceOnUse">
<stop stop-color="white"/>
<stop offset="1" stop-color="#F3F3F3"/>
</linearGradient>
<radialGradient id="paint1_radial_619_39183" cx="0" cy="0" r="1" gradientUnits="userSpaceOnUse" gradientTransform="translate(23.5838 0.801529) scale(36.0001 19.1381)">
<stop stop-color="#58BAE7"/>
<stop offset="0.2909" stop-color="#62C5F2"/>
<stop offset="1" stop-color="#1E88E5"/>
</radialGradient>
<radialGradient id="paint2_radial_619_39183" cx="0" cy="0" r="1" gradientUnits="userSpaceOnUse" gradientTransform="translate(25.076 29.7032) rotate(180) scale(2.0587 1.993)">
<stop stop-color="#FDD835"/>
<stop offset="0.2649" stop-color="#FDD434"/>
<stop offset="0.5026" stop-color="#FCCA30"/>
<stop offset="0.6335" stop-color="#FBC02D"/>
<stop offset="1" stop-color="#F9A825"/>
</radialGradient>
<radialGradient id="paint3_radial_619_39183" cx="0" cy="0" r="1" gradientUnits="userSpaceOnUse" gradientTransform="translate(25.0217 29.6872) scale(1.57096 1.98411)">
<stop stop-color="#FF8A65"/>
<stop offset="0.5688" stop-color="#FF6E41"/>
<stop offset="1" stop-color="#FF5722"/>
</radialGradient>
<radialGradient id="paint4_radial_619_39183" cx="0" cy="0" r="1" gradientUnits="userSpaceOnUse" gradientTransform="translate(30.659 29.7032) rotate(180) scale(2.0587 1.993)">
<stop stop-color="#FDD835"/>
<stop offset="0.2649" stop-color="#FDD434"/>
<stop offset="0.5026" stop-color="#FCCA30"/>
<stop offset="0.6335" stop-color="#FBC02D"/>
<stop offset="1" stop-color="#F9A825"/>
</radialGradient>
<radialGradient id="paint5_radial_619_39183" cx="0" cy="0" r="1" gradientUnits="userSpaceOnUse" gradientTransform="translate(30.6047 29.6872) scale(1.57096 1.98411)">
<stop stop-color="#FF8A65"/>
<stop offset="0.5688" stop-color="#FF6E41"/>
<stop offset="1" stop-color="#FF5722"/>
</radialGradient>
<radialGradient id="paint6_radial_619_39183" cx="0" cy="0" r="1" gradientUnits="userSpaceOnUse" gradientTransform="translate(36.2439 29.7032) rotate(180) scale(2.0587 1.993)">
<stop stop-color="#FDD835"/>
<stop offset="0.2649" stop-color="#FDD434"/>
<stop offset="0.5026" stop-color="#FCCA30"/>
<stop offset="0.6335" stop-color="#FBC02D"/>
<stop offset="1" stop-color="#F9A825"/>
</radialGradient>
<radialGradient id="paint7_radial_619_39183" cx="0" cy="0" r="1" gradientUnits="userSpaceOnUse" gradientTransform="translate(36.1897 29.6872) scale(1.57096 1.98411)">
<stop stop-color="#FF8A65"/>
<stop offset="0.5688" stop-color="#FF6E41"/>
<stop offset="1" stop-color="#FF5722"/>
</radialGradient>
<radialGradient id="paint8_radial_619_39183" cx="0" cy="0" r="1" gradientUnits="userSpaceOnUse" gradientTransform="translate(41.076 29.7032) rotate(180) scale(2.0587 1.993)">
<stop stop-color="#FDD835"/>
<stop offset="0.2649" stop-color="#FDD434"/>
<stop offset="0.5026" stop-color="#FCCA30"/>
<stop offset="0.6335" stop-color="#FBC02D"/>
<stop offset="1" stop-color="#F9A825"/>
</radialGradient>
<radialGradient id="paint9_radial_619_39183" cx="0" cy="0" r="1" gradientUnits="userSpaceOnUse" gradientTransform="translate(41.0217 29.6872) scale(1.57096 1.98411)">
<stop stop-color="#FF8A65"/>
<stop offset="0.5688" stop-color="#FF6E41"/>
<stop offset="1" stop-color="#FF5722"/>
</radialGradient>
<radialGradient id="paint10_radial_619_39183" cx="0" cy="0" r="1" gradientUnits="userSpaceOnUse" gradientTransform="translate(25.076 34.6348) rotate(180) scale(2.0587 1.993)">
<stop stop-color="#FDD835"/>
<stop offset="0.2649" stop-color="#FDD434"/>
<stop offset="0.5026" stop-color="#FCCA30"/>
<stop offset="0.6335" stop-color="#FBC02D"/>
<stop offset="1" stop-color="#F9A825"/>
</radialGradient>
<radialGradient id="paint11_radial_619_39183" cx="0" cy="0" r="1" gradientUnits="userSpaceOnUse" gradientTransform="translate(25.0217 34.6188) scale(1.57096 1.98411)">
<stop stop-color="#FF8A65"/>
<stop offset="0.5688" stop-color="#FF6E41"/>
<stop offset="1" stop-color="#FF5722"/>
</radialGradient>
<radialGradient id="paint12_radial_619_39183" cx="0" cy="0" r="1" gradientUnits="userSpaceOnUse" gradientTransform="translate(30.659 34.6348) rotate(180) scale(2.0587 1.993)">
<stop stop-color="#FDD835"/>
<stop offset="0.2649" stop-color="#FDD434"/>
<stop offset="0.5026" stop-color="#FCCA30"/>
<stop offset="0.6335" stop-color="#FBC02D"/>
<stop offset="1" stop-color="#F9A825"/>
</radialGradient>
<radialGradient id="paint13_radial_619_39183" cx="0" cy="0" r="1" gradientUnits="userSpaceOnUse" gradientTransform="translate(30.6047 34.6188) scale(1.57096 1.98411)">
<stop stop-color="#FF8A65"/>
<stop offset="0.5688" stop-color="#FF6E41"/>
<stop offset="1" stop-color="#FF5722"/>
</radialGradient>
<radialGradient id="paint14_radial_619_39183" cx="0" cy="0" r="1" gradientUnits="userSpaceOnUse" gradientTransform="translate(36.2439 34.6348) rotate(180) scale(2.0587 1.993)">
<stop stop-color="#FDD835"/>
<stop offset="0.2649" stop-color="#FDD434"/>
<stop offset="0.5026" stop-color="#FCCA30"/>
<stop offset="0.6335" stop-color="#FBC02D"/>
<stop offset="1" stop-color="#F9A825"/>
</radialGradient>
<radialGradient id="paint15_radial_619_39183" cx="0" cy="0" r="1" gradientUnits="userSpaceOnUse" gradientTransform="translate(36.1897 34.6188) scale(1.57096 1.98411)">
<stop stop-color="#FF8A65"/>
<stop offset="0.5688" stop-color="#FF6E41"/>
<stop offset="1" stop-color="#FF5722"/>
</radialGradient>
<radialGradient id="paint16_radial_619_39183" cx="0" cy="0" r="1" gradientUnits="userSpaceOnUse" gradientTransform="translate(41.076 34.6348) rotate(180) scale(2.0587 1.993)">
<stop stop-color="#FDD835"/>
<stop offset="0.2649" stop-color="#FDD434"/>
<stop offset="0.5026" stop-color="#FCCA30"/>
<stop offset="0.6335" stop-color="#FBC02D"/>
<stop offset="1" stop-color="#F9A825"/>
</radialGradient>
<radialGradient id="paint17_radial_619_39183" cx="0" cy="0" r="1" gradientUnits="userSpaceOnUse" gradientTransform="translate(41.0217 34.6188) scale(1.57096 1.98411)">
<stop stop-color="#FF8A65"/>
<stop offset="0.5688" stop-color="#FF6E41"/>
<stop offset="1" stop-color="#FF5722"/>
</radialGradient>
<radialGradient id="paint18_radial_619_39183" cx="0" cy="0" r="1" gradientUnits="userSpaceOnUse" gradientTransform="translate(25.076 39.5674) rotate(180) scale(2.0587 1.993)">
<stop stop-color="#FDD835"/>
<stop offset="0.2649" stop-color="#FDD434"/>
<stop offset="0.5026" stop-color="#FCCA30"/>
<stop offset="0.6335" stop-color="#FBC02D"/>
<stop offset="1" stop-color="#F9A825"/>
</radialGradient>
<radialGradient id="paint19_radial_619_39183" cx="0" cy="0" r="1" gradientUnits="userSpaceOnUse" gradientTransform="translate(25.0217 39.5514) scale(1.57096 1.98411)">
<stop stop-color="#FF8A65"/>
<stop offset="0.5688" stop-color="#FF6E41"/>
<stop offset="1" stop-color="#FF5722"/>
</radialGradient>
<radialGradient id="paint20_radial_619_39183" cx="0" cy="0" r="1" gradientUnits="userSpaceOnUse" gradientTransform="translate(30.659 39.5674) rotate(180) scale(2.0587 1.993)">
<stop stop-color="#FDD835"/>
<stop offset="0.2649" stop-color="#FDD434"/>
<stop offset="0.5026" stop-color="#FCCA30"/>
<stop offset="0.6335" stop-color="#FBC02D"/>
<stop offset="1" stop-color="#F9A825"/>
</radialGradient>
<radialGradient id="paint21_radial_619_39183" cx="0" cy="0" r="1" gradientUnits="userSpaceOnUse" gradientTransform="translate(30.6047 39.5514) scale(1.57096 1.98411)">
<stop stop-color="#FF8A65"/>
<stop offset="0.5688" stop-color="#FF6E41"/>
<stop offset="1" stop-color="#FF5722"/>
</radialGradient>
<radialGradient id="paint22_radial_619_39183" cx="0" cy="0" r="1" gradientUnits="userSpaceOnUse" gradientTransform="translate(36.2439 39.5674) rotate(180) scale(2.0587 1.993)">
<stop stop-color="#FDD835"/>
<stop offset="0.2649" stop-color="#FDD434"/>
<stop offset="0.5026" stop-color="#FCCA30"/>
<stop offset="0.6335" stop-color="#FBC02D"/>
<stop offset="1" stop-color="#F9A825"/>
</radialGradient>
<radialGradient id="paint23_radial_619_39183" cx="0" cy="0" r="1" gradientUnits="userSpaceOnUse" gradientTransform="translate(36.1897 39.5514) scale(1.57096 1.98411)">
<stop stop-color="#FF8A65"/>
<stop offset="0.5688" stop-color="#FF6E41"/>
<stop offset="1" stop-color="#FF5722"/>
</radialGradient>
<radialGradient id="paint24_radial_619_39183" cx="0" cy="0" r="1" gradientUnits="userSpaceOnUse" gradientTransform="translate(41.076 39.5674) rotate(180) scale(2.0587 1.993)">
<stop stop-color="#FDD835"/>
<stop offset="0.2649" stop-color="#FDD434"/>
<stop offset="0.5026" stop-color="#FCCA30"/>
<stop offset="0.6335" stop-color="#FBC02D"/>
<stop offset="1" stop-color="#F9A825"/>
</radialGradient>
<radialGradient id="paint25_radial_619_39183" cx="0" cy="0" r="1" gradientUnits="userSpaceOnUse" gradientTransform="translate(41.0217 39.5514) scale(1.57096 1.98411)">
<stop stop-color="#FF8A65"/>
<stop offset="0.5688" stop-color="#FF6E41"/>
<stop offset="1" stop-color="#FF5722"/>
</radialGradient>
</defs>
</svg>
