<svg width="58" height="57" viewBox="0 0 58 57" fill="none" xmlns="http://www.w3.org/2000/svg">
<mask id="mask0_559_37715" style="mask-type:luminance" maskUnits="userSpaceOnUse" x="0" y="0" width="58" height="28">
<path d="M0.859863 0.177734H57.1399V27.4311H0.859863V0.177734Z" fill="white"/>
</mask>
<g mask="url(#mask0_559_37715)">
<path d="M21.6265 19.8708H36.3265L50.3265 -2.71582H35.6265L21.6265 19.8708Z" fill="url(#paint0_linear_559_37715)"/>
</g>
<mask id="mask1_559_37715" style="mask-type:luminance" maskUnits="userSpaceOnUse" x="0" y="0" width="58" height="28">
<path d="M0.859863 0.177734H57.1399V27.4311H0.859863V0.177734Z" fill="white"/>
</mask>
<g mask="url(#mask1_559_37715)">
<path d="M26.7134 19.8711H32.9667L46.9667 -2.76221H40.7134L26.7134 19.8711Z" fill="url(#paint1_linear_559_37715)"/>
</g>
<mask id="mask2_559_37715" style="mask-type:luminance" maskUnits="userSpaceOnUse" x="0" y="0" width="58" height="28">
<path d="M0.859863 0.177734H57.1399V27.4311H0.859863V0.177734Z" fill="white"/>
</mask>
<g mask="url(#mask2_559_37715)">
<path d="M31.0532 19.8711H36.3266L50.3266 -2.76221H45.0999L31.0532 19.8711Z" fill="url(#paint2_linear_559_37715)"/>
</g>
<mask id="mask3_559_37715" style="mask-type:luminance" maskUnits="userSpaceOnUse" x="0" y="0" width="58" height="28">
<path d="M0.859863 0.177734H57.1399V27.4311H0.859863V0.177734Z" fill="white"/>
</mask>
<g mask="url(#mask3_559_37715)">
<g opacity="0.2">
<path d="M47.8065 -1.31582L35.5331 18.4708H24.1465L36.4198 -1.31582H47.8065ZM50.3265 -2.71582H35.6265L21.6265 19.8708H36.2798L50.3265 -2.71582Z" fill="#424242"/>
</g>
</g>
<mask id="mask4_559_37715" style="mask-type:luminance" maskUnits="userSpaceOnUse" x="0" y="0" width="58" height="28">
<path d="M0.859863 0.177734H57.1399V27.4311H0.859863V0.177734Z" fill="white"/>
</mask>
<g mask="url(#mask4_559_37715)">
<path d="M37.3068 14.1777H20.5068C18.4534 14.1777 16.7734 15.8577 16.7734 17.9111V25.3777C16.7734 26.4044 17.6134 27.2444 18.6401 27.2444C19.6668 27.2444 20.9734 26.4044 20.9734 25.3777V20.7111C20.9734 20.1977 21.3934 19.7777 21.9068 19.7777H35.9068C36.4201 19.7777 36.8401 20.1977 36.8401 20.7111V25.3311C36.8401 26.2644 37.9134 27.0577 38.8001 27.1977C38.9401 27.1977 39.0334 27.2444 39.1734 27.2444C40.2001 27.2444 41.0401 26.4044 41.0401 25.3777V17.9111C41.0401 15.8577 39.3601 14.1777 37.3068 14.1777Z" fill="#FDD835"/>
</g>
<mask id="mask5_559_37715" style="mask-type:luminance" maskUnits="userSpaceOnUse" x="0" y="0" width="58" height="28">
<path d="M0.859863 0.177734H57.1399V27.4311H0.859863V0.177734Z" fill="white"/>
</mask>
<g mask="url(#mask5_559_37715)">
<g opacity="0.2">
<path d="M37.3068 15.1111C38.8468 15.1111 40.1068 16.3711 40.1068 17.9111V25.3777C40.1068 25.8911 39.6868 26.3111 39.1734 26.3111C39.1268 26.3111 39.0334 26.3111 38.9868 26.3111C38.4268 26.2177 37.7734 25.7044 37.7734 25.3311V20.7111C37.7734 19.6844 36.9334 18.8444 35.9068 18.8444H21.9068C20.8801 18.8444 20.0401 19.6844 20.0401 20.7111V25.3777C20.0401 25.7977 19.2934 26.3111 18.6401 26.3111C18.1268 26.3111 17.7068 25.8911 17.7068 25.3777V17.9111C17.7068 16.3711 18.9668 15.1111 20.5068 15.1111H37.3068ZM37.3068 14.1777H20.5068C18.4534 14.1777 16.7734 15.8577 16.7734 17.9111V25.3777C16.7734 26.4044 17.6134 27.2444 18.6401 27.2444C19.6668 27.2444 20.9734 26.4044 20.9734 25.3777V20.7111C20.9734 20.1977 21.3934 19.7777 21.9068 19.7777H35.9068C36.4201 19.7777 36.8401 20.1977 36.8401 20.7111V25.3311C36.8401 26.2644 37.9134 27.0577 38.8001 27.1977C38.9401 27.1977 39.0334 27.2444 39.1734 27.2444C40.2001 27.2444 41.0401 26.4044 41.0401 25.3777V17.9111C41.0401 15.8577 39.3601 14.1777 37.3068 14.1777Z" fill="#424242"/>
</g>
</g>
<mask id="mask6_559_37715" style="mask-type:luminance" maskUnits="userSpaceOnUse" x="0" y="0" width="58" height="28">
<path d="M0.859863 0.177734H57.1399V27.4311H0.859863V0.177734Z" fill="white"/>
</mask>
<g mask="url(#mask6_559_37715)">
<path d="M36.3265 19.8708H21.6265L7.62646 -2.71582H22.3265L36.3265 19.8708Z" fill="url(#paint3_linear_559_37715)"/>
</g>
<mask id="mask7_559_37715" style="mask-type:luminance" maskUnits="userSpaceOnUse" x="0" y="0" width="58" height="28">
<path d="M0.859863 0.177734H57.1399V27.4311H0.859863V0.177734Z" fill="white"/>
</mask>
<g mask="url(#mask7_559_37715)">
<path d="M33.1064 19.8711H26.853L12.853 -2.76221H19.1064L33.1064 19.8711Z" fill="url(#paint4_linear_559_37715)"/>
</g>
<mask id="mask8_559_37715" style="mask-type:luminance" maskUnits="userSpaceOnUse" x="0" y="0" width="58" height="28">
<path d="M0.859863 0.177734H57.1399V27.4311H0.859863V0.177734Z" fill="white"/>
</mask>
<g mask="url(#mask8_559_37715)">
<path d="M36.2799 19.8711H31.0532L17.0532 -2.76221H22.2799L36.2799 19.8711Z" fill="url(#paint5_linear_559_37715)"/>
</g>
<mask id="mask9_559_37715" style="mask-type:luminance" maskUnits="userSpaceOnUse" x="0" y="0" width="58" height="28">
<path d="M0.859863 0.177734H57.1399V27.4311H0.859863V0.177734Z" fill="white"/>
</mask>
<g mask="url(#mask9_559_37715)">
<g opacity="0.2">
<path d="M21.5331 -1.31582L33.8065 18.4708H22.4198L10.1465 -1.31582H21.5331ZM22.3265 -2.71582H7.62646L21.6265 19.8708H36.2798C36.3265 19.8708 22.3265 -2.71582 22.3265 -2.71582Z" fill="#424242"/>
</g>
</g>
<path d="M28.9062 56.1776C38.7 56.1776 46.6395 48.2381 46.6395 38.4443C46.6395 28.6504 38.7 20.7109 28.9062 20.7109C19.1123 20.7109 11.1729 28.6504 11.1729 38.4443C11.1729 48.2381 19.1123 56.1776 28.9062 56.1776Z" fill="url(#paint6_radial_559_37715)"/>
<path opacity="0.2" d="M28.9062 22.1109C37.9128 22.1109 45.2395 29.4376 45.2395 38.4443C45.2395 47.4509 37.9128 54.7776 28.9062 54.7776C19.8995 54.7776 12.5729 47.4509 12.5729 38.4443C12.5729 29.4376 19.8995 22.1109 28.9062 22.1109ZM28.9062 20.7109C19.1062 20.7109 11.1729 28.6443 11.1729 38.4443C11.1729 48.2443 19.1062 56.1776 28.9062 56.1776C38.7062 56.1776 46.6395 48.2443 46.6395 38.4443C46.6395 28.6443 38.7062 20.7109 28.9062 20.7109Z" fill="#424242"/>
<path d="M29.933 25.0046L33.153 31.4913C33.3396 31.8179 33.6663 32.0513 33.993 32.0979L41.1796 33.1246C41.273 33.1246 41.3663 33.1713 41.4596 33.2179C39.593 28.5046 35.113 25.0979 29.793 24.7246C29.8396 24.8646 29.8863 24.9113 29.933 25.0046Z" fill="url(#paint7_radial_559_37715)"/>
<path d="M16.6335 33.1712L23.8202 32.1445C24.1935 32.0979 24.5202 31.8645 24.6602 31.5379L27.8802 25.0512C27.9268 24.9579 27.9735 24.9112 28.0202 24.8179C22.7002 25.1445 18.2202 28.5512 16.3535 33.2645C16.4468 33.2179 16.5402 33.1712 16.6335 33.1712Z" fill="url(#paint8_radial_559_37715)"/>
<path d="M20.3199 48.3379L21.5333 41.1979C21.5799 40.8246 21.4866 40.4513 21.2066 40.1713L16.0266 35.1313C15.9333 35.0379 15.8866 34.9913 15.8399 34.8979C15.5599 35.9713 15.4199 37.0913 15.4199 38.2579C15.4199 42.4579 17.3333 46.1913 20.3199 48.6646C20.2733 48.5713 20.2733 48.4313 20.3199 48.3379Z" fill="url(#paint9_radial_559_37715)"/>
<path d="M41.9733 34.8979C41.9267 34.9913 41.88 35.0846 41.7867 35.1313L36.6067 40.1713C36.3267 40.4513 36.2333 40.8246 36.28 41.1979L37.4933 48.3379C37.4933 48.4313 37.54 48.5713 37.4933 48.6646C40.48 46.1913 42.3933 42.4579 42.3933 38.2579C42.3933 37.0913 42.2533 35.9713 41.9733 34.8979Z" fill="url(#paint10_radial_559_37715)"/>
<path d="M35.8595 49.5513L29.4662 46.1913C29.1395 46.0046 28.7195 46.0046 28.3929 46.1913L21.9995 49.5513C21.9062 49.5979 21.7662 49.6446 21.6729 49.6446C23.7729 50.9979 26.2462 51.7446 28.9529 51.7446C31.6595 51.7446 34.1329 50.9513 36.2329 49.6446C36.0462 49.5979 35.9529 49.5979 35.8595 49.5513Z" fill="url(#paint11_radial_559_37715)"/>
<path opacity="0.2" d="M32.313 26.6377C34.973 27.431 37.3063 29.111 38.893 31.4443L34.3196 30.791L32.313 26.6377ZM29.793 24.771C29.8396 24.8643 29.8863 24.911 29.933 25.0043L33.153 31.491C33.3396 31.8177 33.6663 32.051 33.993 32.0977L41.1796 33.1243C41.273 33.1243 41.3663 33.171 41.4596 33.2177C39.5463 28.551 35.0663 25.0977 29.793 24.771Z" fill="#424242"/>
<path opacity="0.2" d="M25.5002 26.6377L23.4468 30.7443L18.9202 31.4443C20.5068 29.111 22.8402 27.431 25.5002 26.6377ZM28.0202 24.771C22.7002 25.0977 18.2202 28.5043 16.3535 33.2177C16.4468 33.171 16.5402 33.1243 16.6335 33.1243L23.8202 32.0977C24.1935 32.051 24.5202 31.8177 24.6602 31.491L27.8802 25.0043C27.9268 24.911 27.9735 24.8643 28.0202 24.771Z" fill="#424242"/>
<path opacity="0.2" d="M16.8199 37.8379L20.1333 41.0579L19.3399 45.6313C17.7066 43.5779 16.8199 40.9646 16.8199 38.2579C16.8199 38.1179 16.8199 37.9779 16.8199 37.8379ZM15.8399 34.8979C15.5599 35.9713 15.4199 37.0913 15.4199 38.2579C15.4199 42.4579 17.3333 46.1913 20.3199 48.6646C20.3199 48.5713 20.3199 48.4313 20.3199 48.3379L21.5333 41.1979C21.5799 40.8246 21.4866 40.4513 21.2066 40.1713L16.0266 35.1313C15.9333 35.0379 15.8866 34.9446 15.8399 34.8979Z" fill="#424242"/>
<path opacity="0.2" d="M40.9933 37.8379V38.2579C40.9933 40.9646 40.1067 43.5779 38.4733 45.6779L37.68 41.1046L40.9933 37.8379ZM41.9733 34.8979C41.9267 34.9913 41.88 35.0846 41.7867 35.1313L36.6067 40.1713C36.3267 40.4513 36.2333 40.8246 36.28 41.1979L37.4933 48.3379C37.4933 48.4313 37.54 48.5713 37.4933 48.6646C40.48 46.1913 42.3933 42.4579 42.3933 38.2579C42.3933 37.0913 42.2533 35.9713 41.9733 34.8979Z" fill="#424242"/>
<path opacity="0.2" d="M28.9062 47.4511L33.0595 49.6444C31.7529 50.1111 30.3529 50.3911 28.9062 50.3911C27.4595 50.3911 26.1062 50.1577 24.7529 49.6444L28.9062 47.4511ZM28.9062 46.0044C28.7195 46.0044 28.5329 46.0511 28.3929 46.1444L21.9995 49.5044C21.9062 49.5511 21.7662 49.5977 21.6729 49.5977C23.7729 50.9511 26.2462 51.6977 28.9529 51.6977C31.6595 51.6977 34.1329 50.9044 36.2329 49.5977C36.1395 49.5977 36.0462 49.5511 35.9062 49.5044L29.5129 46.1444C29.2795 46.0511 29.0929 46.0044 28.9062 46.0044Z" fill="#424242"/>
<defs>
<linearGradient id="paint0_linear_559_37715" x1="42.6785" y1="-2.11737" x2="28.0564" y2="21.2162" gradientUnits="userSpaceOnUse">
<stop offset="0.1848" stop-color="#1E88E5"/>
<stop offset="0.806" stop-color="#1565C0"/>
</linearGradient>
<linearGradient id="paint1_linear_559_37715" x1="41.6327" y1="1.06455" x2="29.091" y2="20.6646" gradientUnits="userSpaceOnUse">
<stop offset="0.461" stop-color="#EEEEEE"/>
<stop offset="1" stop-color="#BDBDBD"/>
</linearGradient>
<linearGradient id="paint2_linear_559_37715" x1="45.8133" y1="0.203133" x2="34.1467" y2="19.22" gradientUnits="userSpaceOnUse">
<stop offset="0.2565" stop-color="#E53935"/>
<stop offset="0.8859" stop-color="#C62828"/>
</linearGradient>
<linearGradient id="paint3_linear_559_37715" x1="15.2756" y1="-2.11555" x2="29.8977" y2="21.218" gradientUnits="userSpaceOnUse">
<stop offset="0.1355" stop-color="#64B5F6"/>
<stop offset="0.9462" stop-color="#2196F3"/>
</linearGradient>
<linearGradient id="paint4_linear_559_37715" x1="16.8705" y1="-0.992841" x2="29.4122" y2="18.607" gradientUnits="userSpaceOnUse">
<stop offset="0.2104" stop-color="#FAFAFA"/>
<stop offset="0.7737" stop-color="#E0E0E0"/>
</linearGradient>
<linearGradient id="paint5_linear_559_37715" x1="21.5479" y1="0.210973" x2="33.2146" y2="19.2279" gradientUnits="userSpaceOnUse">
<stop offset="0.2579" stop-color="#EF5350"/>
<stop offset="0.89" stop-color="#E53935"/>
</linearGradient>
<radialGradient id="paint6_radial_559_37715" cx="0" cy="0" r="1" gradientUnits="userSpaceOnUse" gradientTransform="translate(19.1062 25.1443) scale(33.8693)">
<stop offset="0.2972" stop-color="#FFEB3B"/>
<stop offset="0.9544" stop-color="#FBC02D"/>
</radialGradient>
<radialGradient id="paint7_radial_559_37715" cx="0" cy="0" r="1" gradientUnits="userSpaceOnUse" gradientTransform="translate(22.3823 26.9203) scale(25.4165 25.4165)">
<stop offset="0.0977" stop-color="#FDD835"/>
<stop offset="0.9508" stop-color="#F9A825"/>
</radialGradient>
<radialGradient id="paint8_radial_559_37715" cx="0" cy="0" r="1" gradientUnits="userSpaceOnUse" gradientTransform="translate(22.3828 26.9202) scale(25.4165 25.4165)">
<stop offset="0.0977" stop-color="#FDD835"/>
<stop offset="0.9508" stop-color="#F9A825"/>
</radialGradient>
<radialGradient id="paint9_radial_559_37715" cx="0" cy="0" r="1" gradientUnits="userSpaceOnUse" gradientTransform="translate(22.3826 26.9203) scale(25.4165 25.4165)">
<stop offset="0.0977" stop-color="#FDD835"/>
<stop offset="0.9508" stop-color="#F9A825"/>
</radialGradient>
<radialGradient id="paint10_radial_559_37715" cx="0" cy="0" r="1" gradientUnits="userSpaceOnUse" gradientTransform="translate(22.3827 26.9203) scale(25.4165 25.4165)">
<stop offset="0.0977" stop-color="#FDD835"/>
<stop offset="0.9508" stop-color="#F9A825"/>
</radialGradient>
<radialGradient id="paint11_radial_559_37715" cx="0" cy="0" r="1" gradientUnits="userSpaceOnUse" gradientTransform="translate(22.3822 26.9203) scale(25.4165 25.4165)">
<stop offset="0.0977" stop-color="#FDD835"/>
<stop offset="0.9508" stop-color="#F9A825"/>
</radialGradient>
</defs>
</svg>
