<svg width="59" height="49" viewBox="0 0 59 49" fill="none" xmlns="http://www.w3.org/2000/svg">
<path d="M51.9264 0.677734H6.50665C2.92653 0.677734 0 3.60426 0 7.18438V33.4207C0 36.874 2.8241 39.6981 6.2774 39.6981C7.24316 39.6981 7.9943 40.5517 7.86261 41.5077C7.34559 45.2829 5.33116 47.1315 5.13118 47.829C4.82389 48.9118 9.91605 49.6873 14.3839 45.3902C16.2569 43.5904 17.1543 41.8003 17.5592 40.7224C17.7933 40.1029 18.3884 39.6981 19.0517 39.6981H52.0824C55.6431 39.6981 58.5257 36.8106 58.5257 33.2549V7.28193C58.5306 3.64816 55.5601 0.677734 51.9264 0.677734Z" fill="#E0F7FA"/>
<path d="M13.9352 23.9877C16.0903 23.9877 17.8373 22.2407 17.8373 20.0856C17.8373 17.9306 16.0903 16.1836 13.9352 16.1836C11.7802 16.1836 10.0332 17.9306 10.0332 20.0856C10.0332 22.2407 11.7802 23.9877 13.9352 23.9877Z" fill="#1C8C44"/>
<path d="M13.9352 23.9877C16.0903 23.9877 17.8373 22.2407 17.8373 20.0856C17.8373 17.9306 16.0903 16.1836 13.9352 16.1836C11.7802 16.1836 10.0332 17.9306 10.0332 20.0856C10.0332 22.2407 11.7802 23.9877 13.9352 23.9877Z" fill="url(#paint0_linear_559_35966)"/>
<path d="M29.5432 23.9877C31.6982 23.9877 33.4452 22.2407 33.4452 20.0856C33.4452 17.9306 31.6982 16.1836 29.5432 16.1836C27.3881 16.1836 25.6411 17.9306 25.6411 20.0856C25.6411 22.2407 27.3881 23.9877 29.5432 23.9877Z" fill="#1C8C44"/>
<path d="M29.5432 23.9877C31.6982 23.9877 33.4452 22.2407 33.4452 20.0856C33.4452 17.9306 31.6982 16.1836 29.5432 16.1836C27.3881 16.1836 25.6411 17.9306 25.6411 20.0856C25.6411 22.2407 27.3881 23.9877 29.5432 23.9877Z" fill="url(#paint1_linear_559_35966)"/>
<path d="M44.5954 23.9877C46.7504 23.9877 48.4974 22.2407 48.4974 20.0856C48.4974 17.9306 46.7504 16.1836 44.5954 16.1836C42.4404 16.1836 40.6934 17.9306 40.6934 20.0856C40.6934 22.2407 42.4404 23.9877 44.5954 23.9877Z" fill="#1C8C44"/>
<path d="M44.5954 23.9877C46.7504 23.9877 48.4974 22.2407 48.4974 20.0856C48.4974 17.9306 46.7504 16.1836 44.5954 16.1836C42.4404 16.1836 40.6934 17.9306 40.6934 20.0856C40.6934 22.2407 42.4404 23.9877 44.5954 23.9877Z" fill="url(#paint2_linear_559_35966)"/>
<g opacity="0.2">
<path d="M13.9352 17.1591C15.5497 17.1591 16.8618 18.4712 16.8618 20.0856C16.8618 21.7001 15.5497 23.0122 13.9352 23.0122C12.3208 23.0122 11.0087 21.7001 11.0087 20.0856C11.0087 18.4712 12.3208 17.1591 13.9352 17.1591ZM13.9352 16.1836C11.7794 16.1836 10.0332 17.9298 10.0332 20.0856C10.0332 22.2415 11.7794 23.9877 13.9352 23.9877C16.0911 23.9877 17.8373 22.2415 17.8373 20.0856C17.8373 17.9298 16.0911 16.1836 13.9352 16.1836Z" fill="url(#paint3_linear_559_35966)"/>
<path d="M29.5432 17.1591C31.1576 17.1591 32.4697 18.4712 32.4697 20.0856C32.4697 21.7001 31.1576 23.0122 29.5432 23.0122C27.9287 23.0122 26.6166 21.7001 26.6166 20.0856C26.6166 18.4712 27.9287 17.1591 29.5432 17.1591ZM29.5432 16.1836C27.3873 16.1836 25.6411 17.9298 25.6411 20.0856C25.6411 22.2415 27.3873 23.9877 29.5432 23.9877C31.699 23.9877 33.4452 22.2415 33.4452 20.0856C33.4452 17.9298 31.699 16.1836 29.5432 16.1836Z" fill="url(#paint4_linear_559_35966)"/>
<path d="M44.5954 17.1591C46.2099 17.1591 47.5219 18.4712 47.5219 20.0856C47.5219 21.7001 46.2099 23.0122 44.5954 23.0122C42.9809 23.0122 41.6689 21.7001 41.6689 20.0856C41.6689 18.4712 42.9809 17.1591 44.5954 17.1591ZM44.5954 16.1836C42.4395 16.1836 40.6934 17.9298 40.6934 20.0856C40.6934 22.2415 42.4395 23.9877 44.5954 23.9877C46.7513 23.9877 48.4974 22.2415 48.4974 20.0856C48.4974 17.9298 46.7513 16.1836 44.5954 16.1836Z" fill="#D3D3D3"/>
</g>
<g opacity="0.2">
<path d="M51.9264 2.141C54.7602 2.141 57.0673 4.44808 57.0673 7.28193V33.2549C57.0673 36.0009 54.8334 38.2348 52.0873 38.2348H19.0566C17.7933 38.2348 16.6422 39.0299 16.1983 40.2102C15.813 41.2248 15.0131 42.7661 13.3742 44.3415C10.7257 46.8876 8.13575 47.1949 7.24316 47.2193C7.97967 46.0828 8.96493 44.2879 9.31611 41.7125C9.43805 40.8394 9.16979 39.9566 8.58936 39.2933C8.00893 38.625 7.16512 38.2397 6.2774 38.2397C3.61914 38.2397 1.46326 36.079 1.46326 33.4256V7.18438C1.46326 4.40418 3.72645 2.141 6.50665 2.141H51.9264ZM51.9264 0.677734H6.50665C2.92653 0.677734 0 3.60426 0 7.18438V33.4207C0 36.874 2.8241 39.6981 6.2774 39.6981C7.24316 39.6981 7.9943 40.5517 7.86261 41.5077C7.34559 45.2829 5.33116 47.1315 5.13118 47.829C5.00436 48.2777 5.81404 48.6777 7.12122 48.6777C8.95518 48.6777 11.7744 47.8973 14.3839 45.3902C16.2569 43.5904 17.1543 41.8003 17.5592 40.7224C17.7933 40.1029 18.3884 39.6981 19.0517 39.6981H52.0824C55.6431 39.6981 58.5257 36.8106 58.5257 33.2549V7.28193C58.5306 3.64816 55.5601 0.677734 51.9264 0.677734Z" fill="url(#paint5_linear_559_35966)"/>
</g>
<defs>
<linearGradient id="paint0_linear_559_35966" x1="10.8919" y1="16.611" x2="17.9985" y2="21.6417" gradientUnits="userSpaceOnUse">
<stop stop-color="#9CCC65"/>
<stop offset="0.9952" stop-color="#689F38"/>
</linearGradient>
<linearGradient id="paint1_linear_559_35966" x1="26.4998" y1="16.611" x2="33.6064" y2="21.6417" gradientUnits="userSpaceOnUse">
<stop stop-color="#9CCC65"/>
<stop offset="0.9952" stop-color="#689F38"/>
</linearGradient>
<linearGradient id="paint2_linear_559_35966" x1="41.5521" y1="16.611" x2="48.6586" y2="21.6417" gradientUnits="userSpaceOnUse">
<stop stop-color="#9CCC65"/>
<stop offset="0.9952" stop-color="#689F38"/>
</linearGradient>
<linearGradient id="paint3_linear_559_35966" x1="10.8919" y1="16.611" x2="17.9985" y2="21.6417" gradientUnits="userSpaceOnUse">
<stop stop-color="#9CCC65"/>
<stop offset="0.9952" stop-color="#689F38"/>
</linearGradient>
<linearGradient id="paint4_linear_559_35966" x1="26.4998" y1="16.611" x2="33.6064" y2="21.6417" gradientUnits="userSpaceOnUse">
<stop stop-color="#9CCC65"/>
<stop offset="0.9952" stop-color="#689F38"/>
</linearGradient>
<linearGradient id="paint5_linear_559_35966" x1="21.0758" y1="-5.13876" x2="32.4407" y2="52.9447" gradientUnits="userSpaceOnUse">
<stop stop-color="#38A4DD"/>
<stop offset="1" stop-color="#38A4DD" stop-opacity="0.5"/>
</linearGradient>
</defs>
</svg>
