<svg width="56" height="57" viewBox="0 0 56 57" fill="none" xmlns="http://www.w3.org/2000/svg">
<path d="M27.7674 9.38856L22.4521 2.38856C22.2934 2.17856 21.9667 2.36989 22.0694 2.60789L25.0467 9.70123L27.7674 9.38856Z" fill="#0277BD"/>
<path d="M22.1685 3.94342C23.0706 3.94342 23.8018 3.21216 23.8018 2.31009C23.8018 1.40803 23.0706 0.676758 22.1685 0.676758C21.2664 0.676758 20.5352 1.40803 20.5352 2.31009C20.5352 3.21216 21.2664 3.94342 22.1685 3.94342Z" fill="#039BE5"/>
<path d="M28.2354 9.38856L33.5507 2.38856C33.7094 2.17856 34.036 2.36989 33.9334 2.60789L30.956 9.70123L28.2354 9.38856Z" fill="#0277BD"/>
<path d="M33.8335 3.94342C34.7356 3.94342 35.4669 3.21216 35.4669 2.31009C35.4669 1.40803 34.7356 0.676758 33.8335 0.676758C32.9315 0.676758 32.2002 1.40803 32.2002 2.31009C32.2002 3.21216 32.9315 3.94342 33.8335 3.94342Z" fill="#039BE5"/>
<g opacity="0.19">
<path d="M22.1685 1.14342C22.8125 1.14342 23.3352 1.66609 23.3352 2.31009C23.3352 2.63209 23.2045 2.93076 22.9712 3.15476L22.7658 3.35076L22.4765 3.43009C22.3598 3.46276 22.2618 3.47676 22.1685 3.47676C21.5245 3.47676 21.0018 2.95409 21.0018 2.31009C21.0018 1.66609 21.5245 1.14342 22.1685 1.14342ZM23.2465 4.20476L26.9005 9.02076L25.3418 9.19809L23.2465 4.20476ZM22.1685 0.676758C21.2678 0.676758 20.5352 1.40942 20.5352 2.31009C20.5352 3.21076 21.2678 3.94342 22.1685 3.94342C22.3178 3.94342 22.4625 3.91542 22.6025 3.87809L25.0432 9.69742L27.7638 9.38476L23.2885 3.48609C23.6058 3.19209 23.8018 2.77676 23.8018 2.31009C23.8018 1.40942 23.0692 0.676758 22.1685 0.676758Z" fill="#424242"/>
<path d="M33.8354 1.14342C34.4794 1.14342 35.002 1.66609 35.002 2.31009C35.002 2.95409 34.4794 3.47676 33.8354 3.47676C33.742 3.47676 33.644 3.46276 33.5274 3.43009L33.2427 3.35076L33.0374 3.15476C32.7994 2.93076 32.6687 2.63209 32.6687 2.31009C32.6687 1.66609 33.1914 1.14342 33.8354 1.14342ZM32.7574 4.20476L30.662 9.19809L29.1034 9.02076L32.7574 4.20476ZM33.8354 0.676758C32.9347 0.676758 32.202 1.40942 32.202 2.31009C32.202 2.77676 32.398 3.19209 32.7107 3.49076L28.2354 9.38942L30.956 9.70209L33.3967 3.88276C33.5367 3.92009 33.6814 3.94809 33.8307 3.94809C34.7314 3.94809 35.464 3.21542 35.464 2.31476C35.4687 1.40942 34.736 0.676758 33.8354 0.676758Z" fill="#424242"/>
</g>
<path d="M4.5498 47.3442L5.7118 53.8496C6.12714 55.5109 7.62047 56.6776 9.33314 56.6776H46.6665C48.3791 56.6776 49.8725 55.5109 50.2878 53.8496L51.4498 47.3442H4.5498Z" fill="url(#paint0_linear_559_36003)"/>
<path d="M35.4685 12.8112H20.5352V11.8779C20.5352 9.8152 22.2058 8.14453 24.2685 8.14453H31.7352C33.7978 8.14453 35.4685 9.8152 35.4685 11.8779V12.8112Z" fill="#E64A19"/>
<path opacity="0.19" d="M31.7352 9.07786C33.2798 9.07786 34.5352 10.3332 34.5352 11.8779H21.4685C21.4685 10.3332 22.7238 9.07786 24.2685 9.07786H31.7352ZM31.7352 8.14453H24.2685C22.2058 8.14453 20.5352 9.8152 20.5352 11.8779V12.8112H35.4685V11.8779C35.4685 9.8152 33.7978 8.14453 31.7352 8.14453Z" fill="#424242"/>
<path d="M55.9907 32.4101V32.3961V32.3821V32.3307C56.0747 30.6507 55.6874 19.3761 51.0161 14.8634C47.3714 11.3447 37.5761 10.0007 28.0047 10.2621C18.4334 10.0054 8.63807 11.3447 4.9934 14.8634C0.312737 19.3714 -0.0745959 30.6461 0.00940411 32.3261V32.3774V32.3914V32.4054V32.4567C-0.0745959 34.1367 0.312737 45.4114 4.98407 49.9241C8.62874 53.4427 18.4241 54.7867 27.9954 54.5254C37.5667 54.7821 47.3621 53.4427 51.0067 49.9241C55.6827 45.4161 56.0701 34.1367 55.9814 32.4567C55.9907 32.4474 55.9907 32.4287 55.9907 32.4101Z" fill="url(#paint1_radial_559_36003)"/>
<path opacity="0.19" d="M30.2914 11.6305C39.7647 11.6305 47.3341 13.2545 50.0407 15.8725C54.2267 19.9091 54.6841 30.4838 54.5907 32.2618C54.5907 32.3038 54.5861 32.3458 54.5907 32.3925V32.3971V32.4018V32.5371C54.6187 33.1111 54.5907 36.2285 53.9094 39.8778C53.1207 44.1011 51.7907 47.2185 50.0594 48.9031L50.0407 48.9218L50.0174 48.9405L49.6861 49.2578L49.6067 49.7105L48.9207 53.5511C48.6454 54.5685 47.7261 55.2778 46.6667 55.2778H9.33341C8.27407 55.2778 7.35474 54.5685 7.0794 53.5511L6.3934 49.7105L6.31407 49.2578L5.98274 48.9405C5.96874 48.9265 5.95474 48.9171 5.94074 48.9031C1.76874 44.8525 1.31607 34.3058 1.4094 32.5325C1.4094 32.4905 1.41407 32.4485 1.4094 32.4018V32.3971V32.3925V32.2571C1.3814 31.6831 1.4094 28.5658 2.09074 24.9165C2.8794 20.6791 4.21874 17.5525 5.9594 15.8725C8.67074 13.2591 16.2401 11.6305 25.7087 11.6305C26.4507 11.6305 27.2114 11.6398 27.9627 11.6631H28.0001H28.0374C28.7887 11.6398 29.5447 11.6305 30.2914 11.6305ZM30.2914 10.2305C29.5307 10.2305 28.7654 10.2398 28.0001 10.2631C27.2394 10.2445 26.4741 10.2305 25.7087 10.2305C16.9027 10.2305 8.33941 11.6258 4.98407 14.8645C0.312737 19.3725 -0.0745959 30.6471 0.00940411 32.3271V32.3785V32.3925V32.4065V32.4578C-0.0745959 34.1378 0.312737 45.4125 4.98407 49.9251C4.9934 49.9345 5.0074 49.9438 5.01674 49.9531L5.71207 53.8451C6.1274 55.5111 7.62074 56.6778 9.33341 56.6778H46.6667C48.3794 56.6778 49.8727 55.5111 50.2881 53.8498L50.9834 49.9578C50.9927 49.9485 51.0067 49.9391 51.0161 49.9298C55.6921 45.4218 56.0794 34.1425 55.9907 32.4625V32.4111V32.3971V32.3831V32.3318C56.0747 30.6518 55.6874 19.3771 51.0161 14.8645C47.6561 11.6258 39.0974 10.2305 30.2914 10.2305Z" fill="#424242"/>
<path d="M29.7681 46.6425C29.1848 46.6425 28.6015 46.6332 28.0181 46.6192C27.3975 46.6332 26.8141 46.6425 26.2308 46.6425C18.7175 46.6425 12.9215 45.4198 10.7281 43.3712C7.40547 40.2632 7.04147 32.2178 7.11147 30.8645V30.8365V30.7665V30.6872C7.04147 29.3385 7.40547 21.2885 10.7281 18.1852C12.9215 16.1365 18.7175 14.9092 26.2308 14.9092C26.8141 14.9092 27.3975 14.9185 27.9808 14.9325C28.6015 14.9185 29.1848 14.9092 29.7635 14.9092C37.2768 14.9092 43.0728 16.1318 45.2661 18.1852C48.5888 21.2932 48.9528 29.3385 48.8828 30.6918V30.7898V30.8785C48.9528 32.2178 48.5841 40.2632 45.2661 43.3712C43.0775 45.4198 37.2815 46.6425 29.7681 46.6425Z" fill="url(#paint2_radial_559_36003)"/>
<path d="M29.7648 15.609C36.9981 15.609 42.7568 16.7897 44.7915 18.6937C47.7081 21.419 48.2868 28.8063 48.1888 30.6543C48.1888 30.6916 48.1841 30.7336 48.1888 30.771V30.7757V30.7803V30.9016C48.2868 32.7496 47.7081 40.1323 44.7915 42.8576C42.7568 44.7616 36.9981 45.9423 29.7648 45.9423C29.1955 45.9423 28.6121 45.933 28.0335 45.919H27.9961H27.9588C27.3801 45.933 26.8015 45.9423 26.2275 45.9423C18.9941 45.9423 13.2355 44.7616 11.2008 42.8576C8.28414 40.1323 7.70547 32.745 7.80347 30.897C7.80347 30.8597 7.80814 30.8177 7.80347 30.7803V30.7757V30.771V30.6497C7.70547 28.8017 8.28414 21.419 11.2008 18.6937C13.2355 16.7897 18.9941 15.609 26.2275 15.609C26.7968 15.609 27.3801 15.6183 27.9588 15.6323H27.9961H28.0335C28.6121 15.6183 29.1908 15.609 29.7648 15.609ZM29.7648 14.209C29.1768 14.209 28.5888 14.2183 28.0008 14.2323C27.4128 14.2183 26.8248 14.209 26.2368 14.209C19.4468 14.209 12.8435 15.2497 10.2535 17.6716C6.64614 21.041 6.34747 29.469 6.41747 30.7243V30.7617V30.771V30.7803V30.8176C6.35214 32.073 6.65081 40.501 10.2535 43.8703C12.8435 46.2923 19.4421 47.333 26.2368 47.333C26.8248 47.333 27.4128 47.3237 28.0008 47.3097C28.5888 47.3237 29.1768 47.333 29.7648 47.333C36.5548 47.333 43.1581 46.2923 45.7481 43.8703C49.3555 40.501 49.6541 32.073 49.5841 30.8176V30.7803V30.771V30.7617V30.7243C49.6495 29.469 49.3508 21.041 45.7481 17.6716C43.1581 15.2497 36.5595 14.209 29.7648 14.209Z" fill="#424242"/>
<path opacity="0.19" d="M14.4681 47.3436C14.9861 47.3436 15.5041 47.5163 15.9334 47.8616C15.9987 47.913 16.0594 47.969 16.1201 48.0296C16.1807 48.0903 16.2367 48.151 16.2881 48.2163C17.0301 49.131 16.9741 50.4796 16.1201 51.329C15.6627 51.7816 15.0654 52.0103 14.4681 52.0103C13.8707 52.0103 13.2734 51.7816 12.8161 51.329C11.9061 50.419 11.9061 48.9396 12.8161 48.0296C13.2734 47.5723 13.8707 47.3436 14.4681 47.3436ZM14.4681 46.877C13.7214 46.877 13.0167 47.1663 12.4894 47.6983C11.3974 48.7903 11.3974 50.5683 12.4894 51.6603C13.0167 52.1876 13.7214 52.477 14.4681 52.477C15.2147 52.477 15.9194 52.1876 16.4467 51.6556C17.4594 50.643 17.5481 49.033 16.6474 47.9176C16.5821 47.8383 16.5167 47.7636 16.4467 47.6936C16.3767 47.6236 16.3021 47.5583 16.2227 47.493C15.7281 47.0963 15.1074 46.877 14.4681 46.877Z" fill="#424242"/>
<path d="M14.7591 49.499L14.6424 49.3823C14.5771 49.317 14.5771 49.2096 14.6424 49.1443L15.9304 47.8563C15.0158 47.1143 13.6671 47.1703 12.8178 48.0243C11.9078 48.9343 11.9078 50.4136 12.8178 51.3236C13.7278 52.2336 15.2071 52.2336 16.1171 51.3236C16.9664 50.4743 17.0224 49.1256 16.2851 48.211L14.9971 49.499C14.9318 49.5643 14.8244 49.5643 14.7591 49.499Z" fill="url(#paint3_radial_559_36003)"/>
<path d="M15.9332 47.8613L14.6452 49.1493C14.5799 49.2147 14.5799 49.322 14.6452 49.3873L14.7619 49.504C14.8272 49.5693 14.9345 49.5693 14.9999 49.504L16.2879 48.216C16.2365 48.1507 16.1805 48.09 16.1199 48.0293C16.0592 47.9687 15.9939 47.9127 15.9332 47.8613Z" fill="#FFA000"/>
<path opacity="0.19" d="M41.531 47.3436C42.1283 47.3436 42.7257 47.5723 43.1783 48.025C44.0883 48.935 44.0883 50.4143 43.1783 51.3243C42.7257 51.7816 42.1283 52.0103 41.531 52.0103C40.9337 52.0103 40.3363 51.7816 39.879 51.329C39.0297 50.4796 38.9737 49.131 39.711 48.2163C39.7623 48.151 39.8183 48.0903 39.879 48.0296C39.9397 47.969 40.0003 47.913 40.0657 47.8616C40.495 47.5163 41.013 47.3436 41.531 47.3436ZM41.531 46.877C40.8917 46.877 40.2663 47.0963 39.7717 47.4976C39.6923 47.563 39.6177 47.6283 39.5477 47.6983C39.4777 47.7683 39.4123 47.8383 39.347 47.9223C38.4463 49.0376 38.5303 50.643 39.5477 51.6603C40.0797 52.1876 40.7843 52.477 41.531 52.477C42.2777 52.477 42.9823 52.1876 43.5097 51.6556C44.6017 50.5636 44.6017 48.7856 43.5097 47.6936C42.9823 47.1663 42.2777 46.877 41.531 46.877Z" fill="#424242"/>
<path d="M41.2402 49.499L41.3568 49.3823C41.4222 49.317 41.4222 49.2096 41.3568 49.1443L40.0688 47.8563C40.9835 47.1143 42.3322 47.1703 43.1815 48.0243C44.0915 48.9343 44.0915 50.4136 43.1815 51.3236C42.2715 52.2336 40.7922 52.2336 39.8822 51.3236C39.0328 50.4743 38.9768 49.1256 39.7142 48.211L41.0022 49.499C41.0675 49.5643 41.1748 49.5643 41.2402 49.499Z" fill="url(#paint4_radial_559_36003)"/>
<path d="M40.0685 47.8613L41.3565 49.1493C41.4219 49.2147 41.4219 49.322 41.3565 49.3873L41.2399 49.504C41.1745 49.5693 41.0672 49.5693 41.0019 49.504L39.7139 48.216C39.7652 48.1507 39.8212 48.09 39.8819 48.0293C39.9425 47.9687 40.0079 47.9127 40.0685 47.8613Z" fill="#FFA000"/>
<path d="M52.8987 26.9631H51.1674C50.9107 26.9631 50.7007 26.7531 50.7007 26.4965C50.7007 26.2398 50.9107 26.0298 51.1674 26.0298H52.8987C53.1553 26.0298 53.3653 26.2398 53.3653 26.4965C53.3653 26.7578 53.1553 26.9631 52.8987 26.9631Z" fill="#D84315"/>
<path d="M52.8987 30.3103H51.1674C50.9107 30.3103 50.7007 30.1003 50.7007 29.8436C50.7007 29.587 50.9107 29.377 51.1674 29.377H52.8987C53.1553 29.377 53.3653 29.587 53.3653 29.8436C53.3653 30.1003 53.1553 30.3103 52.8987 30.3103Z" fill="#D84315"/>
<path d="M53.2565 28.6394H50.8065C50.5498 28.6394 50.3398 28.4294 50.3398 28.1727C50.3398 27.9161 50.5498 27.7061 50.8065 27.7061H53.2565C53.5132 27.7061 53.7232 27.9161 53.7232 28.1727C53.7232 28.4294 53.5178 28.6394 53.2565 28.6394Z" fill="#D84315"/>
<path d="M52.8987 31.9807H51.1674C50.9107 31.9807 50.7007 31.7707 50.7007 31.514C50.7007 31.2574 50.9107 31.0474 51.1674 31.0474H52.8987C53.1553 31.0474 53.3653 31.2574 53.3653 31.514C53.3653 31.7754 53.1553 31.9807 52.8987 31.9807Z" fill="#D84315"/>
<path d="M52.8987 35.3279H51.1674C50.9107 35.3279 50.7007 35.1179 50.7007 34.8612C50.7007 34.6045 50.9107 34.3945 51.1674 34.3945H52.8987C53.1553 34.3945 53.3653 34.6045 53.3653 34.8612C53.3653 35.1179 53.1553 35.3279 52.8987 35.3279Z" fill="#D84315"/>
<path d="M53.2565 33.657H50.8065C50.5498 33.657 50.3398 33.447 50.3398 33.1903C50.3398 32.9336 50.5498 32.7236 50.8065 32.7236H53.2565C53.5132 32.7236 53.7232 32.9336 53.7232 33.1903C53.7232 33.447 53.5178 33.657 53.2565 33.657Z" fill="#D84315"/>
<path d="M4.95435 26.9631H3.22301C2.96635 26.9631 2.75635 26.7531 2.75635 26.4965C2.75635 26.2398 2.96635 26.0298 3.22301 26.0298H4.95435C5.21101 26.0298 5.42101 26.2398 5.42101 26.4965C5.42101 26.7578 5.21101 26.9631 4.95435 26.9631Z" fill="#D84315"/>
<path d="M4.95435 30.3103H3.22301C2.96635 30.3103 2.75635 30.1003 2.75635 29.8436C2.75635 29.587 2.96635 29.377 3.22301 29.377H4.95435C5.21101 29.377 5.42101 29.587 5.42101 29.8436C5.42101 30.1003 5.21101 30.3103 4.95435 30.3103Z" fill="#D84315"/>
<path d="M5.31217 28.6394H2.86217C2.60551 28.6394 2.39551 28.4294 2.39551 28.1727C2.39551 27.9161 2.60551 27.7061 2.86217 27.7061H5.31217C5.56884 27.7061 5.77884 27.9161 5.77884 28.1727C5.77884 28.4294 5.56884 28.6394 5.31217 28.6394Z" fill="#D84315"/>
<path d="M4.95435 31.9807H3.22301C2.96635 31.9807 2.75635 31.7707 2.75635 31.514C2.75635 31.2574 2.96635 31.0474 3.22301 31.0474H4.95435C5.21101 31.0474 5.42101 31.2574 5.42101 31.514C5.42101 31.7754 5.21101 31.9807 4.95435 31.9807Z" fill="#D84315"/>
<path d="M4.95435 35.3279H3.22301C2.96635 35.3279 2.75635 35.1179 2.75635 34.8612C2.75635 34.6045 2.96635 34.3945 3.22301 34.3945H4.95435C5.21101 34.3945 5.42101 34.6045 5.42101 34.8612C5.42101 35.1179 5.21101 35.3279 4.95435 35.3279Z" fill="#D84315"/>
<path d="M5.31217 33.657H2.86217C2.60551 33.657 2.39551 33.447 2.39551 33.1903C2.39551 32.9336 2.60551 32.7236 2.86217 32.7236H5.31217C5.56884 32.7236 5.77884 32.9336 5.77884 33.1903C5.77884 33.447 5.56884 33.657 5.31217 33.657Z" fill="#D84315"/>
<defs>
<linearGradient id="paint0_linear_559_36003" x1="27.9998" y1="51.6609" x2="27.9998" y2="57.8442" gradientUnits="userSpaceOnUse">
<stop stop-color="#BF360C"/>
<stop offset="0.3266" stop-color="#C3380D"/>
<stop offset="0.6377" stop-color="#CE3E11"/>
<stop offset="0.9418" stop-color="#E14817"/>
<stop offset="1" stop-color="#E64A19"/>
</linearGradient>
<radialGradient id="paint1_radial_559_36003" cx="0" cy="0" r="1" gradientUnits="userSpaceOnUse" gradientTransform="translate(27.8834 10.4413) scale(42.8722 44.2398)">
<stop stop-color="#FF8A65"/>
<stop offset="0.5688" stop-color="#FF6E41"/>
<stop offset="1" stop-color="#FF5722"/>
</radialGradient>
<radialGradient id="paint2_radial_559_36003" cx="0" cy="0" r="1" gradientUnits="userSpaceOnUse" gradientTransform="translate(27.9123 15.0612) scale(31.7633)">
<stop stop-color="#B3E5FC"/>
<stop offset="0.2909" stop-color="#B3E5FC"/>
<stop offset="1" stop-color="#4FC3F7"/>
</radialGradient>
<radialGradient id="paint3_radial_559_36003" cx="0" cy="0" r="1" gradientUnits="userSpaceOnUse" gradientTransform="translate(14.354 47.3986) scale(4.67902)">
<stop stop-color="#FDD835"/>
<stop offset="0.2649" stop-color="#FDD434"/>
<stop offset="0.5026" stop-color="#FCCA30"/>
<stop offset="0.6335" stop-color="#FBC02D"/>
<stop offset="1" stop-color="#F9A825"/>
</radialGradient>
<radialGradient id="paint4_radial_559_36003" cx="0" cy="0" r="1" gradientUnits="userSpaceOnUse" gradientTransform="translate(41.6457 47.3986) rotate(180) scale(4.67902)">
<stop stop-color="#FDD835"/>
<stop offset="0.2649" stop-color="#FDD434"/>
<stop offset="0.5026" stop-color="#FCCA30"/>
<stop offset="0.6335" stop-color="#FBC02D"/>
<stop offset="1" stop-color="#F9A825"/>
</radialGradient>
</defs>
</svg>
