<svg width="49" height="49" viewBox="0 0 49 49" fill="none" xmlns="http://www.w3.org/2000/svg">
<path d="M36.4998 48.0664C36.5801 41.4845 41.958 36.1868 48.5399 36.1868H48.6202V0.0664062C48.5801 0.0664062 48.5801 0.0664062 48.5399 0.0664062C21.9714 0.0664062 0.459662 21.538 0.379395 48.0664H36.4998Z" fill="#F44336"/>
<path d="M36.4997 48.0664C36.58 41.4844 41.9579 36.1868 48.5398 36.1868H48.6201V6.08643C48.4596 6.08643 48.299 6.08643 48.1385 6.08643C24.9011 6.08643 6.07831 24.869 5.99805 48.0664H36.4997Z" fill="#FF9800"/>
<path d="M36.4997 48.0666C36.58 41.4846 41.9579 36.187 48.5398 36.187H48.6201V12.1067C48.58 12.1067 48.58 12.1067 48.5398 12.1067C28.6335 12.1067 12.4997 28.2003 12.4194 48.0666H36.4997Z" fill="#FFEB3B"/>
<path d="M36.4997 48.0665C36.5799 41.4846 41.9578 36.1869 48.5398 36.1869H48.6201V18.1267C48.5799 18.1267 48.5799 18.1267 48.5398 18.1267C31.9645 18.1267 18.5197 31.5314 18.4395 48.0665H36.4997Z" fill="#8BC34A"/>
<path d="M36.5001 48.0665C36.5804 41.4845 41.9583 36.1869 48.5402 36.1869H48.6205V24.1467C48.5804 24.1467 48.5804 24.1467 48.5402 24.1467C35.2961 24.1467 24.5402 34.8223 24.46 48.0665H36.5001Z" fill="#2196F3"/>
<path d="M36.5 48.0664C36.5803 41.4845 41.9582 36.1868 48.5402 36.1868H48.6204V30.1667C48.5803 30.1667 48.5803 30.1667 48.5402 30.1667C38.6271 30.1667 30.5602 38.1534 30.48 48.0664H36.5Z" fill="#673AB7"/>
<path opacity="0.2" d="M1.98475 48.0664C2.02488 35.7052 6.88107 24.0664 15.6302 15.3172C24.4195 6.52794 36.0985 1.67176 48.5399 1.67176H48.6202V0.0664062C48.5801 0.0664062 48.5801 0.0664062 48.5399 0.0664062C21.9714 0.0664062 0.459662 21.538 0.379395 48.0664H1.98475Z" fill="#424242"/>
<path opacity="0.2" d="M36.9013 48.0665C36.9816 41.7254 42.1589 36.5883 48.5 36.5883H48.5803V34.9829C48.5401 34.9829 48.5401 34.9829 48.5 34.9829C41.2358 34.9829 35.3763 40.8023 35.2559 48.0665H36.9013Z" fill="#424242"/>
</svg>
