<svg width="51" height="50" viewBox="0 0 51 50" fill="none" xmlns="http://www.w3.org/2000/svg">
<path d="M31.229 10.9644L35.2787 5.36621" stroke="#B0BEC5" stroke-width="2.88827" stroke-miterlimit="10" stroke-linecap="round" stroke-linejoin="round"/>
<path d="M19.0174 10.9269L15.2153 6.05469" stroke="#B0BEC5" stroke-width="2.88827" stroke-miterlimit="10" stroke-linecap="round" stroke-linejoin="round"/>
<path d="M25.0518 9.32383L25.0685 1.67773" stroke="#B0BEC5" stroke-width="2.88827" stroke-miterlimit="10" stroke-linecap="round" stroke-linejoin="round"/>
<path d="M14.821 41.7714C15.207 41.0244 17.4018 40.8943 18.9881 36.9286C19.8064 34.8849 19.177 32.6397 22.8489 31.385C24.1876 30.9275 24.5947 28.3341 22.1397 28.3341C17.385 28.3341 16.4366 31.5067 16.4366 31.5067C16.4366 31.5067 16.2813 19.3913 16.2058 17.5322C16.1471 16.1054 15.4924 14.8968 14.6489 14.6911C13.2053 14.3428 12.5171 15.4046 12.5171 15.4046C12.5171 15.4046 12.5003 15.0688 12.5003 13.7217C12.5003 11.8459 11.4679 11.1493 10.2887 11.0653C9.10527 10.9814 7.84211 11.6738 7.76657 13.5916L7.82532 14.8422C7.82532 14.8422 7.38469 14.1792 6.04599 14.0868C4.98846 14.0155 4.31702 14.8254 4.2121 16.0047L3.93933 17.8595C3.93933 17.8595 3.57843 17.6833 2.55028 17.9686C1.32069 18.3127 1.24515 20.4698 1.24515 20.4698C1.24515 20.4698 0.838089 26.1645 0.426828 33.1265C0.183429 37.2307 2.32786 40.4663 3.26788 41.7378C3.82183 42.4848 3.44833 47.7473 3.29306 49.6777H14.6279C14.502 48.2425 14.3719 45.1035 14.3635 44.902C14.3383 43.8948 14.3593 42.6695 14.821 41.7714Z" fill="url(#paint0_radial_559_35745)"/>
<path d="M15.2322 42.1997C15.7106 41.3981 17.1626 40.8904 18.3124 39.3334C19.3406 37.9402 19.7099 36.1021 19.8232 35.5775C20.1547 34.0584 20.4443 32.7449 22.9874 31.8762C23.8728 31.5656 24.4645 30.5249 24.3051 29.5513C24.1456 28.5945 23.3399 28.0238 22.1439 28.0238C19.2147 28.0238 17.2087 29.459 16.7093 30.3528C16.596 27.709 16.4911 17.503 16.4869 17.4695C16.2771 15.3418 15.8574 14.4857 14.8503 14.0955C14.0823 13.7975 13.264 14.0199 12.6765 14.4018C12.6765 14.4018 12.9828 10.6543 10.318 10.6543C7.3049 10.6543 7.44758 13.9947 7.44758 14.0199C7.09087 13.8185 6.61247 13.6338 6.02495 13.6758C3.49864 13.8521 3.61194 17.2806 3.61194 17.2806C3.03702 17.1296 1.27027 16.8778 0.812852 19.3663C0.582042 20.6211 0.0197063 33.0974 0.0197063 33.0974C-0.219496 37.168 1.77806 40.4119 2.80621 41.801L2.9405 41.9815C3.26783 42.4263 3.1797 47.0467 2.90273 49.6779H3.72525C3.92668 47.7391 4.20785 42.3172 3.59096 41.4863L3.45667 41.3058C2.47888 39.9923 0.607222 36.9162 0.829638 33.1393L1.47171 20.256C1.64377 17.4905 3.54899 17.7842 3.63293 18.7284V28.0741C3.25524 28.3091 3.03702 28.477 3.00344 28.5022C2.82719 28.6407 2.79362 28.8966 2.9363 29.0771C3.01603 29.1778 3.13773 29.2324 3.25943 29.2324C3.34756 29.2324 3.43569 29.203 3.51123 29.1442C3.5448 29.1191 6.56211 26.962 11.577 26.6893C11.577 26.6893 12.4247 26.5424 12.4373 25.4849C12.4373 25.3086 12.559 17.2219 12.5799 16.4707C12.6051 15.5936 13.4822 14.6746 14.502 15.0691C15.2028 15.3418 15.3706 15.8538 15.5763 17.545C15.5805 17.5996 15.5847 30.8396 15.5847 30.8396C11.1195 31.3013 9.14718 32.8876 8.20715 36.5931C8.12322 36.9204 8.20296 37.0379 8.37082 37.2016C8.3876 37.2142 8.66038 37.2771 8.85761 36.7022C10.0201 33.366 12.1225 32.6358 14.0194 32.2623C14.653 32.1364 15.1986 32.1867 15.7232 32.0818C17.3136 32.0818 17.5151 28.9974 22.1439 28.8421C22.9286 28.8169 23.407 29.14 23.4993 29.6856C23.5917 30.2605 23.2266 30.9194 22.7188 31.0956C19.7392 32.1154 19.3741 33.7814 19.0216 35.3971C18.9125 35.8881 18.7908 36.3917 18.6104 36.8743C17.5528 39.7237 15.1147 40.7183 14.46 41.6793C13.927 42.4683 13.8515 43.8867 13.9564 45.0072C14.0361 45.8968 14.1201 48.7169 14.1662 49.6779H15.1398C15.0097 48.0622 14.7873 45.2464 14.7747 44.9946C14.7538 43.9874 14.8335 42.8627 15.2322 42.1997ZM7.45177 26.4207C6.19701 26.7816 5.18564 27.2222 4.45125 27.6083L4.46804 16.6176C4.50161 15.5768 4.93805 14.5571 6.06692 14.4941C6.79292 14.4606 7.28811 14.8844 7.45177 15.0397V26.4207ZM11.5812 25.7492C10.2047 25.7912 9.35281 25.9507 8.2701 26.2067V13.9863C8.35403 12.9288 8.81145 11.4684 10.2593 11.4684C11.6022 11.4684 11.7071 12.7903 11.7071 14.1962C11.7071 15.5391 11.5812 25.7492 11.5812 25.7492Z" fill="#EDA600"/>
<path d="M46.8027 41.738C47.7427 40.4665 49.8872 37.2309 49.6438 33.1267C49.2325 26.1689 48.8254 20.4742 48.8254 20.4742C48.8254 20.4742 48.7499 18.3171 47.5203 17.973C46.4922 17.6877 46.1313 17.8639 46.1313 17.8639L45.8585 16.009C45.7536 14.8298 45.0821 14.0199 44.0246 14.0912C42.6859 14.1836 42.2453 14.8466 42.2453 14.8466L42.304 13.596C42.2285 11.6782 40.9653 10.9858 39.7819 11.0697C38.6027 11.1537 37.5703 11.8503 37.5703 13.7261C37.5703 15.0732 37.5535 15.4089 37.5535 15.4089C37.5535 15.4089 36.8653 14.3472 35.4217 14.6955C34.5782 14.9012 33.9235 16.1098 33.8648 17.5366C33.7892 19.3957 33.634 31.5111 33.634 31.5111C33.634 31.5111 32.6856 28.3385 27.9309 28.3385C25.4759 28.3385 25.883 30.9319 27.2217 31.3894C30.8936 32.6441 30.2641 34.8893 31.0825 36.933C32.6688 40.8987 34.8636 41.0288 35.2496 41.7758C35.7113 42.6738 35.7322 43.8992 35.7071 44.9064C35.6987 45.1078 35.5728 48.2385 35.4469 49.6779H46.7817C46.6223 47.7475 46.2488 42.485 46.8027 41.738Z" fill="url(#paint1_radial_559_35745)"/>
<path d="M47.1345 41.9771L47.2687 41.7966C48.3011 40.4117 50.2945 37.1678 50.0553 33.093C50.0553 33.093 49.4929 20.6167 49.2621 19.3619C48.8047 16.8692 47.0379 17.1252 46.463 17.2762C46.463 17.2762 46.5763 13.8477 44.05 13.6714C43.4667 13.6294 42.9841 13.8099 42.6274 14.0155C42.6274 13.9862 42.7701 10.6499 39.7569 10.6499C37.0921 10.6499 37.3985 14.3974 37.3985 14.3974C36.811 14.0155 35.9927 13.7931 35.2247 14.0911C34.2175 14.4813 33.7979 15.3374 33.588 17.4651C33.5838 17.5028 33.4831 27.7046 33.3656 30.3485C32.8662 29.4546 30.8561 28.0194 27.9311 28.0194C26.7351 28.0194 25.9294 28.5901 25.7699 29.5469C25.6062 30.5247 26.1979 31.5654 27.0876 31.8718C29.6307 32.7405 29.9161 34.054 30.2518 35.5731C30.3651 36.0977 30.7344 37.9358 31.7625 39.329C32.9166 40.8902 34.3686 41.3979 34.8428 42.1953C35.2373 42.8583 35.317 43.983 35.296 44.9902C35.2918 45.242 35.0652 48.062 34.9351 49.6777H35.9087C35.9591 48.7125 36.0388 45.9008 36.1185 45.0154C36.2235 43.8907 36.1479 42.4722 35.615 41.6875C34.9603 40.7265 32.5221 39.7319 31.4646 36.8825C31.2841 36.3999 31.1624 35.8963 31.0533 35.4053C30.7008 33.7896 30.3357 32.1236 27.3562 31.1038C26.8442 30.9192 26.4791 30.2603 26.5756 29.6854C26.6679 29.144 27.1463 28.8167 27.9311 28.8419C32.5599 28.9972 32.7655 32.0816 34.3518 32.0816C34.8764 32.1865 35.4219 32.1362 36.0556 32.2621C37.9524 32.6356 40.0549 33.3658 41.2173 36.702C41.4188 37.2769 41.6915 37.2182 41.7041 37.2014C41.872 37.0377 41.9517 36.9202 41.8678 36.5929C40.9236 32.8874 38.9554 31.3011 34.4903 30.8394C34.4903 30.8394 34.4945 17.5994 34.4987 17.5448C34.7043 15.8578 34.8764 15.3416 35.573 15.0689C36.5886 14.6744 37.4698 15.5976 37.495 16.4705C37.516 17.2217 37.6377 25.3084 37.6377 25.4847C37.6461 26.5422 38.498 26.6891 38.498 26.6891C43.5086 26.9618 46.5302 29.1147 46.5637 29.144C46.6393 29.2028 46.7274 29.2322 46.8155 29.2322C46.9372 29.2322 47.0589 29.1776 47.1387 29.0769C47.2771 28.9006 47.2478 28.6447 47.0715 28.502C47.0379 28.4768 46.8197 28.3089 46.442 28.0739V18.7282C46.526 17.784 48.4312 17.4861 48.5991 20.2642L49.2411 33.1475C49.4635 36.9244 47.5919 40.0005 46.6141 41.314L46.4798 41.4945C45.8629 42.3254 46.1441 47.7305 46.3455 49.6777H47.1722C46.8953 47.0507 46.8029 42.4261 47.1345 41.9771ZM41.8007 26.2065C40.7221 25.9505 39.8661 25.791 38.4896 25.749C38.4896 25.749 38.3637 15.5389 38.3637 14.196C38.3637 12.7901 38.4728 11.4682 39.8115 11.4682C41.2593 11.4682 41.7167 12.9286 41.8007 13.9862V26.2065ZM42.619 26.4205V15.0395C42.7785 14.88 43.2778 14.4562 44.0038 14.4939C45.1327 14.5569 45.5692 15.5766 45.6027 16.6174L45.6195 27.6081C44.8851 27.222 43.8737 26.7814 42.619 26.4205Z" fill="#EDA600"/>
<defs>
<radialGradient id="paint0_radial_559_35745" cx="0" cy="0" r="1" gradientUnits="userSpaceOnUse" gradientTransform="translate(8.30537 35.6939) scale(24.5449 24.5449)">
<stop offset="0.4345" stop-color="#FFCA28"/>
<stop offset="0.8723" stop-color="#FFB300"/>
</radialGradient>
<radialGradient id="paint1_radial_559_35745" cx="0" cy="0" r="1" gradientUnits="userSpaceOnUse" gradientTransform="translate(34.0494 35.6997) scale(24.5438 24.5438)">
<stop offset="0.4345" stop-color="#FFCA28"/>
<stop offset="0.8723" stop-color="#FFB300"/>
</radialGradient>
</defs>
</svg>
