<svg width="50" height="49" viewBox="0 0 50 49" fill="none" xmlns="http://www.w3.org/2000/svg">
<path d="M49.2387 24.0881L43.3847 22.2012C39.6403 20.9657 37.4467 17.9357 36.4171 14.1283L33.841 1.57993C33.7738 1.33199 33.6099 1 33.1056 1C32.6811 1 32.4374 1.33199 32.3702 1.57993L29.7941 14.1326C28.7603 17.9399 26.5708 20.9699 22.8265 22.2054L16.9725 24.0923C16.1446 24.3612 16.132 25.5295 16.9557 25.8111L22.8517 27.8408C26.5834 29.0805 28.7603 32.1063 29.7941 35.8969L32.3744 48.3066C32.4416 48.5545 32.5803 49 33.1098 49C33.6687 49 33.778 48.5545 33.8452 48.3066L36.4255 35.8969C37.4593 32.1021 39.6361 29.0763 43.3679 27.8408L49.2639 25.8111C50.0791 25.5253 50.0665 24.357 49.2387 24.0881Z" fill="#FDD835"/>
<path d="M49.7933 24.6136C49.7009 24.3825 49.5202 24.1807 49.2386 24.0883L43.3847 22.2014C39.6403 20.9659 37.4466 17.936 36.4171 14.1286L33.841 1.58015C33.8031 1.43727 33.6687 1.17672 33.5132 1.10107L34.3453 13.6957C34.963 19.4446 35.4925 22.151 40.0816 22.941C44.0234 23.6218 48.5831 24.4035 49.7933 24.6136Z" fill="#FFEE58"/>
<path d="M49.8061 25.269L39.653 27.5972C36.0768 28.5049 34.1058 30.5767 34.1058 35.9978L33.1099 49.0001C33.4503 48.9665 33.7276 48.7816 33.8453 48.3067L36.4256 35.897C37.4594 32.1022 39.6362 29.0764 43.368 27.8409L49.264 25.8112C49.5413 25.7103 49.7178 25.5044 49.8061 25.269Z" fill="#F4B400"/>
<path d="M15.7118 35.0061C12.2112 33.8504 11.8918 32.5476 11.3035 30.3498L9.83683 25.206C9.74858 24.874 8.88288 24.874 8.79043 25.206L7.79446 29.959C7.20192 32.1484 5.94119 33.8882 3.78956 34.5984L0.360385 36.0861C-0.114488 36.2416 -0.122893 36.914 0.35198 37.0736L3.80637 38.2966C5.9496 39.0068 7.20192 40.7466 7.79866 42.9276L8.79463 47.4746C8.88709 47.8066 9.74858 47.8066 9.83683 47.4746L11.0051 42.9486C11.5976 40.755 12.5054 39.011 15.4176 38.2966L18.6619 37.0736C19.1368 36.9098 19.1326 36.2374 18.6535 36.0819L15.7118 35.0061Z" fill="#FDD835"/>
<path d="M10.114 30.274C10.4712 33.5771 10.6519 34.4932 13.3289 35.1782L18.9055 36.2666C18.8467 36.1868 18.7626 36.1196 18.6491 36.0859L15.7075 35.0059C12.6355 33.9553 11.7866 32.619 11.2109 29.9462C10.6351 27.2735 10.0216 25.5295 10.0216 25.5295C9.80726 24.9537 9.50049 24.9832 9.50049 24.9832L10.114 30.274Z" fill="#FFEE58"/>
<path d="M10.2152 41.8056C10.2152 38.6916 11.9172 37.1494 14.6235 37.1494L18.8343 36.9771C18.8343 36.9771 18.5906 37.3006 18.1661 37.4015L15.4178 38.2966C13.0854 39.2337 12.0222 39.7044 11.2994 42.8941C11.2994 42.8941 10.3665 46.6048 10.19 46.9956C9.94622 47.5419 9.65625 47.6554 9.65625 47.6554L10.2152 41.8056Z" fill="#F4B400"/>
<path d="M23.2469 10.3506C23.4823 10.2707 23.4739 9.93453 23.2343 9.8673L19.9901 8.99319C19.3093 8.80829 18.7798 8.28298 18.5865 7.6064L17.3089 2.33236C17.2459 2.07602 16.8803 2.07602 16.8172 2.33657L15.6154 7.58959C15.4304 8.28719 14.8841 8.8251 14.1865 9.0058L10.9633 9.84208C10.7237 9.90512 10.7069 10.2413 10.9423 10.3254L14.342 11.502C14.9514 11.7122 15.422 12.208 15.607 12.8258L16.8214 17.6964C16.8845 17.9485 17.2459 17.9527 17.3089 17.6964L18.5655 12.809C18.7546 12.1912 19.2294 11.6995 19.843 11.4936L23.2469 10.3506Z" fill="#F4B400" stroke="#F4B400" stroke-width="2.90433" stroke-miterlimit="10"/>
</svg>
