<svg width="39" height="47" viewBox="0 0 39 47" fill="none" xmlns="http://www.w3.org/2000/svg">
<path d="M16.7746 21.4229C17.275 21.7492 17.1344 22.627 16.553 22.7804C14.6362 23.2918 5.4363 25.2232 3.22421 37.7686L2.76068 40.075L28.8603 44.7233L29.2551 42.3835C31.5097 29.5968 23.4255 24.8984 21.7901 23.7536C21.2997 23.4112 21.4644 22.5376 22.0462 22.4021C23.948 21.9557 33.027 19.8429 35.0167 8.55897L35.5802 6.63273L9.47656 1.9873L9.34123 4.085C7.41355 15.0174 15.1339 20.3482 16.7746 21.4229Z" fill="url(#paint0_linear_559_37640)"/>
<path d="M27.3808 40.9625C27.2701 37.862 26.5542 35.735 23.8349 35.2555L18.2342 34.268L20.3183 22.4285C20.861 19.3507 28.9144 19.8504 29.6771 15.525L12.1152 12.439C11.3798 16.6093 19.0274 19.0879 18.4896 22.138L16.4179 33.9477L10.9448 32.9826C8.2048 32.4995 6.78876 34.2825 5.63947 37.1929L4.24901 40.6649L27.5229 44.8327L27.3808 40.9625Z" fill="url(#paint1_linear_559_37640)"/>
<path opacity="0.2" d="M10.4482 3.2283L34.2399 7.4625L34.0028 8.26292C33.9927 8.30023 33.9825 8.33753 33.9759 8.37544C32.7562 15.2926 28.5517 19.7894 21.8003 21.378C21.1332 21.534 20.6153 22.093 20.4797 22.8011C20.3442 23.5093 20.62 24.2225 21.1837 24.6133C21.2688 24.6745 21.3706 24.7422 21.4884 24.8198C23.6548 26.2786 30.242 30.7201 28.2165 42.2074L27.9989 43.5017L4.00108 39.2276L4.25391 37.9751L4.25817 37.951C5.11748 33.0776 7.16354 29.3338 10.3459 26.8246C12.8861 24.8133 15.474 24.1431 16.5797 23.8583C16.6691 23.835 16.751 23.8139 16.8254 23.795C17.4893 23.6171 17.9918 23.0448 18.1067 22.333C18.2215 21.6211 17.9254 20.9222 17.3525 20.5439C14.6991 18.8039 8.70579 13.735 10.3752 4.26731C10.3819 4.2294 10.3851 4.19088 10.3884 4.15236L10.4482 3.2283ZM9.47656 1.9873L9.34123 4.085C7.41355 15.0174 15.1339 20.3482 16.7746 21.4229C17.275 21.7492 17.1344 22.627 16.553 22.7804C14.6362 23.2918 5.4363 25.2232 3.22421 37.7686L2.76068 40.075L28.8569 44.7227L29.2517 42.3829C31.5063 29.5962 23.4221 24.8978 21.7867 23.753C21.2962 23.4106 21.4609 22.537 22.0427 22.4015C23.9445 21.9551 33.0236 19.8423 35.0133 8.55836L35.5768 6.63212L9.47656 1.9873Z" fill="#424242"/>
<path d="M9.36827 0.365846L36.2375 5.10361C37.3852 5.30598 38.1482 6.40002 37.9465 7.54427C37.7441 8.69197 36.65 9.45501 35.5058 9.25325L8.63658 4.51548C7.48888 4.31311 6.72585 3.21907 6.92761 2.07482C7.12937 0.930565 8.22402 0.164084 9.36827 0.365846Z" fill="#795548"/>
<path opacity="0.2" d="M36.0552 6.13757C36.6307 6.23906 37.0134 6.78983 36.9125 7.36196C36.811 7.93753 36.2602 8.32016 35.6881 8.21928L8.8189 3.48152C8.24332 3.38003 7.86069 2.82926 7.96157 2.25713C8.06245 1.68501 8.61383 1.29893 9.18596 1.39981L36.0552 6.13757ZM36.2375 5.10361L9.36827 0.365846C8.22402 0.164084 7.12937 0.930565 6.92761 2.07482C6.72524 3.22251 7.49233 4.31372 8.63658 4.51548L35.5058 9.25325C36.6535 9.45562 37.7447 8.68853 37.9465 7.54427C38.1482 6.40002 37.3817 5.30538 36.2375 5.10361Z" fill="#424242"/>
<path opacity="0.2" d="M28.775 16.0872C28.077 17.5669 26.0719 18.2972 24.1211 19.0015C21.9723 19.7811 19.9446 20.5181 19.6262 22.3241L17.5421 34.1636C17.4753 34.5427 17.7338 34.8904 18.1129 34.9572L23.7135 35.9448C25.7608 36.3057 26.5626 37.6838 26.6794 40.9916L26.7934 43.9932L5.22087 40.1325L6.29437 37.4504C7.50385 34.3801 8.77625 33.3109 10.8235 33.6719L16.2966 34.637C16.4793 34.6692 16.6648 34.645 16.8154 34.5365C16.9694 34.4287 17.071 34.276 17.1032 34.0933L19.1767 22.2733C19.4933 20.4777 17.8433 19.0531 16.0945 17.5436C14.5467 16.2045 12.952 14.8288 12.7825 13.2708L28.775 16.0872ZM29.6761 15.5318L12.1148 12.4424C11.3794 16.6127 19.0271 19.0912 18.4898 22.138L16.4181 33.9476L10.945 32.9826C8.20504 32.4995 6.789 34.2825 5.63971 37.1929L4.24925 40.6649L27.5219 44.8395L27.3776 40.9619C27.2704 37.8619 26.5544 35.7349 23.8351 35.2555L18.2345 34.2679L20.3185 22.4284C20.8612 19.3507 28.9128 19.8607 29.6761 15.5318Z" fill="#424242"/>
<path d="M2.73107 37.6856L29.7106 42.4428C30.8238 42.6391 31.5676 43.7013 31.3713 44.8145C31.175 45.9278 30.1128 46.6716 28.9995 46.4753L2.02004 41.718C0.906807 41.5218 0.163036 40.4595 0.359329 39.3463C0.556229 38.2296 1.61784 37.4893 2.73107 37.6856Z" fill="#795548"/>
<path opacity="0.2" d="M29.5283 43.4768C30.0694 43.5722 30.4327 44.0911 30.3373 44.6322C30.2419 45.1733 29.723 45.5367 29.1819 45.4413L2.20235 40.6841C1.66125 40.5887 1.29788 40.0697 1.39329 39.5286C1.4887 38.9875 2.00765 38.6241 2.54875 38.7196L29.5283 43.4768ZM29.7106 42.4428L2.73107 37.6856C1.61784 37.4893 0.555621 38.2331 0.359329 39.3463C0.163036 40.4595 0.906807 41.5218 2.02004 41.718L28.9995 46.4753C30.1128 46.6716 31.175 45.9278 31.3713 44.8145C31.5676 43.7013 30.8238 42.6391 29.7106 42.4428Z" fill="#424242"/>
<defs>
<linearGradient id="paint0_linear_559_37640" x1="22.878" y1="41.0031" x2="15.7914" y2="7.29628" gradientUnits="userSpaceOnUse">
<stop offset="0.0021923" stop-color="#BBDEFB"/>
<stop offset="1" stop-color="#E3F2FD"/>
</linearGradient>
<linearGradient id="paint1_linear_559_37640" x1="20.8525" y1="14.5919" x2="16.2414" y2="40.7432" gradientUnits="userSpaceOnUse">
<stop stop-color="#FFCA7B"/>
<stop offset="0.2539" stop-color="#FFA726"/>
<stop offset="0.4688" stop-color="#FFCC80"/>
<stop offset="0.6586" stop-color="#FFC875"/>
<stop offset="0.8665" stop-color="#FFA726"/>
</linearGradient>
</defs>
</svg>
