<svg width="41" height="40" viewBox="0 0 41 40" fill="none" xmlns="http://www.w3.org/2000/svg">
<path d="M31.5951 28.693L28.7785 31.5263L17.5151 20.1996L20.3318 17.3696L31.5951 28.693Z" fill="url(#paint0_linear_559_37622)"/>
<path opacity="0.2" d="M20.3284 18.7896L30.1817 28.6963L28.7751 30.1096L18.9217 20.203L20.3284 18.7896ZM20.3284 17.3696L17.5117 20.1996L28.7751 31.5263L31.5917 28.6963L20.3284 17.3696Z" fill="#424242"/>
<path d="M13.6048 27.3533C21.1177 27.3533 27.2081 21.2301 27.2081 13.6767C27.2081 6.12325 21.1177 0 13.6048 0C6.09189 0 0.00146484 6.12325 0.00146484 13.6767C0.00146484 21.2301 6.09189 27.3533 13.6048 27.3533Z" fill="url(#paint1_radial_559_37622)"/>
<path d="M34.7749 28.4368C32.6149 26.2635 30.2582 24.7368 28.2816 24.0835C27.7416 23.9035 27.2582 23.5868 26.8549 23.1802L26.2616 22.5835L22.6782 26.1835L23.2716 26.7802C23.6749 27.1835 23.9916 27.6702 24.1682 28.2135C24.8216 30.2002 26.3382 32.5668 28.4982 34.7402C30.9349 37.1902 33.6182 38.8168 35.7282 39.3035L36.0216 39.6002C36.5516 40.1302 37.4082 40.1302 37.9349 39.6002L38.4649 39.0668C38.5882 38.9868 38.7016 38.8968 38.8049 38.7968C38.9082 38.6935 38.9982 38.5802 39.0749 38.4568L39.6049 37.9235C40.1349 37.3935 40.1349 36.5302 39.6049 36.0002L39.3116 35.7035C38.8282 33.5868 37.2116 30.8868 34.7749 28.4368Z" fill="url(#paint2_radial_559_37622)"/>
<path opacity="0.2" d="M13.605 1C16.9717 1 20.135 2.31667 22.515 4.71C27.4317 9.65333 27.4317 17.7 22.515 22.6433C20.135 25.0367 16.9717 26.3533 13.605 26.3533C10.2383 26.3533 7.075 25.0367 4.695 22.6433C-0.221667 17.7 -0.221667 9.65333 4.695 4.71C7.075 2.31667 10.2417 1 13.605 1ZM13.605 0C10.125 0 6.64167 1.33667 3.985 4.00667C-1.32833 9.34667 -1.32833 18.0067 3.985 23.35C6.64167 26.02 10.1217 27.3567 13.605 27.3567C17.0883 27.3567 20.5683 26.02 23.225 23.35C28.5383 18.01 28.5383 9.35 23.225 4.00667C20.5683 1.33667 17.0883 0 13.605 0Z" fill="#424242"/>
<path opacity="0.2" d="M26.2615 24.0002C26.7648 24.4735 27.3481 24.8302 27.9648 25.0335C29.8715 25.6668 32.0948 27.1635 34.0648 29.1435C36.2781 31.3702 37.8781 33.9068 38.3381 35.9268L38.4015 36.2068L38.6048 36.4102L38.8981 36.7068C39.0381 36.8502 39.0381 37.0802 38.8981 37.2202L38.3681 37.7535L38.2915 37.8302L38.2348 37.9235C38.1915 37.9902 38.1481 38.0468 38.0981 38.0935C38.0481 38.1435 37.9948 38.1868 37.9281 38.2302L37.8381 38.2902L37.7615 38.3668L37.2315 38.9002C37.1415 38.9902 37.0381 39.0035 36.9848 39.0035C36.9315 39.0035 36.8248 38.9902 36.7381 38.9002L36.4448 38.6035L36.2415 38.4002L35.9615 38.3368C33.9515 37.8735 31.4315 36.2702 29.2181 34.0435C27.2481 32.0635 25.7581 29.8268 25.1281 27.9102C24.9248 27.2902 24.5681 26.6968 24.0948 26.1935L26.2615 24.0002ZM26.2581 22.5835L22.6748 26.1835L23.2681 26.7802C23.6715 27.1835 23.9881 27.6702 24.1648 28.2135C24.8181 30.2002 26.3348 32.5668 28.4948 34.7402C30.9315 37.1902 33.6148 38.8168 35.7248 39.3035L36.0181 39.6002C36.2815 39.8668 36.6281 40.0002 36.9748 40.0002C37.3215 40.0002 37.6681 39.8668 37.9315 39.6002L38.4615 39.0668C38.5848 38.9868 38.6981 38.8968 38.8015 38.7968C38.9048 38.6935 38.9948 38.5802 39.0715 38.4568L39.6015 37.9235C40.1315 37.3935 40.1315 36.5302 39.6015 36.0002L39.3081 35.7035C38.8248 33.5835 37.2081 30.8868 34.7715 28.4368C32.6115 26.2635 30.2548 24.7368 28.2781 24.0835C27.7381 23.9035 27.2548 23.5868 26.8515 23.1802L26.2581 22.5835Z" fill="#424242"/>
<path d="M13.5783 24.7233C19.6608 24.7233 24.5916 19.7656 24.5916 13.65C24.5916 7.53436 19.6608 2.57666 13.5783 2.57666C7.49578 2.57666 2.56494 7.53436 2.56494 13.65C2.56494 19.7656 7.49578 24.7233 13.5783 24.7233Z" fill="url(#paint3_radial_559_37622)"/>
<path opacity="0.2" d="M13.5786 3.57666C16.2519 3.57666 18.7652 4.62333 20.6552 6.52333C24.5619 10.45 24.5619 16.8433 20.6552 20.77C18.7652 22.67 16.2519 23.7167 13.5786 23.7167C10.9052 23.7167 8.39189 22.67 6.50189 20.77C2.59523 16.8433 2.59523 10.45 6.50189 6.52333C8.38856 4.62333 10.9052 3.57666 13.5786 3.57666ZM13.5786 2.57666C10.7586 2.57666 7.94189 3.65666 5.79189 5.81999C1.49189 10.1433 1.49189 17.1533 5.79189 21.48C7.94189 23.6433 10.7619 24.7233 13.5786 24.7233C16.3952 24.7233 19.2152 23.6433 21.3652 21.48C25.6652 17.1567 25.6652 10.1467 21.3652 5.81999C19.2152 3.65666 16.3952 2.57666 13.5786 2.57666Z" fill="#039BE5"/>
<path d="M27.7314 24.367L24.4014 27.717C24.0247 28.097 23.4147 28.097 23.038 27.717L22.718 27.3937C22.3414 27.0137 22.3414 26.4003 22.718 26.0237L26.048 22.6737C26.4247 22.2937 27.0347 22.2937 27.4114 22.6737L27.7314 22.997C28.108 23.377 28.108 23.9903 27.7314 24.367Z" fill="url(#paint4_radial_559_37622)"/>
<path opacity="0.2" d="M26.728 23.0568C26.7747 23.0568 26.8614 23.0668 26.938 23.1435L27.258 23.4668C27.3747 23.5868 27.3747 23.7768 27.258 23.8968L23.928 27.2468C23.8514 27.3235 23.7647 27.3335 23.718 27.3335C23.6714 27.3335 23.5847 27.3235 23.508 27.2468L23.188 26.9235C23.0714 26.8035 23.0714 26.6135 23.188 26.4935L26.518 23.1435C26.5947 23.0701 26.6847 23.0568 26.728 23.0568ZM26.728 22.3901C26.4814 22.3901 26.2347 22.4835 26.048 22.6735L22.718 26.0235C22.3414 26.4035 22.3414 27.0168 22.718 27.3935L23.038 27.7168C23.2247 27.9068 23.4714 28.0001 23.718 28.0001C23.9647 28.0001 24.2114 27.9068 24.398 27.7168L27.728 24.3668C28.1047 23.9868 28.1047 23.3735 27.728 22.9968L27.408 22.6735C27.2214 22.4868 26.9747 22.3901 26.728 22.3901Z" fill="#424242"/>
<defs>
<linearGradient id="paint0_linear_559_37622" x1="22.3322" y1="22.2251" x2="24.6437" y2="24.5366" gradientUnits="userSpaceOnUse">
<stop stop-color="#EEEEEE"/>
<stop offset="1" stop-color="#9E9E9E"/>
</linearGradient>
<radialGradient id="paint1_radial_559_37622" cx="0" cy="0" r="1" gradientUnits="userSpaceOnUse" gradientTransform="translate(13.1177 0.1111) scale(27.3476 27.3367)">
<stop stop-color="#E0E0E0"/>
<stop offset="0.2274" stop-color="#DBDBDB"/>
<stop offset="0.4939" stop-color="#CDCDCD"/>
<stop offset="0.7789" stop-color="#B5B5B5"/>
<stop offset="1" stop-color="#9E9E9E"/>
</radialGradient>
<radialGradient id="paint2_radial_559_37622" cx="0" cy="0" r="1" gradientUnits="userSpaceOnUse" gradientTransform="translate(26.4182 22.8335) scale(17.2 17.2)">
<stop stop-color="#FFA726"/>
<stop offset="0.0404" stop-color="#FFA623"/>
<stop offset="0.5168" stop-color="#FF9800"/>
<stop offset="1" stop-color="#FB8C00"/>
</radialGradient>
<radialGradient id="paint3_radial_559_37622" cx="0" cy="0" r="1" gradientUnits="userSpaceOnUse" gradientTransform="translate(6.34327 6.49999) scale(21.6927 21.6927)">
<stop stop-color="#B3E5FC"/>
<stop offset="0.1696" stop-color="#ADE3FC"/>
<stop offset="0.3927" stop-color="#9DDDFB"/>
<stop offset="0.6456" stop-color="#81D4FA"/>
<stop offset="0.9186" stop-color="#5CC7F8"/>
<stop offset="1" stop-color="#4FC3F7"/>
</radialGradient>
<radialGradient id="paint4_radial_559_37622" cx="0" cy="0" r="1" gradientUnits="userSpaceOnUse" gradientTransform="translate(24.4001 23.556) scale(4.29705 4.29533)">
<stop stop-color="#E0E0E0"/>
<stop offset="1" stop-color="#9E9E9E"/>
</radialGradient>
</defs>
</svg>
