<svg width="24" height="22" viewBox="0 0 24 22" fill="none" xmlns="http://www.w3.org/2000/svg">
<path d="M17.9753 0C13.5969 0 11.9882 4.47434 11.9882 4.47434C11.9882 4.47434 10.4015 0 5.99311 0C2.67982 0 -1.09709 2.62585 0.297766 8.59497C1.69262 14.5641 12.0002 22 12.0002 22C12.0002 22 22.2698 14.5641 23.6666 8.59497C25.0615 2.62585 21.5564 0 17.9753 0Z" fill="#F44336"/>
<path d="M5.31772 0.445635C8.75491 0.445635 10.4615 4.14061 11.0131 5.63739C11.091 5.85121 11.3888 5.85721 11.4787 5.64938L11.9823 4.47234C11.2728 2.2062 9.32244 0 5.99317 0C4.6143 0 3.15749 0.455627 2.02441 1.41684C3.0256 0.759379 4.19864 0.445635 5.31772 0.445635Z" fill="#CC3333"/>
<path d="M17.9751 0C16.918 0 15.9548 0.229812 15.2034 0.693433C15.7309 0.489599 16.3844 0.445635 17.0319 0.445635C20.2712 0.445635 23.1709 2.90163 21.8619 8.57898C20.7389 13.453 14.1762 19.3662 12.1719 21.6223C12.044 21.7662 12 21.998 12 21.998C12 21.998 22.2696 14.5621 23.6665 8.59297C25.0613 2.62585 21.5622 0 17.9751 0Z" fill="#CC3333"/>
<path d="M2.59795 3.16762C3.34733 2.23238 4.68624 1.45902 5.82131 2.35029C6.43481 2.83189 6.16703 3.81909 5.61748 4.23474C4.81813 4.84225 4.1227 5.20795 3.6351 6.15917C3.34334 6.7307 3.16748 7.35619 3.07756 7.99367C3.04158 8.24546 2.71185 8.30741 2.58796 8.08559C1.74465 6.59082 1.50484 4.5325 2.59795 3.16762Z" fill="#FF8A80"/>
<path d="M14.6122 5.1336C14.2605 5.1336 14.0127 4.79388 14.1406 4.46614C14.3784 3.86264 14.6861 3.27911 15.0558 2.75954C15.6034 1.99217 16.6445 1.54453 17.304 2.01015C17.9794 2.48576 17.8915 3.43699 17.4179 3.89661C16.4007 4.8818 15.1178 5.1336 14.6122 5.1336Z" fill="#FF8A80"/>
</svg>
