<svg width="50" height="50" viewBox="0 0 50 50" fill="none" xmlns="http://www.w3.org/2000/svg">
<path d="M1.359 1.03673H48.641V48.3187H1.359V1.03673Z" fill="url(#paint0_linear_559_35939)" stroke="#C8E6C9" stroke-width="0.718"/>
<path d="M1 0.677734H49V48.6777H1V0.677734Z" stroke="#C8E6C9" stroke-width="0.718" stroke-miterlimit="10"/>
<path d="M1 40.6777H49" stroke="#C8E6C9" stroke-width="0.718" stroke-miterlimit="10"/>
<path d="M1 32.6777H49" stroke="#C8E6C9" stroke-width="0.718" stroke-miterlimit="10"/>
<path d="M1 24.6777H49" stroke="#C8E6C9" stroke-width="0.718" stroke-miterlimit="10"/>
<path d="M1 16.6777H49" stroke="#C8E6C9" stroke-width="0.718" stroke-miterlimit="10"/>
<path d="M1 8.67773H49" stroke="#C8E6C9" stroke-width="0.718" stroke-miterlimit="10"/>
<path d="M41 0.677734V48.6777" stroke="#C8E6C9" stroke-width="0.718" stroke-miterlimit="10"/>
<path d="M33 0.677734V48.6777" stroke="#C8E6C9" stroke-width="0.718" stroke-miterlimit="10"/>
<path d="M25 0.677734V48.6777" stroke="#C8E6C9" stroke-width="0.718" stroke-miterlimit="10"/>
<path d="M17 0.677734V48.6777" stroke="#C8E6C9" stroke-width="0.718" stroke-miterlimit="10"/>
<path d="M9 0.677734V48.6777" stroke="#C8E6C9" stroke-width="0.718" stroke-miterlimit="10"/>
<path d="M5.87511 21.3248H12.5891V48.3188H5.87511V21.3248Z" fill="url(#paint1_linear_559_35939)"/>
<path d="M5.87511 21.3248H12.5891V48.3188H5.87511V21.3248Z" fill="url(#paint2_linear_559_35939)"/>
<path d="M5.87511 21.3248H12.5891V48.3188H5.87511V21.3248Z" stroke="#C8E6C9" stroke-width="0.718"/>
<path d="M16.2867 31.6886H23.0007V48.3186H16.2867V31.6886Z" fill="url(#paint3_linear_559_35939)"/>
<path d="M16.2867 31.6886H23.0007V48.3186H16.2867V31.6886Z" fill="url(#paint4_radial_559_35939)"/>
<path d="M16.2867 31.6886H23.0007V48.3186H16.2867V31.6886Z" stroke="#C8E6C9" stroke-width="0.718"/>
<path d="M26.7027 12.9166H33.4168V48.3186H26.7027V12.9166Z" fill="url(#paint5_linear_559_35939)"/>
<path d="M26.7027 12.9166H33.4168V48.3186H26.7027V12.9166Z" fill="url(#paint6_radial_559_35939)"/>
<path d="M26.7027 12.9166H33.4168V48.3186H26.7027V12.9166Z" stroke="#C8E6C9" stroke-width="0.718"/>
<path d="M37.1149 39.0768H43.8289V48.3188H37.1149V39.0768Z" fill="url(#paint7_linear_559_35939)"/>
<path d="M37.1149 39.0768H43.8289V48.3188H37.1149V39.0768Z" fill="url(#paint8_linear_559_35939)"/>
<path d="M37.1149 39.0768H43.8289V48.3188H37.1149V39.0768Z" stroke="#C8E6C9" stroke-width="0.718"/>
<path opacity="0.2" d="M48.159 1.87773V1.51873H47.8H2.2H1.841V1.87773V47.4777V47.8367H2.2H47.8H48.159V47.4777V1.87773ZM1.359 48.3187V1.03673H48.641V48.3187H1.359Z" fill="#424242" stroke="#C8E6C9" stroke-width="0.718"/>
<defs>
<linearGradient id="paint0_linear_559_35939" x1="25" y1="0.828934" x2="25" y2="48.4937" gradientUnits="userSpaceOnUse">
<stop stop-color="white"/>
<stop offset="1" stop-color="#F9FCFF" stop-opacity="0.5"/>
</linearGradient>
<linearGradient id="paint1_linear_559_35939" x1="9.23171" y1="21.1954" x2="9.23171" y2="48.4098" gradientUnits="userSpaceOnUse">
<stop offset="0.0051509" stop-color="#4480F7"/>
<stop offset="1" stop-color="#3462BD"/>
</linearGradient>
<linearGradient id="paint2_linear_559_35939" x1="6.13337" y1="26.08" x2="17.0608" y2="29.9516" gradientUnits="userSpaceOnUse">
<stop stop-color="#29B6F6"/>
<stop offset="1" stop-color="#039BE5"/>
</linearGradient>
<linearGradient id="paint3_linear_559_35939" x1="19.6453" y1="31.3312" x2="19.6453" y2="48.6776" gradientUnits="userSpaceOnUse">
<stop offset="0.0051509" stop-color="#EC4431"/>
<stop offset="0.3002" stop-color="#E74330"/>
<stop offset="0.6329" stop-color="#DA3F2D"/>
<stop offset="0.9828" stop-color="#C33828"/>
<stop offset="1" stop-color="#C23828"/>
</linearGradient>
<radialGradient id="paint4_radial_559_35939" cx="0" cy="0" r="1" gradientUnits="userSpaceOnUse" gradientTransform="translate(19.6283 31.4121) scale(5.68974 17.3141)">
<stop stop-color="#FF8A65"/>
<stop offset="0.5688" stop-color="#FF6E41"/>
<stop offset="1" stop-color="#FF5722"/>
</radialGradient>
<linearGradient id="paint5_linear_559_35939" x1="30.059" y1="12.556" x2="30.059" y2="48.6776" gradientUnits="userSpaceOnUse">
<stop offset="0.0051509" stop-color="#FDD835"/>
<stop offset="0.2697" stop-color="#F9D534"/>
<stop offset="0.5326" stop-color="#EDCB32"/>
<stop offset="0.7941" stop-color="#D9BA2D"/>
<stop offset="1" stop-color="#C4A829"/>
</linearGradient>
<radialGradient id="paint6_radial_559_35939" cx="0" cy="0" r="1" gradientUnits="userSpaceOnUse" gradientTransform="translate(29.9436 0.141366) scale(8.19982 39.8516)">
<stop stop-color="#FFD740"/>
<stop offset="0.203" stop-color="#FFD43C"/>
<stop offset="0.4162" stop-color="#FFCB2F"/>
<stop offset="0.6332" stop-color="#FFBD1A"/>
<stop offset="0.8336" stop-color="#FFAB00"/>
<stop offset="1" stop-color="#FFAB00"/>
</radialGradient>
<linearGradient id="paint7_linear_559_35939" x1="40.4719" y1="38.7178" x2="40.4719" y2="48.6778" gradientUnits="userSpaceOnUse">
<stop offset="0.0079082" stop-color="#2CA94F"/>
<stop offset="0.9969" stop-color="#207A39"/>
</linearGradient>
<linearGradient id="paint8_linear_559_35939" x1="37.5736" y1="39.2633" x2="45.5166" y2="43.4589" gradientUnits="userSpaceOnUse">
<stop stop-color="#9CCC65"/>
<stop offset="0.9952" stop-color="#689F38"/>
</linearGradient>
</defs>
</svg>
