<svg width="58" height="57" viewBox="0 0 58 57" fill="none" xmlns="http://www.w3.org/2000/svg">
<path d="M28.9025 56.1776C44.3523 56.1776 56.8768 43.6531 56.8768 28.2033C56.8768 12.7535 44.3523 0.229004 28.9025 0.229004C13.4527 0.229004 0.928223 12.7535 0.928223 28.2033C0.928223 43.6531 13.4527 56.1776 28.9025 56.1776Z" fill="url(#paint0_radial_546_39062)"/>
<path opacity="0.2" d="M28.9025 1.63193C43.5537 1.63193 55.4739 13.5521 55.4739 28.2033C55.4739 42.8545 43.5537 54.7747 28.9025 54.7747C14.2513 54.7747 2.33115 42.8545 2.33115 28.2033C2.33115 13.5521 14.2513 1.63193 28.9025 1.63193ZM28.9025 0.229004C13.4517 0.229004 0.928223 12.7571 0.928223 28.2033C0.928223 43.6495 13.4517 56.1776 28.9025 56.1776C44.3534 56.1776 56.8768 43.6542 56.8768 28.2033C56.8768 12.7524 44.3487 0.229004 28.9025 0.229004Z" fill="#434343"/>
<path d="M28.9028 47.6856C39.6624 47.6856 48.3848 38.9632 48.3848 28.2036C48.3848 17.444 39.6624 8.72168 28.9028 8.72168C18.1433 8.72168 9.4209 17.444 9.4209 28.2036C9.4209 38.9632 18.1433 47.6856 28.9028 47.6856Z" fill="#FEFCE9"/>
<path d="M28.9028 40.6943C35.8012 40.6943 41.3935 35.102 41.3935 28.2036C41.3935 21.3052 35.8012 15.7129 28.9028 15.7129C22.0044 15.7129 16.4121 21.3052 16.4121 28.2036C16.4121 35.102 22.0044 40.6943 28.9028 40.6943Z" fill="url(#paint1_radial_546_39062)"/>
<path d="M28.903 31.9496C30.9718 31.9496 32.6488 30.2726 32.6488 28.2038C32.6488 26.1351 30.9718 24.458 28.903 24.458C26.8343 24.458 25.1572 26.1351 25.1572 28.2038C25.1572 30.2726 26.8343 31.9496 28.903 31.9496Z" fill="#FEFCE9"/>
<path d="M50.4371 6.80914L50.6008 2.86224C50.6756 1.0852 49.095 -0.172751 47.3414 0.266832L44.0866 1.07585C42.9642 1.35644 42.0664 2.26834 41.8092 3.39535L38.2598 18.9865L38.2878 18.9725L50.4465 6.81381L50.4371 6.80914Z" fill="#09BCD4"/>
<path d="M50.442 6.80881L54.3889 6.64513C56.166 6.57031 57.4239 8.15094 56.9843 9.90459L56.1753 13.1594C55.8947 14.2817 54.9828 15.1796 53.8558 15.4368L38.2646 18.9862L38.2787 18.9581L50.4374 6.79945L50.442 6.80881Z" fill="#38A4DD"/>
<path d="M29.525 28.7316C28.8703 29.3162 27.9584 28.4043 28.5383 27.7496L46.0889 8.36582C46.8605 7.59421 48.1138 7.59421 48.8854 8.36582C49.657 9.13742 49.657 10.3907 48.8854 11.1623L29.525 28.7316Z" fill="#1B87C9"/>
<path opacity="0.2" d="M48.0382 1.11302C48.5012 1.11302 48.9221 1.28604 49.226 1.60404C49.53 1.91736 49.6843 2.35227 49.6656 2.82458L49.502 6.76213C49.4926 6.94451 49.5394 7.12221 49.6282 7.27185C49.6703 7.342 49.7171 7.40279 49.7732 7.45891C49.9462 7.63661 50.1894 7.74417 50.4419 7.74417H50.4793L54.4169 7.5805H54.4964C55.0201 7.5805 55.4784 7.79561 55.7824 8.18376C56.1004 8.58593 56.2033 9.13307 56.0676 9.67553L55.2586 12.9303C55.0669 13.7019 54.4169 14.3426 53.6406 14.5203L40.715 17.4664C40.556 17.5038 40.411 17.5787 40.2941 17.6862L32.4938 24.7757L39.5552 16.9754C39.6628 16.8585 39.7376 16.7135 39.775 16.5545L42.7258 3.60087C42.9035 2.82458 43.5395 2.17456 44.3158 1.98283L47.5706 1.17381C47.7249 1.13172 47.8839 1.11302 48.0382 1.11302ZM48.0382 0.177734C47.8091 0.177734 47.5753 0.205793 47.3414 0.266586L44.0867 1.07561C42.9643 1.35619 42.0665 2.26809 41.8092 3.39511L38.8584 16.3488L28.5376 27.7452C28.084 28.2549 28.5329 28.9143 29.0613 28.9143C29.2157 28.9143 29.3747 28.8582 29.5196 28.7272L40.9254 18.383L53.851 15.4369C54.9734 15.1797 55.8899 14.2818 56.1705 13.1595L56.9795 9.90468C57.4051 8.18843 56.2126 6.64522 54.501 6.64522C54.4636 6.64522 54.4215 6.64522 54.3795 6.64989L50.4419 6.81357H50.4326V6.80421L50.5962 2.86667C50.6617 1.32346 49.4926 0.177734 48.0382 0.177734Z" fill="#434343"/>
<defs>
<radialGradient id="paint0_radial_546_39062" cx="0" cy="0" r="1" gradientUnits="userSpaceOnUse" gradientTransform="translate(20.9082 15.0921) scale(29.0789)">
<stop offset="0.4707" stop-color="#EF5451"/>
<stop offset="0.8338" stop-color="#E53A35"/>
</radialGradient>
<radialGradient id="paint1_radial_546_39062" cx="0" cy="0" r="1" gradientUnits="userSpaceOnUse" gradientTransform="translate(26.4888 23.3803) scale(14.3341)">
<stop offset="0.4707" stop-color="#EF5451"/>
<stop offset="0.8338" stop-color="#E53A35"/>
</radialGradient>
</defs>
</svg>
