<svg width="42" height="38" viewBox="0 0 42 38" fill="none" xmlns="http://www.w3.org/2000/svg">
<path d="M23.0125 5.15938L23.6632 8.84998L14.4008 10.4832L13.75 6.7926L23.0125 5.15938ZM23.7671 2.11672L12.0003 4.19152C11.1346 4.34417 10.5572 5.16875 10.7098 6.03448L11.8027 12.2324C11.9554 13.0981 12.7799 13.6755 13.6457 13.5229L25.4124 11.4481C26.2782 11.2954 26.8555 10.4708 26.7029 9.6051L25.61 3.40718C25.4574 2.54144 24.6328 1.96407 23.7671 2.11672Z" fill="url(#paint0_linear_559_37630)"/>
<path d="M4.13253 12.3674L33.9598 7.10799C35.2869 6.874 36.5549 7.75927 36.7895 9.08932L40.3369 29.2079C40.5709 30.5349 39.6856 31.803 38.3556 32.0375L8.52827 37.2968C7.19822 37.5314 5.93264 36.6426 5.69864 35.3155L2.1512 15.197C1.91721 13.8699 2.80248 12.6019 4.13253 12.3674Z" fill="url(#paint1_linear_559_37630)"/>
<path d="M34.6924 5.84836L3.01078 11.4347C1.88144 11.6338 1.12888 12.7086 1.32801 13.8379L2.76843 22.007C2.82548 22.3305 3.03953 22.5985 3.34136 22.7337C7.7884 24.7264 14.8383 24.9968 21.5512 23.9521C28.2167 22.6378 34.7489 19.9725 38.2462 16.5791C38.4812 16.3523 38.5931 16.0237 38.536 15.7002L37.0956 7.53113C36.897 6.40478 35.8217 5.64923 34.6924 5.84836Z" fill="url(#paint2_linear_559_37630)"/>
<path d="M24.0324 23.2211L24.4925 25.8303C24.5184 25.9771 24.3208 26.1355 24.0512 26.183L19.9652 26.9035C19.6956 26.951 19.4558 26.8697 19.4299 26.723L18.9699 24.1138C18.944 23.967 19.1415 23.8086 19.4111 23.7611L23.4972 23.0406C23.7668 22.9931 24.006 23.0713 24.0324 23.2211Z" fill="#FFCA28"/>
<path d="M24.4983 22.2927L24.6019 22.8798C24.6494 23.1494 24.4693 23.4067 24.1997 23.4542L18.8915 24.3902C18.6218 24.4377 18.3646 24.2576 18.3171 23.988L18.2135 23.4009C18.166 23.1313 18.3461 22.874 18.6157 22.8265L23.921 21.891C24.1936 21.843 24.4508 22.0231 24.4983 22.2927Z" fill="#F9A825"/>
<path opacity="0.2" d="M23.9257 3.01502C24.2941 2.95005 24.6465 3.19679 24.7115 3.56525L25.4029 7.4865C25.4906 7.98378 25.9628 8.31441 26.46 8.22673L34.8507 6.74722C35.4828 6.63577 36.0854 7.05769 36.1968 7.68977L37.6373 15.8588C37.641 15.8798 37.6327 15.9029 37.6114 15.9221C37.601 15.9332 37.59 15.9413 37.5766 15.9529C37.5499 15.9761 37.5231 15.9994 37.4968 16.0257C37.2748 16.2378 37.1716 16.5463 37.2245 16.8459L39.4324 29.3675C39.5787 30.1973 39.021 30.9937 38.1913 31.14L8.36993 36.3983C7.54014 36.5446 6.74376 35.987 6.59745 35.1572L4.38954 22.6355C4.33619 22.333 4.13376 22.0783 3.85308 21.9579C3.81995 21.9453 3.7863 21.9296 3.75317 21.9169C3.73961 21.91 3.72357 21.9067 3.71001 21.8998C3.6864 21.8885 3.66772 21.8702 3.66402 21.8492L2.2236 13.6802C2.11215 13.0481 2.53408 12.4455 3.16615 12.3341L11.5569 10.8546C12.0541 10.7669 12.3848 10.2947 12.2971 9.79741L11.6057 5.87615C11.5407 5.50769 11.7874 5.15531 12.1559 5.09034L23.9257 3.01502ZM14.3787 10.357L23.6412 8.72377C24.1384 8.63609 24.4691 8.16389 24.3814 7.66662L23.9113 5.00053C23.8236 4.50326 23.3514 4.17262 22.8541 4.26031L13.5917 5.89352C13.0944 5.98121 12.7638 6.4534 12.8515 6.95067L13.3216 9.61676C13.4093 10.114 13.8845 10.4441 14.3787 10.357ZM23.7672 2.11633L12.0004 4.19113C11.1347 4.34378 10.5573 5.16836 10.71 6.03409L11.4014 9.95535L3.01068 11.4349C1.88134 11.634 1.12878 12.7088 1.32791 13.8381L2.76833 22.0071C2.82538 22.3307 3.03944 22.5987 3.34126 22.7339C3.38848 22.7565 3.44117 22.775 3.49086 22.794L5.69876 35.3157C5.93329 36.6457 7.20133 37.531 8.52839 37.297L38.3557 32.0376C39.6828 31.8036 40.5716 30.5381 40.337 29.208L38.1291 16.6863C38.1688 16.6485 38.212 16.6131 38.2491 16.5787C38.4841 16.352 38.596 16.0233 38.5389 15.6998L37.0985 7.53078C36.8994 6.40143 35.8246 5.64887 34.6953 5.84801L26.3016 7.32804L25.6102 3.40678C25.4575 2.54105 24.6329 1.96368 23.7672 2.11633ZM14.2203 9.4583L13.7502 6.79221L23.0096 5.15952L23.4797 7.82561L14.2203 9.4583Z" fill="#424242"/>
<defs>
<linearGradient id="paint0_linear_559_37630" x1="17.8782" y1="3.12297" x2="19.2877" y2="11.1168" gradientUnits="userSpaceOnUse">
<stop offset="0.0005936" stop-color="#A1887F"/>
<stop offset="0.2381" stop-color="#927971"/>
<stop offset="0.6929" stop-color="#6C524B"/>
<stop offset="1" stop-color="#4E342E"/>
</linearGradient>
<linearGradient id="paint1_linear_559_37630" x1="19.0942" y1="10.0189" x2="23.4087" y2="34.4877" gradientUnits="userSpaceOnUse">
<stop stop-color="#4E342E"/>
<stop offset="0.424" stop-color="#503630"/>
<stop offset="0.618" stop-color="#583D36"/>
<stop offset="0.7651" stop-color="#644941"/>
<stop offset="0.8878" stop-color="#765950"/>
<stop offset="0.9933" stop-color="#8D6E63"/>
</linearGradient>
<linearGradient id="paint2_linear_559_37630" x1="18.8595" y1="8.68646" x2="21.5287" y2="23.8242" gradientUnits="userSpaceOnUse">
<stop offset="0.0067402" stop-color="#BCAAA4"/>
<stop offset="1" stop-color="#6D4C41"/>
</linearGradient>
</defs>
</svg>
