<svg width="48" height="49" viewBox="0 0 48 49" fill="none" xmlns="http://www.w3.org/2000/svg">
<path d="M23.9997 48.6776C26.6507 48.6776 28.7997 46.5286 28.7997 43.8776C28.7997 41.2267 26.6507 39.0776 23.9997 39.0776C21.3487 39.0776 19.1997 41.2267 19.1997 43.8776C19.1997 46.5286 21.3487 48.6776 23.9997 48.6776Z" fill="url(#paint0_radial_559_35905)"/>
<path d="M23.9998 7.07773C25.7671 7.07773 27.1998 5.64505 27.1998 3.87773C27.1998 2.11042 25.7671 0.677734 23.9998 0.677734C22.2325 0.677734 20.7998 2.11042 20.7998 3.87773C20.7998 5.64505 22.2325 7.07773 23.9998 7.07773Z" fill="url(#paint1_radial_559_35905)"/>
<path opacity="0.2" d="M23.9997 40.2776C25.9837 40.2776 27.5997 41.8936 27.5997 43.8776C27.5997 45.8616 25.9837 47.4776 23.9997 47.4776C22.0157 47.4776 20.3997 45.8616 20.3997 43.8776C20.3997 41.8936 22.0157 40.2776 23.9997 40.2776ZM23.9997 39.0776C21.3477 39.0776 19.1997 41.2256 19.1997 43.8776C19.1997 46.5296 21.3477 48.6776 23.9997 48.6776C26.6517 48.6776 28.7997 46.5296 28.7997 43.8776C28.7997 41.2256 26.6517 39.0776 23.9997 39.0776Z" fill="#424242"/>
<path opacity="0.2" d="M23.9998 1.87773C25.1038 1.87773 25.9998 2.77373 25.9998 3.87773C25.9998 4.98173 25.1038 5.87773 23.9998 5.87773C22.8958 5.87773 21.9998 4.98173 21.9998 3.87773C21.9998 2.77373 22.8958 1.87773 23.9998 1.87773ZM23.9998 0.677734C22.2318 0.677734 20.7998 2.10973 20.7998 3.87773C20.7998 5.64573 22.2318 7.07773 23.9998 7.07773C25.7678 7.07773 27.1998 5.64573 27.1998 3.87773C27.1998 2.10973 25.7678 0.677734 23.9998 0.677734Z" fill="#424242"/>
<path d="M40.0002 16.6777C40.0002 2.42974 24.0002 3.87774 24.0002 3.87774C24.0002 3.87774 8.0002 2.42974 8.0002 16.6777C8.0002 30.9257 3.2002 37.4777 3.2002 37.4777H44.8002C44.8002 37.4777 40.0002 30.9257 40.0002 16.6777Z" fill="url(#paint2_radial_559_35905)"/>
<path d="M45.6 42.2775H2.4C1.08 42.2775 0 41.1975 0 39.8775C0 38.5575 1.08 37.4775 2.4 37.4775H45.6C46.92 37.4775 48 38.5575 48 39.8775C48 41.1975 46.92 42.2775 45.6 42.2775Z" fill="#FFD740"/>
<path opacity="0.2" d="M25.212 5.03789C29.3 5.03789 38.8 6.16989 38.8 16.6779C38.8 31.1499 43.628 37.9059 43.832 38.1859L44.192 38.6779H45.6C46.26 38.6779 46.8 39.2179 46.8 39.8779C46.8 40.5379 46.26 41.0779 45.6 41.0779H2.4C1.74 41.0779 1.2 40.5379 1.2 39.8779C1.2 39.2179 1.74 38.6779 2.4 38.6779H3.808L4.168 38.1859C4.372 37.9059 9.2 31.1499 9.2 16.6779C9.2 12.0779 11.004 8.77789 14.56 6.87389C17.544 5.27389 20.996 5.03789 22.784 5.03789C23.468 5.03789 23.888 5.07389 23.888 5.07389L24 5.08189L24.108 5.07389C24.112 5.07389 24.528 5.03789 25.212 5.03789ZM25.212 3.83789C24.456 3.83789 24 3.87789 24 3.87789C24 3.87789 23.544 3.83789 22.788 3.83789C19.056 3.83789 8 4.83389 8 16.6779C8 30.9259 3.2 37.4779 3.2 37.4779H2.4C1.08 37.4779 0 38.5579 0 39.8779C0 41.1979 1.08 42.2779 2.4 42.2779H45.6C46.92 42.2779 48 41.1979 48 39.8779C48 38.5579 46.92 37.4779 45.6 37.4779H44.8C44.8 37.4779 40 30.9259 40 16.6779C40 4.83789 28.944 3.83789 25.212 3.83789Z" fill="#424242"/>
<path d="M45.6 42.2775H2.4C1.08 42.2775 0 41.1975 0 39.8775C0 38.5575 1.08 37.4775 2.4 37.4775H45.6C46.92 37.4775 48 38.5575 48 39.8775C48 41.1975 46.92 42.2775 45.6 42.2775Z" fill="url(#paint3_radial_559_35905)"/>
<path opacity="0.2" d="M45.6 38.6775C46.26 38.6775 46.8 39.2175 46.8 39.8775C46.8 40.5375 46.26 41.0775 45.6 41.0775H2.4C1.74 41.0775 1.2 40.5375 1.2 39.8775C1.2 39.2175 1.74 38.6775 2.4 38.6775H45.6ZM45.6 37.4775H2.4C1.08 37.4775 0 38.5575 0 39.8775C0 41.1975 1.08 42.2775 2.4 42.2775H45.6C46.92 42.2775 48 41.1975 48 39.8775C48 38.5575 46.92 37.4775 45.6 37.4775Z" fill="#424242"/>
<defs>
<radialGradient id="paint0_radial_559_35905" cx="0" cy="0" r="1" gradientUnits="userSpaceOnUse" gradientTransform="translate(24.0665 48.0096) scale(8.2668)">
<stop stop-color="#FFA000"/>
<stop offset="0.7434" stop-color="#FF8F00"/>
<stop offset="1" stop-color="#FF8F00"/>
</radialGradient>
<radialGradient id="paint1_radial_559_35905" cx="0" cy="0" r="1" gradientUnits="userSpaceOnUse" gradientTransform="translate(23.8998 -1.52227) scale(7.0612)">
<stop stop-color="#FFD740"/>
<stop offset="0.203" stop-color="#FFD43C"/>
<stop offset="0.4162" stop-color="#FFCB2F"/>
<stop offset="0.6332" stop-color="#FFBD1A"/>
<stop offset="0.8336" stop-color="#FFAB00"/>
<stop offset="1" stop-color="#FFAB00"/>
</radialGradient>
<radialGradient id="paint2_radial_559_35905" cx="0" cy="0" r="1" gradientUnits="userSpaceOnUse" gradientTransform="translate(23.9334 3.54454) scale(41.392)">
<stop stop-color="#FFD740"/>
<stop offset="0.203" stop-color="#FFD43C"/>
<stop offset="0.4162" stop-color="#FFCB2F"/>
<stop offset="0.6332" stop-color="#FFBD1A"/>
<stop offset="0.8336" stop-color="#FFAB00"/>
<stop offset="1" stop-color="#FFAB00"/>
</radialGradient>
<radialGradient id="paint3_radial_559_35905" cx="0" cy="0" r="1" gradientUnits="userSpaceOnUse" gradientTransform="translate(24.2 39.8095) scale(31.0672 31.0672)">
<stop stop-color="#FFD740"/>
<stop offset="0.2435" stop-color="#FFD43C"/>
<stop offset="0.4992" stop-color="#FFCB2F"/>
<stop offset="0.7596" stop-color="#FFBD1A"/>
<stop offset="1" stop-color="#FFAB00"/>
</radialGradient>
</defs>
</svg>
