<svg width="24" height="24" viewBox="0 0 24 24" fill="none" xmlns="http://www.w3.org/2000/svg">
<path d="M21.68 24.0001H2C0.896002 24.0001 0 23.1041 0 22.0001V4.91804C0 3.76603 0.934002 2.83203 2.086 2.83203H21.592C22.744 2.83203 23.678 3.76603 23.678 4.91804V22.0001C23.68 23.1041 22.784 24.0001 21.68 24.0001Z" fill="url(#paint0_linear_1945_54806)"/>
<path d="M23.68 9.57613H0V1.61612C0 0.732115 0.716001 0.0161133 1.6 0.0161133H22.08C22.964 0.0161133 23.68 0.732115 23.68 1.61612V9.57613Z" fill="#1E88E5"/>
<path d="M23.68 9.57613H0V1.61612C0 0.732115 0.716001 0.0161133 1.6 0.0161133H22.08C22.964 0.0161133 23.68 0.732115 23.68 1.61612V9.57613Z" fill="url(#paint1_radial_1945_54806)"/>
<path opacity="0.2" d="M21.964 0.600001C22.58 0.600001 23.08 1.1 23.08 1.716V21.84C23.08 22.692 22.388 23.384 21.536 23.384H2.144C1.292 23.384 0.600001 22.692 0.600001 21.84V1.716C0.600001 1.1 1.1 0.600001 1.716 0.600001H21.964ZM21.964 0H1.716C0.768002 0 0 0.768002 0 1.716V21.84C0 23.024 0.960002 23.984 2.144 23.984H21.536C22.72 23.984 23.68 23.024 23.68 21.84V1.716C23.68 0.768002 22.912 0 21.964 0Z" fill="#D84315"/>
<path d="M12.792 15.494H12.234C12.106 15.494 12 15.39 12 15.26V14.734C12 14.606 12.104 14.5 12.234 14.5H12.792C12.92 14.5 13.026 14.604 13.026 14.734V15.26C13.026 15.388 12.922 15.494 12.792 15.494Z" fill="#9E9E9E"/>
<path d="M12.792 15.494H12.234C12.106 15.494 12 15.39 12 15.26V14.734C12 14.606 12.104 14.5 12.234 14.5H12.792C12.92 14.5 13.026 14.604 13.026 14.734V15.26C13.026 15.388 12.922 15.494 12.792 15.494Z" fill="url(#paint2_radial_1945_54806)"/>
<path d="M12.792 15.494H12.234C12.106 15.494 12 15.39 12 15.26V14.734C12 14.606 12.104 14.5 12.234 14.5H12.792C12.92 14.5 13.026 14.604 13.026 14.734V15.26C13.026 15.388 12.922 15.494 12.792 15.494Z" fill="url(#paint3_radial_1945_54806)"/>
<path d="M15.5835 15.494H15.0255C14.8975 15.494 14.7915 15.39 14.7915 15.26V14.734C14.7915 14.606 14.8955 14.5 15.0255 14.5H15.5835C15.7115 14.5 15.8175 14.604 15.8175 14.734V15.26C15.8175 15.388 15.7115 15.494 15.5835 15.494Z" fill="#9E9E9E"/>
<path d="M15.5835 15.494H15.0255C14.8975 15.494 14.7915 15.39 14.7915 15.26V14.734C14.7915 14.606 14.8955 14.5 15.0255 14.5H15.5835C15.7115 14.5 15.8175 14.604 15.8175 14.734V15.26C15.8175 15.388 15.7115 15.494 15.5835 15.494Z" fill="url(#paint4_radial_1945_54806)"/>
<path d="M15.5835 15.494H15.0255C14.8975 15.494 14.7915 15.39 14.7915 15.26V14.734C14.7915 14.606 14.8955 14.5 15.0255 14.5H15.5835C15.7115 14.5 15.8175 14.604 15.8175 14.734V15.26C15.8175 15.388 15.7115 15.494 15.5835 15.494Z" fill="url(#paint5_radial_1945_54806)"/>
<path d="M18.376 15.494H17.818C17.69 15.494 17.584 15.39 17.584 15.26V14.734C17.584 14.606 17.688 14.5 17.818 14.5H18.376C18.504 14.5 18.61 14.604 18.61 14.734V15.26C18.608 15.388 18.504 15.494 18.376 15.494Z" fill="#9E9E9E"/>
<path d="M18.376 15.494H17.818C17.69 15.494 17.584 15.39 17.584 15.26V14.734C17.584 14.606 17.688 14.5 17.818 14.5H18.376C18.504 14.5 18.61 14.604 18.61 14.734V15.26C18.608 15.388 18.504 15.494 18.376 15.494Z" fill="url(#paint6_radial_1945_54806)"/>
<path d="M18.376 15.494H17.818C17.69 15.494 17.584 15.39 17.584 15.26V14.734C17.584 14.606 17.688 14.5 17.818 14.5H18.376C18.504 14.5 18.61 14.604 18.61 14.734V15.26C18.608 15.388 18.504 15.494 18.376 15.494Z" fill="url(#paint7_radial_1945_54806)"/>
<path d="M20.792 15.494H20.234C20.106 15.494 20 15.39 20 15.26V14.734C20 14.606 20.104 14.5 20.234 14.5H20.792C20.92 14.5 21.026 14.604 21.026 14.734V15.26C21.024 15.388 20.92 15.494 20.792 15.494Z" fill="#9E9E9E"/>
<path d="M20.792 15.494H20.234C20.106 15.494 20 15.39 20 15.26V14.734C20 14.606 20.104 14.5 20.234 14.5H20.792C20.92 14.5 21.026 14.604 21.026 14.734V15.26C21.024 15.388 20.92 15.494 20.792 15.494Z" fill="url(#paint8_radial_1945_54806)"/>
<path d="M20.792 15.494H20.234C20.106 15.494 20 15.39 20 15.26V14.734C20 14.606 20.104 14.5 20.234 14.5H20.792C20.92 14.5 21.026 14.604 21.026 14.734V15.26C21.024 15.388 20.92 15.494 20.792 15.494Z" fill="url(#paint9_radial_1945_54806)"/>
<path d="M12.792 17.9598H12.234C12.106 17.9598 12 17.8558 12 17.7258V17.1998C12 17.0718 12.104 16.9658 12.234 16.9658H12.792C12.92 16.9658 13.026 17.0698 13.026 17.1998V17.7258C13.026 17.8538 12.922 17.9598 12.792 17.9598Z" fill="#9E9E9E"/>
<path d="M12.792 17.9598H12.234C12.106 17.9598 12 17.8558 12 17.7258V17.1998C12 17.0718 12.104 16.9658 12.234 16.9658H12.792C12.92 16.9658 13.026 17.0698 13.026 17.1998V17.7258C13.026 17.8538 12.922 17.9598 12.792 17.9598Z" fill="url(#paint10_radial_1945_54806)"/>
<path d="M12.792 17.9598H12.234C12.106 17.9598 12 17.8558 12 17.7258V17.1998C12 17.0718 12.104 16.9658 12.234 16.9658H12.792C12.92 16.9658 13.026 17.0698 13.026 17.1998V17.7258C13.026 17.8538 12.922 17.9598 12.792 17.9598Z" fill="url(#paint11_radial_1945_54806)"/>
<path d="M15.5835 17.9598H15.0255C14.8975 17.9598 14.7915 17.8558 14.7915 17.7258V17.1998C14.7915 17.0718 14.8955 16.9658 15.0255 16.9658H15.5835C15.7115 16.9658 15.8175 17.0698 15.8175 17.1998V17.7258C15.8175 17.8538 15.7115 17.9598 15.5835 17.9598Z" fill="#9E9E9E"/>
<path d="M15.5835 17.9598H15.0255C14.8975 17.9598 14.7915 17.8558 14.7915 17.7258V17.1998C14.7915 17.0718 14.8955 16.9658 15.0255 16.9658H15.5835C15.7115 16.9658 15.8175 17.0698 15.8175 17.1998V17.7258C15.8175 17.8538 15.7115 17.9598 15.5835 17.9598Z" fill="url(#paint12_radial_1945_54806)"/>
<path d="M15.5835 17.9598H15.0255C14.8975 17.9598 14.7915 17.8558 14.7915 17.7258V17.1998C14.7915 17.0718 14.8955 16.9658 15.0255 16.9658H15.5835C15.7115 16.9658 15.8175 17.0698 15.8175 17.1998V17.7258C15.8175 17.8538 15.7115 17.9598 15.5835 17.9598Z" fill="url(#paint13_radial_1945_54806)"/>
<path d="M18.376 17.9598H17.818C17.69 17.9598 17.584 17.8558 17.584 17.7258V17.1998C17.584 17.0718 17.688 16.9658 17.818 16.9658H18.376C18.504 16.9658 18.61 17.0698 18.61 17.1998V17.7258C18.608 17.8538 18.504 17.9598 18.376 17.9598Z" fill="#9E9E9E"/>
<path d="M18.376 17.9598H17.818C17.69 17.9598 17.584 17.8558 17.584 17.7258V17.1998C17.584 17.0718 17.688 16.9658 17.818 16.9658H18.376C18.504 16.9658 18.61 17.0698 18.61 17.1998V17.7258C18.608 17.8538 18.504 17.9598 18.376 17.9598Z" fill="url(#paint14_radial_1945_54806)"/>
<path d="M18.376 17.9598H17.818C17.69 17.9598 17.584 17.8558 17.584 17.7258V17.1998C17.584 17.0718 17.688 16.9658 17.818 16.9658H18.376C18.504 16.9658 18.61 17.0698 18.61 17.1998V17.7258C18.608 17.8538 18.504 17.9598 18.376 17.9598Z" fill="url(#paint15_radial_1945_54806)"/>
<path d="M20.792 17.9598H20.234C20.106 17.9598 20 17.8558 20 17.7258V17.1998C20 17.0718 20.104 16.9658 20.234 16.9658H20.792C20.92 16.9658 21.026 17.0698 21.026 17.1998V17.7258C21.024 17.8538 20.92 17.9598 20.792 17.9598Z" fill="#9E9E9E"/>
<path d="M20.792 17.9598H20.234C20.106 17.9598 20 17.8558 20 17.7258V17.1998C20 17.0718 20.104 16.9658 20.234 16.9658H20.792C20.92 16.9658 21.026 17.0698 21.026 17.1998V17.7258C21.024 17.8538 20.92 17.9598 20.792 17.9598Z" fill="url(#paint16_radial_1945_54806)"/>
<path d="M20.792 17.9598H20.234C20.106 17.9598 20 17.8558 20 17.7258V17.1998C20 17.0718 20.104 16.9658 20.234 16.9658H20.792C20.92 16.9658 21.026 17.0698 21.026 17.1998V17.7258C21.024 17.8538 20.92 17.9598 20.792 17.9598Z" fill="url(#paint17_radial_1945_54806)"/>
<path d="M12.792 20.4261H12.234C12.106 20.4261 12 20.3221 12 20.1921V19.6661C12 19.5381 12.104 19.4321 12.234 19.4321H12.792C12.92 19.4321 13.026 19.5361 13.026 19.6661V20.1921C13.026 20.3201 12.922 20.4261 12.792 20.4261Z" fill="#9E9E9E"/>
<path d="M12.792 20.4261H12.234C12.106 20.4261 12 20.3221 12 20.1921V19.6661C12 19.5381 12.104 19.4321 12.234 19.4321H12.792C12.92 19.4321 13.026 19.5361 13.026 19.6661V20.1921C13.026 20.3201 12.922 20.4261 12.792 20.4261Z" fill="url(#paint18_radial_1945_54806)"/>
<path d="M12.792 20.4261H12.234C12.106 20.4261 12 20.3221 12 20.1921V19.6661C12 19.5381 12.104 19.4321 12.234 19.4321H12.792C12.92 19.4321 13.026 19.5361 13.026 19.6661V20.1921C13.026 20.3201 12.922 20.4261 12.792 20.4261Z" fill="url(#paint19_radial_1945_54806)"/>
<path d="M15.5835 20.4261H15.0255C14.8975 20.4261 14.7915 20.3221 14.7915 20.1921V19.6661C14.7915 19.5381 14.8955 19.4321 15.0255 19.4321H15.5835C15.7115 19.4321 15.8175 19.5361 15.8175 19.6661V20.1921C15.8175 20.3201 15.7115 20.4261 15.5835 20.4261Z" fill="#9E9E9E"/>
<path d="M15.5835 20.4261H15.0255C14.8975 20.4261 14.7915 20.3221 14.7915 20.1921V19.6661C14.7915 19.5381 14.8955 19.4321 15.0255 19.4321H15.5835C15.7115 19.4321 15.8175 19.5361 15.8175 19.6661V20.1921C15.8175 20.3201 15.7115 20.4261 15.5835 20.4261Z" fill="url(#paint20_radial_1945_54806)"/>
<path d="M15.5835 20.4261H15.0255C14.8975 20.4261 14.7915 20.3221 14.7915 20.1921V19.6661C14.7915 19.5381 14.8955 19.4321 15.0255 19.4321H15.5835C15.7115 19.4321 15.8175 19.5361 15.8175 19.6661V20.1921C15.8175 20.3201 15.7115 20.4261 15.5835 20.4261Z" fill="url(#paint21_radial_1945_54806)"/>
<path d="M18.376 20.4261H17.818C17.69 20.4261 17.584 20.3221 17.584 20.1921V19.6661C17.584 19.5381 17.688 19.4321 17.818 19.4321H18.376C18.504 19.4321 18.61 19.5361 18.61 19.6661V20.1921C18.608 20.3201 18.504 20.4261 18.376 20.4261Z" fill="#9E9E9E"/>
<path d="M18.376 20.4261H17.818C17.69 20.4261 17.584 20.3221 17.584 20.1921V19.6661C17.584 19.5381 17.688 19.4321 17.818 19.4321H18.376C18.504 19.4321 18.61 19.5361 18.61 19.6661V20.1921C18.608 20.3201 18.504 20.4261 18.376 20.4261Z" fill="url(#paint22_radial_1945_54806)"/>
<path d="M18.376 20.4261H17.818C17.69 20.4261 17.584 20.3221 17.584 20.1921V19.6661C17.584 19.5381 17.688 19.4321 17.818 19.4321H18.376C18.504 19.4321 18.61 19.5361 18.61 19.6661V20.1921C18.608 20.3201 18.504 20.4261 18.376 20.4261Z" fill="url(#paint23_radial_1945_54806)"/>
<path d="M20.792 20.4261H20.234C20.106 20.4261 20 20.3221 20 20.1921V19.6661C20 19.5381 20.104 19.4321 20.234 19.4321H20.792C20.92 19.4321 21.026 19.5361 21.026 19.6661V20.1921C21.024 20.3201 20.92 20.4261 20.792 20.4261Z" fill="#9E9E9E"/>
<path d="M20.792 20.4261H20.234C20.106 20.4261 20 20.3221 20 20.1921V19.6661C20 19.5381 20.104 19.4321 20.234 19.4321H20.792C20.92 19.4321 21.026 19.5361 21.026 19.6661V20.1921C21.024 20.3201 20.92 20.4261 20.792 20.4261Z" fill="url(#paint24_radial_1945_54806)"/>
<path d="M20.792 20.4261H20.234C20.106 20.4261 20 20.3221 20 20.1921V19.6661C20 19.5381 20.104 19.4321 20.234 19.4321H20.792C20.92 19.4321 21.026 19.5361 21.026 19.6661V20.1921C21.024 20.3201 20.92 20.4261 20.792 20.4261Z" fill="url(#paint25_radial_1945_54806)"/>
<path d="M2.896 6.49984V3.34983H3.58L4.7275 5.21734L4.237 5.21284L5.398 3.34983H6.055V6.49984H5.3125V5.51884C5.3125 5.24884 5.3185 5.00584 5.3305 4.78983C5.3455 4.57383 5.3695 4.35933 5.4025 4.14633L5.488 4.38033L4.615 5.73484H4.318L3.463 4.38933L3.5485 4.14633C3.5815 4.34733 3.604 4.55433 3.616 4.76733C3.631 4.97734 3.6385 5.22784 3.6385 5.51884V6.49984H2.896Z" fill="white"/>
<path d="M8.48469 6.54484C8.24469 6.54484 8.02569 6.50434 7.82769 6.42334C7.62969 6.34234 7.45719 6.22834 7.31019 6.08134C7.16319 5.93434 7.04919 5.76184 6.96819 5.56384C6.88719 5.36584 6.84669 5.14834 6.84669 4.91134C6.84669 4.67433 6.88719 4.45683 6.96819 4.25883C7.04919 4.06083 7.16319 3.88833 7.31019 3.74133C7.45719 3.59433 7.62969 3.48033 7.82769 3.39933C8.02569 3.31833 8.24319 3.27783 8.48019 3.27783C8.71719 3.27783 8.93469 3.31833 9.13269 3.39933C9.33069 3.48033 9.50319 3.59433 9.65019 3.74133C9.79719 3.88833 9.90969 4.06083 9.98769 4.25883C10.0687 4.45683 10.1092 4.67433 10.1092 4.91134C10.1092 5.14534 10.0687 5.36284 9.98769 5.56384C9.90969 5.76184 9.79719 5.93434 9.65019 6.08134C9.50319 6.22834 9.33069 6.34234 9.13269 6.42334C8.93469 6.50434 8.71869 6.54484 8.48469 6.54484ZM8.48019 5.82484C8.60319 5.82484 8.71569 5.80234 8.81769 5.75734C8.92269 5.71234 9.01269 5.64934 9.08769 5.56834C9.16569 5.48434 9.22569 5.38684 9.26769 5.27584C9.30969 5.16484 9.33069 5.04334 9.33069 4.91134C9.33069 4.77934 9.30969 4.65783 9.26769 4.54683C9.22569 4.43583 9.16569 4.33983 9.08769 4.25883C9.01269 4.17483 8.92269 4.11033 8.81769 4.06533C8.71569 4.02033 8.60319 3.99783 8.48019 3.99783C8.35719 3.99783 8.24319 4.02033 8.13819 4.06533C8.03619 4.11033 7.94619 4.17483 7.86819 4.25883C7.79019 4.33983 7.73019 4.43583 7.68819 4.54683C7.64919 4.65783 7.62969 4.77934 7.62969 4.91134C7.62969 5.04334 7.64919 5.16634 7.68819 5.28034C7.73019 5.39134 7.79019 5.48734 7.86819 5.56834C7.94619 5.64934 8.03619 5.71234 8.13819 5.75734C8.24319 5.80234 8.35719 5.82484 8.48019 5.82484Z" fill="white"/>
<path d="M10.9036 6.49984V3.34983H11.5876L13.2391 5.59984L13.0906 5.57734C13.0756 5.47834 13.0636 5.38384 13.0546 5.29384C13.0456 5.20384 13.0366 5.11534 13.0276 5.02834C13.0216 4.94134 13.0156 4.85284 13.0096 4.76284C13.0066 4.67283 13.0036 4.57533 13.0006 4.47033C13.0006 4.36533 13.0006 4.25133 13.0006 4.12833V3.34983H13.7431V6.49984H13.0501L11.3266 4.17783L11.5561 4.20933C11.5711 4.35333 11.5831 4.47633 11.5921 4.57833C11.6041 4.67733 11.6131 4.76583 11.6191 4.84383C11.6281 4.92184 11.6341 4.99234 11.6371 5.05534C11.6401 5.11834 11.6416 5.18134 11.6416 5.24434C11.6446 5.30434 11.6461 5.37184 11.6461 5.44684V6.49984H10.9036Z" fill="white"/>
<path d="M15.4199 6.49984V4.02483H14.4839V3.34983H17.1434V4.02483H16.1849V6.49984H15.4199Z" fill="white"/>
<path d="M19.8402 6.49984V3.34983H20.6052V6.49984H19.8402ZM17.8872 6.49984V3.34983H18.6522V6.49984H17.8872ZM18.1842 5.27134L18.1887 4.58733H20.2452V5.27134H18.1842Z" fill="white"/>
<path d="M3 21V13.5H6.19969C6.76028 13.5 7.27354 13.5929 7.73948 13.7786C8.20542 13.9571 8.60584 14.2143 8.94073 14.55C9.2829 14.8857 9.54499 15.2821 9.727 15.7393C9.90901 16.1964 10 16.7 10 17.25C10 17.8 9.90901 18.3072 9.727 18.7714C9.54499 19.2286 9.2829 19.625 8.94073 19.9607C8.60584 20.2893 8.20542 20.5464 7.73948 20.7322C7.27354 20.9107 6.76028 21 6.19969 21H3ZM4.85648 19.7572L4.60531 19.3929H6.14509C6.45086 19.3929 6.72388 19.3429 6.96413 19.2429C7.20438 19.1357 7.40823 18.9893 7.57567 18.8036C7.7504 18.6179 7.88509 18.3929 7.97973 18.1286C8.07437 17.8643 8.1217 17.5714 8.1217 17.25C8.1217 16.9286 8.07437 16.6357 7.97973 16.3714C7.88509 16.1071 7.7504 15.8821 7.57567 15.6964C7.40823 15.5107 7.20438 15.3679 6.96413 15.2679C6.72388 15.1607 6.45086 15.1071 6.14509 15.1071H4.57255L4.85648 14.7643V19.7572Z" fill="#FF7044"/>
<defs>
<linearGradient id="paint0_linear_1945_54806" x1="11.84" y1="9.52664" x2="11.84" y2="23.9521" gradientUnits="userSpaceOnUse">
<stop stop-color="white"/>
<stop offset="1" stop-color="#F3F3F3"/>
</linearGradient>
<radialGradient id="paint1_radial_1945_54806" cx="0" cy="0" r="1" gradientUnits="userSpaceOnUse" gradientTransform="translate(11.7919 0.0618972) scale(18.0001 9.56904)">
<stop stop-color="#58BAE7"/>
<stop offset="0.2909" stop-color="#62C5F2"/>
<stop offset="1" stop-color="#1E88E5"/>
</radialGradient>
<radialGradient id="paint2_radial_1945_54806" cx="0" cy="0" r="1" gradientUnits="userSpaceOnUse" gradientTransform="translate(12.538 14.5127) rotate(180) scale(1.02935 0.996502)">
<stop stop-color="#FDD835"/>
<stop offset="0.2649" stop-color="#FDD434"/>
<stop offset="0.5026" stop-color="#FCCA30"/>
<stop offset="0.6335" stop-color="#FBC02D"/>
<stop offset="1" stop-color="#F9A825"/>
</radialGradient>
<radialGradient id="paint3_radial_1945_54806" cx="0" cy="0" r="1" gradientUnits="userSpaceOnUse" gradientTransform="translate(12.5109 14.5047) scale(0.785479 0.992057)">
<stop stop-color="#FF8A65"/>
<stop offset="0.5688" stop-color="#FF6E41"/>
<stop offset="1" stop-color="#FF5722"/>
</radialGradient>
<radialGradient id="paint4_radial_1945_54806" cx="0" cy="0" r="1" gradientUnits="userSpaceOnUse" gradientTransform="translate(15.3295 14.5127) rotate(180) scale(1.02935 0.996502)">
<stop stop-color="#FDD835"/>
<stop offset="0.2649" stop-color="#FDD434"/>
<stop offset="0.5026" stop-color="#FCCA30"/>
<stop offset="0.6335" stop-color="#FBC02D"/>
<stop offset="1" stop-color="#F9A825"/>
</radialGradient>
<radialGradient id="paint5_radial_1945_54806" cx="0" cy="0" r="1" gradientUnits="userSpaceOnUse" gradientTransform="translate(15.3024 14.5047) scale(0.785479 0.992057)">
<stop stop-color="#FF8A65"/>
<stop offset="0.5688" stop-color="#FF6E41"/>
<stop offset="1" stop-color="#FF5722"/>
</radialGradient>
<radialGradient id="paint6_radial_1945_54806" cx="0" cy="0" r="1" gradientUnits="userSpaceOnUse" gradientTransform="translate(18.122 14.5127) rotate(180) scale(1.02935 0.996502)">
<stop stop-color="#FDD835"/>
<stop offset="0.2649" stop-color="#FDD434"/>
<stop offset="0.5026" stop-color="#FCCA30"/>
<stop offset="0.6335" stop-color="#FBC02D"/>
<stop offset="1" stop-color="#F9A825"/>
</radialGradient>
<radialGradient id="paint7_radial_1945_54806" cx="0" cy="0" r="1" gradientUnits="userSpaceOnUse" gradientTransform="translate(18.0948 14.5047) scale(0.78548 0.992057)">
<stop stop-color="#FF8A65"/>
<stop offset="0.5688" stop-color="#FF6E41"/>
<stop offset="1" stop-color="#FF5722"/>
</radialGradient>
<radialGradient id="paint8_radial_1945_54806" cx="0" cy="0" r="1" gradientUnits="userSpaceOnUse" gradientTransform="translate(20.538 14.5127) rotate(180) scale(1.02935 0.996502)">
<stop stop-color="#FDD835"/>
<stop offset="0.2649" stop-color="#FDD434"/>
<stop offset="0.5026" stop-color="#FCCA30"/>
<stop offset="0.6335" stop-color="#FBC02D"/>
<stop offset="1" stop-color="#F9A825"/>
</radialGradient>
<radialGradient id="paint9_radial_1945_54806" cx="0" cy="0" r="1" gradientUnits="userSpaceOnUse" gradientTransform="translate(20.5109 14.5047) scale(0.78548 0.992057)">
<stop stop-color="#FF8A65"/>
<stop offset="0.5688" stop-color="#FF6E41"/>
<stop offset="1" stop-color="#FF5722"/>
</radialGradient>
<radialGradient id="paint10_radial_1945_54806" cx="0" cy="0" r="1" gradientUnits="userSpaceOnUse" gradientTransform="translate(12.538 16.9785) rotate(180) scale(1.02935 0.996502)">
<stop stop-color="#FDD835"/>
<stop offset="0.2649" stop-color="#FDD434"/>
<stop offset="0.5026" stop-color="#FCCA30"/>
<stop offset="0.6335" stop-color="#FBC02D"/>
<stop offset="1" stop-color="#F9A825"/>
</radialGradient>
<radialGradient id="paint11_radial_1945_54806" cx="0" cy="0" r="1" gradientUnits="userSpaceOnUse" gradientTransform="translate(12.5109 16.9705) scale(0.785479 0.992057)">
<stop stop-color="#FF8A65"/>
<stop offset="0.5688" stop-color="#FF6E41"/>
<stop offset="1" stop-color="#FF5722"/>
</radialGradient>
<radialGradient id="paint12_radial_1945_54806" cx="0" cy="0" r="1" gradientUnits="userSpaceOnUse" gradientTransform="translate(15.3295 16.9785) rotate(180) scale(1.02935 0.996502)">
<stop stop-color="#FDD835"/>
<stop offset="0.2649" stop-color="#FDD434"/>
<stop offset="0.5026" stop-color="#FCCA30"/>
<stop offset="0.6335" stop-color="#FBC02D"/>
<stop offset="1" stop-color="#F9A825"/>
</radialGradient>
<radialGradient id="paint13_radial_1945_54806" cx="0" cy="0" r="1" gradientUnits="userSpaceOnUse" gradientTransform="translate(15.3024 16.9705) scale(0.785479 0.992057)">
<stop stop-color="#FF8A65"/>
<stop offset="0.5688" stop-color="#FF6E41"/>
<stop offset="1" stop-color="#FF5722"/>
</radialGradient>
<radialGradient id="paint14_radial_1945_54806" cx="0" cy="0" r="1" gradientUnits="userSpaceOnUse" gradientTransform="translate(18.122 16.9785) rotate(180) scale(1.02935 0.996502)">
<stop stop-color="#FDD835"/>
<stop offset="0.2649" stop-color="#FDD434"/>
<stop offset="0.5026" stop-color="#FCCA30"/>
<stop offset="0.6335" stop-color="#FBC02D"/>
<stop offset="1" stop-color="#F9A825"/>
</radialGradient>
<radialGradient id="paint15_radial_1945_54806" cx="0" cy="0" r="1" gradientUnits="userSpaceOnUse" gradientTransform="translate(18.0948 16.9705) scale(0.78548 0.992057)">
<stop stop-color="#FF8A65"/>
<stop offset="0.5688" stop-color="#FF6E41"/>
<stop offset="1" stop-color="#FF5722"/>
</radialGradient>
<radialGradient id="paint16_radial_1945_54806" cx="0" cy="0" r="1" gradientUnits="userSpaceOnUse" gradientTransform="translate(20.538 16.9785) rotate(180) scale(1.02935 0.996502)">
<stop stop-color="#FDD835"/>
<stop offset="0.2649" stop-color="#FDD434"/>
<stop offset="0.5026" stop-color="#FCCA30"/>
<stop offset="0.6335" stop-color="#FBC02D"/>
<stop offset="1" stop-color="#F9A825"/>
</radialGradient>
<radialGradient id="paint17_radial_1945_54806" cx="0" cy="0" r="1" gradientUnits="userSpaceOnUse" gradientTransform="translate(20.5109 16.9705) scale(0.78548 0.992057)">
<stop stop-color="#FF8A65"/>
<stop offset="0.5688" stop-color="#FF6E41"/>
<stop offset="1" stop-color="#FF5722"/>
</radialGradient>
<radialGradient id="paint18_radial_1945_54806" cx="0" cy="0" r="1" gradientUnits="userSpaceOnUse" gradientTransform="translate(12.538 19.4448) rotate(180) scale(1.02935 0.996502)">
<stop stop-color="#FDD835"/>
<stop offset="0.2649" stop-color="#FDD434"/>
<stop offset="0.5026" stop-color="#FCCA30"/>
<stop offset="0.6335" stop-color="#FBC02D"/>
<stop offset="1" stop-color="#F9A825"/>
</radialGradient>
<radialGradient id="paint19_radial_1945_54806" cx="0" cy="0" r="1" gradientUnits="userSpaceOnUse" gradientTransform="translate(12.5109 19.4369) scale(0.785479 0.992057)">
<stop stop-color="#FF8A65"/>
<stop offset="0.5688" stop-color="#FF6E41"/>
<stop offset="1" stop-color="#FF5722"/>
</radialGradient>
<radialGradient id="paint20_radial_1945_54806" cx="0" cy="0" r="1" gradientUnits="userSpaceOnUse" gradientTransform="translate(15.3295 19.4448) rotate(180) scale(1.02935 0.996502)">
<stop stop-color="#FDD835"/>
<stop offset="0.2649" stop-color="#FDD434"/>
<stop offset="0.5026" stop-color="#FCCA30"/>
<stop offset="0.6335" stop-color="#FBC02D"/>
<stop offset="1" stop-color="#F9A825"/>
</radialGradient>
<radialGradient id="paint21_radial_1945_54806" cx="0" cy="0" r="1" gradientUnits="userSpaceOnUse" gradientTransform="translate(15.3024 19.4369) scale(0.785479 0.992057)">
<stop stop-color="#FF8A65"/>
<stop offset="0.5688" stop-color="#FF6E41"/>
<stop offset="1" stop-color="#FF5722"/>
</radialGradient>
<radialGradient id="paint22_radial_1945_54806" cx="0" cy="0" r="1" gradientUnits="userSpaceOnUse" gradientTransform="translate(18.122 19.4448) rotate(180) scale(1.02935 0.996502)">
<stop stop-color="#FDD835"/>
<stop offset="0.2649" stop-color="#FDD434"/>
<stop offset="0.5026" stop-color="#FCCA30"/>
<stop offset="0.6335" stop-color="#FBC02D"/>
<stop offset="1" stop-color="#F9A825"/>
</radialGradient>
<radialGradient id="paint23_radial_1945_54806" cx="0" cy="0" r="1" gradientUnits="userSpaceOnUse" gradientTransform="translate(18.0948 19.4369) scale(0.78548 0.992057)">
<stop stop-color="#FF8A65"/>
<stop offset="0.5688" stop-color="#FF6E41"/>
<stop offset="1" stop-color="#FF5722"/>
</radialGradient>
<radialGradient id="paint24_radial_1945_54806" cx="0" cy="0" r="1" gradientUnits="userSpaceOnUse" gradientTransform="translate(20.538 19.4448) rotate(180) scale(1.02935 0.996502)">
<stop stop-color="#FDD835"/>
<stop offset="0.2649" stop-color="#FDD434"/>
<stop offset="0.5026" stop-color="#FCCA30"/>
<stop offset="0.6335" stop-color="#FBC02D"/>
<stop offset="1" stop-color="#F9A825"/>
</radialGradient>
<radialGradient id="paint25_radial_1945_54806" cx="0" cy="0" r="1" gradientUnits="userSpaceOnUse" gradientTransform="translate(20.5109 19.4369) scale(0.78548 0.992057)">
<stop stop-color="#FF8A65"/>
<stop offset="0.5688" stop-color="#FF6E41"/>
<stop offset="1" stop-color="#FF5722"/>
</radialGradient>
</defs>
</svg>
