<svg width="25" height="24" viewBox="0 0 25 24" fill="none" xmlns="http://www.w3.org/2000/svg">
<path d="M6.02233 15.1662C6.02233 16.5538 4.88878 17.6874 3.50115 17.6874C2.11353 17.6874 0.97998 16.5538 0.97998 15.1662C0.97998 13.7786 2.11353 12.645 3.50115 12.645H6.02233V15.1662Z" fill="#E01E5A"/>
<path d="M7.29248 15.1662C7.29248 13.7786 8.42603 12.645 9.81365 12.645C11.2013 12.645 12.3348 13.7786 12.3348 15.1662V21.4789C12.3348 22.8665 11.2013 24.0001 9.81365 24.0001C8.42603 24.0001 7.29248 22.8665 7.29248 21.4789V15.1662Z" fill="#E01E5A"/>
<path d="M9.81365 5.04235C8.42603 5.04235 7.29248 3.90879 7.29248 2.52117C7.29248 1.13355 8.42603 0 9.81365 0C11.2013 0 12.3348 1.13355 12.3348 2.52117V5.04235H9.81365Z" fill="#36C5F0"/>
<path d="M9.81386 6.3125C11.2015 6.3125 12.335 7.44605 12.335 8.83367C12.335 10.2213 11.2015 11.3548 9.81386 11.3548H3.50115C2.11353 11.3548 0.97998 10.2213 0.97998 8.83367C0.97998 7.44605 2.11353 6.3125 3.50115 6.3125H9.81386Z" fill="#36C5F0"/>
<path d="M19.938 8.83367C19.938 7.44605 21.0715 6.3125 22.4592 6.3125C23.8468 6.3125 24.9803 7.44605 24.9803 8.83367C24.9803 10.2213 23.8468 11.3548 22.4592 11.3548H19.938V8.83367Z" fill="#2EB67D"/>
<path d="M18.6673 8.83388C18.6673 10.2215 17.5338 11.355 16.1462 11.355C14.7585 11.355 13.625 10.2215 13.625 8.83388V2.52117C13.625 1.13355 14.7585 0 16.1462 0C17.5338 0 18.6673 1.13355 18.6673 2.52117V8.83388Z" fill="#2EB67D"/>
<path d="M16.1462 18.958C17.5338 18.958 18.6673 20.0916 18.6673 21.4792C18.6673 22.8668 17.5338 24.0003 16.1462 24.0003C14.7585 24.0003 13.625 22.8668 13.625 21.4792V18.958H16.1462Z" fill="#ECB22E"/>
<path d="M16.1462 17.6874C14.7585 17.6874 13.625 16.5538 13.625 15.1662C13.625 13.7786 14.7585 12.645 16.1462 12.645H22.4589C23.8465 12.645 24.98 13.7786 24.98 15.1662C24.98 16.5538 23.8465 17.6874 22.4589 17.6874H16.1462Z" fill="#ECB22E"/>
</svg>
