<svg width="26" height="26" viewBox="0 0 26 26" fill="none" xmlns="http://www.w3.org/2000/svg">
<path d="M1.359 1.359H24.641V24.641H1.359V1.359Z" fill="url(#paint0_linear_1945_55236)" stroke="#C8E6C9" stroke-width="0.718"/>
<path d="M1 1H25V25H1V1Z" stroke="#C8E6C9" stroke-width="0.718" stroke-miterlimit="10"/>
<path d="M1 21H25" stroke="#C8E6C9" stroke-width="0.718" stroke-miterlimit="10"/>
<path d="M1 17H25" stroke="#C8E6C9" stroke-width="0.718" stroke-miterlimit="10"/>
<path d="M1 13H25" stroke="#C8E6C9" stroke-width="0.718" stroke-miterlimit="10"/>
<path d="M1 9H25" stroke="#C8E6C9" stroke-width="0.718" stroke-miterlimit="10"/>
<path d="M1 5H25" stroke="#C8E6C9" stroke-width="0.718" stroke-miterlimit="10"/>
<path d="M21 1V25" stroke="#C8E6C9" stroke-width="0.718" stroke-miterlimit="10"/>
<path d="M17 1V25" stroke="#C8E6C9" stroke-width="0.718" stroke-miterlimit="10"/>
<path d="M13 1V25" stroke="#C8E6C9" stroke-width="0.718" stroke-miterlimit="10"/>
<path d="M9 1V25" stroke="#C8E6C9" stroke-width="0.718" stroke-miterlimit="10"/>
<path d="M5 1V25" stroke="#C8E6C9" stroke-width="0.718" stroke-miterlimit="10"/>
<path d="M3.61681 11.503H6.61481V24.641H3.61681V11.503Z" fill="url(#paint1_linear_1945_55236)"/>
<path d="M3.61681 11.503H6.61481V24.641H3.61681V11.503Z" fill="url(#paint2_linear_1945_55236)"/>
<path d="M3.61681 11.503H6.61481V24.641H3.61681V11.503Z" stroke="#C8E6C9" stroke-width="0.718"/>
<path d="M8.82287 16.6852H11.8209V24.6412H8.82287V16.6852Z" fill="url(#paint3_linear_1945_55236)"/>
<path d="M8.82287 16.6852H11.8209V24.6412H8.82287V16.6852Z" fill="url(#paint4_radial_1945_55236)"/>
<path d="M8.82287 16.6852H11.8209V24.6412H8.82287V16.6852Z" stroke="#C8E6C9" stroke-width="0.718"/>
<path d="M14.0309 7.29894H17.0289V24.6409H14.0309V7.29894Z" fill="url(#paint5_linear_1945_55236)"/>
<path d="M14.0309 7.29894H17.0289V24.6409H14.0309V7.29894Z" fill="url(#paint6_radial_1945_55236)"/>
<path d="M14.0309 7.29894H17.0289V24.6409H14.0309V7.29894Z" stroke="#C8E6C9" stroke-width="0.718"/>
<path d="M19.2369 20.379H22.2349V24.641H19.2369V20.379Z" fill="url(#paint7_linear_1945_55236)"/>
<path d="M19.2369 20.379H22.2349V24.641H19.2369V20.379Z" fill="url(#paint8_linear_1945_55236)"/>
<path d="M19.2369 20.379H22.2349V24.641H19.2369V20.379Z" stroke="#C8E6C9" stroke-width="0.718"/>
<g opacity="0.2">
<mask id="path-17-inside-1_1945_55236" fill="white">
<path d="M24.4 1.6V24.4H1.6V1.6H24.4ZM25 1H1V25H25V1Z"/>
</mask>
<path d="M24.4 1.6V24.4H1.6V1.6H24.4ZM25 1H1V25H25V1Z" fill="#424242"/>
<path d="M24.4 1.6H25.118V0.882H24.4V1.6ZM24.4 24.4V25.118H25.118V24.4H24.4ZM1.6 24.4H0.882V25.118H1.6V24.4ZM1.6 1.6V0.882H0.882V1.6H1.6ZM25 1H25.718V0.282H25V1ZM1 1V0.282H0.282V1H1ZM1 25H0.282V25.718H1V25ZM25 25V25.718H25.718V25H25ZM23.682 1.6V24.4H25.118V1.6H23.682ZM24.4 23.682H1.6V25.118H24.4V23.682ZM2.318 24.4V1.6H0.882V24.4H2.318ZM1.6 2.318H24.4V0.882H1.6V2.318ZM25 0.282H1V1.718H25V0.282ZM0.282 1V25H1.718V1H0.282ZM1 25.718H25V24.282H1V25.718ZM25.718 25V1H24.282V25H25.718Z" fill="#C8E6C9" mask="url(#path-17-inside-1_1945_55236)"/>
</g>
<defs>
<linearGradient id="paint0_linear_1945_55236" x1="13" y1="1.0756" x2="13" y2="24.908" gradientUnits="userSpaceOnUse">
<stop stop-color="white"/>
<stop offset="1" stop-color="#F9FCFF" stop-opacity="0.5"/>
</linearGradient>
<linearGradient id="paint1_linear_1945_55236" x1="5.11561" y1="11.2588" x2="5.11561" y2="24.866" gradientUnits="userSpaceOnUse">
<stop offset="0.0051509" stop-color="#4480F7"/>
<stop offset="1" stop-color="#3462BD"/>
</linearGradient>
<linearGradient id="paint2_linear_1945_55236" x1="3.56644" y1="13.7011" x2="9.03015" y2="15.637" gradientUnits="userSpaceOnUse">
<stop stop-color="#29B6F6"/>
<stop offset="1" stop-color="#039BE5"/>
</linearGradient>
<linearGradient id="paint3_linear_1945_55236" x1="10.3227" y1="16.327" x2="10.3227" y2="25.0002" gradientUnits="userSpaceOnUse">
<stop offset="0.0051509" stop-color="#EC4431"/>
<stop offset="0.3002" stop-color="#E74330"/>
<stop offset="0.6329" stop-color="#DA3F2D"/>
<stop offset="0.9828" stop-color="#C33828"/>
<stop offset="1" stop-color="#C23828"/>
</linearGradient>
<radialGradient id="paint4_radial_1945_55236" cx="0" cy="0" r="1" gradientUnits="userSpaceOnUse" gradientTransform="translate(10.3141 16.3674) scale(2.84487 8.65703)">
<stop stop-color="#FF8A65"/>
<stop offset="0.5688" stop-color="#FF6E41"/>
<stop offset="1" stop-color="#FF5722"/>
</radialGradient>
<linearGradient id="paint5_linear_1945_55236" x1="15.5295" y1="6.93914" x2="15.5295" y2="24.9999" gradientUnits="userSpaceOnUse">
<stop offset="0.0051509" stop-color="#FDD835"/>
<stop offset="0.2697" stop-color="#F9D534"/>
<stop offset="0.5326" stop-color="#EDCB32"/>
<stop offset="0.7941" stop-color="#D9BA2D"/>
<stop offset="1" stop-color="#C4A829"/>
</linearGradient>
<radialGradient id="paint6_radial_1945_55236" cx="0" cy="0" r="1" gradientUnits="userSpaceOnUse" gradientTransform="translate(15.4718 0.731816) scale(4.09991 19.9258)">
<stop stop-color="#FFD740"/>
<stop offset="0.203" stop-color="#FFD43C"/>
<stop offset="0.4162" stop-color="#FFCB2F"/>
<stop offset="0.6332" stop-color="#FFBD1A"/>
<stop offset="0.8336" stop-color="#FFAB00"/>
<stop offset="1" stop-color="#FFAB00"/>
</radialGradient>
<linearGradient id="paint7_linear_1945_55236" x1="20.7359" y1="20.02" x2="20.7359" y2="25" gradientUnits="userSpaceOnUse">
<stop offset="0.0079082" stop-color="#2CA94F"/>
<stop offset="0.9969" stop-color="#207A39"/>
</linearGradient>
<linearGradient id="paint8_linear_1945_55236" x1="19.2868" y1="20.2928" x2="23.2583" y2="22.3906" gradientUnits="userSpaceOnUse">
<stop stop-color="#9CCC65"/>
<stop offset="0.9952" stop-color="#689F38"/>
</linearGradient>
</defs>
</svg>
