<svg width="38" height="24" viewBox="0 0 38 24" fill="none" xmlns="http://www.w3.org/2000/svg">
<path d="M35.5128 24H2.41558C1.08751 24 0.00292969 22.9154 0.00292969 21.5874V2.41265C0.00292969 1.08458 1.08751 0 2.41558 0H35.5128C36.8409 0 37.9255 1.08458 37.9255 2.41265V21.5874C37.9286 22.9154 36.8409 24 35.5128 24Z" fill="url(#paint0_linear_1945_55332)"/>
<path d="M0 5.00537H37.9289V10.0868H0V5.00537Z" fill="#504F4F"/>
<path d="M34.8366 16.471H3.11484C2.80495 16.471 2.54883 16.218 2.54883 15.905V13.2457C2.54883 12.9358 2.80179 12.6797 3.11484 12.6797H34.8366C35.1465 12.6797 35.4026 12.9327 35.4026 13.2457V15.905C35.4026 16.2149 35.1465 16.471 34.8366 16.471Z" fill="white"/>
<path d="M7.04827 13.935C6.72574 14.0362 6.6119 14.4725 6.75419 14.7793C6.89965 15.0828 7.22218 15.2662 7.54155 15.3674C8.21823 15.5761 8.97712 15.5002 9.59688 15.1619C10.2767 14.7887 10.7795 14.1247 11.5004 13.8338C12.5471 13.4133 13.7202 13.8876 14.7289 14.3935C15.7376 14.8994 16.8443 15.4559 17.9384 15.1872C19.0609 14.9121 19.9842 13.7959 21.1289 13.9793C21.8024 14.0868 22.3115 14.6243 22.9091 14.9563C24.1676 15.6583 25.7392 15.4022 27.1052 14.9469C28.4712 14.4884 29.8182 13.8465 31.2601 13.818" stroke="#424242" stroke-width="1.4366" stroke-miterlimit="10" stroke-linecap="round" stroke-linejoin="round"/>
<defs>
<linearGradient id="paint0_linear_1945_55332" x1="18.9642" y1="24.098" x2="18.9642" y2="-0.0388931" gradientUnits="userSpaceOnUse">
<stop stop-color="#FFCA28"/>
<stop offset="1" stop-color="#FFE082"/>
</linearGradient>
</defs>
</svg>
