<svg width="24" height="24" viewBox="0 0 24 24" fill="none" xmlns="http://www.w3.org/2000/svg">
<path opacity="0.2" d="M21.964 0.600001C22.58 0.600001 23.08 1.1 23.08 1.716V21.84C23.08 22.692 22.388 23.384 21.536 23.384H2.144C1.292 23.384 0.600001 22.692 0.600001 21.84V1.716C0.600001 1.1 1.1 0.600001 1.716 0.600001H21.964ZM21.964 0H1.716C0.768002 0 0 0.768002 0 1.716V21.84C0 23.024 0.960002 23.984 2.144 23.984H21.536C22.72 23.984 23.68 23.024 23.68 21.84V1.716C23.68 0.768002 22.912 0 21.964 0Z" fill="#D84315"/>
</svg>
