<svg width="25" height="24" viewBox="0 0 25 24" fill="none" xmlns="http://www.w3.org/2000/svg">
<path d="M12.4508 24C6.46154 24 0 20.2433 0 12C0 3.75671 6.46154 0 12.4508 0C15.7782 0 18.8479 1.09481 21.1234 3.09123C23.5921 5.28086 24.9016 8.37209 24.9016 12C24.9016 15.6279 23.5921 18.6977 21.1234 20.8873C18.8479 22.8837 15.7567 24 12.4508 24Z" fill="url(#paint0_radial_1945_55309)"/>
<path d="M22.7313 4.8667C23.8755 6.71285 24.4723 8.91106 24.4723 11.3561C24.4723 14.9841 23.1628 18.0538 20.6941 20.2434C18.4186 22.2399 15.3274 23.3561 12.0215 23.3561C8.14454 23.3561 4.07871 21.7783 1.67871 18.4316C3.98855 22.2227 8.33345 24.0002 12.4508 24.0002C15.7567 24.0002 18.8479 22.8839 21.1234 20.8875C23.5921 18.6978 24.9016 15.6281 24.9016 12.0002C24.9016 9.26527 24.1567 6.83521 22.7313 4.8667Z" fill="#EB8F00"/>
<path d="M6.50465 9.59572C6.57764 9.59787 6.64848 9.60431 6.71932 9.61719C6.75582 9.61289 6.79446 9.62148 6.82666 9.63866H7.12719C7.21306 9.64295 7.30108 9.63436 7.3848 9.61719C7.47066 9.61719 7.55653 9.57425 7.66387 9.57425C7.75403 9.55923 7.8399 9.52917 7.92147 9.48839C8.09535 9.43687 8.25635 9.34885 8.39374 9.23078C8.46244 9.17926 8.52898 9.1213 8.58694 9.05905C8.62988 8.99465 8.69428 8.93025 8.73721 8.86585L8.86601 8.67264C8.90251 8.61254 8.93256 8.54814 8.95188 8.47944C8.97335 8.41504 8.99481 8.37211 9.01628 8.30771C9.0356 8.25189 9.06566 8.20252 9.10215 8.15744L9.18802 7.9857C9.37263 7.58427 9.8449 7.40824 10.2463 7.59286C10.2506 7.59501 10.2571 7.59715 10.2614 7.5993C10.5147 7.72381 10.6907 7.96424 10.7336 8.24331C10.7358 8.33561 10.7422 8.43007 10.7551 8.52238V8.84438C10.7422 8.98821 10.7208 9.13204 10.6907 9.27372C10.6499 9.44331 10.592 9.6086 10.519 9.76746C10.3988 10.0616 10.2227 10.332 10.0038 10.5617L9.89643 10.6905L9.74616 10.7764C9.57013 10.9245 9.38337 11.0598 9.18802 11.1843C8.98838 11.2873 8.78015 11.3753 8.56548 11.4419L8.41521 11.4848L8.26494 11.5063C8.16619 11.5299 8.0653 11.5449 7.9644 11.5492C7.7712 11.5707 7.578 11.5707 7.3848 11.5492C7.2195 11.5406 7.05421 11.5192 6.89106 11.4848C6.74508 11.4548 6.60125 11.4118 6.46172 11.356C6.40376 11.3388 6.3458 11.3174 6.28998 11.2916C6.24705 11.2701 6.22558 11.2487 6.18265 11.2272C6.1161 11.195 6.0517 11.1585 5.98945 11.1199C5.60519 10.8751 5.49142 10.3685 5.73184 9.98213C5.90143 9.72452 6.19553 9.5764 6.50465 9.59572Z" fill="#422B0D"/>
<path d="M18.0624 15.4774C16.2699 14.9407 14.4066 14.681 12.5368 14.7046C10.6413 14.6874 8.75432 14.9579 6.94037 15.5096C6.31138 16.5336 5.9765 17.71 5.96791 18.9121C5.95718 19.6678 6.5604 20.2881 7.31604 20.2989C7.53285 20.301 7.74967 20.2538 7.94287 20.1572C9.3833 19.4831 10.9482 19.1182 12.5368 19.0839C14.1275 19.1139 15.6924 19.481 17.1307 20.1572C17.8069 20.4921 18.6269 20.2173 18.964 19.5389C19.0606 19.3436 19.11 19.1289 19.1057 18.9121C19.0928 17.6906 18.73 16.4992 18.0624 15.4774Z" fill="#422B0D"/>
<path d="M18.0624 15.4774C16.7658 13.4381 14.4882 12.9229 12.5369 12.9229C10.4159 12.9229 8.17907 13.4531 6.94043 15.4989C8.75438 14.9515 10.6413 14.6831 12.5369 14.7046C14.4066 14.681 16.2699 14.9407 18.0624 15.4774Z" fill="white"/>
<path d="M12.5237 12.6011C13.2794 12.6075 14.0328 12.702 14.7692 12.8801C15.5162 13.0583 16.2225 13.3739 16.8536 13.8118C17.4761 14.2648 17.9892 14.853 18.3563 15.5292C18.7234 16.1882 18.9831 16.903 19.1205 17.6437C19.1892 18.0129 19.2257 18.3864 19.2257 18.7621C19.2343 18.9596 19.2128 19.1549 19.1613 19.346C19.1033 19.5392 19.0067 19.7174 18.8801 19.8719C18.6225 20.1767 18.2511 20.3657 17.8518 20.3936C17.6565 20.4043 17.459 20.3785 17.2722 20.3184C17.0854 20.2497 16.9309 20.166 16.7613 20.1038C15.4303 19.4898 13.9899 19.142 12.5237 19.0841C13.9964 19.0862 15.4561 19.3782 16.8171 19.9428C16.9888 20.0093 17.1606 20.093 17.3194 20.1445C17.4847 20.1896 17.6565 20.2047 17.826 20.1896C18.1652 20.1553 18.4743 19.9857 18.6847 19.7174C18.7856 19.5864 18.8586 19.434 18.8994 19.273C18.938 19.1077 18.9509 18.936 18.9359 18.7664C18.9209 18.4057 18.8736 18.0451 18.7964 17.693C18.6396 16.9954 18.3713 16.3277 17.9978 15.7181C17.6393 15.1127 17.1498 14.5954 16.5659 14.2025C15.9756 13.8247 15.3209 13.5585 14.6339 13.4211C13.9362 13.2816 13.2257 13.2193 12.5151 13.2386L12.5237 12.6011Z" fill="#EB8F00"/>
<path d="M12.5773 13.2451C11.8668 13.2258 11.1562 13.288 10.4607 13.4276C9.77376 13.5649 9.11902 13.8311 8.52868 14.2089C7.94478 14.6018 7.45533 15.1191 7.09683 15.7245C6.72546 16.3342 6.45497 17.0018 6.29826 17.6995C6.22098 18.0515 6.17376 18.4122 6.15873 18.7728C6.1437 18.9424 6.15658 19.1141 6.19522 19.2794C6.23816 19.4404 6.31114 19.5907 6.40989 19.7238C6.62027 19.9921 6.92939 20.1617 7.26857 20.1961C7.43816 20.2111 7.60989 20.1961 7.77519 20.151C7.93619 20.0995 8.10793 20.0157 8.27751 19.9492C9.63852 19.3846 11.0983 19.0927 12.5709 19.0905C11.1069 19.1442 9.66642 19.4855 8.33333 20.0952C8.16589 20.1682 8.00918 20.2519 7.82242 20.3098C7.63565 20.3699 7.43816 20.3957 7.24281 20.385C6.84138 20.3571 6.47 20.1682 6.2124 19.8612C6.0836 19.7066 5.98699 19.5284 5.92903 19.3352C5.87751 19.1442 5.85605 18.9488 5.86463 18.7513C5.86678 18.3757 5.90327 18.0021 5.96982 17.6329C6.1115 16.8923 6.37125 16.1796 6.74048 15.5227C7.10757 14.8465 7.62063 14.2583 8.24317 13.8054C8.87644 13.3696 9.58485 13.0562 10.3319 12.8801C11.0682 12.702 11.8217 12.6075 12.5773 12.6011V13.2451Z" fill="#EB8F00"/>
<path d="M6.68041 5.89932C6.23604 6.08394 6.3627 6.758 6.87146 6.66998C7.9856 6.44029 8.96878 5.79413 9.61708 4.86032C9.86825 4.52329 10.0614 4.14762 10.1881 3.74834C10.2718 3.54869 10.1774 3.31685 9.97558 3.23313C9.77379 3.14941 9.54409 3.24386 9.46037 3.44565L9.4432 3.47141C8.82495 4.57052 7.85036 5.4249 6.68041 5.89932Z" fill="#422B0D"/>
<path d="M18.5602 9.59572C18.4872 9.59787 18.4164 9.60431 18.3456 9.61719C18.3091 9.61289 18.2704 9.62148 18.2382 9.63866H17.9377C17.8518 9.64295 17.7638 9.63436 17.6801 9.61719C17.5942 9.61719 17.5083 9.57425 17.401 9.57425C17.3108 9.55923 17.225 9.52917 17.1434 9.48839C16.9695 9.43687 16.8085 9.34885 16.6711 9.23078C16.6024 9.17926 16.5359 9.1213 16.4779 9.05905C16.435 8.99465 16.3706 8.93025 16.3277 8.86585L16.1989 8.67264C16.1624 8.61254 16.1323 8.54814 16.113 8.47944C16.0915 8.41504 16.0701 8.37211 16.0486 8.30771C16.0314 8.25404 16.0057 8.20252 15.9713 8.15744L15.8854 7.9857C15.7008 7.58427 15.2286 7.40824 14.8271 7.59286C14.8228 7.59501 14.8164 7.59715 14.8121 7.5993C14.5588 7.72381 14.3828 7.96424 14.3398 8.24331C14.3377 8.33561 14.3312 8.43007 14.3184 8.52238V8.84438C14.3312 8.98821 14.3527 9.13204 14.3828 9.27372C14.4235 9.44331 14.4815 9.6086 14.5545 9.76746C14.6747 10.0616 14.8507 10.332 15.0697 10.5617L15.177 10.6905L15.3273 10.7764C15.5033 10.9245 15.6901 11.0598 15.8854 11.1843C16.0851 11.2873 16.2933 11.3753 16.508 11.4419L16.6583 11.4848L16.8085 11.5063C16.9073 11.5299 17.0082 11.5449 17.1091 11.5492C17.3023 11.5707 17.4955 11.5707 17.6887 11.5492C17.854 11.5406 18.0193 11.5192 18.1824 11.4848C18.3284 11.4548 18.4722 11.4118 18.6117 11.356C18.6697 11.3388 18.7277 11.3174 18.7835 11.2916C18.8264 11.2701 18.8479 11.2487 18.8908 11.2272C18.9574 11.195 19.0218 11.1585 19.084 11.1199C19.4683 10.8751 19.582 10.3685 19.3416 9.98213C19.1699 9.72023 18.8715 9.57211 18.5602 9.59572Z" fill="#422B0D"/>
<path d="M18.3843 5.89931C18.8286 6.08393 18.702 6.75799 18.1932 6.66997C17.0791 6.44028 16.0959 5.79412 15.4476 4.86031C15.1964 4.52543 15.0032 4.14761 14.8787 3.74833C14.8079 3.54439 14.9152 3.31899 15.1213 3.24815C15.3081 3.18375 15.5141 3.26747 15.6022 3.44565L15.6193 3.47141C16.2397 4.57051 17.2143 5.42489 18.3843 5.89931Z" fill="#422B0D"/>
<defs>
<radialGradient id="paint0_radial_1945_55309" cx="0" cy="0" r="1" gradientUnits="userSpaceOnUse" gradientTransform="translate(12.4508 12) scale(12.2275)">
<stop offset="0.5" stop-color="#FDE030"/>
<stop offset="0.92" stop-color="#F7C02B"/>
<stop offset="1" stop-color="#F4A223"/>
</radialGradient>
</defs>
</svg>
