<svg width="220" height="200" viewBox="0 0 220 200" fill="none" xmlns="http://www.w3.org/2000/svg">
<g clip-path="url(#clip0_1942_53999)">
<path d="M105.247 180.218C131.5 180.218 152.783 179.345 152.783 178.268C152.783 177.192 131.5 176.319 105.247 176.319C78.9939 176.319 57.7114 177.192 57.7114 178.268C57.7114 179.345 78.9939 180.218 105.247 180.218Z" fill="#E9EAE8"/>
<path d="M120.005 168.192H90.4897V176.476H120.005V168.192Z" fill="#78A6D1"/>
<path d="M176.924 77.2158V165.151C176.924 167.167 175.287 168.803 173.27 168.803H37.226C35.2082 168.803 33.5771 167.167 33.5771 165.151V77.2158C33.5771 75.1994 35.2082 73.564 37.2204 73.564H173.27C175.293 73.5696 176.924 75.1994 176.924 77.2158Z" fill="#93BBE5"/>
<path d="M176.924 77.2158V160.564H33.5713V77.2158C33.5713 75.1994 35.2023 73.564 37.2145 73.564H173.269C175.293 73.5696 176.924 75.1994 176.924 77.2158Z" fill="#93BBE5"/>
<path d="M173.398 77.2212H37.0967V156.716H173.398V77.2212Z" fill="#EEF5FF"/>
<path d="M129.315 178.269H81.1855V177.445C81.1855 176.471 81.9758 175.675 82.9567 175.675H127.55C128.525 175.675 129.321 176.465 129.321 177.445V178.269H129.315Z" fill="#78A6D1"/>
<path d="M117.936 50.449C118.216 50.5723 118.48 50.6731 118.743 50.7515C119.993 51.1324 121.125 51.0651 122.616 50.8299C123.3 50.7179 123.485 50.169 123.204 49.8889C123.692 49.8217 124.18 49.7153 124.673 49.5697C125.379 49.3569 125.368 48.6791 124.931 48.4551C125.166 48.3991 125.407 48.3375 125.648 48.2591C126.601 47.9566 126.31 46.9316 125.346 47.2397C124.056 47.6486 122.823 47.5533 121.573 47.3237C122.56 47.3685 123.558 47.3125 124.555 47.1613C125.48 47.0213 125.312 45.8731 124.387 46.0131C122.644 46.2763 120.845 46.0411 119.13 45.5426C119.662 45.3522 120.206 45.2177 120.778 45.1953C121.708 45.1561 121.545 44.0135 120.609 44.0527C118.67 44.1424 117.347 44.456 115.565 45.2513C115.554 45.257 115.543 45.2682 115.526 45.2738L114.489 45.3466C115.049 47.2285 115.503 49.1384 115.879 51.0595C117.162 50.6843 117.936 50.449 117.936 50.449Z" fill="#FE7D6B"/>
<path d="M121.742 47.3963L121.758 47.2955C121.736 47.2899 119.438 46.909 119.046 46.4722L118.973 46.5394C119.118 46.6962 119.483 46.8474 119.897 46.9763C120.688 47.2227 121.68 47.3907 121.742 47.3963Z" fill="#995033"/>
<path d="M124.931 48.4997L124.92 48.3989C124.881 48.4045 121.237 48.7742 119.046 47.7212L119.001 47.8108C119.259 47.934 119.533 48.0348 119.819 48.1245C122.016 48.7966 124.897 48.4997 124.931 48.4997Z" fill="#995033"/>
<path d="M123.205 49.9337V49.8329C123.165 49.8329 119.511 49.8609 118.995 49.0151L118.911 49.0655C119.046 49.284 119.354 49.4464 119.757 49.5696C121.002 49.9505 123.092 49.9337 123.205 49.9337Z" fill="#995033"/>
<path d="M46.5962 112.989C46.5962 112.989 47.7172 111.908 48.4346 111.606L55.5081 108.671C55.5081 108.671 57.9911 105.557 58.7197 104.61C59.0616 104.168 59.6614 104.039 60.1378 104.302L62.5591 105.652C63.0916 105.949 63.2766 106.632 62.9683 107.175L58.9439 114.748C57.6548 115.896 56.3937 116.82 54.9868 117.817L46.5962 112.989Z" fill="#FE7D6B"/>
<path d="M48.2212 111.051L53.0079 109.063L53.361 108.749C53.8038 108.357 54.4427 108.268 54.9752 108.531C56.0177 109.052 56.9986 109.847 57.6208 110.407C58.0523 110.794 58.2149 111.393 58.0355 111.942L57.7329 112.872C57.8562 112.916 57.9851 112.956 58.114 112.984C60.1486 113.415 59.8908 112.62 60.0421 112.709C60.1374 112.765 59.42 115.807 58.8987 117.952C58.6465 118.988 57.4638 119.492 56.539 118.96L45.9849 112.849C46.0073 112.799 46.0297 112.748 46.0521 112.698C46.5342 111.757 47.5486 111.331 48.2212 111.051Z" fill="#191919"/>
<path d="M101.054 46.937C95.6338 45.7608 88.7116 11.6061 83.5719 30.2741C81.3748 34.6653 93.4478 55.6409 97.7917 54.9071C101.53 54.0502 119.589 54.179 116.075 48.2028C115.672 47.301 115.593 45.8448 114.92 45.2455C110.369 46.1752 105.711 47.0714 101.054 46.937Z" fill="#2276D3"/>
<path d="M86.9571 23.8274C83.6894 22.0687 80.2816 20.7581 76.4702 20.7637C70.9101 20.7693 65.3556 22.1135 60.4232 24.6844C58.3045 25.7878 58.5007 29.3948 58.4783 31.4223C58.4446 34.1836 58.9042 36.9673 60.0981 39.4765C61.3312 42.0697 63.2873 44.2541 64.7726 46.7129C65.7311 48.298 66.953 50.3199 66.9193 52.2243C66.8913 53.871 67.0707 55.3944 67.3005 57.0355C67.435 58.0157 67.4014 59.7744 68.2141 60.4857C68.6233 60.8442 69.1613 61.001 69.6882 61.1186C72.3449 61.7179 75.1082 61.5947 77.821 61.3706C82.8655 60.9506 88.1902 60.0488 92.0015 56.7219C90.4266 51.4065 90.0678 45.9568 89.3616 40.4791C88.9861 37.5442 88.633 34.6037 88.2799 31.6632C88.0557 29.7868 88.0613 28.0057 88.1117 26.1126C88.1509 24.9812 87.9436 24.3595 86.9571 23.8274Z" fill="#297EEC"/>
<path d="M58.8149 61.1133C54.9923 59.209 51.8423 56.5821 49.9311 52.7399C49.6116 52.1014 49.2977 51.446 49.1632 50.7459C48.9726 49.7546 49.1576 48.7352 49.365 47.7494C50.3626 42.9606 51.8984 38.2838 53.9162 33.8254C54.897 31.6635 55.721 29.3895 57.1671 27.4739C58.3105 25.9561 60.3787 24.3878 62.3965 24.9591C64.5264 25.564 65.6362 28.0452 66.2415 29.9832C67.2224 33.1421 66.0789 35.6345 64.958 38.5582C63.5175 42.3109 61.6454 45.8843 60.1377 49.6089C63.5287 52.0453 66.9757 54.3977 70.4788 56.6661C71.2972 57.1926 72.2164 57.6631 72.9843 58.268C73.8979 58.9849 73.5279 59.1642 72.973 60.0323C72.6872 60.4804 70.5965 65.3364 70.5349 65.3196C66.5161 64.3507 62.5198 62.956 58.8149 61.1133Z" fill="#2276D3"/>
<path d="M86.5198 58.0437C86.234 57.6012 85.9033 57.2932 85.6399 57.0859C84.3115 57.45 83.2578 57.478 82.5291 57.4332C81.8845 57.3884 81.1727 57.2988 80.3656 57.6516C80.0069 57.8085 79.7266 58.1053 79.4408 58.3798C78.5776 59.2199 77.5911 59.9368 76.5206 60.5025C76.7056 61.0794 77.4062 61.4267 77.9779 61.2306C78.1404 61.1746 78.2918 61.0794 78.4319 60.9842C79.1213 60.5305 79.7827 60.032 80.4104 59.4887C80.5057 59.4047 80.6851 59.3375 80.7299 59.4551C80.2311 59.9872 79.693 60.4801 79.1213 60.9282C78.729 61.2362 78.3198 61.5275 77.933 61.8468C77.4566 62.25 77.025 62.7037 76.6159 63.1742C76.4421 63.3758 76.2628 63.5886 76.1955 63.8463C76.1282 64.1039 76.2067 64.4176 76.4421 64.5464C76.7448 64.7144 77.1091 64.5016 77.3782 64.2888C78.5216 63.3814 79.4912 62.2164 80.8308 61.6283C79.3175 62.6701 77.8434 63.7623 76.4085 64.9105C76.33 64.9721 76.2516 65.0393 76.2123 65.1289C76.1282 65.3306 76.2796 65.5546 76.4309 65.7114C76.5038 65.7842 76.5822 65.8626 76.6831 65.8906C76.8513 65.9355 77.0138 65.8346 77.154 65.7394C78.6505 64.72 80.1526 63.7007 81.6491 62.6813C81.3633 63.3478 80.7748 63.8407 80.147 64.2104C79.5193 64.5744 78.8354 64.8377 78.2021 65.1961C78.062 65.2745 77.9106 65.3754 77.8658 65.5266C77.7985 65.7506 77.9779 65.9691 78.1404 66.1427C78.2021 66.2043 78.2693 66.2715 78.3534 66.3051C78.4879 66.3555 78.6393 66.2995 78.7738 66.2435C79.9732 65.7338 81.0942 65.0449 82.0919 64.2048C82.3385 63.9975 82.6356 63.7623 82.9495 63.8239C82.2264 64.8321 81.2007 65.577 80.2367 66.3723C80.119 66.4731 79.9845 66.6076 80.0293 66.7588C80.0854 66.9548 80.3712 66.9492 80.5674 66.882C82.417 66.2771 83.779 64.7424 85.0457 63.2694C85.382 62.8773 85.7183 62.4909 85.9818 62.0484C86.3125 61.4995 86.7328 61.0234 86.8449 60.861C86.9795 60.6762 87.0859 60.5193 87.1644 60.4073C87.1868 59.9648 87.142 58.9903 86.5198 58.0437Z" fill="#E5A589"/>
<path d="M62.7719 108.105C66.3703 104.151 70.6917 99.3508 75.5568 93.8451C80.2986 88.4738 85.6681 82.3127 90.3258 73.3904C92.9378 68.3831 94.4007 64.272 92.6575 61.4996C92.0634 60.553 90.5108 58.8335 88.2632 58.5142C86.6546 58.2846 85.2029 58.8447 84.6536 59.0575C84.4575 59.1359 83.4149 59.5448 82.35 60.385C76.8571 64.7201 72.1041 73.6256 72.1041 73.6256C65.4118 86.1662 68.545 79.8595 65.7985 85.3204C63.4332 90.014 60.2833 96.3319 56.584 103.921C58.6466 105.31 60.7092 106.71 62.7719 108.105Z" fill="#114175"/>
<path d="M93.6833 64.866H60.0871C59.3417 64.866 58.7419 64.2611 58.7419 63.5218C58.344 56.9687 57.9404 50.4156 57.5425 43.8568C57.5425 43.7448 57.5425 43.1399 58.0245 42.6582C58.557 42.1205 59.2464 42.171 59.3473 42.1766C71.0841 42.2158 82.8209 42.255 94.5576 42.2942C94.737 42.3278 95.1462 42.4286 95.5217 42.7759C95.9701 43.1847 96.0878 43.6832 96.1214 43.8568C95.7627 50.41 95.3984 56.9631 95.0397 63.5218C95.0285 64.2667 94.4231 64.866 93.6833 64.866Z" fill="#1C8C44"/>
<path d="M94.4514 63.5496H59.0841C58.9216 63.5496 58.7646 63.5216 58.6133 63.4712C58.6133 63.488 58.6133 63.5104 58.6189 63.5272C58.6189 64.2721 59.2242 64.8714 59.9641 64.8714H93.5602C94.3057 64.8714 94.9054 64.2665 94.9054 63.5272C94.9054 63.5104 94.9054 63.4936 94.911 63.4768C94.7653 63.516 94.6139 63.5496 94.4514 63.5496Z" fill="#C6D1D1"/>
<path d="M76.9476 55.9834C77.9103 55.9802 78.6882 55.1977 78.685 54.2357C78.6818 53.2736 77.8987 52.4964 76.936 52.4996C75.9733 52.5028 75.1955 53.2852 75.1987 54.2473C75.2019 55.2093 75.9849 55.9866 76.9476 55.9834Z" fill="#3F6FA2"/>
<path d="M95.914 72.5392C90.9312 72.36 84.9114 72.1135 78.0734 71.7719C71.3979 71.4358 63.7919 71.0045 54.8016 68.2937C49.7627 66.7758 46.0579 65.0731 45.346 62.1046C45.0994 61.0908 44.9649 58.9401 46.2148 57.2374C47.106 56.0164 48.4287 55.4171 48.9276 55.1874C49.1069 55.1034 50.0598 54.6777 51.3097 54.5153C57.7778 53.6808 66.8186 56.3076 66.8186 56.3076C79.5475 60.0099 73.298 57.9935 78.7348 59.7186C83.4093 61.2029 89.6757 63.2136 97.1527 65.6836C96.7379 67.9744 96.3287 70.2596 95.914 72.5392Z" fill="#184785"/>
<path d="M70.9103 16.6751L69.9351 14.3843L70.6133 14.7987C70.6133 14.7987 70.9271 15.6949 71.0504 16.2774C71.1681 16.8543 70.9103 16.6751 70.9103 16.6751Z" fill="#184785"/>
<path d="M71.1625 14.0596C71.1625 14.3172 71.084 24.3093 71.084 24.3093C71.084 24.3093 72.1882 25.6648 73.8584 25.676C75.5287 25.6872 77.0533 23.7044 77.0533 23.7044L76.8179 17.9074L71.1625 14.0596Z" fill="#FE7D6B"/>
<path d="M76.9074 20.0916C73.3426 21.6262 71.5546 17.4647 71.521 17.4087C72.6532 17.9688 76.5879 19.2066 76.8737 19.2458L76.9074 20.0916Z" fill="#856758"/>
<path d="M75.0072 19.8284C72.3617 19.8508 70.6353 17.3023 70.6073 14.7987L70.5681 10.8276C70.5456 8.324 72.4738 6.27405 74.8727 6.25165C77.2772 6.22925 79.2389 8.23999 79.267 10.7492L79.3062 14.7203C79.3342 17.2239 77.6527 19.8004 75.0072 19.8284Z" fill="#FE7D6B"/>
<path d="M70.1535 11.9927C69.6771 12.0208 69.3464 12.5584 69.3464 12.5584C69.3464 12.5584 68.1638 10.4133 68.2366 9.05225C68.3095 7.69121 69.3688 7.25434 69.3688 7.25434C69.3688 7.25434 69.3408 6.31898 69.7219 5.64126C70.417 4.39785 71.992 4.83472 71.992 4.83472C71.992 4.83472 72.6589 3.73133 73.4605 3.58571C75.2148 3.26646 75.8201 3.94417 75.8201 3.94417C75.8201 3.94417 76.4983 3.16004 77.7539 3.65852C79.0038 4.15701 78.7179 5.40042 78.7179 5.40042C78.7179 5.40042 80.887 4.57708 81.3915 6.40299C81.7166 7.57919 81.4868 9.07465 79.9734 9.27628C79.0934 9.3939 78.3256 8.70499 78.3256 8.70499C78.3256 8.70499 78.0733 9.27629 76.9299 9.3827C75.4951 9.51713 74.8169 8.41934 74.8169 8.41934C74.8169 8.41934 74.8169 8.67138 73.9201 9.3827C73.0233 10.0996 71.4651 9.16987 71.4651 9.16987L71.2521 10.8614L70.658 12.8385L70.5907 12.1216C70.5907 12.1216 70.4562 11.9759 70.1535 11.9927Z" fill="#184785"/>
<path d="M69.1501 13.4268C69.1557 14.2165 69.6489 14.8494 70.2431 14.8438C71.3529 14.8326 71.3192 14.1941 71.308 13.4044C71.3024 12.6147 70.8092 11.9817 70.215 11.9873C69.6153 11.9929 69.1389 12.6371 69.1501 13.4268Z" fill="#FE7D6B"/>
<path d="M69.5817 12.9952C69.6266 12.8048 69.7331 12.5808 69.9292 12.508C70.0974 12.4408 70.3328 12.5472 70.3384 12.7432C70.3384 12.7824 70.2767 12.7936 70.2711 12.7544C70.2543 12.6592 70.1703 12.6032 70.0806 12.6032C69.9853 12.6032 69.8956 12.676 69.8452 12.7488C69.7275 12.9112 69.6882 13.1297 69.705 13.3257C69.7219 13.5217 69.7947 13.729 69.9292 13.8802C69.9909 13.9474 70.0694 14.009 70.159 14.037C70.2375 14.0594 70.344 14.065 70.4169 14.0314C70.4449 14.0146 70.4897 14.0482 70.4673 14.0818C70.4169 14.1546 70.3496 14.2051 70.2599 14.2107C70.1647 14.2107 70.0694 14.177 69.9853 14.1266C69.8059 14.0202 69.6826 13.8298 69.6154 13.6338C69.5425 13.4209 69.5313 13.2025 69.5817 12.9952Z" fill="#DEAC93"/>
<path d="M104.972 72.1525C103.402 73.3679 101.889 74.3761 100.863 74.3593L93.4927 70.8867C92.921 70.6795 92.2036 70.4611 92.3941 69.901L93.2685 67.3301C93.4423 66.826 93.9579 66.5348 94.4848 66.6412C95.6226 66.8764 99.4115 67.599 99.4115 67.599C101.738 66.8092 104.064 66.0195 106.39 65.2298C107.102 64.9889 107.836 64.7201 108.542 65.0169C108.57 65.0281 104.972 72.1525 104.972 72.1525Z" fill="#FE7D6B"/>
<path d="M100.325 72.5056C100.404 72.3992 100.465 72.2928 100.527 72.1751L99.5966 71.6038C99.1874 71.3518 98.9576 70.8925 99.0025 70.4108C99.0865 69.5651 99.2883 68.1985 99.7591 67.0447C99.9497 66.5686 100.421 66.2661 100.931 66.2717L101.267 66.2773L106.939 62.3735C107.606 62.1494 108.604 61.8078 109.557 62.2054C109.691 62.2614 109.809 62.3903 109.91 62.5751L103.43 75.4853C103.234 75.8774 102.752 76.0286 102.365 75.8158C100.471 74.7628 97.9375 73.0713 98.072 73.0265C98.8567 72.7856 99.137 74.1467 100.325 72.5056Z" fill="#191919"/>
<path d="M76.5152 14.384C76.5208 14.384 76.532 14.384 76.5376 14.384C76.745 14.356 77.7651 14.1824 77.8268 13.6335C77.8772 13.1518 77.0869 11.6899 76.9244 11.4043C76.8795 11.3259 76.7842 11.2979 76.7114 11.3427C76.6329 11.3875 76.6049 11.4827 76.6497 11.5555C76.9972 12.1884 77.5409 13.303 77.5129 13.5999C77.4905 13.8295 76.8907 14.0199 76.4928 14.0759C76.4087 14.0871 76.347 14.1656 76.3583 14.2552C76.3695 14.328 76.4367 14.384 76.5152 14.384Z" fill="#C6493C"/>
<path d="M79.0036 11.6285C79.0261 11.8973 78.8411 12.1326 78.6001 12.1494C78.3591 12.1662 78.1405 11.9645 78.1181 11.6957C78.0956 11.4268 78.2806 11.1916 78.5216 11.1748C78.7682 11.158 78.9812 11.3596 79.0036 11.6285Z" fill="#363435"/>
<path d="M73.4605 10.3908C73.4997 10.3908 73.5333 10.3796 73.5669 10.3516C74.2508 9.73548 75.1307 10.1836 75.1419 10.1892C75.2204 10.2284 75.3157 10.2004 75.3549 10.122C75.3942 10.0435 75.3661 9.94832 75.2877 9.90911C75.2428 9.88671 74.2003 9.36022 73.354 10.1163C73.2867 10.1724 73.2811 10.2732 73.3428 10.3404C73.3764 10.3684 73.4156 10.3908 73.4605 10.3908Z" fill="black"/>
<path d="M77.8268 9.99306C77.8604 9.99306 77.894 9.98186 77.9221 9.95946C77.9445 9.94266 78.4882 9.52818 79.0262 9.90905C79.0991 9.95946 79.1944 9.94265 79.2448 9.86984C79.2953 9.79703 79.2785 9.70181 79.2056 9.6514C78.6171 9.23693 77.9781 9.51138 77.7259 9.71301C77.6586 9.76902 77.6474 9.86424 77.6979 9.93705C77.7315 9.97066 77.7763 9.99306 77.8268 9.99306Z" fill="black"/>
<path d="M74.957 15.3139C77.143 15.7228 78.0734 15.2915 78.0734 15.2915C78.0734 15.2915 78.2023 16.6469 76.9356 16.815C75.1308 17.0558 74.957 15.3139 74.957 15.3139Z" fill="#D65E42"/>
<path d="M77.9947 15.3198C77.9947 15.3198 77.9498 15.5718 77.9274 15.6223C77.905 15.6727 77.7032 15.8295 76.8176 15.9135C76.0722 15.9863 75.2819 15.8015 75.0577 15.7399C74.968 15.499 74.9512 15.3086 74.9512 15.3086C75.0801 15.331 75.2034 15.3534 75.3211 15.3702C76.9129 15.6222 77.7536 15.4038 77.9947 15.3198Z" fill="white"/>
<path d="M74.8861 12.5995C75.1392 12.58 75.3271 12.3393 75.3058 12.0617C75.2844 11.7841 75.062 11.5748 74.8089 11.5942C74.5558 11.6136 74.3679 11.8544 74.3892 12.132C74.4106 12.4096 74.633 12.6189 74.8861 12.5995Z" fill="#363435"/>
<path d="M169.3 87.8464V148.684C169.3 150.174 168.095 151.378 166.604 151.378H94.3786C92.8877 151.378 91.6826 150.168 91.6826 148.684V87.8464C91.6826 86.3565 92.8877 85.1523 94.3786 85.1523H166.604C168.095 85.1579 169.3 86.3621 169.3 87.8464Z" fill="#E4ECF9"/>
<path d="M94.3787 149.86C93.7285 149.86 93.2017 149.334 93.2017 148.684V94.5341C93.2017 93.8844 93.7285 93.3579 94.3787 93.3579H166.604C167.249 93.3579 167.776 93.8844 167.776 94.5341V148.684C167.776 149.334 167.249 149.86 166.604 149.86H94.3787Z" fill="white"/>
<path d="M95.6622 90.9493C96.2906 90.9493 96.8 90.4402 96.8 89.8123C96.8 89.1843 96.2906 88.6753 95.6622 88.6753C95.0338 88.6753 94.5244 89.1843 94.5244 89.8123C94.5244 90.4402 95.0338 90.9493 95.6622 90.9493Z" fill="#1C8C44"/>
<path d="M98.6944 90.9493C99.3228 90.9493 99.8323 90.4402 99.8323 89.8123C99.8323 89.1843 99.3228 88.6753 98.6944 88.6753C98.0661 88.6753 97.5566 89.1843 97.5566 89.8123C97.5566 90.4402 98.0661 90.9493 98.6944 90.9493Z" fill="#1C8C44"/>
<path d="M101.733 90.9493C102.361 90.9493 102.87 90.4402 102.87 89.8123C102.87 89.1843 102.361 88.6753 101.733 88.6753C101.104 88.6753 100.595 89.1843 100.595 89.8123C100.595 90.4402 101.104 90.9493 101.733 90.9493Z" fill="#1C8C44"/>
<path d="M201.315 191.352C200.357 192.002 199.376 192.623 198.367 193.217C197.364 193.811 196.355 194.36 195.335 194.864C191.31 194.936 186.961 194.981 182.426 194.981C161.884 194.981 145.232 194.108 145.232 193.032C145.232 192.545 148.617 192.102 154.211 191.761C155.724 191.671 157.4 191.587 159.222 191.509C165.578 191.24 173.649 191.083 182.426 191.083C189.321 191.083 195.783 191.184 201.315 191.352Z" fill="#E9EAE8"/>
<path d="M127.997 43.3522L127.453 40.3557C127.364 39.846 127.722 39.3699 128.232 39.3195L145.664 37.5272L145.182 35.0852C145.07 34.5139 145.473 33.9706 146.056 33.9146L160.052 32.5816C160.528 32.5368 160.954 32.8784 161.005 33.3545L164.272 62.3899C164.311 62.7372 164.065 63.0508 163.717 63.09L162.798 63.202L127.997 43.3522Z" fill="#F89D13"/>
<path d="M127.997 43.3522L127.453 40.3557C127.364 39.846 127.722 39.3699 128.232 39.3195L145.664 37.5272L145.182 35.0852C145.07 34.5139 145.473 33.9706 146.056 33.9146L160.052 32.5816C160.528 32.5368 160.954 32.8784 161.005 33.3545L164.272 62.3899C164.311 62.7372 164.065 63.0508 163.717 63.09L162.798 63.202L127.997 43.3522Z" fill="#F89D13"/>
<path d="M125.71 47.5808L124.841 42.1255L160.108 38.7705L162.809 63.2019L125.71 47.5808Z" fill="#F3F6F9"/>
<path d="M129.662 65.8793L123.395 46.0015C123.182 45.3181 123.647 44.6124 124.359 44.5452L155.484 41.5095C155.943 41.4647 156.369 41.7503 156.498 42.1928L162.809 63.2076L130.968 66.7362C130.385 66.7978 129.835 66.4394 129.662 65.8793Z" fill="#F89D13"/>
<path d="M148.035 121.329C148.023 121.581 148.007 121.822 147.967 122.046C147.799 123.127 147.34 123.95 146.622 124.986C146.292 125.462 145.81 125.401 145.697 125.087C145.468 125.429 145.215 125.759 144.924 126.073C144.509 126.526 144.005 126.269 143.994 125.86C143.865 126.017 143.73 126.174 143.59 126.33C143.018 126.941 142.351 126.347 142.929 125.731C143.702 124.908 144.083 123.944 144.363 122.925C144.038 123.681 143.635 124.415 143.158 125.109C142.716 125.754 141.914 125.21 142.357 124.566C143.186 123.351 143.668 121.911 143.909 120.438C143.573 120.769 143.276 121.133 143.052 121.553C142.682 122.236 141.88 121.704 142.256 121.01C143.024 119.581 143.747 118.702 144.991 117.649C145.002 117.643 145.008 117.638 145.019 117.627C146.432 115.056 147.85 112.479 149.262 109.908C153.303 102.935 154.508 101.77 154.862 101.938C155.22 102.106 155.097 103.809 152.216 111.639C150.82 114.871 149.43 118.097 148.035 121.329Z" fill="#CC724A"/>
<path d="M201.271 178.576C201.271 178.576 200.66 185.908 202.19 185.785C204.191 185.622 207.218 174.689 207.218 174.689L207.93 175.305L208.905 173.883L206.388 171.401L201.271 178.576Z" fill="#297EEC"/>
<path d="M182.074 156.167L201.248 173.401C201.248 173.401 200.783 182.458 202.1 182.071C204.006 181.511 206.388 171.402 206.388 171.402L191.333 152.874L182.074 156.167Z" fill="#CC724A"/>
<path d="M158.589 186.866C158.589 186.866 153.051 191.716 154.239 192.685C155.798 193.956 165.567 188.193 165.567 188.193L165.651 189.128L167.344 188.781L167.26 185.252L158.589 186.866Z" fill="#297EEC"/>
<path d="M160.691 162.126L162.17 183.13C162.17 183.13 155.54 189.325 156.756 189.957C158.516 190.876 167.26 185.258 167.26 185.258L169.311 161.477L160.691 162.126Z" fill="#CC724A"/>
<path d="M172.725 113.146C167.691 113.566 162.86 113.79 157.894 112.664C157.726 112.625 157.558 112.58 157.384 112.541V162.378L200.705 159.102C200.705 159.102 191.501 125.121 187.572 112.351C182.634 112.793 177.601 112.743 172.725 113.146Z" fill="#F89D13"/>
<path d="M179.653 112.782L179.894 114.809L175.09 115.375L170.331 115.958L170.034 113.342C169.939 113.348 169.844 113.353 169.749 113.359L170.079 116.126C170.09 116.199 170.158 116.255 170.231 116.243L175.124 115.622L180.011 114.978C180.062 114.972 180.095 114.922 180.09 114.871L179.809 112.765C179.759 112.776 179.709 112.776 179.653 112.782Z" fill="#CC7A0D"/>
<path d="M192.566 141.056C191.86 138.378 191.131 135.707 190.408 133.035C189.679 130.363 188.951 127.692 188.217 125.026L187.09 121.026L185.941 117.033C185.549 115.706 185.167 114.373 184.753 113.051C184.702 112.883 184.646 112.72 184.596 112.552C184.512 112.558 184.422 112.563 184.338 112.569L184.506 113.124C184.915 114.445 185.291 115.778 185.677 117.106L186.81 121.099L187.925 125.098C188.671 127.764 189.41 130.431 190.145 133.102L192.342 141.112L194.539 149.121L196.747 157.125C196.069 154.442 195.374 151.765 194.679 149.082L192.566 141.056Z" fill="#CC7A0D"/>
<path d="M160.747 96.1808C160.797 106.358 158.763 114.625 158.763 114.625C158.763 114.625 167.927 119.279 178.823 115.851C178.952 115.812 186.614 113.645 186.614 113.645C186.434 113.23 185.409 102.521 185.235 102.146C182.937 97.2114 182.309 95.139 182.034 93.6212C181.53 90.7871 181.519 87.8578 181.771 85.0909C182.438 77.776 184.411 71.699 184.411 71.699C181.446 71.0269 178.666 69.8731 175.577 68.7137C174.866 69.5986 172.697 70.4892 170.808 70.4444C168.639 70.394 167.938 69.4698 168.044 68.4561C165.735 69.7443 163.891 70.9541 163.891 70.9541C161.924 74.3651 157.939 77.6808 157.653 82.9121C157.574 84.206 160.747 95.8952 160.747 96.1808Z" fill="white"/>
<path d="M179.159 97.3178C180.095 98.6397 181.889 106.683 186.35 107.696C184.052 101.967 182.304 99.4518 182.034 97.6875C181.53 94.3997 181.519 90.9943 181.771 87.785C180.28 85.1693 179.165 83.377 179.165 83.377C179.047 82.9514 176.788 75.9782 176.065 82.212C175.337 88.4403 178.111 95.8392 179.159 97.3178Z" fill="#5F9AA8"/>
<path d="M167.013 69.4419C162.882 70.1588 160.41 72.0967 158.947 73.6426C153.174 79.7365 156.212 87.0401 150.192 100.538C147.003 107.696 144.644 114.703 144.644 114.703L150.271 120.086C150.277 120.086 159.799 108.968 167.013 69.4419Z" fill="#297EEC"/>
<path d="M168.045 68.4614C168.045 68.4614 162.938 81.0748 162.787 83.6232C162.636 86.1773 162.187 125.362 162.187 125.362C162.187 125.362 162.484 127.165 159.032 126.409C155.579 125.658 154.677 124.908 154.677 124.908C154.677 124.908 155.501 118.864 156.218 111.774C157.177 102.23 156.538 98.2921 157.081 92.3327C157.547 87.1966 158.819 79.8258 162.512 70.9427C164.351 70.1137 166.201 69.2904 168.045 68.4614Z" fill="#297EEC"/>
<path d="M176.004 124.611C176.004 124.611 177.304 129.316 181.816 128.716C186.322 128.117 192.734 125.412 192.734 125.412C192.734 125.412 190.806 119.329 188.413 111.342C185.515 101.669 181.923 89.2017 180.23 81.338C179.753 79.1312 179.428 77.2941 179.311 75.9723L175.572 68.7246C175.572 68.7246 169.995 81.2316 169.698 84.3793C169.395 87.527 176.004 124.611 176.004 124.611Z" fill="#297EEC"/>
<path d="M179.03 79.7643L184.405 71.7101L175.572 68.7192L175.527 70.1027L179.03 79.7643Z" fill="#297EEC"/>
<path d="M154.537 62.3174C154.755 63.7456 154.979 65.1851 155.22 66.6301C156.184 72.4775 157.277 78.1457 158.477 83.6234C160.226 82.7609 161.974 81.8927 163.723 81.0302C162.507 74.8803 161.291 68.7305 160.08 62.575C158.23 62.491 156.381 62.4014 154.537 62.3174Z" fill="#CC724A"/>
<path d="M173.952 66.0475C174.998 66.0475 175.847 64.8589 175.847 63.3926C175.847 61.9264 174.998 60.7378 173.952 60.7378C172.906 60.7378 172.058 61.9264 172.058 63.3926C172.058 64.8589 172.906 66.0475 173.952 66.0475Z" fill="#F89D13"/>
<path d="M167.148 62.4909C167.148 62.4909 166.727 66.658 166.055 67.1229C166.055 67.1229 167.781 67.711 170.057 67.543C172.332 67.3749 168.33 61.9868 168.33 61.9868L167.148 62.4909Z" fill="#F89D13"/>
<path d="M173.599 61.1133C173.599 61.3485 173.599 70.3325 173.599 70.3325C173.599 70.3325 171.278 73.721 169.776 73.721C168.274 73.721 168.509 70.7861 168.509 70.7861L168.481 64.5355L173.599 61.1133Z" fill="#CC724A"/>
<path d="M173.117 64.0815C173.083 64.132 171.721 67.9462 168.498 66.4899L168.493 65.689C168.554 65.7114 172.069 64.5912 173.117 64.0815Z" fill="#CC724A"/>
<path d="M169.597 66.0811C171.94 66.4844 173.846 64.468 174.227 62.2501L174.832 58.727C175.213 56.5035 173.795 54.4087 171.665 54.0446C169.535 53.6806 167.501 55.1816 167.12 57.4052L166.514 60.9282C166.127 63.1462 167.254 65.6778 169.597 66.0811Z" fill="#CC724A"/>
<path d="M174.395 53.731C174.395 53.731 178.694 55.4112 177.679 62.446C177.556 63.2974 178.38 64.8881 178.313 65.4762C178.094 67.3077 176.637 67.4029 176.637 67.4029L171.929 67.4365C171.929 67.4365 174.059 65.9691 174.227 62.25L174.933 58.0269L174.395 53.731Z" fill="#F89D13"/>
<path d="M175.723 61.2417C175.606 61.9418 175.079 62.4347 174.546 62.3451C173.565 62.1771 173.689 61.6114 173.807 60.9113C173.924 60.2112 174.451 59.7183 174.984 59.8079C175.51 59.8975 175.841 60.5416 175.723 61.2417Z" fill="#CC724A"/>
<path d="M175.398 60.7937C175.387 60.62 175.325 60.4016 175.163 60.3064C175.022 60.2224 174.798 60.284 174.765 60.452C174.759 60.4856 174.809 60.5024 174.821 60.4688C174.849 60.3904 174.927 60.3512 175.011 60.3624C175.095 60.3792 175.163 60.452 175.202 60.5248C175.28 60.6873 175.286 60.8833 175.241 61.0569C175.202 61.2306 175.101 61.4042 174.961 61.5162C174.894 61.5666 174.815 61.6058 174.731 61.6226C174.658 61.6338 174.563 61.6226 174.507 61.5778C174.484 61.561 174.44 61.5834 174.456 61.617C174.49 61.6898 174.546 61.7458 174.624 61.757C174.709 61.7738 174.798 61.757 174.877 61.7234C175.056 61.6506 175.185 61.4994 175.275 61.337C175.37 61.1801 175.409 60.9841 175.398 60.7937Z" fill="#CC724A"/>
<path d="M172.904 53.0869C171.441 52.6892 170.426 53.0813 169.776 53.5742C169.558 53.4285 169.16 53.3445 168.42 53.5518C167.848 53.7142 167.338 54.5543 167.147 55.232C166.772 56.5595 167.063 58.1837 167.063 58.1837C167.063 58.1837 168.319 56.453 168.582 55.7809C168.672 55.5569 168.745 55.3665 168.807 55.1984C168.801 56.033 168.963 57.6292 170.309 57.8533C170.438 57.8757 170.566 57.8925 170.707 57.9037L170.225 56.1058L171.183 57.9485C171.57 57.9765 171.973 58.0045 172.371 58.0605L171.57 56.4026L172.887 58.1613C173.279 58.251 173.649 58.391 173.969 58.615C174.557 59.0239 174.148 61.0346 174.114 61.2083L174.557 59.8584L174.563 59.8472L174.58 59.8528C174.709 59.8024 174.849 59.7856 174.983 59.8136C175.213 59.8528 175.409 59.9985 175.544 60.2113L175.549 60.2169C175.549 60.2169 176.239 59.0239 176.312 57.6629C176.384 56.2962 175.863 53.8822 172.904 53.0869Z" fill="#F89D13"/>
<path d="M154.536 62.3174C154.536 62.3174 154.166 61.8806 154.015 61.6677C153.286 60.6315 153.006 59.573 152.771 58.1279C152.664 57.467 153.118 57.1253 153.46 57.299C153.376 56.8285 153.32 56.3468 153.314 55.8539C153.298 55.1426 153.925 54.9466 154.262 55.2826C154.239 55.0474 154.228 54.8121 154.222 54.5657C154.211 53.5967 155.242 53.5575 155.254 54.5321C155.27 55.8371 155.724 56.9517 156.319 58.0271C155.977 57.1309 155.724 56.2012 155.562 55.2322C155.411 54.3361 156.52 54.1512 156.666 55.0418C156.952 56.7221 157.709 58.3127 158.69 59.7354C158.701 59.1921 158.661 58.6488 158.51 58.1167C158.269 57.2486 159.368 57.0525 159.614 57.9263C160.119 59.7354 160.231 61.0516 160.035 62.9335C160.035 62.9503 160.029 62.9615 160.024 62.9727C159.698 63.9249 159.368 64.8771 159.043 65.8292C160.147 67.0839 160.461 68.8482 159.844 70.3716C158.959 72.5728 156.644 73.0153 156.509 73.0377C155.859 69.4643 154.536 62.3174 154.536 62.3174Z" fill="#CC724A"/>
<path d="M156.19 57.8925L156.274 57.8477C156.285 57.8701 157.333 59.864 157.855 60.0992L157.815 60.1889C157.625 60.1048 157.378 59.8136 157.137 59.4663C156.672 58.8054 156.224 57.9485 156.19 57.8925Z" fill="#995033"/>
<path d="M154.217 55.2939L154.312 55.2715C154.318 55.3051 155.08 58.7721 156.711 60.4692L156.638 60.5364C156.448 60.3404 156.268 60.1163 156.1 59.8811C154.822 58.0608 154.222 55.3219 154.217 55.2939Z" fill="#995033"/>
<path d="M153.416 57.3156L153.511 57.2876C153.522 57.3212 154.604 60.6986 155.54 60.9114L155.517 61.0066C155.276 60.9506 155.03 60.7098 154.8 60.3793C154.066 59.3488 153.449 57.422 153.416 57.3156Z" fill="#995033"/>
<path d="M184.405 71.7102C184.405 71.7102 188.732 76.0061 186.613 80.9518C185.151 84.3684 174.552 99.715 164.395 97.1778C161.296 96.4048 160.068 93.0162 158.477 89.7285C155.097 82.7553 155.399 76.135 155.803 72.8192C156.498 72.4159 157.378 71.9903 158.432 71.643C160.029 71.1165 161.458 70.9709 162.512 70.9429C163.235 73.4297 164.037 76.0061 164.928 78.6442C165.785 81.1926 166.671 83.6346 167.568 85.9702C173.178 81.215 178.789 76.4654 184.405 71.7102Z" fill="#3B93F4"/>
<path d="M169.519 62.1326C169.513 62.1326 169.507 62.1326 169.502 62.1326C169.35 62.1102 168.588 61.9814 168.543 61.5725C168.504 61.214 169.093 60.1274 169.21 59.9146C169.244 59.8586 169.311 59.8362 169.367 59.8698C169.423 59.9034 169.446 59.9706 169.412 60.0266C169.154 60.4971 168.751 61.326 168.773 61.5445C168.79 61.7125 169.233 61.8525 169.53 61.8973C169.592 61.9085 169.636 61.9646 169.631 62.0318C169.625 62.0878 169.575 62.1326 169.519 62.1326Z" fill="#C6493C"/>
<path d="M167.669 60.0878C167.652 60.2895 167.787 60.4631 167.972 60.4743C168.157 60.4855 168.313 60.3399 168.33 60.1382C168.347 59.9366 168.213 59.763 168.028 59.7518C167.843 59.735 167.686 59.8862 167.669 60.0878Z" fill="#363435"/>
<path d="M171.789 59.1641C171.761 59.1641 171.732 59.1529 171.71 59.1361C171.2 58.6824 170.55 59.0128 170.539 59.0128C170.483 59.0408 170.41 59.0184 170.382 58.9624C170.354 58.9064 170.376 58.8336 170.432 58.8056C170.466 58.7888 171.239 58.3967 171.867 58.9624C171.917 59.0072 171.917 59.08 171.878 59.1305C171.85 59.1529 171.817 59.1641 171.789 59.1641Z" fill="black"/>
<path d="M168.543 58.8726C168.515 58.8726 168.493 58.867 168.47 58.8502C168.454 58.839 168.05 58.531 167.652 58.811C167.602 58.8502 167.523 58.8334 167.489 58.783C167.45 58.7326 167.467 58.6542 167.517 58.6206C167.955 58.3125 168.425 58.5142 168.616 58.6654C168.666 58.7046 168.678 58.7774 168.633 58.8278C168.61 58.8558 168.577 58.8726 168.543 58.8726Z" fill="black"/>
<path d="M170.673 62.8215C169.048 63.124 168.358 62.8047 168.358 62.8047C168.358 62.8047 168.263 63.8129 169.205 63.9361C170.55 64.1153 170.673 62.8215 170.673 62.8215Z" fill="#D65E42"/>
<path d="M168.414 62.8269C168.414 62.8269 168.448 63.0173 168.465 63.0509C168.481 63.0901 168.633 63.2021 169.288 63.2694C169.843 63.3254 170.426 63.1853 170.594 63.1405C170.662 62.9613 170.673 62.8213 170.673 62.8213C170.578 62.8381 170.488 62.8549 170.398 62.8661C169.221 63.0509 168.599 62.8885 168.414 62.8269Z" fill="white"/>
<path d="M171.101 60.4506C171.117 60.244 170.977 60.0647 170.789 60.0503C170.6 60.0358 170.435 60.1916 170.419 60.3983C170.403 60.6049 170.543 60.7842 170.731 60.7986C170.919 60.8131 171.085 60.6573 171.101 60.4506Z" fill="#363435"/>
<g clip-path="url(#clip1_1942_53999)">
<path d="M109.592 107.283H107.709C107.677 107.283 107.651 107.309 107.65 107.342C107.619 108.242 106.88 108.963 105.973 108.963C105.066 108.963 104.327 108.242 104.296 107.342C104.295 107.31 104.321 107.283 104.353 107.283H105.89C105.936 107.283 105.973 107.246 105.973 107.2C105.973 107.2 105.973 105.534 105.972 105.302C105.972 105.287 105.961 105.276 105.946 105.276C105.066 105.262 104.351 104.569 104.302 103.697C104.299 103.643 104.253 103.601 104.199 103.601H102.4C102.341 103.601 102.293 103.649 102.293 103.708V105.28V107.221C102.293 109.355 104.038 111.072 106.167 110.961C108.089 110.861 109.621 109.285 109.652 107.344C109.653 107.311 109.625 107.283 109.592 107.283Z" fill="#1C8C44"/>
<path d="M105.908 114.37H99.1235C99.0554 114.37 98.992 114.333 98.9582 114.274C98.9242 114.215 98.9242 114.142 98.9582 114.083L100.337 111.693C100.361 111.652 100.358 111.601 100.329 111.564C99.2975 110.203 98.7927 108.509 98.9083 106.793C99.1457 103.258 101.991 100.428 105.525 100.211C107.426 100.094 109.254 100.722 110.671 101.982C112.091 103.243 112.933 104.978 113.042 106.869C113.156 108.843 112.48 110.714 111.139 112.136C110.48 112.835 109.698 113.384 108.815 113.769C107.901 114.168 106.923 114.37 105.908 114.37ZM99.26 114.1H105.908C107.847 114.1 109.636 113.336 110.943 111.951C112.232 110.584 112.882 108.784 112.772 106.884C112.667 105.066 111.858 103.396 110.492 102.184C109.129 100.973 107.371 100.368 105.542 100.48C102.142 100.689 99.406 103.411 99.1771 106.811C99.0661 108.462 99.5514 110.092 100.544 111.4C100.638 111.524 100.649 111.692 100.57 111.828L99.26 114.1Z" fill="#1C8C44"/>
</g>
<path d="M104.851 123.536L103.287 128.551H102.678L101.407 124.726C101.396 124.688 101.384 124.649 101.372 124.607C101.363 124.565 101.353 124.52 101.341 124.474C101.329 124.52 101.318 124.565 101.306 124.607C101.294 124.649 101.283 124.688 101.271 124.726L99.9934 128.551H99.3844L97.8199 123.536H98.3834C98.4441 123.536 98.4943 123.551 98.5339 123.581C98.5759 123.612 98.6028 123.65 98.6144 123.697L99.6504 127.183C99.6668 127.246 99.6819 127.313 99.6959 127.386C99.7123 127.458 99.7274 127.535 99.7414 127.617C99.7578 127.535 99.7741 127.458 99.7904 127.386C99.8091 127.311 99.8289 127.243 99.8499 127.183L101.029 123.697C101.043 123.657 101.07 123.621 101.11 123.588C101.152 123.553 101.202 123.536 101.26 123.536H101.456C101.517 123.536 101.566 123.551 101.603 123.581C101.641 123.612 101.669 123.65 101.687 123.697L102.863 127.183C102.884 127.243 102.903 127.309 102.919 127.379C102.938 127.449 102.956 127.522 102.972 127.599C102.984 127.522 102.996 127.449 103.01 127.379C103.024 127.309 103.04 127.243 103.056 127.183L104.095 123.697C104.107 123.655 104.133 123.617 104.172 123.585C104.214 123.552 104.265 123.536 104.323 123.536H104.851ZM106.549 124.95C106.808 124.95 107.041 124.993 107.249 125.079C107.457 125.166 107.634 125.288 107.781 125.447C107.928 125.605 108.04 125.798 108.117 126.024C108.196 126.248 108.236 126.499 108.236 126.777C108.236 127.057 108.196 127.309 108.117 127.533C108.04 127.757 107.928 127.948 107.781 128.107C107.634 128.265 107.457 128.388 107.249 128.474C107.041 128.558 106.808 128.6 106.549 128.6C106.288 128.6 106.052 128.558 105.842 128.474C105.634 128.388 105.457 128.265 105.31 128.107C105.163 127.948 105.05 127.757 104.971 127.533C104.894 127.309 104.855 127.057 104.855 126.777C104.855 126.499 104.894 126.248 104.971 126.024C105.05 125.798 105.163 125.605 105.31 125.447C105.457 125.288 105.634 125.166 105.842 125.079C106.052 124.993 106.288 124.95 106.549 124.95ZM106.549 128.114C106.899 128.114 107.16 127.997 107.333 127.764C107.506 127.528 107.592 127.2 107.592 126.78C107.592 126.358 107.506 126.029 107.333 125.793C107.16 125.558 106.899 125.44 106.549 125.44C106.372 125.44 106.217 125.47 106.084 125.531C105.953 125.591 105.843 125.679 105.755 125.793C105.668 125.908 105.603 126.049 105.559 126.217C105.517 126.382 105.496 126.57 105.496 126.78C105.496 127.2 105.582 127.528 105.755 127.764C105.93 127.997 106.194 128.114 106.549 128.114ZM109.618 125.716C109.73 125.474 109.867 125.285 110.031 125.149C110.194 125.012 110.394 124.943 110.629 124.943C110.704 124.943 110.775 124.951 110.843 124.967C110.913 124.984 110.975 125.009 111.028 125.044L110.983 125.51C110.969 125.568 110.934 125.597 110.878 125.597C110.845 125.597 110.797 125.59 110.734 125.576C110.671 125.562 110.6 125.555 110.521 125.555C110.409 125.555 110.308 125.572 110.22 125.604C110.133 125.637 110.055 125.686 109.985 125.751C109.918 125.814 109.856 125.894 109.8 125.989C109.746 126.083 109.697 126.19 109.653 126.311V128.551H109.026V125.006H109.383C109.451 125.006 109.498 125.019 109.523 125.044C109.549 125.07 109.566 125.114 109.576 125.177L109.618 125.716ZM112.203 123.396V126.43H112.364C112.41 126.43 112.449 126.424 112.479 126.413C112.512 126.399 112.546 126.372 112.581 126.332L113.701 125.132C113.733 125.092 113.767 125.062 113.802 125.041C113.839 125.017 113.888 125.006 113.949 125.006H114.513L113.207 126.395C113.144 126.475 113.076 126.536 113.004 126.581C113.046 126.609 113.083 126.641 113.116 126.679C113.151 126.714 113.184 126.755 113.214 126.801L114.6 128.551H114.044C113.99 128.551 113.943 128.543 113.904 128.527C113.866 128.508 113.834 128.475 113.806 128.429L112.64 126.976C112.605 126.927 112.57 126.896 112.535 126.882C112.502 126.865 112.451 126.857 112.381 126.857H112.203V128.551H111.576V123.396H112.203ZM117.196 125.59C117.168 125.642 117.125 125.667 117.066 125.667C117.031 125.667 116.992 125.654 116.947 125.629C116.903 125.603 116.848 125.575 116.783 125.545C116.72 125.512 116.644 125.483 116.555 125.457C116.467 125.429 116.362 125.415 116.24 125.415C116.135 125.415 116.041 125.429 115.957 125.457C115.873 125.483 115.8 125.519 115.74 125.566C115.681 125.612 115.636 125.667 115.603 125.73C115.573 125.791 115.558 125.857 115.558 125.93C115.558 126.021 115.583 126.097 115.635 126.157C115.688 126.218 115.758 126.27 115.845 126.315C115.931 126.359 116.029 126.399 116.139 126.434C116.248 126.466 116.36 126.503 116.475 126.542C116.591 126.58 116.705 126.622 116.814 126.668C116.924 126.715 117.022 126.773 117.108 126.843C117.195 126.913 117.263 127 117.315 127.102C117.368 127.203 117.395 127.324 117.395 127.466C117.395 127.63 117.366 127.781 117.308 127.921C117.249 128.059 117.163 128.179 117.049 128.282C116.934 128.382 116.794 128.461 116.629 128.52C116.463 128.578 116.272 128.607 116.055 128.607C115.807 128.607 115.583 128.568 115.383 128.488C115.182 128.407 115.012 128.303 114.872 128.177L115.019 127.939C115.037 127.908 115.06 127.885 115.085 127.869C115.111 127.852 115.144 127.844 115.183 127.844C115.225 127.844 115.27 127.861 115.316 127.893C115.363 127.926 115.419 127.962 115.484 128.002C115.552 128.041 115.634 128.078 115.729 128.11C115.825 128.143 115.944 128.159 116.086 128.159C116.208 128.159 116.314 128.144 116.405 128.114C116.496 128.081 116.572 128.038 116.632 127.984C116.693 127.931 116.737 127.869 116.765 127.799C116.796 127.729 116.811 127.654 116.811 127.575C116.811 127.477 116.784 127.396 116.73 127.333C116.679 127.268 116.61 127.213 116.524 127.169C116.437 127.122 116.338 127.082 116.226 127.05C116.117 127.015 116.003 126.979 115.887 126.941C115.772 126.904 115.659 126.862 115.547 126.815C115.438 126.766 115.34 126.706 115.253 126.633C115.167 126.561 115.097 126.472 115.043 126.367C114.992 126.26 114.966 126.13 114.966 125.979C114.966 125.843 114.994 125.714 115.05 125.59C115.106 125.464 115.188 125.355 115.295 125.261C115.403 125.166 115.534 125.09 115.691 125.034C115.847 124.978 116.026 124.95 116.226 124.95C116.46 124.95 116.668 124.987 116.853 125.062C117.039 125.134 117.2 125.234 117.336 125.363L117.196 125.59ZM118.786 127.697C118.9 127.851 119.025 127.96 119.16 128.023C119.295 128.086 119.447 128.117 119.615 128.117C119.946 128.117 120.201 127.999 120.378 127.764C120.555 127.528 120.644 127.192 120.644 126.756C120.644 126.525 120.623 126.326 120.581 126.161C120.541 125.995 120.483 125.86 120.406 125.755C120.329 125.647 120.235 125.569 120.123 125.52C120.011 125.471 119.883 125.447 119.741 125.447C119.538 125.447 119.36 125.493 119.206 125.587C119.054 125.68 118.914 125.812 118.786 125.982V127.697ZM118.754 125.555C118.903 125.371 119.076 125.223 119.272 125.111C119.468 124.999 119.692 124.943 119.944 124.943C120.149 124.943 120.335 124.982 120.501 125.062C120.666 125.139 120.807 125.254 120.924 125.408C121.041 125.56 121.131 125.749 121.194 125.975C121.257 126.202 121.288 126.462 121.288 126.756C121.288 127.017 121.253 127.261 121.183 127.487C121.113 127.711 121.012 127.906 120.879 128.072C120.748 128.235 120.587 128.365 120.396 128.46C120.207 128.554 119.993 128.6 119.755 128.6C119.538 128.6 119.351 128.564 119.195 128.492C119.041 128.417 118.905 128.314 118.786 128.184V129.752H118.159V125.006H118.534C118.622 125.006 118.677 125.049 118.698 125.135L118.754 125.555ZM124.004 126.955C123.717 126.965 123.472 126.988 123.269 127.025C123.069 127.06 122.904 127.107 122.776 127.165C122.65 127.224 122.558 127.292 122.499 127.372C122.443 127.451 122.415 127.54 122.415 127.638C122.415 127.731 122.431 127.812 122.461 127.879C122.491 127.947 122.532 128.003 122.583 128.047C122.637 128.089 122.699 128.121 122.769 128.142C122.841 128.16 122.918 128.17 123 128.17C123.11 128.17 123.21 128.159 123.301 128.138C123.392 128.115 123.477 128.082 123.556 128.04C123.638 127.998 123.715 127.948 123.787 127.89C123.862 127.831 123.934 127.765 124.004 127.69V126.955ZM121.992 125.506C122.188 125.317 122.399 125.176 122.625 125.083C122.852 124.989 123.103 124.943 123.378 124.943C123.576 124.943 123.752 124.975 123.906 125.041C124.06 125.106 124.19 125.197 124.295 125.314C124.4 125.43 124.479 125.572 124.533 125.737C124.587 125.903 124.613 126.085 124.613 126.283V128.551H124.337C124.276 128.551 124.23 128.542 124.197 128.523C124.164 128.502 124.139 128.463 124.12 128.404L124.05 128.068C123.957 128.155 123.866 128.232 123.777 128.299C123.688 128.365 123.595 128.421 123.497 128.467C123.399 128.512 123.294 128.545 123.182 128.569C123.072 128.594 122.95 128.607 122.814 128.607C122.677 128.607 122.547 128.589 122.426 128.551C122.305 128.512 122.198 128.453 122.107 128.376C122.019 128.299 121.948 128.202 121.894 128.086C121.843 127.967 121.817 127.827 121.817 127.666C121.817 127.526 121.855 127.392 121.932 127.263C122.009 127.133 122.134 127.017 122.307 126.917C122.48 126.816 122.705 126.735 122.982 126.672C123.26 126.606 123.601 126.569 124.004 126.56V126.283C124.004 126.008 123.945 125.8 123.826 125.66C123.707 125.518 123.533 125.447 123.304 125.447C123.15 125.447 123.021 125.467 122.916 125.506C122.813 125.544 122.723 125.587 122.646 125.636C122.572 125.682 122.506 125.726 122.45 125.765C122.397 125.803 122.343 125.821 122.289 125.821C122.247 125.821 122.211 125.811 122.181 125.79C122.151 125.766 122.125 125.738 122.104 125.706L121.992 125.506ZM128.03 125.636C128.011 125.661 127.993 125.681 127.974 125.695C127.955 125.709 127.93 125.716 127.897 125.716C127.862 125.716 127.823 125.702 127.781 125.674C127.739 125.644 127.687 125.611 127.624 125.576C127.563 125.541 127.487 125.51 127.396 125.482C127.308 125.451 127.198 125.436 127.067 125.436C126.892 125.436 126.738 125.468 126.605 125.531C126.472 125.591 126.36 125.68 126.269 125.797C126.181 125.913 126.113 126.055 126.066 126.22C126.022 126.386 126 126.571 126 126.777C126 126.991 126.024 127.183 126.073 127.351C126.122 127.516 126.191 127.656 126.28 127.771C126.371 127.883 126.479 127.969 126.605 128.03C126.734 128.088 126.877 128.117 127.036 128.117C127.188 128.117 127.312 128.1 127.41 128.065C127.508 128.027 127.589 127.987 127.652 127.942C127.717 127.898 127.771 127.858 127.813 127.823C127.857 127.786 127.9 127.767 127.942 127.767C127.994 127.767 128.033 127.787 128.061 127.827L128.236 128.054C128.159 128.15 128.072 128.232 127.974 128.299C127.876 128.367 127.77 128.424 127.655 128.471C127.543 128.515 127.426 128.548 127.302 128.569C127.178 128.59 127.052 128.6 126.924 128.6C126.702 128.6 126.496 128.559 126.304 128.478C126.115 128.396 125.951 128.278 125.811 128.124C125.671 127.968 125.561 127.777 125.482 127.55C125.403 127.324 125.363 127.066 125.363 126.777C125.363 126.513 125.399 126.269 125.471 126.045C125.546 125.821 125.653 125.629 125.793 125.468C125.936 125.304 126.11 125.177 126.315 125.086C126.523 124.995 126.761 124.95 127.029 124.95C127.279 124.95 127.498 124.991 127.687 125.072C127.878 125.152 128.047 125.265 128.194 125.412L128.03 125.636ZM131.217 126.392C131.217 126.247 131.196 126.115 131.154 125.996C131.114 125.875 131.054 125.771 130.975 125.685C130.898 125.596 130.804 125.528 130.692 125.482C130.58 125.433 130.452 125.408 130.31 125.408C130.011 125.408 129.775 125.496 129.6 125.671C129.427 125.843 129.32 126.084 129.278 126.392H131.217ZM131.721 128.054C131.644 128.148 131.551 128.229 131.444 128.299C131.337 128.367 131.221 128.423 131.098 128.467C130.976 128.512 130.85 128.544 130.72 128.565C130.589 128.589 130.459 128.6 130.331 128.6C130.086 128.6 129.86 128.559 129.652 128.478C129.447 128.394 129.268 128.272 129.117 128.114C128.967 127.953 128.851 127.754 128.767 127.519C128.683 127.283 128.641 127.012 128.641 126.707C128.641 126.459 128.678 126.228 128.753 126.014C128.83 125.799 128.939 125.614 129.082 125.457C129.224 125.299 129.398 125.175 129.603 125.086C129.808 124.995 130.039 124.95 130.296 124.95C130.508 124.95 130.704 124.986 130.884 125.058C131.066 125.128 131.222 125.231 131.353 125.366C131.486 125.499 131.59 125.665 131.665 125.863C131.739 126.059 131.777 126.283 131.777 126.535C131.777 126.633 131.766 126.699 131.745 126.731C131.724 126.764 131.684 126.78 131.626 126.78H129.257C129.264 127.004 129.294 127.199 129.348 127.365C129.404 127.53 129.481 127.669 129.579 127.781C129.677 127.891 129.793 127.974 129.929 128.03C130.064 128.083 130.216 128.11 130.384 128.11C130.54 128.11 130.674 128.093 130.786 128.058C130.9 128.02 130.998 127.981 131.08 127.939C131.162 127.897 131.229 127.858 131.283 127.823C131.339 127.786 131.387 127.767 131.427 127.767C131.478 127.767 131.518 127.787 131.546 127.827L131.721 128.054Z" fill="#878B87"/>
</g>
<defs>
<clipPath id="clip0_1942_53999">
<rect width="219.685" height="200" fill="white" transform="translate(0.157715)"/>
</clipPath>
<clipPath id="clip1_1942_53999">
<rect width="14.1623" height="14.1729" fill="white" transform="translate(98.8916 100.197)"/>
</clipPath>
</defs>
</svg>
