<svg width="107" height="6" viewBox="0 0 107 6" fill="none" xmlns="http://www.w3.org/2000/svg">
<path d="M107 3L102 5.88675V0.113249L107 3ZM0.333333 3C0.333333 1.52724 1.52724 0.333333 3 0.333333C4.47276 0.333333 5.66667 1.52724 5.66667 3C5.66667 4.47276 4.47276 5.66667 3 5.66667C1.52724 5.66667 0.333333 4.47276 0.333333 3ZM3 2.5H4V3.5H3V2.5ZM6 2.5H8V3.5H6V2.5ZM10 2.5H12V3.5H10V2.5ZM14 2.5H16V3.5H14V2.5ZM18 2.5H20V3.5H18V2.5ZM22 2.5H24V3.5H22V2.5ZM26 2.5H28V3.5H26V2.5ZM30 2.5H32V3.5H30V2.5ZM34 2.5H36V3.5H34V2.5ZM38 2.5H40V3.5H38V2.5ZM42 2.5H44V3.5H42V2.5ZM46 2.5H48V3.5H46V2.5ZM50 2.5H52V3.5H50V2.5ZM54 2.5H56V3.5H54V2.5ZM58 2.5H60V3.5H58V2.5ZM62 2.5H64V3.5H62V2.5ZM66 2.5H68V3.5H66V2.5ZM70 2.5H72V3.5H70V2.5ZM74 2.5H76V3.5H74V2.5ZM78 2.5H80V3.5H78V2.5ZM82 2.5H84V3.5H82V2.5ZM86 2.5H88V3.5H86V2.5ZM90 2.5H92V3.5H90V2.5ZM94 2.5H96V3.5H94V2.5ZM98 2.5H100V3.5H98V2.5ZM102 2.5H104V3.5H102V2.5Z" fill="#1C8C44"/>
</svg>
