<svg width="75" height="6" viewBox="0 0 75 6" fill="none" xmlns="http://www.w3.org/2000/svg">
<path d="M69.3333 3C69.3333 4.47276 70.5272 5.66667 72 5.66667C73.4728 5.66667 74.6667 4.47276 74.6667 3C74.6667 1.52724 73.4728 0.333333 72 0.333333C70.5272 0.333333 69.3333 1.52724 69.3333 3ZM0 3L5 5.88675V0.113249L0 3ZM3 3.5H5V2.5H3V3.5ZM7 3.5H9V2.5H7V3.5ZM11 3.5H13V2.5H11V3.5ZM15 3.5H17V2.5H15V3.5ZM19 3.5H21V2.5H19V3.5ZM23 3.5H25V2.5H23V3.5ZM27 3.5H29V2.5H27V3.5ZM31 3.5H33V2.5H31V3.5ZM35 3.5H37V2.5H35V3.5ZM39 3.5H41V2.5H39V3.5ZM43 3.5H45V2.5H43V3.5ZM47 3.5H49V2.5H47V3.5ZM51 3.5H53V2.5H51V3.5ZM55 3.5H57V2.5H55V3.5ZM59 3.5H61V2.5H59V3.5ZM63 3.5H65V2.5H63V3.5ZM67 3.5H69V2.5H67V3.5ZM71 3.5H72V2.5H71V3.5Z" fill="#1C8C44"/>
</svg>
