<svg width="6" height="75" viewBox="0 0 6 75" fill="none" xmlns="http://www.w3.org/2000/svg">
<path d="M0.333333 72C0.333333 73.4728 1.52724 74.6667 3 74.6667C4.47276 74.6667 5.66667 73.4728 5.66667 72C5.66667 70.5272 4.47276 69.3333 3 69.3333C1.52724 69.3333 0.333333 70.5272 0.333333 72ZM3 0L0.113249 5H5.88675L3 0ZM2.5 3V5H3.5V3H2.5ZM2.5 7V9H3.5V7H2.5ZM2.5 11V13H3.5V11H2.5ZM2.5 15V17H3.5V15H2.5ZM2.5 19V21H3.5V19H2.5ZM2.5 23V25H3.5V23H2.5ZM2.5 27V29H3.5V27H2.5ZM2.5 31V33H3.5V31H2.5ZM2.5 35V37H3.5V35H2.5ZM2.5 39V41H3.5V39H2.5ZM2.5 43V45H3.5V43H2.5ZM2.5 47V49H3.5V47H2.5ZM2.5 51V53H3.5V51H2.5ZM2.5 55V57H3.5V55H2.5ZM2.5 59V61H3.5V59H2.5ZM2.5 63V65H3.5V63H2.5ZM2.5 67V69H3.5V67H2.5ZM2.5 71V72H3.5V71H2.5Z" fill="#1C8C44"/>
</svg>
