<svg width="187" height="45" viewBox="0 0 187 45" fill="none" xmlns="http://www.w3.org/2000/svg">
<path d="M186.667 42C186.667 40.5272 185.473 39.3333 184 39.3333C182.527 39.3333 181.333 40.5272 181.333 42C181.333 43.4728 182.527 44.6667 184 44.6667C185.473 44.6667 186.667 43.4728 186.667 42ZM3 42H2.5V42.5H3V42ZM3 0L0.113251 5H5.88675L3 0ZM184 41.5H182.994V42.5H184V41.5ZM180.983 41.5H178.972V42.5H180.983V41.5ZM176.961 41.5H174.95V42.5H176.961V41.5ZM172.939 41.5H170.928V42.5H172.939V41.5ZM168.917 41.5H166.906V42.5H168.917V41.5ZM164.894 41.5H162.883V42.5H164.894V41.5ZM160.872 41.5H158.861V42.5H160.872V41.5ZM156.85 41.5H154.839V42.5H156.85V41.5ZM152.828 41.5H150.817V42.5H152.828V41.5ZM148.806 41.5H146.794V42.5H148.806V41.5ZM144.783 41.5H142.772V42.5H144.783V41.5ZM140.761 41.5H138.75V42.5H140.761V41.5ZM136.739 41.5H134.728V42.5H136.739V41.5ZM132.717 41.5H130.706V42.5H132.717V41.5ZM128.694 41.5H126.683V42.5H128.694V41.5ZM124.672 41.5H122.661V42.5H124.672V41.5ZM120.65 41.5H118.639V42.5H120.65V41.5ZM116.628 41.5H114.617V42.5H116.628V41.5ZM112.606 41.5H110.594V42.5H112.606V41.5ZM108.583 41.5H106.572V42.5H108.583V41.5ZM104.561 41.5H102.55V42.5H104.561V41.5ZM100.539 41.5H98.5278V42.5H100.539V41.5ZM96.5167 41.5H94.5056V42.5H96.5167V41.5ZM92.4945 41.5H90.4834V42.5H92.4945V41.5ZM88.4723 41.5H86.4611V42.5H88.4723V41.5ZM84.45 41.5H82.4389V42.5H84.45V41.5ZM80.4278 41.5H78.4167V42.5H80.4278V41.5ZM76.4056 41.5H74.3945V42.5H76.4056V41.5ZM72.3834 41.5H70.3723V42.5H72.3834V41.5ZM68.3612 41.5H66.3501V42.5H68.3612V41.5ZM64.339 41.5H62.3279V42.5H64.339V41.5ZM60.3167 41.5H58.3056V42.5H60.3167V41.5ZM56.2945 41.5H54.2834V42.5H56.2945V41.5ZM52.2723 41.5H50.2612V42.5H52.2723V41.5ZM48.2501 41.5H46.239V42.5H48.2501V41.5ZM44.2279 41.5H42.2168V42.5H44.2279V41.5ZM40.2056 41.5H38.1945V42.5H40.2056V41.5ZM36.1834 41.5H34.1723V42.5H36.1834V41.5ZM32.1612 41.5H30.1501V42.5H32.1612V41.5ZM28.139 41.5H26.1279V42.5H28.139V41.5ZM24.1168 41.5H22.1057V42.5H24.1168V41.5ZM20.0946 41.5H18.0835V42.5H20.0946V41.5ZM16.0723 41.5H14.0612V42.5H16.0723V41.5ZM12.0501 41.5H10.039V42.5H12.0501V41.5ZM8.02791 41.5H6.0168V42.5H8.02791V41.5ZM4.00569 41.5H3V42.5H4.00569V41.5ZM3.5 42V41.0455H2.5V42H3.5ZM3.5 39.1364V37.2273H2.5V39.1364H3.5ZM3.5 35.3182V33.4091H2.5V35.3182H3.5ZM3.5 31.5V29.5909H2.5V31.5H3.5ZM3.5 27.6818V25.7727H2.5V27.6818H3.5ZM3.5 23.8636V21.9545H2.5V23.8636H3.5ZM3.5 20.0455V18.1364H2.5V20.0455H3.5ZM3.5 16.2273V14.3182H2.5V16.2273H3.5ZM3.5 12.4091V10.5H2.5V12.4091H3.5ZM3.5 8.59092V6.68183H2.5V8.59092H3.5ZM3.5 4.77274V2.86364H2.5V4.77274H3.5Z" fill="#1C8C44"/>
</svg>
