<svg width="187" height="48" viewBox="0 0 187 48" fill="none" xmlns="http://www.w3.org/2000/svg">
<path d="M0.333333 3C0.333333 4.47276 1.52724 5.66667 3 5.66667C4.47276 5.66667 5.66667 4.47276 5.66667 3C5.66667 1.52724 4.47276 0.333333 3 0.333333C1.52724 0.333333 0.333333 1.52724 0.333333 3ZM184 3H184.5V2.5H184V3ZM184 48L186.887 43H181.113L184 48ZM3 3.5H4.00556V2.5H3V3.5ZM6.01667 3.5H8.02778V2.5H6.01667V3.5ZM10.0389 3.5H12.05V2.5H10.0389V3.5ZM14.0611 3.5H16.0722V2.5H14.0611V3.5ZM18.0833 3.5H20.0944V2.5H18.0833V3.5ZM22.1056 3.5H24.1167V2.5H22.1056V3.5ZM26.1278 3.5H28.1389V2.5H26.1278V3.5ZM30.15 3.5H32.1611V2.5H30.15V3.5ZM34.1722 3.5H36.1833V2.5H34.1722V3.5ZM38.1944 3.5H40.2056V2.5H38.1944V3.5ZM42.2167 3.5H44.2278V2.5H42.2167V3.5ZM46.2389 3.5H48.25V2.5H46.2389V3.5ZM50.2611 3.5H52.2722V2.5H50.2611V3.5ZM54.2833 3.5H56.2944V2.5H54.2833V3.5ZM58.3056 3.5H60.3167V2.5H58.3056V3.5ZM62.3278 3.5H64.3389V2.5H62.3278V3.5ZM66.35 3.5H68.3611V2.5H66.35V3.5ZM70.3722 3.5H72.3833V2.5H70.3722V3.5ZM74.3944 3.5H76.4056V2.5H74.3944V3.5ZM78.4167 3.5H80.4278V2.5H78.4167V3.5ZM82.4389 3.5H84.45V2.5H82.4389V3.5ZM86.4611 3.5H88.4722V2.5H86.4611V3.5ZM90.4833 3.5H92.4944V2.5H90.4833V3.5ZM94.5055 3.5H96.5166V2.5H94.5055V3.5ZM98.5277 3.5H100.539V2.5H98.5277V3.5ZM102.55 3.5H104.561V2.5H102.55V3.5ZM106.572 3.5H108.583V2.5H106.572V3.5ZM110.594 3.5H112.606V2.5H110.594V3.5ZM114.617 3.5H116.628V2.5H114.617V3.5ZM118.639 3.5H120.65V2.5H118.639V3.5ZM122.661 3.5H124.672V2.5H122.661V3.5ZM126.683 3.5H128.694V2.5H126.683V3.5ZM130.705 3.5H132.717V2.5H130.705V3.5ZM134.728 3.5H136.739V2.5H134.728V3.5ZM138.75 3.5H140.761V2.5H138.75V3.5ZM142.772 3.5H144.783V2.5H142.772V3.5ZM146.794 3.5H148.805V2.5H146.794V3.5ZM150.817 3.5H152.828V2.5H150.817V3.5ZM154.839 3.5H156.85V2.5H154.839V3.5ZM158.861 3.5H160.872V2.5H158.861V3.5ZM162.883 3.5H164.894V2.5H162.883V3.5ZM166.905 3.5H168.917V2.5H166.905V3.5ZM170.928 3.5H172.939V2.5H170.928V3.5ZM174.95 3.5H176.961V2.5H174.95V3.5ZM178.972 3.5H180.983V2.5H178.972V3.5ZM182.994 3.5H184V2.5H182.994V3.5ZM183.5 3V4.02273H184.5V3H183.5ZM183.5 6.06818V8.11364H184.5V6.06818H183.5ZM183.5 10.1591V12.2045H184.5V10.1591H183.5ZM183.5 14.25V16.2955H184.5V14.25H183.5ZM183.5 18.3409V20.3864H184.5V18.3409H183.5ZM183.5 22.4318V24.4773H184.5V22.4318H183.5ZM183.5 26.5227V28.5682H184.5V26.5227H183.5ZM183.5 30.6136V32.6591H184.5V30.6136H183.5ZM183.5 34.7045V36.75H184.5V34.7045H183.5ZM183.5 38.7955V40.8409H184.5V38.7955H183.5ZM183.5 42.8864V44.9318H184.5V42.8864H183.5Z" fill="#1C8C44"/>
</svg>
