<svg width="97" height="58" viewBox="0 0 97 58" fill="none" xmlns="http://www.w3.org/2000/svg">
<path d="M96.6667 3C96.6667 4.47276 95.4728 5.66667 94 5.66667C92.5272 5.66667 91.3333 4.47276 91.3333 3C91.3333 1.52724 92.5272 0.333333 94 0.333333C95.4728 0.333333 96.6667 1.52724 96.6667 3ZM3 3H2.5V2.5H3V3ZM3 58L0.113251 53H5.88675L3 58ZM94 3.5H93.0109V2.5H94V3.5ZM91.0326 3.5H89.0543V2.5H91.0326V3.5ZM87.0761 3.5H85.0978V2.5H87.0761V3.5ZM83.1196 3.5H81.1413V2.5H83.1196V3.5ZM79.163 3.5H77.1848V2.5H79.163V3.5ZM75.2065 3.5H73.2283V2.5H75.2065V3.5ZM71.25 3.5H69.2717V2.5H71.25V3.5ZM67.2935 3.5H65.3152V2.5H67.2935V3.5ZM63.337 3.5H61.3587V2.5H63.337V3.5ZM59.3804 3.5H57.4022V2.5H59.3804V3.5ZM55.4239 3.5H53.4457V2.5H55.4239V3.5ZM51.4674 3.5H49.4891V2.5H51.4674V3.5ZM47.5109 3.5H45.5326V2.5H47.5109V3.5ZM43.5544 3.5H41.5761V2.5H43.5544V3.5ZM39.5978 3.5H37.6196V2.5H39.5978V3.5ZM35.6413 3.5H33.6631V2.5H35.6413V3.5ZM31.6848 3.5H29.7065V2.5H31.6848V3.5ZM27.7283 3.5H25.75V2.5H27.7283V3.5ZM23.7717 3.5H21.7935V2.5H23.7717V3.5ZM19.8152 3.5H17.837V2.5H19.8152V3.5ZM15.8587 3.5H13.8804V2.5H15.8587V3.5ZM11.9022 3.5H9.9239V2.5H11.9022V3.5ZM7.94563 3.5H5.96737V2.5H7.94563V3.5ZM3.98911 3.5H3V2.5H3.98911V3.5ZM3.5 3V3.98214H2.5V3H3.5ZM3.5 5.94643V7.91071H2.5V5.94643H3.5ZM3.5 9.875V11.8393H2.5V9.875H3.5ZM3.5 13.8036V15.7679H2.5V13.8036H3.5ZM3.5 17.7321V19.6964H2.5V17.7321H3.5ZM3.5 21.6607V23.625H2.5V21.6607H3.5ZM3.5 25.5893V27.5536H2.5V25.5893H3.5ZM3.5 29.5179V31.4821H2.5V29.5179H3.5ZM3.5 33.4464V35.4107H2.5V33.4464H3.5ZM3.5 37.375V39.3393H2.5V37.375H3.5ZM3.5 41.3036V43.2679H2.5V41.3036H3.5ZM3.5 45.2321V47.1964H2.5V45.2321H3.5ZM3.5 49.1607V51.125H2.5V49.1607H3.5ZM3.5 53.0893V55.0536H2.5V53.0893H3.5Z" fill="#1C8C44"/>
</svg>
