<svg width="77" height="64" viewBox="0 0 77 64" fill="none" xmlns="http://www.w3.org/2000/svg">
<g clip-path="url(#clip0_114_6202)">
<path d="M48.0446 32.5983H39.6947C39.5512 32.5983 39.436 32.7134 39.4315 32.8584C39.2955 36.848 36.0177 40.039 31.9953 40.039C27.9728 40.039 24.6951 36.8465 24.559 32.857C24.5545 32.7149 24.6712 32.5983 24.8132 32.5983H31.6274C31.8308 32.5983 31.9953 32.4338 31.9953 32.2304C31.9953 32.2304 31.9953 24.845 31.9938 23.8192C31.9938 23.7534 31.9414 23.7011 31.8756 23.7011C27.9743 23.6398 24.8027 20.5684 24.5844 16.7074C24.571 16.4667 24.3706 16.2812 24.1298 16.2812H16.1508C15.8891 16.2812 15.6768 16.4936 15.6768 16.7553V23.7205V32.3216C15.6768 41.7766 23.4151 49.3863 32.8581 48.8958C41.3814 48.4517 48.1732 41.4685 48.3123 32.8689C48.3138 32.7194 48.1926 32.5983 48.0446 32.5983Z" fill="#1C8C44"/>
<path d="M31.7053 63.9987H1.62079C1.31874 63.9987 1.03761 63.8372 0.888082 63.5756C0.737054 63.3139 0.737054 62.9894 0.888082 62.7292L7.00247 52.1393C7.10715 51.9569 7.09369 51.7311 6.96808 51.5651C2.39238 45.5374 0.153876 38.0294 0.666774 30.4272C1.71948 14.7606 14.3356 2.22079 30.0111 1.2578C38.4402 0.74042 46.5449 3.52621 52.8298 9.10528C59.1251 14.6933 62.8589 22.3838 63.3419 30.7606C63.8473 39.5113 60.8507 47.8014 54.9038 54.0997C51.9804 57.1965 48.5128 59.6324 44.598 61.3371C40.5457 63.1045 36.2092 63.9987 31.7053 63.9987ZM2.2264 62.8025H31.7053C40.3079 62.8025 48.2376 59.42 54.0335 53.2802C59.7516 47.2227 62.6331 39.2496 62.1472 30.8309C61.6821 22.7741 58.0918 15.3752 52.0357 10.001C45.9901 4.63575 38.1935 1.95463 30.0843 2.45257C15.0085 3.37818 2.87388 15.4395 1.85855 30.5064C1.36659 37.8215 3.51836 45.0425 7.91911 50.8399C8.3378 51.3916 8.38416 52.1348 8.03724 52.7359L2.2264 62.8025Z" fill="#1C8C44"/>
<path d="M54.707 7.44688V1.1665H57.3268C57.7276 1.1665 58.0655 1.22632 58.3407 1.34594C58.6158 1.46557 58.8222 1.64501 58.9597 1.88426C59.1033 2.11753 59.1751 2.40463 59.1751 2.74557C59.1751 3.0865 59.0794 3.3766 58.888 3.61585C58.7025 3.8551 58.4424 4.01959 58.1074 4.10931V3.92987C58.3885 3.98968 58.6338 4.09734 58.8431 4.25286C59.0525 4.40239 59.2139 4.5908 59.3276 4.81809C59.4472 5.04538 59.507 5.30557 59.507 5.59865C59.507 5.89772 59.4592 6.16389 59.3635 6.39716C59.2738 6.62445 59.1362 6.81585 58.9508 6.97136C58.7713 7.12688 58.553 7.2465 58.2958 7.33024C58.0386 7.408 57.7455 7.44688 57.4166 7.44688H54.707ZM55.676 6.51379H57.3627C57.608 6.51379 57.8143 6.47791 57.9818 6.40613C58.1553 6.33435 58.2868 6.22968 58.3766 6.09211C58.4723 5.94856 58.5201 5.77809 58.5201 5.58071C58.5201 5.39529 58.4693 5.23678 58.3676 5.1052C58.2719 4.97361 58.1343 4.87491 57.9549 4.80912C57.7754 4.73734 57.5631 4.70146 57.3179 4.70146H55.676V6.51379ZM55.676 3.76837H57.273C57.4525 3.76837 57.611 3.73249 57.7485 3.66071C57.8921 3.58893 58.0027 3.49024 58.0805 3.36463C58.1642 3.23903 58.2061 3.09548 58.2061 2.93398C58.2061 2.66482 58.1164 2.45847 57.9369 2.31492C57.7575 2.17136 57.5003 2.09959 57.1653 2.09959H55.676V3.76837Z" fill="#1C8C44"/>
<path d="M60.8139 7.44688V1.1665H64.7706V2.09959H61.7829V6.51379H64.7706V7.44688H60.8139ZM61.2535 4.69249V3.7594H64.2771V4.69249H61.2535Z" fill="#1C8C44"/>
<path d="M67.5183 7.44688V2.09959H65.7598V1.1665H70.2996V2.09959H68.4873V7.44688H67.5183Z" fill="#1C8C44"/>
<path d="M70.3926 7.44688L72.824 1.1665H73.8109L76.2244 7.44688H75.1926L73.7571 3.66071C73.7392 3.61884 73.7033 3.51716 73.6494 3.35566C73.6016 3.19417 73.5448 3.01473 73.479 2.81735C73.4132 2.61996 73.3534 2.44052 73.2995 2.27903C73.2457 2.11155 73.2098 2.00389 73.1919 1.95604L73.3982 1.94706C73.3623 2.04875 73.3175 2.17735 73.2636 2.33286C73.2158 2.48837 73.162 2.65286 73.1021 2.82632C73.0483 2.99977 72.9945 3.16426 72.9407 3.31978C72.8868 3.46931 72.842 3.59492 72.8061 3.6966L71.3795 7.44688H70.3926ZM71.4692 5.88576L71.8281 4.95267H74.6812L75.0939 5.88576H71.4692Z" fill="#1C8C44"/>
</g>
<defs>
<clipPath id="clip0_114_6202">
<rect width="75.8131" height="64" fill="white" transform="translate(0.593262)"/>
</clipPath>
</defs>
</svg>
