<svg width="21" height="20" viewBox="0 0 21 20" fill="none" xmlns="http://www.w3.org/2000/svg">
<path d="M6.21682 13.3418C6.30284 13.2524 6.39224 13.1647 6.48671 13.0871C6.76166 12.856 7.47856 12.3196 7.86484 12.5423C8.09425 12.6738 8.06051 13.1158 7.97617 13.2996C7.767 13.7534 7.23397 14.1363 6.90673 14.5125C6.65033 14.811 6.33995 15.0792 6.05994 15.3593C5.61125 15.8079 5.18111 16.3123 4.69699 16.7222C4.6953 16.7222 0.815613 19.998 0.815613 19.998L0.513672 19.6961L3.79117 15.813C4.40686 15.1973 5.02086 14.5816 5.63655 13.9676C5.83559 13.772 6.02114 13.5476 6.21682 13.3418Z" fill="url(#paint0_linear_4380_5261)"/>
<path d="M6.21515 13.3795C5.44596 12.5513 4.7628 11.6539 4.20784 10.7245C3.78445 10.016 2.8044 8.36462 3.58709 7.57857L4.27194 6.89372C4.91462 6.25272 6.6065 6.84311 8.48562 8.23305L12.7297 3.98901C11.6653 2.57714 11.1609 1.40143 11.5489 1.01346L12.4142 0.146431C12.9776 -0.416967 15.2143 0.905501 17.4106 3.10174C19.6051 5.2963 20.9293 7.53471 20.3642 8.09811L19.4989 8.96344C19.1092 9.35141 17.9335 8.84705 16.5233 7.78267L12.281 12.0267C13.6709 13.9075 14.2613 15.5994 13.6203 16.2421L12.9355 16.9269C12.1258 17.7366 10.4002 16.6823 9.67989 16.2404C8.4367 15.4796 7.24918 14.4928 6.21515 13.3795Z" fill="url(#paint1_linear_4380_5261)"/>
<path d="M20.3921 7.90381C19.9063 8.38961 17.764 7.03847 15.6083 4.88271C13.4525 2.72696 12.1014 0.58638 12.5872 0.0988886C13.073 -0.386916 15.2152 0.964228 17.371 3.11999C19.5268 5.27574 20.8779 7.418 20.3921 7.90381Z" fill="url(#paint2_linear_4380_5261)"/>
<path d="M13.7106 16.1285C13.1067 16.7324 10.5343 15.1417 7.96693 12.5744C5.39958 10.007 3.80723 7.43462 4.41111 6.83074C5.01499 6.22686 7.69366 7.05172 10.6085 10.0121C13.4356 12.8814 14.3144 15.5246 13.7106 16.1285Z" fill="url(#paint3_linear_4380_5261)"/>
<path d="M7.84375 8.74006L12.7305 3.98828C12.7305 3.98828 13.6548 5.21123 14.3583 5.92813C15.0617 6.64502 16.5275 7.78363 16.5275 7.78363L11.7842 12.5253C11.7842 12.5253 10.7485 12.112 9.56093 10.9245C8.17774 9.54298 7.84375 8.74006 7.84375 8.74006Z" fill="url(#paint4_linear_4380_5261)"/>
<path opacity="0.2" d="M12.8644 0.507023C12.9251 0.507023 13.2659 0.534012 14.111 1.07379C14.1143 1.07548 14.1177 1.07717 14.1211 1.08054C15.01 1.62201 16.0474 2.46711 17.0393 3.45896C18.1391 4.55877 19.0668 5.72605 19.5813 6.65717C19.583 6.66055 19.5847 6.66223 19.5864 6.66561C19.9406 7.27792 19.9693 7.54275 19.9693 7.60854C19.9693 7.62541 19.971 7.64059 19.9727 7.65746C19.9777 7.71144 19.976 7.74349 19.9727 7.76035L19.1512 8.58352C19.1427 8.58521 19.1276 8.5869 19.1073 8.5869C18.7885 8.5869 17.9991 8.26977 16.8166 7.37913C16.7255 7.30997 16.6193 7.27624 16.5113 7.27624C16.3814 7.27624 16.2515 7.32684 16.1537 7.42468L11.935 11.6451C11.7595 11.8205 11.7376 12.0989 11.8827 12.2996C12.6772 13.3994 13.0415 14.2259 13.2085 14.7286L13.2271 14.7843C13.4312 15.427 13.3704 15.7222 13.335 15.7728C13.3165 15.793 13.3013 15.8149 13.2861 15.8385C13.2743 15.8571 13.2625 15.8723 13.249 15.8841L12.5641 16.5689C12.5 16.633 12.3853 16.7174 12.1273 16.7174C11.412 16.7174 10.3747 16.0798 9.93102 15.8082C9.07749 15.2853 8.2442 14.6476 7.45476 13.9139C7.35693 13.8228 7.23379 13.7789 7.11065 13.7789C6.98245 13.7789 6.85426 13.8278 6.75473 13.924C6.67883 13.9982 6.59111 14.0876 6.50846 14.1821C6.35158 14.3643 6.16941 14.538 5.97711 14.7202C5.87927 14.813 5.78144 14.9057 5.68698 15.0002C5.53516 15.152 5.38503 15.3106 5.23997 15.4641C4.9549 15.766 4.6597 16.0764 4.35607 16.3345L4.35945 16.3395C4.23462 16.4391 3.92931 16.6954 3.11626 17.382L4.15028 16.1574L5.29732 15.0103L5.9788 14.3271C6.10193 14.204 6.21832 14.0758 6.32965 13.9493C6.40219 13.8683 6.47641 13.7857 6.55063 13.7064C6.73449 13.5124 6.73618 13.2105 6.554 13.0148C5.80168 12.2034 5.15394 11.3448 4.62597 10.4626C3.82472 9.12499 3.59194 8.27315 3.92931 7.9341L4.61247 7.24925C4.70356 7.15985 4.87055 7.1396 4.99707 7.1396C5.21804 7.1396 5.50311 7.19864 5.82192 7.30829C5.82529 7.30997 5.82698 7.30997 5.83036 7.31166C6.3111 7.47022 7.10222 7.81433 8.1413 8.55653C8.2307 8.62063 8.3336 8.651 8.43649 8.651C8.56469 8.651 8.6912 8.60208 8.78904 8.50762L13.0685 4.34792C13.2507 4.1708 13.2726 3.88404 13.1191 3.67993C12.1053 2.33554 11.8709 1.54442 11.913 1.34706L12.7379 0.522204C12.7429 0.522204 12.748 0.520518 12.7548 0.520518C12.7885 0.517144 12.8172 0.51377 12.8492 0.503649C12.8492 0.50871 12.8543 0.507023 12.8644 0.507023ZM12.8644 0.000976562C12.8087 0.000976562 12.7581 0.00772391 12.7126 0.0212185C12.5827 0.0313394 12.4764 0.0718231 12.4005 0.14773L11.5352 1.01476C11.1472 1.40273 11.6516 2.57844 12.716 3.99031L8.43649 8.14832C7.51043 7.4854 6.67039 7.05695 5.98892 6.8326C5.6195 6.7044 5.28383 6.63693 4.99875 6.63693C4.685 6.63693 4.43198 6.71959 4.25655 6.89333L3.5717 7.57818C2.78902 8.36255 3.76737 10.0139 4.19245 10.7241C4.74404 11.6468 5.42214 12.5391 6.18459 13.3606C5.99566 13.5613 5.81517 13.7772 5.62288 13.9695C5.00887 14.5852 4.39318 15.2009 3.77749 15.8149L0.5 19.698L0.801941 19.9999C0.801941 19.9999 4.68163 16.7241 4.68332 16.7241C5.16912 16.3142 5.59926 15.8099 6.04627 15.3612C6.32628 15.0812 6.63497 14.8146 6.89305 14.5144C6.95884 14.4385 7.03306 14.3626 7.11065 14.2867C7.91021 15.0289 8.77386 15.6935 9.66619 16.2417C10.1975 16.5672 11.2737 17.2251 12.1273 17.2251C12.4326 17.2251 12.7092 17.1408 12.9218 16.9282L13.6066 16.2434C13.6471 16.2029 13.6825 16.1574 13.7129 16.1101C13.9271 15.8672 13.9338 15.3443 13.7078 14.6325C13.7011 14.6122 13.6943 14.5903 13.6876 14.5701C13.4531 13.8633 12.996 12.9777 12.2926 12.0061L16.513 7.78566C17.6027 8.60883 18.5524 9.09632 19.1073 9.09632C19.2709 9.09632 19.3991 9.05415 19.4869 8.96643L20.3522 8.10109C20.4585 7.99482 20.4973 7.82614 20.4753 7.61191C20.4737 7.3319 20.3134 6.91863 20.025 6.41764C19.5071 5.47977 18.5794 4.28719 17.3986 3.10641C16.3393 2.04203 15.2715 1.18681 14.3842 0.648716C13.7382 0.233758 13.2035 0.000976562 12.8644 0.000976562Z" fill="#424242"/>
<path d="M17.4301 17.9185C17.47 17.8785 17.5299 17.8785 17.5699 17.9185L19.5915 19.9401C19.6714 20.02 19.7962 20.02 19.876 19.9401L20.4401 19.376C20.47 19.3461 20.49 19.3111 20.495 19.2712C20.51 19.2063 20.49 19.1364 20.4401 19.0915L18.4185 17.0749C18.3785 17.0349 18.3785 16.97 18.4185 16.9351L20.4401 14.9135C20.52 14.8336 20.52 14.7088 20.4401 14.629L19.876 14.0599C19.8461 14.03 19.8111 14.01 19.7712 14.005C19.7063 13.99 19.6364 14.01 19.5915 14.0599L17.5699 16.0815C17.5299 16.1215 17.4651 16.1215 17.4301 16.0815L15.4085 14.0599C15.3286 13.98 15.2038 13.98 15.124 14.0599L14.5599 14.624C14.53 14.6539 14.51 14.6889 14.505 14.7288C14.49 14.7937 14.51 14.8636 14.5599 14.9085L16.5815 16.9301C16.6215 16.97 16.6215 17.0349 16.5815 17.0699L14.5599 19.0915C14.48 19.1714 14.48 19.2962 14.5599 19.376L15.124 19.9401C15.1539 19.97 15.1889 19.99 15.2288 19.995C15.2937 20.01 15.3636 19.99 15.4085 19.9401L17.4301 17.9185Z" fill="url(#paint5_linear_4380_5261)"/>
<path d="M17.4301 17.9185C17.47 17.8785 17.5299 17.8785 17.5699 17.9185L19.5915 19.9401C19.6714 20.02 19.7962 20.02 19.876 19.9401L20.4401 19.376C20.47 19.3461 20.49 19.3111 20.495 19.2712C20.51 19.2063 20.49 19.1364 20.4401 19.0915L18.4185 17.0749C18.3785 17.0349 18.3785 16.97 18.4185 16.9351L20.4401 14.9135C20.52 14.8336 20.52 14.7088 20.4401 14.629L19.876 14.0599C19.8461 14.03 19.8111 14.01 19.7712 14.005C19.7063 13.99 19.6364 14.01 19.5915 14.0599L17.5699 16.0815C17.5299 16.1215 17.4651 16.1215 17.4301 16.0815L15.4085 14.0599C15.3286 13.98 15.2038 13.98 15.124 14.0599L14.5599 14.624C14.53 14.6539 14.51 14.6889 14.505 14.7288C14.49 14.7937 14.51 14.8636 14.5599 14.9085L16.5815 16.9301C16.6215 16.97 16.6215 17.0349 16.5815 17.0699L14.5599 19.0915C14.48 19.1714 14.48 19.2962 14.5599 19.376L15.124 19.9401C15.1539 19.97 15.1889 19.99 15.2288 19.995C15.2937 20.01 15.3636 19.99 15.4085 19.9401L17.4301 17.9185Z" fill="url(#paint6_linear_4380_5261)"/>
<defs>
<linearGradient id="paint0_linear_4380_5261" x1="4.03677" y1="15.9598" x2="4.81001" y2="16.734" gradientUnits="userSpaceOnUse">
<stop stop-color="#F5F5F5"/>
<stop offset="0.1455" stop-color="#EFEFEF"/>
<stop offset="0.3368" stop-color="#DFDFDF"/>
<stop offset="0.5535" stop-color="#C3C3C3"/>
<stop offset="0.7872" stop-color="#9E9E9E"/>
<stop offset="1" stop-color="#757575"/>
</linearGradient>
<linearGradient id="paint1_linear_4380_5261" x1="7.31783" y1="3.75437" x2="16.6802" y2="13.1171" gradientUnits="userSpaceOnUse">
<stop offset="0.0048445" stop-color="#F44336"/>
<stop offset="0.1943" stop-color="#EC3E33"/>
<stop offset="0.4956" stop-color="#D4302C"/>
<stop offset="0.6496" stop-color="#C62828"/>
</linearGradient>
<linearGradient id="paint2_linear_4380_5261" x1="12.4882" y1="4.00152" x2="20.4916" y2="4.00152" gradientUnits="userSpaceOnUse">
<stop offset="0.0020297" stop-color="#FF5252"/>
<stop offset="0.0742" stop-color="#F34949"/>
<stop offset="0.2674" stop-color="#D93535"/>
<stop offset="0.4653" stop-color="#C62727"/>
<stop offset="0.6692" stop-color="#BB1F1F"/>
<stop offset="0.8882" stop-color="#B71C1C"/>
</linearGradient>
<linearGradient id="paint3_linear_4380_5261" x1="4.19141" y1="11.5559" x2="13.9712" y2="11.7617" gradientUnits="userSpaceOnUse">
<stop offset="0.0020297" stop-color="#FF5252"/>
<stop offset="0.1867" stop-color="#E13B3B"/>
<stop offset="0.3739" stop-color="#CA2A2A"/>
<stop offset="0.5502" stop-color="#BC2020"/>
<stop offset="0.7029" stop-color="#B71C1C"/>
</linearGradient>
<linearGradient id="paint4_linear_4380_5261" x1="10.1166" y1="6.42759" x2="13.9856" y2="10.2965" gradientUnits="userSpaceOnUse">
<stop offset="0.0048445" stop-color="#F44336"/>
<stop offset="0.1454" stop-color="#EC3E32"/>
<stop offset="0.3689" stop-color="#D42F29"/>
<stop offset="0.5918" stop-color="#B71C1C"/>
</linearGradient>
<linearGradient id="paint5_linear_4380_5261" x1="17.5" y1="14.0123" x2="17.5" y2="19.9384" gradientUnits="userSpaceOnUse">
<stop stop-color="#757575"/>
<stop offset="0.5148" stop-color="#504F4F"/>
</linearGradient>
<linearGradient id="paint6_linear_4380_5261" x1="16.0704" y1="15.7144" x2="18.7893" y2="18.3872" gradientUnits="userSpaceOnUse">
<stop offset="0.0048445" stop-color="#F44336"/>
<stop offset="0.1454" stop-color="#EC3E32"/>
<stop offset="0.3689" stop-color="#D42F29"/>
<stop offset="0.5918" stop-color="#B71C1C"/>
</linearGradient>
</defs>
</svg>
