<svg width="25" height="32" viewBox="0 0 25 32" fill="none" xmlns="http://www.w3.org/2000/svg">
<path d="M21.8205 6.77769V13.874H17.7009V6.85742C17.7009 5.34247 16.4783 4.11988 14.9634 4.11988H9.64774C9.40853 4.11988 9.19591 4.14646 8.98328 4.19961C8.90355 4.22619 8.79724 4.25277 8.7175 4.27935C8.63777 4.30592 8.55804 4.3325 8.4783 4.38566C8.39857 4.41224 8.31883 4.46539 8.26568 4.51855C7.76069 4.81091 7.36202 5.26274 7.1494 5.7943C7.12282 5.84745 7.12282 5.87403 7.09624 5.92719C7.04309 6.0335 7.01651 6.16639 6.98993 6.2727V6.32586C6.96335 6.48533 6.93677 6.6448 6.93677 6.83084V13.874H2.84375V6.85742C2.84375 6.51191 2.87033 6.19297 2.92348 5.87403C2.95006 5.76772 2.95006 5.66141 2.97664 5.55509C2.97664 5.50194 3.00322 5.47536 3.00322 5.4222C3.05637 5.23616 3.08295 5.02353 3.16269 4.83749C3.82714 2.71124 5.52814 1.01024 7.65438 0.345792C7.84043 0.292636 8.02647 0.23948 8.2391 0.186324C8.29225 0.186324 8.31883 0.159746 8.37199 0.159746C8.4783 0.133168 8.58461 0.133168 8.69093 0.10659C9.00986 0.0534335 9.35538 0.0268555 9.67431 0.0268555H14.9899C15.6544 0.0268555 16.2923 0.133168 16.877 0.292636C17.2491 0.398948 17.5946 0.531839 17.9135 0.691307C18.1261 0.79762 18.3388 0.903932 18.5514 1.03682C18.6577 1.08998 18.7109 1.11656 18.7906 1.16971C18.9766 1.27602 19.1361 1.40892 19.2956 1.56838C19.455 1.70127 19.6145 1.86074 19.774 1.99363C19.9335 2.1531 20.0663 2.31257 20.1992 2.47204C20.4119 2.73782 20.5979 3.0036 20.7574 3.26938C20.8637 3.45543 20.97 3.64147 21.0763 3.8541C21.1826 4.04014 21.2624 4.25277 21.3421 4.46539C21.3952 4.65144 21.475 4.83749 21.5281 5.02353C21.6876 5.58167 21.8205 6.16639 21.8205 6.77769Z" fill="#BDBDBD"/>
<path opacity="0.2" d="M21.6347 5.42193C21.6081 5.28904 21.5816 5.12957 21.5284 4.99668C21.4753 4.81063 21.4221 4.62458 21.3424 4.43854C21.2626 4.22591 21.1829 4.03987 21.0766 3.82724C20.9703 3.6412 20.864 3.42857 20.7576 3.24252C20.5716 2.97674 20.3856 2.71096 20.1995 2.44518C20.0666 2.28571 19.9071 2.12625 19.7743 1.96678C19.6148 1.80731 19.4553 1.67442 19.2959 1.54153C19.1364 1.40864 18.9503 1.27575 18.7909 1.14286C18.7111 1.0897 18.658 1.06312 18.5782 1.00997C18.3656 0.877076 18.153 0.770764 17.9404 0.664452C17.6214 0.504983 17.2493 0.372093 16.9038 0.265781C16.8241 0.239203 16.7444 0.212625 16.6912 0.212625C16.1596 0.0797342 15.6015 0 15.0168 0H9.70117C9.43539 0 9.19619 1.18813e-08 8.95698 0.0531562C8.87725 0.0531562 8.79752 0.0797342 8.71778 0.0797342C8.61147 0.106312 8.50516 0.106312 8.39884 0.13289C8.34569 0.13289 8.31911 0.159468 8.26595 0.159468C8.07991 0.212625 7.86728 0.239203 7.68124 0.318937C5.55499 0.983389 3.85399 2.68439 3.18954 4.81063C3.13639 4.99668 3.08323 5.18272 3.03007 5.39535C3.03007 5.4485 3.0035 5.47508 3.0035 5.52824C2.97692 5.63455 2.95034 5.74086 2.95034 5.84718C2.95034 5.92691 2.92376 6.00664 2.92376 6.08638C2.89718 6.32558 2.87061 6.59136 2.87061 6.83056V13.8472H3.66795V6.85714C3.66795 3.53488 6.37891 0.82392 9.70117 0.82392H15.0168C18.3125 0.82392 20.9968 3.50831 20.9968 6.80399V13.8738H21.7942V6.77741C21.7676 6.32558 21.741 5.87375 21.6347 5.42193ZM14.9371 3.29568H9.64801C7.70782 3.29568 6.13971 4.86379 6.13971 6.80399V13.8472H6.93705V6.80399C6.93705 6.72425 6.93705 6.61794 6.96363 6.53821C6.96363 6.45847 6.99021 6.37874 6.99021 6.299C6.99021 6.27243 6.99021 6.27242 6.99021 6.24585C7.01679 6.11296 7.04336 6.00664 7.09652 5.90033C7.09652 5.84718 7.1231 5.8206 7.14967 5.76744C7.3623 5.23588 7.76097 4.75748 8.26595 4.46512C8.34569 4.41196 8.42542 4.38538 8.47858 4.33223C8.55831 4.30565 8.63805 4.25249 8.71778 4.22591C8.79752 4.19934 8.87725 4.17276 8.98356 4.14618C9.19619 4.09302 9.43539 4.06644 9.64801 4.06644H14.9371C16.452 4.06644 17.6746 5.28904 17.6746 6.80399V13.8206H18.4719V6.85714C18.4719 4.89037 16.9038 3.29568 14.9371 3.29568Z" fill="#424242"/>
<path d="M22.7243 32.0003H1.9402C0.877076 32.0003 0 31.1232 0 30.0601V14.2727C0 13.2096 0.877076 12.3325 1.9402 12.3325H22.7243C23.7874 12.3325 24.6645 13.2096 24.6645 14.2727V30.0601C24.6645 31.1232 23.7874 32.0003 22.7243 32.0003Z" fill="url(#paint0_linear_2964_53112)"/>
<path opacity="0.2" d="M22.7243 13.103C23.3621 13.103 23.8671 13.608 23.8671 14.2459V30.0332C23.8671 30.6711 23.3621 31.1761 22.7243 31.1761H1.9402C1.30233 31.1761 0.797342 30.6711 0.797342 30.0332V14.2724C0.797342 13.6346 1.30233 13.1296 1.9402 13.1296L22.7243 13.103ZM22.7243 12.3057H1.9402C0.877076 12.3057 0 13.1827 0 14.2459V30.0332C0 31.0964 0.877076 31.9734 1.9402 31.9734H22.7243C23.7874 31.9734 24.6645 31.0964 24.6645 30.0332V14.2724C24.6645 13.1827 23.7874 12.3057 22.7243 12.3057Z" fill="#424242"/>
<defs>
<linearGradient id="paint0_linear_2964_53112" x1="12.3322" y1="31.7424" x2="12.3322" y2="12.4127" gradientUnits="userSpaceOnUse">
<stop offset="0.0053611" stop-color="#FFA000"/>
<stop offset="1" stop-color="#FFC107"/>
</linearGradient>
</defs>
</svg>
