<svg width="24" height="18" viewBox="0 0 24 18" fill="none" xmlns="http://www.w3.org/2000/svg">
<path d="M9.12019 14.0797H2.5402C2.0602 14.0797 1.7002 13.6997 1.7002 13.2397V12.5597C1.7002 12.4397 1.7202 12.3397 1.7602 12.2397L4.4802 5.53969C4.7402 4.87969 5.6602 4.81969 6.0002 5.43969L9.86019 12.1797C9.94019 12.2997 9.9802 12.4597 9.9802 12.5997V13.2197C9.9602 13.6997 9.58019 14.0797 9.12019 14.0797Z" fill="url(#paint0_linear_671_38320)"/>
<path d="M15.1002 14.0797H21.6802C22.1402 14.0797 22.5202 13.6997 22.5202 13.2397V12.5597C22.5202 12.4397 22.5002 12.3397 22.4602 12.2397L19.7402 5.53969C19.4802 4.87969 18.5602 4.81969 18.2202 5.43969L14.3602 12.1797C14.2802 12.2997 14.2402 12.4597 14.2402 12.5997V13.2197C14.2402 13.6997 14.6402 14.0797 15.1002 14.0797Z" fill="url(#paint1_linear_671_38320)"/>
<path d="M15.2999 14.0805H8.69986C8.23986 14.0805 7.85986 13.7005 7.85986 13.2405V12.5805C7.85986 12.4405 7.89986 12.3205 7.93986 12.2005L11.2399 5.46047C11.5399 4.82047 12.4599 4.82047 12.7599 5.46047L16.0599 12.2005C16.1199 12.3205 16.1399 12.4405 16.1399 12.5805V13.2405C16.1399 13.7005 15.7599 14.0805 15.2999 14.0805Z" fill="url(#paint2_linear_671_38320)"/>
<path d="M19.1398 5.39977C19.5927 5.39977 19.9598 5.03264 19.9598 4.57977C19.9598 4.12689 19.5927 3.75977 19.1398 3.75977C18.687 3.75977 18.3198 4.12689 18.3198 4.57977C18.3198 5.03264 18.687 5.39977 19.1398 5.39977Z" fill="url(#paint3_linear_671_38320)"/>
<path d="M12.0002 5.39977C12.453 5.39977 12.8202 5.03264 12.8202 4.57977C12.8202 4.12689 12.453 3.75977 12.0002 3.75977C11.5473 3.75977 11.1802 4.12689 11.1802 4.57977C11.1802 5.03264 11.5473 5.39977 12.0002 5.39977Z" fill="url(#paint4_linear_671_38320)"/>
<path d="M5.04023 5.3793C5.48206 5.3793 5.84023 5.02112 5.84023 4.5793C5.84023 4.13747 5.48206 3.7793 5.04023 3.7793C4.59841 3.7793 4.24023 4.13747 4.24023 4.5793C4.24023 5.02112 4.59841 5.3793 5.04023 5.3793Z" fill="url(#paint5_linear_671_38320)"/>
<path opacity="0.2" d="M19.1401 4.1793C19.3601 4.1793 19.5601 4.3593 19.5601 4.5793C19.5601 4.7193 19.5001 4.8393 19.3801 4.9193C19.2801 4.9793 19.2201 5.0793 19.2001 5.1993C19.1801 5.3193 19.2201 5.4393 19.3001 5.5193C19.3401 5.5793 19.3801 5.6193 19.4001 5.6593L22.1401 12.3793L22.1601 12.4393C22.1801 12.4793 22.2001 12.5393 22.2001 12.5593V13.2393C22.2001 13.4993 21.9201 13.7793 21.6801 13.7793H2.5401C2.3001 13.7793 2.0201 13.4793 2.0201 13.2393V12.5593C2.0201 12.5393 2.0401 12.4993 2.0601 12.4593C2.0801 12.4393 2.0801 12.3993 2.1001 12.3793L4.8601 5.6793C4.8801 5.6393 4.9001 5.5793 4.9401 5.5393C5.0201 5.4593 5.0601 5.3393 5.0401 5.2193C5.0201 5.0993 4.9601 4.9993 4.8401 4.9393C4.7201 4.8593 4.6401 4.7393 4.6401 4.5793C4.6401 4.3593 4.8201 4.1793 5.0401 4.1793C5.2601 4.1793 5.4401 4.3593 5.4401 4.5793C5.4401 4.6993 5.3801 4.7793 5.3401 4.8393C5.2601 4.9393 5.2401 5.0593 5.2601 5.1793C5.2801 5.2993 5.3601 5.3993 5.4601 5.4593C5.5401 5.4993 5.6001 5.5593 5.6401 5.6393L8.4801 10.5993C8.5601 10.7193 8.6801 10.7993 8.8201 10.7993H8.8401C8.9801 10.7993 9.1201 10.7193 9.1801 10.5793L11.5801 5.6593C11.6201 5.5993 11.6401 5.5593 11.7001 5.4993C11.8001 5.4193 11.8401 5.3193 11.8401 5.1993C11.8401 5.0793 11.8001 4.9793 11.7201 4.8993C11.6401 4.8193 11.5801 4.7193 11.5801 4.5993C11.5801 4.3793 11.7601 4.1993 11.9801 4.1993C12.2001 4.1993 12.3801 4.3793 12.3801 4.5993C12.3801 4.7193 12.3401 4.8193 12.2401 4.8993C12.1601 4.9793 12.1001 5.0993 12.1001 5.1993C12.1001 5.2993 12.1601 5.4193 12.2401 5.4993C12.2801 5.5393 12.3201 5.5993 12.3601 5.6593L14.9001 10.7793C14.9601 10.9193 15.1001 10.9993 15.2401 10.9993H15.2601C15.4001 10.9993 15.5401 10.9193 15.6001 10.7993L18.5601 5.6393C18.6001 5.5793 18.6601 5.5193 18.7201 5.4793C18.8201 5.4193 18.9001 5.3193 18.9201 5.1993C18.9401 5.0793 18.9001 4.9593 18.8401 4.8793C18.8001 4.8193 18.7401 4.7393 18.7401 4.6193C18.7401 4.3593 18.9201 4.1793 19.1401 4.1793ZM19.1401 3.7793C18.7001 3.7793 18.3201 4.1393 18.3201 4.5793C18.3201 4.7793 18.4001 4.9593 18.5201 5.0993C18.4001 5.1793 18.2801 5.2793 18.2001 5.4193L15.2601 10.5993L12.7601 5.4593C12.7001 5.3393 12.6201 5.2593 12.5401 5.1793C12.7001 5.0393 12.8001 4.8193 12.8001 4.5793C12.8001 4.1393 12.4401 3.7793 11.9801 3.7793C11.5401 3.7793 11.1801 4.1393 11.1801 4.5793C11.1801 4.8193 11.2801 5.0393 11.4401 5.1793C11.3601 5.2593 11.2801 5.3393 11.2201 5.4593L8.8201 10.3793L6.0001 5.4193C5.9201 5.2793 5.8001 5.1593 5.6601 5.0993C5.7801 4.9593 5.8401 4.7793 5.8401 4.5793C5.8401 4.1393 5.4801 3.7793 5.0401 3.7793C4.6001 3.7793 4.2401 4.1393 4.2401 4.5793C4.2401 4.8793 4.4001 5.1393 4.6401 5.2793C4.5801 5.3393 4.5201 5.4393 4.4801 5.5193L1.7001 12.2193C1.6601 12.3193 1.6001 12.4393 1.6001 12.5393V13.2193C1.6001 13.6793 2.0601 14.1593 2.5201 14.1593H21.6801C22.1401 14.1593 22.6001 13.6793 22.6001 13.2193V12.5393C22.6001 12.4193 22.5401 12.3193 22.5001 12.2193L19.7601 5.5193C19.7201 5.4193 19.6601 5.3393 19.5801 5.2593C19.8001 5.1193 19.9601 4.8593 19.9601 4.5793C19.9601 4.1393 19.6001 3.7793 19.1401 3.7793Z" fill="#424242"/>
<path d="M19.2201 16.0997H4.76006C3.00006 16.0997 1.56006 14.6597 1.56006 12.8997V9.67969H22.4201V12.8997C22.4201 14.6597 20.9801 16.0997 19.2201 16.0997Z" fill="#FDD835"/>
<path d="M21.6601 5.99953L20.0401 8.89953C19.6401 9.27953 18.9801 9.13953 18.7601 8.63953L16.6801 2.99953C16.3801 2.39953 15.5201 2.41953 15.1801 2.99953L12.7201 8.33953C12.4201 8.89953 11.6001 8.89953 11.3001 8.31953L8.96011 2.99953C8.66011 2.35953 7.74011 2.35953 7.44011 2.99953L5.44011 8.61953C5.22011 9.13953 4.56011 9.27953 4.16011 8.89953L2.56011 5.99953C2.04011 5.35953 1.00011 5.77953 1.06011 6.59953L1.66011 14.9395C1.66011 16.3795 2.78011 17.5795 4.16011 17.5795H5.04011H5.32011H11.9001H12.2001H18.8401H19.1201H20.0001C21.3801 17.5795 22.5201 16.3595 22.5201 14.9395L23.1201 6.59953C23.2201 5.77953 22.2001 5.35953 21.6601 5.99953Z" fill="url(#paint6_linear_671_38320)"/>
<path d="M16.1002 3.25992C16.8844 3.25992 17.5202 2.62417 17.5202 1.83992C17.5202 1.05568 16.8844 0.419922 16.1002 0.419922C15.3159 0.419922 14.6802 1.05568 14.6802 1.83992C14.6802 2.62417 15.3159 3.25992 16.1002 3.25992Z" fill="url(#paint7_linear_671_38320)"/>
<path d="M8.1202 3.25992C8.90444 3.25992 9.5402 2.62417 9.5402 1.83992C9.5402 1.05568 8.90444 0.419922 8.1202 0.419922C7.33595 0.419922 6.7002 1.05568 6.7002 1.83992C6.7002 2.62417 7.33595 3.25992 8.1202 3.25992Z" fill="url(#paint8_linear_671_38320)"/>
<path d="M1.22 6.55914C1.89379 6.55914 2.44 6.01293 2.44 5.33914C2.44 4.66535 1.89379 4.11914 1.22 4.11914C0.546213 4.11914 0 4.66535 0 5.33914C0 6.01293 0.546213 6.55914 1.22 6.55914Z" fill="url(#paint9_linear_671_38320)"/>
<path d="M22.7801 6.55914C23.4538 6.55914 24.0001 6.01293 24.0001 5.33914C24.0001 4.66535 23.4538 4.11914 22.7801 4.11914C22.1063 4.11914 21.5601 4.66535 21.5601 5.33914C21.5601 6.01293 22.1063 6.55914 22.7801 6.55914Z" fill="url(#paint10_linear_671_38320)"/>
<path opacity="0.2" d="M16.1 1.01992C16.56 1.01992 16.92 1.37992 16.92 1.83992C16.92 2.15992 16.74 2.43992 16.46 2.57992C16.18 2.71992 16.06 3.03992 16.16 3.31992L18.2 8.83992L18.22 8.87992C18.44 9.39992 18.94 9.71992 19.5 9.71992C19.86 9.71992 20.18 9.57992 20.46 9.33992C20.5 9.29992 20.54 9.23992 20.58 9.19992L22.16 6.35992C22.34 6.15992 22.38 5.87992 22.26 5.63992C22.22 5.53992 22.18 5.43992 22.18 5.33992C22.18 4.99992 22.46 4.71992 22.8 4.71992C23.14 4.71992 23.42 4.99992 23.42 5.33992C23.42 5.59992 23.24 5.83992 23 5.91992C22.74 5.99992 22.58 6.23992 22.58 6.49992V6.53992L21.98 14.8599V14.8999C21.98 15.4599 21.76 15.9999 21.36 16.3799C21 16.7399 20.54 16.9399 20.06 16.9399H4.16C3.68 16.9399 3.22 16.7399 2.86 16.3799C2.46 15.9999 2.24 15.4399 2.24 14.8999C2.24 14.8799 2.24 14.8599 2.24 14.8599L1.64 6.53992V6.49992C1.64 6.19992 1.42 5.95992 1.12 5.91992C0.82 5.91992 0.6 5.65992 0.6 5.33992C0.6 4.99992 0.88 4.71992 1.22 4.71992C1.56 4.71992 1.84 4.99992 1.84 5.33992C1.84 5.41992 1.82 5.49992 1.8 5.57992C1.68 5.85992 1.78 6.15992 2.04 6.31992C2.06 6.31992 2.06 6.33992 2.08 6.33992L3.64 9.17992C3.66 9.23992 3.72 9.27992 3.76 9.31992C4.02 9.55992 4.36 9.69992 4.72 9.69992C5.28 9.69992 5.8 9.35992 6.02 8.83992C6.02 8.83992 6.02 8.81992 6.04 8.81992L8.02 3.27992C8.12 2.99992 8 2.69992 7.76 2.55992C7.5 2.41992 7.34 2.13992 7.34 1.85992C7.34 1.39992 7.7 1.03992 8.16 1.03992C8.62 1.03992 8.98 1.39992 8.98 1.85992C8.98 2.11992 8.86 2.35992 8.64 2.51992C8.4 2.69992 8.32 3.01992 8.46 3.27992L10.76 8.57992C10.76 8.59992 10.76 8.59992 10.78 8.61992C11.02 9.07992 11.5 9.37992 12.02 9.37992C12.54 9.37992 13 9.09992 13.26 8.63992C13.26 8.61992 13.28 8.61992 13.28 8.59992L15.72 3.29992C15.9 3.03992 15.84 2.69992 15.6 2.49992C15.4 2.33992 15.28 2.09992 15.28 1.85992C15.28 1.39992 15.64 1.01992 16.1 1.01992ZM16.1 0.419922C15.32 0.419922 14.68 1.05992 14.68 1.83992C14.68 2.27992 14.9 2.67992 15.22 2.93992C15.2 2.97992 15.18 2.97992 15.18 2.99992L12.72 8.33992C12.56 8.61992 12.3 8.75992 12.02 8.75992C11.74 8.75992 11.46 8.61992 11.3 8.31992L8.96 2.99992C8.96 2.99992 8.96 2.99992 8.96 2.97992C9.32 2.71992 9.54 2.29992 9.54 1.83992C9.54 1.05992 8.9 0.419922 8.12 0.419922C7.34 0.419922 6.7 1.05992 6.7 1.83992C6.7 2.35992 6.98 2.81992 7.42 3.07992L5.44 8.61992C5.3 8.93992 5 9.11992 4.7 9.11992C4.5 9.11992 4.32 9.05992 4.16 8.89992L2.56 5.99992C2.5 5.91992 2.42 5.85992 2.34 5.81992C2.4 5.67992 2.44 5.51992 2.44 5.35992C2.44 4.67992 1.9 4.13992 1.22 4.13992C0.56 4.13992 0 4.67992 0 5.35992C0 5.97992 0.46 6.47992 1.06 6.55992V6.59992L1.66 14.9399C1.66 16.3799 2.78 17.5799 4.18 17.5799H5.06H5.34H18.88H19.16H20.04C21.42 17.5799 22.56 16.3599 22.56 14.9399L23.16 6.59992C23.16 6.55992 23.16 6.53992 23.16 6.51992C23.64 6.35992 24 5.89992 24 5.35992C24 4.67992 23.46 4.13992 22.78 4.13992C22.1 4.13992 21.56 4.67992 21.56 5.35992C21.56 5.57992 21.62 5.77992 21.72 5.93992C21.7 5.95992 21.68 5.97992 21.66 5.99992L20.04 8.89992C19.88 9.03992 19.68 9.11992 19.5 9.11992C19.2 9.11992 18.9 8.93992 18.76 8.63992L16.72 3.11992C17.18 2.87992 17.52 2.39992 17.52 1.83992C17.52 1.05992 16.88 0.419922 16.1 0.419922Z" fill="#424242"/>
<path d="M12.0999 14.7007C13.337 14.7007 14.3399 13.6978 14.3399 12.4607C14.3399 11.2236 13.337 10.2207 12.0999 10.2207C10.8627 10.2207 9.85986 11.2236 9.85986 12.4607C9.85986 13.6978 10.8627 14.7007 12.0999 14.7007Z" fill="url(#paint11_linear_671_38320)"/>
<path d="M6.69992 13.7397C7.40685 13.7397 7.97992 13.1666 7.97992 12.4597C7.97992 11.7528 7.40685 11.1797 6.69992 11.1797C5.993 11.1797 5.41992 11.7528 5.41992 12.4597C5.41992 13.1666 5.993 13.7397 6.69992 13.7397Z" fill="url(#paint12_linear_671_38320)"/>
<path d="M17.5202 13.7397C18.2272 13.7397 18.8002 13.1666 18.8002 12.4597C18.8002 11.7528 18.2272 11.1797 17.5202 11.1797C16.8133 11.1797 16.2402 11.7528 16.2402 12.4597C16.2402 13.1666 16.8133 13.7397 17.5202 13.7397Z" fill="url(#paint13_linear_671_38320)"/>
<path d="M1.70008 13.9405C2.31864 13.9405 2.82008 13.2779 2.82008 12.4605C2.82008 11.6431 2.31864 10.9805 1.70008 10.9805C1.08152 10.9805 0.580078 11.6431 0.580078 12.4605C0.580078 13.2779 1.08152 13.9405 1.70008 13.9405Z" fill="url(#paint14_linear_671_38320)"/>
<path d="M22.5199 13.9405C23.1385 13.9405 23.6399 13.2779 23.6399 12.4605C23.6399 11.6431 23.1385 10.9805 22.5199 10.9805C21.9013 10.9805 21.3999 11.6431 21.3999 12.4605C21.3999 13.2779 21.9013 13.9405 22.5199 13.9405Z" fill="url(#paint15_linear_671_38320)"/>
<path opacity="0.2" d="M1.70008 11.3805C2.10008 11.3805 2.42008 11.8805 2.42008 12.4605C2.42008 13.0405 2.08008 13.5405 1.70008 13.5405C1.32008 13.5405 0.980078 13.0405 0.980078 12.4605C0.980078 11.8805 1.30008 11.3805 1.70008 11.3805ZM1.70008 10.9805C1.08008 10.9805 0.580078 11.6405 0.580078 12.4605C0.580078 13.2805 1.08008 13.9405 1.70008 13.9405C2.32008 13.9405 2.82008 13.2805 2.82008 12.4605C2.82008 11.6405 2.32008 10.9805 1.70008 10.9805Z" fill="#424242"/>
<path opacity="0.2" d="M22.5199 11.3805C22.9199 11.3805 23.2399 11.8805 23.2399 12.4605C23.2399 13.0405 22.8999 13.5405 22.5199 13.5405C22.1399 13.5405 21.7999 13.0405 21.7999 12.4605C21.7999 11.8805 22.1199 11.3805 22.5199 11.3805ZM22.5199 10.9805C21.8999 10.9805 21.3999 11.6405 21.3999 12.4605C21.3999 13.2805 21.8999 13.9405 22.5199 13.9405C23.1399 13.9405 23.6399 13.2805 23.6399 12.4605C23.6399 11.6405 23.1399 10.9805 22.5199 10.9805Z" fill="#424242"/>
<path opacity="0.2" d="M12.0999 10.6207C13.1199 10.6207 13.9399 11.4407 13.9399 12.4607C13.9399 13.4807 13.1199 14.3007 12.0999 14.3007C11.0799 14.3007 10.2599 13.4807 10.2599 12.4607C10.2599 11.4407 11.0999 10.6207 12.0999 10.6207ZM12.0999 10.2207C10.8599 10.2207 9.85986 11.2207 9.85986 12.4607C9.85986 13.7007 10.8599 14.7007 12.0999 14.7007C13.3399 14.7007 14.3399 13.7007 14.3399 12.4607C14.3399 11.2207 13.3399 10.2207 12.0999 10.2207Z" fill="#424242"/>
<path opacity="0.2" d="M6.69992 11.5816C7.17992 11.5816 7.57992 11.9816 7.57992 12.4616C7.57992 12.9416 7.17992 13.3416 6.69992 13.3416C6.21992 13.3416 5.81992 12.9416 5.81992 12.4616C5.81992 11.9816 6.19992 11.5816 6.69992 11.5816ZM6.69992 11.1816C5.99992 11.1816 5.41992 11.7416 5.41992 12.4616C5.41992 13.1816 5.97992 13.7416 6.69992 13.7416C7.41992 13.7416 7.97992 13.1816 7.97992 12.4616C7.97992 11.7416 7.39992 11.1816 6.69992 11.1816Z" fill="#424242"/>
<path opacity="0.2" d="M17.5202 11.5816C18.0002 11.5816 18.4002 11.9816 18.4002 12.4616C18.4002 12.9416 18.0002 13.3416 17.5202 13.3416C17.0402 13.3416 16.6402 12.9416 16.6402 12.4616C16.6402 11.9816 17.0402 11.5816 17.5202 11.5816ZM17.5202 11.1816C16.8202 11.1816 16.2402 11.7416 16.2402 12.4616C16.2402 13.1816 16.8002 13.7416 17.5202 13.7416C18.2402 13.7416 18.8002 13.1816 18.8002 12.4616C18.8002 11.7416 18.2202 11.1816 17.5202 11.1816Z" fill="#424242"/>
<defs>
<linearGradient id="paint0_linear_671_38320" x1="5.8402" y1="-1.32034" x2="5.8402" y2="14.4217" gradientUnits="userSpaceOnUse">
<stop offset="0.0577" stop-color="#FDD835"/>
<stop offset="0.7565" stop-color="#F9A825"/>
</linearGradient>
<linearGradient id="paint1_linear_671_38320" x1="18.3802" y1="-1.32034" x2="18.3802" y2="14.4217" gradientUnits="userSpaceOnUse">
<stop offset="0.0577" stop-color="#FDD835"/>
<stop offset="0.7565" stop-color="#F9A825"/>
</linearGradient>
<linearGradient id="paint2_linear_671_38320" x1="11.9999" y1="-1.31955" x2="11.9999" y2="14.4225" gradientUnits="userSpaceOnUse">
<stop offset="0.0577" stop-color="#FDD835"/>
<stop offset="0.7565" stop-color="#F9A825"/>
</linearGradient>
<linearGradient id="paint3_linear_671_38320" x1="19.1398" y1="-1.32025" x2="19.1398" y2="14.4218" gradientUnits="userSpaceOnUse">
<stop offset="0.0577" stop-color="#FDD835"/>
<stop offset="0.7565" stop-color="#F9A825"/>
</linearGradient>
<linearGradient id="paint4_linear_671_38320" x1="12.0002" y1="-1.32025" x2="12.0002" y2="14.4218" gradientUnits="userSpaceOnUse">
<stop offset="0.0577" stop-color="#FDD835"/>
<stop offset="0.7565" stop-color="#F9A825"/>
</linearGradient>
<linearGradient id="paint5_linear_671_38320" x1="5.04023" y1="-1.32072" x2="5.04023" y2="14.4213" gradientUnits="userSpaceOnUse">
<stop offset="0.0577" stop-color="#FDD835"/>
<stop offset="0.7565" stop-color="#F9A825"/>
</linearGradient>
<linearGradient id="paint6_linear_671_38320" x1="12.0923" y1="-4.38517" x2="12.0923" y2="17.5635" gradientUnits="userSpaceOnUse">
<stop offset="0.2467" stop-color="#FFEB3B"/>
<stop offset="0.4378" stop-color="#FFE639"/>
<stop offset="0.6718" stop-color="#FDD734"/>
<stop offset="0.9102" stop-color="#FBC02D"/>
</linearGradient>
<linearGradient id="paint7_linear_671_38320" x1="16.1002" y1="0.229902" x2="16.1002" y2="17.4679" gradientUnits="userSpaceOnUse">
<stop stop-color="#FFEB3B"/>
<stop offset="1" stop-color="#FBC02D"/>
</linearGradient>
<linearGradient id="paint8_linear_671_38320" x1="8.1202" y1="0.229902" x2="8.1202" y2="17.4679" gradientUnits="userSpaceOnUse">
<stop stop-color="#FFEB3B"/>
<stop offset="1" stop-color="#FBC02D"/>
</linearGradient>
<linearGradient id="paint9_linear_671_38320" x1="1.22" y1="0.22912" x2="1.22" y2="17.4671" gradientUnits="userSpaceOnUse">
<stop stop-color="#FFEB3B"/>
<stop offset="1" stop-color="#FBC02D"/>
</linearGradient>
<linearGradient id="paint10_linear_671_38320" x1="22.7801" y1="0.22912" x2="22.7801" y2="17.4671" gradientUnits="userSpaceOnUse">
<stop stop-color="#FFEB3B"/>
<stop offset="1" stop-color="#FBC02D"/>
</linearGradient>
<linearGradient id="paint11_linear_671_38320" x1="10.522" y1="10.8829" x2="13.6758" y2="14.0365" gradientUnits="userSpaceOnUse">
<stop stop-color="#29B6F6"/>
<stop offset="1" stop-color="#039BE5"/>
</linearGradient>
<linearGradient id="paint12_linear_671_38320" x1="5.79006" y1="11.5498" x2="7.59178" y2="13.3515" gradientUnits="userSpaceOnUse">
<stop stop-color="#F06292"/>
<stop offset="1" stop-color="#E91E63"/>
</linearGradient>
<linearGradient id="paint13_linear_671_38320" x1="16.6151" y1="11.5546" x2="18.4169" y2="13.3563" gradientUnits="userSpaceOnUse">
<stop stop-color="#F06292"/>
<stop offset="1" stop-color="#E91E63"/>
</linearGradient>
<linearGradient id="paint14_linear_671_38320" x1="0.769178" y1="11.5296" x2="2.62298" y2="13.3833" gradientUnits="userSpaceOnUse">
<stop stop-color="#29B6F6"/>
<stop offset="1" stop-color="#039BE5"/>
</linearGradient>
<linearGradient id="paint15_linear_671_38320" x1="21.5859" y1="11.5267" x2="23.4399" y2="13.3802" gradientUnits="userSpaceOnUse">
<stop stop-color="#29B6F6"/>
<stop offset="1" stop-color="#039BE5"/>
</linearGradient>
</defs>
</svg>
