<svg width="21" height="20" viewBox="0 0 21 20" fill="none" xmlns="http://www.w3.org/2000/svg">
<path d="M6.21877 13.3423C6.3048 13.2529 6.3942 13.1652 6.48866 13.0876C6.76361 12.8565 7.48051 12.3201 7.86679 12.5427C8.0962 12.6743 8.06246 13.1163 7.97812 13.3001C7.76896 13.7539 7.23592 14.1368 6.90868 14.513C6.65228 14.8115 6.34191 15.0797 6.06189 15.3597C5.6132 15.8084 5.18306 16.3128 4.69894 16.7227C4.69726 16.7227 0.817566 19.9985 0.817566 19.9985L0.515625 19.6966L3.79312 15.8135C4.40881 15.1978 5.02281 14.5821 5.6385 13.9681C5.83755 13.7724 6.0231 13.5481 6.21877 13.3423Z" fill="url(#paint0_linear_4316_39733)"/>
<path d="M6.21711 13.3791C5.44792 12.5508 4.76475 11.6534 4.20979 10.724C3.7864 10.0155 2.80636 8.36414 3.58904 7.57808L4.27389 6.89323C4.91657 6.25223 6.60845 6.84262 8.48757 8.23256L12.7316 3.98852C11.6672 2.57665 11.1629 1.40094 11.5508 1.01297L12.4162 0.145943C12.9796 -0.417456 15.2163 0.905012 17.4125 3.10125C19.6071 5.29581 20.9312 7.53422 20.3662 8.09762L19.5008 8.96296C19.1112 9.35093 17.9355 8.84657 16.5253 7.78218L12.2829 12.0262C13.6729 13.907 14.2632 15.5989 13.6223 16.2416L12.9374 16.9264C12.1277 17.7361 10.4021 16.6819 9.68184 16.2399C8.43865 15.4791 7.25113 14.4924 6.21711 13.3791Z" fill="url(#paint1_linear_4316_39733)"/>
<path d="M20.394 7.90381C19.9082 8.38961 17.766 7.03847 15.6102 4.88271C13.4545 2.72696 12.1033 0.58638 12.5891 0.0988886C13.0749 -0.386916 15.2172 0.964228 17.3729 3.11999C19.5287 5.27574 20.8798 7.418 20.394 7.90381Z" fill="url(#paint2_linear_4316_39733)"/>
<path d="M13.7125 16.129C13.1086 16.7329 10.5362 15.1422 7.96888 12.5749C5.40154 10.0075 3.80918 7.43511 4.41306 6.83123C5.01694 6.22735 7.69561 7.0522 10.6104 10.0126C13.4376 12.8819 14.3164 15.5251 13.7125 16.129Z" fill="url(#paint3_linear_4316_39733)"/>
<path d="M7.8457 8.74054L12.7324 3.98877C12.7324 3.98877 13.6568 5.21171 14.3602 5.92861C15.0636 6.64551 16.5295 7.78412 16.5295 7.78412L11.7861 12.5258C11.7861 12.5258 10.7504 12.1125 9.56289 10.925C8.17969 9.54347 7.8457 8.74054 7.8457 8.74054Z" fill="url(#paint4_linear_4316_39733)"/>
<path opacity="0.2" d="M12.8664 0.507511C12.9271 0.507511 13.2678 0.5345 14.1129 1.07428C14.1163 1.07597 14.1197 1.07766 14.123 1.08103C15.012 1.6225 16.0494 2.4676 17.0412 3.45945C18.141 4.55926 19.0688 5.72654 19.5833 6.65766C19.585 6.66104 19.5866 6.66272 19.5883 6.6661C19.9426 7.27841 19.9712 7.54324 19.9712 7.60903C19.9712 7.6259 19.9729 7.64108 19.9746 7.65795C19.9797 7.71193 19.978 7.74397 19.9746 7.76084L19.1531 8.58401C19.1447 8.5857 19.1295 8.58739 19.1093 8.58739C18.7905 8.58739 18.001 8.27026 16.8186 7.37962C16.7275 7.31046 16.6212 7.27673 16.5133 7.27673C16.3834 7.27673 16.2535 7.32733 16.1557 7.42517L11.9369 11.6456C11.7615 11.821 11.7396 12.0993 11.8846 12.3001C12.6791 13.3999 13.0435 14.2264 13.2105 14.7291L13.229 14.7848C13.4331 15.4274 13.3724 15.7226 13.337 15.7732C13.3184 15.7935 13.3032 15.8154 13.2881 15.839C13.2763 15.8576 13.2644 15.8728 13.2509 15.8846L12.5661 16.5694C12.502 16.6335 12.3873 16.7179 12.1292 16.7179C11.414 16.7179 10.3766 16.0802 9.93297 15.8087C9.07944 15.2858 8.24615 14.6481 7.45672 13.9144C7.35888 13.8233 7.23574 13.7794 7.11261 13.7794C6.98441 13.7794 6.85621 13.8283 6.75669 13.9245C6.68078 13.9987 6.59306 14.0881 6.51041 14.1826C6.35354 14.3647 6.17136 14.5385 5.97906 14.7207C5.88123 14.8134 5.78339 14.9062 5.68893 15.0007C5.53712 15.1525 5.38699 15.3111 5.24192 15.4646C4.95685 15.7665 4.66165 16.0769 4.35803 16.335L4.3614 16.34C4.23658 16.4395 3.93126 16.6959 3.11821 17.3825L4.15223 16.1578L5.29927 15.0108L5.98075 14.3276C6.10389 14.2045 6.22028 14.0763 6.33161 13.9498C6.40414 13.8688 6.47836 13.7862 6.55258 13.7069C6.73644 13.5129 6.73813 13.211 6.55595 13.0153C5.80363 12.2039 5.15589 11.3453 4.62792 10.4631C3.82668 9.12548 3.5939 8.27364 3.93126 7.93459L4.61442 7.24974C4.70551 7.16033 4.87251 7.14009 4.99902 7.14009C5.21999 7.14009 5.50507 7.19913 5.82387 7.30877C5.82725 7.31046 5.82893 7.31046 5.83231 7.31215C6.31305 7.47071 7.10417 7.81482 8.14325 8.55702C8.23266 8.62112 8.33555 8.65148 8.43845 8.65148C8.56665 8.65148 8.69316 8.60257 8.79099 8.5081L13.0705 4.3484C13.2526 4.17129 13.2746 3.88453 13.1211 3.68042C12.1073 2.33603 11.8728 1.54491 11.915 1.34755L12.7398 0.522693C12.7449 0.522693 12.75 0.521006 12.7567 0.521006C12.7904 0.517632 12.8191 0.514259 12.8512 0.504138C12.8512 0.509198 12.8562 0.507511 12.8664 0.507511ZM12.8664 0.00146484C12.8107 0.00146484 12.7601 0.00821219 12.7145 0.0217068C12.5847 0.0318277 12.4784 0.0723114 12.4025 0.148218L11.5371 1.01524C11.1492 1.40321 11.6535 2.57893 12.7179 3.9908L8.43845 8.14881C7.51238 7.48589 6.67234 7.05744 5.99087 6.83309C5.62146 6.70489 5.28578 6.63742 5.00071 6.63742C4.68696 6.63742 4.43393 6.72007 4.2585 6.89382L3.57365 7.57867C2.79097 8.36304 3.76933 10.0144 4.19441 10.7246C4.746 11.6473 5.4241 12.5396 6.18654 13.3611C5.99762 13.5618 5.81713 13.7777 5.62483 13.97C5.01083 14.5857 4.39514 15.2014 3.77945 15.8154L0.501953 19.6985L0.803894 20.0004C0.803894 20.0004 4.68358 16.7246 4.68527 16.7246C5.17107 16.3147 5.60121 15.8104 6.04822 15.3617C6.32823 15.0816 6.63692 14.8151 6.89501 14.5149C6.96079 14.439 7.03501 14.3631 7.11261 14.2872C7.91216 15.0294 8.77581 15.694 9.66814 16.2422C10.1995 16.5677 11.2757 17.2256 12.1292 17.2256C12.4345 17.2256 12.7112 17.1413 12.9237 16.9287L13.6086 16.2439C13.649 16.2034 13.6845 16.1578 13.7148 16.1106C13.9291 15.8677 13.9358 15.3448 13.7098 14.633C13.703 14.6127 13.6963 14.5908 13.6895 14.5705C13.4551 13.8638 12.9979 12.9782 12.2945 12.0066L16.5149 7.78615C17.6046 8.60931 18.5543 9.09681 19.1093 9.09681C19.2729 9.09681 19.4011 9.05464 19.4888 8.96692L20.3542 8.10158C20.4604 7.99531 20.4992 7.82663 20.4773 7.6124C20.4756 7.33239 20.3154 6.91912 20.0269 6.41813C19.5091 5.48026 18.5813 4.28768 17.4005 3.1069C16.3412 2.04252 15.2734 1.1873 14.3862 0.649204C13.7401 0.234246 13.2054 0.00146484 12.8664 0.00146484Z" fill="#424242"/>
<defs>
<linearGradient id="paint0_linear_4316_39733" x1="4.03872" y1="15.9602" x2="4.81196" y2="16.7345" gradientUnits="userSpaceOnUse">
<stop stop-color="#F5F5F5"/>
<stop offset="0.1455" stop-color="#EFEFEF"/>
<stop offset="0.3368" stop-color="#DFDFDF"/>
<stop offset="0.5535" stop-color="#C3C3C3"/>
<stop offset="0.7872" stop-color="#9E9E9E"/>
<stop offset="1" stop-color="#757575"/>
</linearGradient>
<linearGradient id="paint1_linear_4316_39733" x1="7.31978" y1="3.75388" x2="16.6821" y2="13.1166" gradientUnits="userSpaceOnUse">
<stop offset="0.0048445" stop-color="#F44336"/>
<stop offset="0.1943" stop-color="#EC3E33"/>
<stop offset="0.4956" stop-color="#D4302C"/>
<stop offset="0.6496" stop-color="#C62828"/>
</linearGradient>
<linearGradient id="paint2_linear_4316_39733" x1="12.4901" y1="4.00152" x2="20.4936" y2="4.00152" gradientUnits="userSpaceOnUse">
<stop offset="0.0020297" stop-color="#FF5252"/>
<stop offset="0.0742" stop-color="#F34949"/>
<stop offset="0.2674" stop-color="#D93535"/>
<stop offset="0.4653" stop-color="#C62727"/>
<stop offset="0.6692" stop-color="#BB1F1F"/>
<stop offset="0.8882" stop-color="#B71C1C"/>
</linearGradient>
<linearGradient id="paint3_linear_4316_39733" x1="4.19336" y1="11.5564" x2="13.9732" y2="11.7622" gradientUnits="userSpaceOnUse">
<stop offset="0.0020297" stop-color="#FF5252"/>
<stop offset="0.1867" stop-color="#E13B3B"/>
<stop offset="0.3739" stop-color="#CA2A2A"/>
<stop offset="0.5502" stop-color="#BC2020"/>
<stop offset="0.7029" stop-color="#B71C1C"/>
</linearGradient>
<linearGradient id="paint4_linear_4316_39733" x1="10.1185" y1="6.42808" x2="13.9876" y2="10.297" gradientUnits="userSpaceOnUse">
<stop offset="0.0048445" stop-color="#F44336"/>
<stop offset="0.1454" stop-color="#EC3E32"/>
<stop offset="0.3689" stop-color="#D42F29"/>
<stop offset="0.5918" stop-color="#B71C1C"/>
</linearGradient>
</defs>
</svg>
