<svg width="24" height="24" viewBox="0 0 24 24" fill="none" xmlns="http://www.w3.org/2000/svg">
<path d="M0.688325 23.8545C1.14234 24.3465 3.01238 23.4885 4.48841 22.8005C5.59443 22.2865 10.0205 20.4704 12.2206 19.5284C12.8146 19.2744 13.6786 18.9424 14.3006 18.1244C14.8526 17.3964 16.3167 14.3043 13.3686 11.1722C10.3765 7.99217 7.29447 8.87019 6.14245 9.68621C5.46443 10.1662 4.91242 11.2482 4.66441 11.7983C3.61639 14.1223 2.12236 18.3804 1.51434 20.0544C1.06833 21.2885 0.238315 23.3665 0.688325 23.8545Z" fill="#FFC107"/>
<path d="M4.36829 12.4983C4.3963 12.8463 4.4663 13.4123 4.7063 14.5023C4.87031 15.2503 5.13831 16.0343 5.35632 16.5524C6.01033 18.1104 6.92835 18.7384 7.85837 19.2424C9.43841 20.0984 10.5124 20.2584 10.5124 20.2584L9.2244 20.7844C9.2244 20.7844 8.44438 20.6224 7.38036 20.0984C6.36634 19.5984 5.31032 18.7524 4.5383 17.0964C4.20429 16.3783 4.01029 15.6823 3.89828 15.1303C3.76028 14.4463 3.73828 14.0583 3.73828 14.0583L4.36829 12.4983Z" fill="#FF8F00"/>
<path d="M2.78404 16.5544C2.78404 16.5544 2.94404 17.8524 4.01607 19.4904C5.2721 21.4065 7.02613 21.7205 7.02613 21.7205L5.86011 22.2005C5.86011 22.2005 4.55808 21.8025 3.32005 20.1124C2.54804 19.0584 2.33203 17.7984 2.33203 17.7984L2.78404 16.5544Z" fill="#FF8F00"/>
<path d="M1.67479 19.6304C1.67479 19.6304 1.9668 20.7504 2.60681 21.5865C3.36883 22.5845 4.33885 22.8745 4.33885 22.8745L3.44483 23.2705C3.44483 23.2705 2.76681 23.1285 2.0248 22.1885C1.46078 21.4745 1.30078 20.6544 1.30078 20.6544L1.67479 19.6304Z" fill="#FF8F00"/>
<path opacity="0.44" d="M1.18991 22.4745C1.14991 22.3845 1.14991 22.2825 1.19191 22.1945L6.28602 11.6302L7.12404 14.7803L1.76392 22.5225C1.61992 22.7385 1.29591 22.7105 1.18991 22.4745Z" fill="#FFFDE7"/>
<path d="M7.52955 15.8384C9.9096 18.6224 12.6197 18.2744 13.5217 17.5704C14.4257 16.8644 15.1397 14.4383 12.7697 11.7003C10.2856 8.8322 7.47355 9.65021 6.82353 10.2702C6.17352 10.8902 5.3455 13.2843 7.52955 15.8384Z" fill="url(#paint0_linear_2383_1684)"/>
<path d="M15.7044 16.9844C14.8364 16.2564 14.3744 16.3864 13.7544 16.6444C12.9543 16.9764 11.6963 17.2224 9.98828 16.6444L10.5023 15.4063C11.5163 15.7484 12.2503 15.5823 12.8843 15.2083C13.7004 14.7283 14.8164 14.0703 16.5524 15.5283C17.2764 16.1364 18.0185 16.5404 18.5625 16.3564C18.9585 16.2244 19.1685 15.6343 19.2745 15.1643C19.2845 15.1223 19.3005 15.0023 19.3125 14.8963C19.4085 14.1623 19.5685 12.5783 20.7485 11.7683C22.0105 10.9022 23.3366 10.9022 23.3366 10.9022L23.5766 13.2863C22.9666 13.1963 22.5426 13.3203 22.1845 13.5183C20.8365 14.2683 22.0105 17.1484 19.9125 18.1164C17.8945 19.0544 16.2444 17.4364 15.7044 16.9844Z" fill="#03A9F4"/>
<path d="M8.28028 13.9443L7.41226 13.1663C9.00629 11.3863 8.58628 10.0782 8.28028 9.1262C8.21828 8.9342 8.16027 8.75219 8.12227 8.57819C7.98627 7.96217 7.95827 7.42616 8.00027 6.95815C7.38826 6.19614 7.11825 5.39812 7.10025 5.34412C6.72824 4.21809 7.00825 3.12007 7.65026 2.09005C8.94829 0 11.2983 0 11.2983 0L12.0824 2.09805C11.4863 2.07405 9.5323 2.10405 8.93229 3.05007C8.17427 4.24209 8.67229 4.97811 8.70829 5.06211C8.85429 4.87211 9.00229 4.7201 9.13429 4.6021C10.0923 3.75208 10.9243 3.63008 11.4543 3.67808C12.0504 3.73208 12.5904 4.03209 12.9764 4.5241C13.3984 5.06411 13.5724 5.76613 13.4384 6.40414C13.3084 7.02615 12.8944 7.55217 12.2724 7.88617C11.1863 8.47019 10.2823 8.39018 9.67631 8.18818C9.68031 8.20218 9.68231 8.21818 9.68631 8.23218C9.70831 8.33218 9.75231 8.47219 9.80431 8.63419C10.1583 9.73021 10.8163 11.4703 8.28028 13.9443ZM9.75031 6.43814C9.86631 6.52214 9.98831 6.59214 10.1143 6.64215C10.5343 6.81015 10.9923 6.75415 11.5123 6.47414C11.8184 6.31014 11.8544 6.13413 11.8664 6.07613C11.9024 5.90213 11.8424 5.68012 11.7124 5.51412C11.5983 5.36812 11.4663 5.29212 11.3083 5.27612C11.0083 5.25011 10.6023 5.44012 10.1963 5.80213C10.0023 5.97613 9.85431 6.19014 9.75031 6.43814Z" fill="#F44336"/>
<path d="M11.7537 14.2703L10.5117 14.2363C10.5117 14.2363 11.1017 10.9042 13.0118 10.3442C13.3698 10.2402 13.7618 10.1342 14.1558 10.0762C14.3898 10.0402 14.7598 9.98623 14.9418 9.91822C14.9838 9.60422 14.8518 9.20421 14.7038 8.7502C14.5878 8.39819 14.4678 8.03618 14.4038 7.64017C14.2798 6.86816 14.4858 6.18614 14.9838 5.71613C15.5918 5.14612 16.5739 4.96412 17.6819 5.21612C18.3139 5.36013 18.7799 5.67013 19.1899 5.94214C19.7759 6.33215 20.1179 6.53015 20.8339 6.04814C21.7 5.46413 20.5679 3.17808 19.9659 1.85805L22.212 0.922028C22.514 1.58204 23.972 4.97812 23.01 6.91616C22.686 7.56817 22.128 8.00018 21.396 8.16219C19.8039 8.51819 18.8719 7.89818 18.1919 7.44617C17.8699 7.23217 17.5879 7.06416 17.2819 6.97616C15.1558 6.37015 18.1239 9.49822 16.7339 10.9042C15.8998 11.7463 13.8618 11.9683 13.7298 12.0003C12.4178 12.3163 11.7537 14.2703 11.7537 14.2703Z" fill="#F48FB1"/>
<path d="M7.99777 6.95815C7.95977 7.39815 7.94177 7.66016 8.05577 8.23217C8.60578 8.63618 9.80381 8.63618 9.80381 8.63618C9.75181 8.47418 9.70581 8.33417 9.68581 8.23417C9.68181 8.22017 9.67981 8.20417 9.67581 8.19017C8.45778 7.58216 7.99777 6.95815 7.99777 6.95815Z" fill="#C92B27"/>
<path d="M5.50555 8.9282L3.4375 7.91418L4.46752 6.42615L6.08956 7.50017L5.50555 8.9282Z" fill="#FFC107"/>
<path d="M2.45708 6.12013C1.40106 5.97813 0.325034 5.08211 0.207031 4.9801L1.24505 3.76208C1.55906 4.02808 2.22508 4.47409 2.67109 4.53409L2.45708 6.12013Z" fill="#FB8C00"/>
<path d="M4.32081 3.45408L2.80078 2.95606C2.97479 2.42405 3.02079 1.85004 2.93078 1.29603L4.51082 1.04202C4.64082 1.84604 4.57482 2.68006 4.32081 3.45408Z" fill="#03A9F4"/>
<path d="M13.8125 2.26504L15.3756 1.92311L15.8269 3.98637L14.2638 4.3283L13.8125 2.26504Z" fill="#FB8C00"/>
<path d="M17.6899 2.75407L16.5898 1.59204C17.1659 1.04603 17.2979 0.332013 17.2979 0.324013L18.8779 0.582018C18.8579 0.708021 18.6559 1.84005 17.6899 2.75407Z" fill="#FFC107"/>
<path d="M18.3008 8.91646L19.6982 8.47974L20.1755 10.007L18.7781 10.4437L18.3008 8.91646Z" fill="#FB8C00"/>
<path d="M18.7085 21.8065L17.1184 21.6185C17.1864 21.0525 16.7644 20.3584 16.6484 20.2044L17.9285 19.2444C18.0245 19.3704 18.8585 20.5245 18.7085 21.8065Z" fill="#F44336"/>
<path d="M23.2743 19.7784C22.6763 19.6884 22.0643 19.6524 21.4603 19.6744L21.4062 18.0744C22.1083 18.0504 22.8183 18.0904 23.5123 18.1964L23.2743 19.7784Z" fill="#FB8C00"/>
<path d="M21.1211 21.9809L22.2453 20.8423L23.7923 22.3698L22.6681 23.5084L21.1211 21.9809Z" fill="#F48FB1"/>
<path d="M17.8203 11.8665L18.9763 13.1883L17.6545 14.3443L16.4985 13.0225L17.8203 11.8665Z" fill="#F44336"/>
<defs>
<linearGradient id="paint0_linear_2383_1684" x1="14.0766" y1="11.568" x2="8.12296" y2="15.1401" gradientUnits="userSpaceOnUse">
<stop offset="0.0235" stop-color="#8F4700"/>
<stop offset="1" stop-color="#703E2D"/>
</linearGradient>
</defs>
</svg>
