<svg width="28" height="28" viewBox="0 0 28 28" fill="none" xmlns="http://www.w3.org/2000/svg">
<path opacity="0.2" d="M26.9184 1.18482L26.9359 26.4894H12.0891L12.0847 1.18482H26.9184ZM27.3547 0.748535H11.6484L11.6528 26.9257H27.3722L27.3547 0.748535Z" fill="#424242"/>
<path fill-rule="evenodd" clip-rule="evenodd" d="M11.6484 0.748535H27.3547L27.3722 26.9257H11.6528L11.6484 0.748535ZM12.3969 1.94596H26.6057L26.6215 25.7535H12.4009L12.3969 1.94596Z" fill="#4E342E"/>
<path d="M26.6432 24.8387C26.6432 25.8427 25.8987 26.6912 24.9031 26.8217L18.174 27.7038C16.9764 27.8607 15.9141 26.9285 15.9141 25.7207V2.3743C15.9141 1.13391 17.0315 0.19264 18.2538 0.403372L24.983 1.56345C25.9423 1.72884 26.6432 2.56091 26.6432 3.53438V24.8387Z" fill="url(#paint0_linear_2383_1142)"/>
<path opacity="0.2" d="M24.2507 2.43907C25.2149 2.59996 25.9216 3.43437 25.9215 4.41197L25.9198 23.9166C25.9197 24.9132 25.186 25.7576 24.1992 25.8968L19.3419 26.582C18.1381 26.7518 17.0625 25.8173 17.0625 24.6016L17.0624 3.60103C17.0624 2.365 18.1724 1.42487 19.3916 1.6283L24.2507 2.43907ZM26.3238 3.95753C26.3238 2.99474 25.6378 2.16858 24.6914 1.99161L18.8091 0.891638C17.5786 0.661527 16.4415 1.60567 16.4415 2.85755L16.4414 25.2288C16.4414 26.4513 17.5285 27.3877 18.7375 27.2067L24.6199 26.326C25.5992 26.1794 26.3238 25.3383 26.3238 24.3481V3.95753Z" fill="#424242"/>
<path d="M19.8446 15.4655H17.8813C17.5803 15.4655 17.3359 15.2212 17.3359 14.9202C17.3359 14.6192 17.5803 14.3748 17.8813 14.3748H19.8446C20.1456 14.3748 20.3899 14.6192 20.3899 14.9202C20.3899 15.2212 20.1456 15.4655 19.8446 15.4655Z" fill="#FFD54F"/>
<path d="M21.2046 8.18403C21.6865 8.18403 22.0772 7.79337 22.0772 7.31146C22.0772 6.82955 21.6865 6.43889 21.2046 6.43889C20.7227 6.43889 20.332 6.82955 20.332 7.31146C20.332 7.79337 20.7227 8.18403 21.2046 8.18403Z" fill="#64B5F6"/>
<path opacity="0.2" d="M21.2046 6.87517C21.4446 6.87517 21.6409 7.0715 21.6409 7.31146C21.6409 7.55142 21.4446 7.74774 21.2046 7.74774C20.9646 7.74774 20.7683 7.55142 20.7683 7.31146C20.7683 7.0715 20.9646 6.87517 21.2046 6.87517ZM21.2046 6.43889C20.7225 6.43889 20.332 6.82936 20.332 7.31146C20.332 7.79355 20.7225 8.18403 21.2046 8.18403C21.6867 8.18403 22.0772 7.79355 22.0772 7.31146C22.0772 6.82936 21.6867 6.43889 21.2046 6.43889Z" fill="#424242"/>
<path d="M1.04624 12.8497L6.24717 8.81886C6.87242 8.31225 8.00924 8.66468 8.00924 9.39155V11.0656C8.00924 11.3739 8.32186 11.6162 8.71975 11.6162H12.9828C13.6933 11.5942 14.2617 12.0347 14.2617 12.5854V14.766C14.2617 15.3167 13.6649 15.7792 12.9544 15.7792H8.71975C8.32186 15.7792 8.00924 16.0215 8.00924 16.3299V17.7616C8.00924 18.4664 6.87242 18.8409 6.21875 18.3343L1.01783 14.3034C0.506258 13.907 0.506258 13.2462 1.04624 12.8497Z" fill="#C92B27"/>
<path opacity="0.2" d="M6.95768 9.23843C6.90084 9.23843 6.87242 9.26046 6.844 9.28248L1.64307 13.3133C1.55781 13.3794 1.50097 13.4895 1.50097 13.5776C1.50097 13.6878 1.55781 13.7759 1.64307 13.842L6.844 17.8728C6.87242 17.8948 6.92926 17.9168 6.95768 17.9168C6.95768 17.9168 7.15662 17.9168 7.15662 17.7627V16.3089C7.15662 15.6481 7.86713 15.0975 8.71975 15.0975H12.9544C13.2102 15.1195 13.4091 14.9653 13.4091 14.7671V12.5864C13.4091 12.4102 13.2102 12.2561 12.9828 12.2561H8.71975C7.86713 12.2561 7.15662 11.7054 7.15662 11.0446V9.39261C7.15662 9.23843 6.95768 9.23843 6.95768 9.23843ZM6.95768 8.57764C7.49767 8.57764 8.00924 8.90803 8.00924 9.39261V11.0666C8.00924 11.375 8.32186 11.6173 8.71975 11.6173H12.9828C13.6933 11.5953 14.2617 12.0358 14.2617 12.5864V14.7671C14.2617 15.3177 13.6649 15.7803 12.9544 15.7803H8.71975C8.32186 15.7803 8.00924 16.0226 8.00924 16.3309V17.7627C8.00924 18.2472 7.49767 18.5776 6.95768 18.5776C6.7019 18.5776 6.44612 18.5116 6.21875 18.3353L1.01782 14.3045C0.506257 13.908 0.477837 13.2472 1.01782 12.8287L6.21875 8.81993C6.44612 8.64372 6.7019 8.57764 6.95768 8.57764Z" fill="#636161"/>
<defs>
<linearGradient id="paint0_linear_2383_1142" x1="20.0989" y1="20.5624" x2="20.0989" y2="-2.82622" gradientUnits="userSpaceOnUse">
<stop offset="0.0032884" stop-color="#795548"/>
<stop offset="1" stop-color="#A1887F"/>
</linearGradient>
</defs>
</svg>
