<svg width="32" height="32" viewBox="0 0 32 32" fill="none" xmlns="http://www.w3.org/2000/svg">
<rect width="32" height="32" rx="4" fill="#FFC107"/>
<path d="M14.3398 11.9287L11.0449 21H9.69824L13.4922 11.0469H14.3604L14.3398 11.9287ZM17.1016 21L13.7998 11.9287L13.7793 11.0469H14.6475L18.4551 21H17.1016ZM16.9307 17.3154V18.3955H11.3389V17.3154H16.9307ZM20.9707 13.6035V21H19.6992V13.6035H20.9707ZM19.6035 11.6416C19.6035 11.4365 19.665 11.2633 19.7881 11.1221C19.9157 10.9808 20.1025 10.9102 20.3486 10.9102C20.5902 10.9102 20.7747 10.9808 20.9023 11.1221C21.0345 11.2633 21.1006 11.4365 21.1006 11.6416C21.1006 11.8376 21.0345 12.0062 20.9023 12.1475C20.7747 12.2842 20.5902 12.3525 20.3486 12.3525C20.1025 12.3525 19.9157 12.2842 19.7881 12.1475C19.665 12.0062 19.6035 11.8376 19.6035 11.6416Z" fill="#2F2F2F"/>
</svg>
