<svg width="32" height="32" viewBox="0 0 32 32" fill="none" xmlns="http://www.w3.org/2000/svg">
<rect width="32" height="32" rx="4" fill="#E9EAE8"/>
<path d="M16.5 19.5C16.5 19.7761 16.2761 20 16 20C15.7239 20 15.5 19.7761 15.5 19.5V15.7071L14.3536 16.8536C14.1583 17.0488 13.8417 17.0488 13.6464 16.8536C13.4512 16.6583 13.4512 16.3417 13.6464 16.1464L15.6464 14.1464C15.8417 13.9512 16.1583 13.9512 16.3536 14.1464L18.3536 16.1464C18.5488 16.3417 18.5488 16.6583 18.3536 16.8536C18.1583 17.0488 17.8417 17.0488 17.6464 16.8536L16.5 15.7071V19.5Z" fill="#3C3C3C"/>
<path d="M22 22V12.5L17.5 8H12C10.8954 8 10 8.89543 10 10V22C10 23.1046 10.8954 24 12 24H20C21.1046 24 22 23.1046 22 22ZM17.5 11C17.5 11.8284 18.1716 12.5 19 12.5H21V22C21 22.5523 20.5523 23 20 23H12C11.4477 23 11 22.5523 11 22V10C11 9.44772 11.4477 9 12 9H17.5V11Z" fill="#3C3C3C"/>
</svg>
