<svg width="32" height="32" viewBox="0 0 32 32" fill="none" xmlns="http://www.w3.org/2000/svg">
<rect width="32" height="32" rx="4" fill="#1C4D92"/>
<path d="M5.79883 20H4.01758L4.0293 19.0801H5.79883C6.4082 19.0801 6.91602 18.9531 7.32227 18.6992C7.72852 18.4414 8.0332 18.082 8.23633 17.6211C8.44336 17.1562 8.54688 16.6133 8.54688 15.9922V15.4707C8.54688 14.9824 8.48828 14.5488 8.37109 14.1699C8.25391 13.7871 8.08203 13.4648 7.85547 13.2031C7.62891 12.9375 7.35156 12.7363 7.02344 12.5996C6.69922 12.4629 6.32617 12.3945 5.9043 12.3945H3.98242V11.4688H5.9043C6.46289 11.4688 6.97266 11.5625 7.43359 11.75C7.89453 11.9336 8.29102 12.2012 8.62305 12.5527C8.95898 12.9004 9.2168 13.3223 9.39648 13.8184C9.57617 14.3105 9.66602 14.8652 9.66602 15.4824V15.9922C9.66602 16.6094 9.57617 17.166 9.39648 17.6621C9.2168 18.1543 8.95703 18.5742 8.61719 18.9219C8.28125 19.2695 7.875 19.5371 7.39844 19.7246C6.92578 19.9082 6.39258 20 5.79883 20ZM4.62109 11.4688V20H3.49023V11.4688H4.62109ZM10.9141 16.9004V16.7656C10.9141 16.3086 10.9805 15.8848 11.1133 15.4941C11.2461 15.0996 11.4375 14.7578 11.6875 14.4688C11.9375 14.1758 12.2402 13.9492 12.5957 13.7891C12.9512 13.625 13.3496 13.543 13.791 13.543C14.2363 13.543 14.6367 13.625 14.9922 13.7891C15.3516 13.9492 15.6562 14.1758 15.9062 14.4688C16.1602 14.7578 16.3535 15.0996 16.4863 15.4941C16.6191 15.8848 16.6855 16.3086 16.6855 16.7656V16.9004C16.6855 17.3574 16.6191 17.7812 16.4863 18.1719C16.3535 18.5625 16.1602 18.9043 15.9062 19.1973C15.6562 19.4863 15.3535 19.7129 14.998 19.877C14.6465 20.0371 14.248 20.1172 13.8027 20.1172C13.3574 20.1172 12.957 20.0371 12.6016 19.877C12.2461 19.7129 11.9414 19.4863 11.6875 19.1973C11.4375 18.9043 11.2461 18.5625 11.1133 18.1719C10.9805 17.7812 10.9141 17.3574 10.9141 16.9004ZM11.998 16.7656V16.9004C11.998 17.2168 12.0352 17.5156 12.1094 17.7969C12.1836 18.0742 12.2949 18.3203 12.4434 18.5352C12.5957 18.75 12.7852 18.9199 13.0117 19.0449C13.2383 19.166 13.502 19.2266 13.8027 19.2266C14.0996 19.2266 14.3594 19.166 14.582 19.0449C14.8086 18.9199 14.9961 18.75 15.1445 18.5352C15.293 18.3203 15.4043 18.0742 15.4785 17.7969C15.5566 17.5156 15.5957 17.2168 15.5957 16.9004V16.7656C15.5957 16.4531 15.5566 16.1582 15.4785 15.8809C15.4043 15.5996 15.291 15.3516 15.1387 15.1367C14.9902 14.918 14.8027 14.7461 14.5762 14.6211C14.3535 14.4961 14.0918 14.4336 13.791 14.4336C13.4941 14.4336 13.2324 14.4961 13.0059 14.6211C12.7832 14.7461 12.5957 14.918 12.4434 15.1367C12.2949 15.3516 12.1836 15.5996 12.1094 15.8809C12.0352 16.1582 11.998 16.4531 11.998 16.7656ZM20.582 19.2266C20.8398 19.2266 21.0781 19.1738 21.2969 19.0684C21.5156 18.9629 21.6953 18.8184 21.8359 18.6348C21.9766 18.4473 22.0566 18.2344 22.0762 17.9961H23.1074C23.0879 18.3711 22.9609 18.7207 22.7266 19.0449C22.4961 19.3652 22.1934 19.625 21.8184 19.8242C21.4434 20.0195 21.0312 20.1172 20.582 20.1172C20.1055 20.1172 19.6895 20.0332 19.334 19.8652C18.9824 19.6973 18.6895 19.4668 18.4551 19.1738C18.2246 18.8809 18.0508 18.5449 17.9336 18.166C17.8203 17.7832 17.7637 17.3789 17.7637 16.9531V16.707C17.7637 16.2812 17.8203 15.8789 17.9336 15.5C18.0508 15.1172 18.2246 14.7793 18.4551 14.4863C18.6895 14.1934 18.9824 13.9629 19.334 13.7949C19.6895 13.627 20.1055 13.543 20.582 13.543C21.0781 13.543 21.5117 13.6445 21.8828 13.8477C22.2539 14.0469 22.5449 14.3203 22.7559 14.668C22.9707 15.0117 23.0879 15.4023 23.1074 15.8398H22.0762C22.0566 15.5781 21.9824 15.3418 21.8535 15.1309C21.7285 14.9199 21.5566 14.752 21.3379 14.627C21.123 14.498 20.8711 14.4336 20.582 14.4336C20.25 14.4336 19.9707 14.5 19.7441 14.6328C19.5215 14.7617 19.3438 14.9375 19.2109 15.1602C19.082 15.3789 18.9883 15.623 18.9297 15.8926C18.875 16.1582 18.8477 16.4297 18.8477 16.707V16.9531C18.8477 17.2305 18.875 17.5039 18.9297 17.7734C18.9844 18.043 19.0762 18.2871 19.2051 18.5059C19.3379 18.7246 19.5156 18.9004 19.7383 19.0332C19.9648 19.1621 20.2461 19.2266 20.582 19.2266ZM25.0586 13.6602L26.4473 15.9688L27.8535 13.6602H29.125L27.0508 16.7891L29.1895 20H27.9355L26.4707 17.6211L25.0059 20H23.7461L25.8789 16.7891L23.8105 13.6602H25.0586Z" fill="white"/>
</svg>
