<svg width="32" height="32" viewBox="0 0 32 32" fill="none" xmlns="http://www.w3.org/2000/svg">
<rect width="32" height="32" rx="4" fill="#E53934"/>
<path d="M9.82617 17.0967H7.16699V16.0234H9.82617C10.3411 16.0234 10.7581 15.9414 11.0771 15.7773C11.3962 15.6133 11.6286 15.3854 11.7744 15.0938C11.9248 14.8021 12 14.4694 12 14.0957C12 13.7539 11.9248 13.4326 11.7744 13.1318C11.6286 12.8311 11.3962 12.5895 11.0771 12.4072C10.7581 12.2204 10.3411 12.127 9.82617 12.127H7.47461V21H6.15527V11.0469H9.82617C10.5781 11.0469 11.2139 11.1768 11.7334 11.4365C12.2529 11.6963 12.6471 12.0563 12.916 12.5166C13.1849 12.9723 13.3193 13.4941 13.3193 14.082C13.3193 14.7201 13.1849 15.2646 12.916 15.7158C12.6471 16.167 12.2529 16.5111 11.7334 16.748C11.2139 16.9805 10.5781 17.0967 9.82617 17.0967ZM19.3623 19.5645V10.5H20.6338V21H19.4717L19.3623 19.5645ZM14.3857 17.3838V17.2402C14.3857 16.6751 14.4541 16.1624 14.5908 15.7021C14.7321 15.2373 14.9303 14.8385 15.1855 14.5059C15.4453 14.1732 15.7529 13.918 16.1084 13.7402C16.4684 13.5579 16.8695 13.4668 17.3115 13.4668C17.7764 13.4668 18.182 13.5488 18.5283 13.7129C18.8792 13.8724 19.1755 14.1071 19.417 14.417C19.6631 14.7223 19.8568 15.0915 19.998 15.5244C20.1393 15.9574 20.2373 16.4473 20.292 16.9941V17.623C20.2419 18.1654 20.1439 18.653 19.998 19.0859C19.8568 19.5189 19.6631 19.888 19.417 20.1934C19.1755 20.4987 18.8792 20.7334 18.5283 20.8975C18.1774 21.057 17.7673 21.1367 17.2979 21.1367C16.8649 21.1367 16.4684 21.0433 16.1084 20.8564C15.7529 20.6696 15.4453 20.4076 15.1855 20.0703C14.9303 19.7331 14.7321 19.3366 14.5908 18.8809C14.4541 18.4206 14.3857 17.9215 14.3857 17.3838ZM15.6572 17.2402V17.3838C15.6572 17.7529 15.6937 18.0993 15.7666 18.4229C15.8441 18.7464 15.9626 19.0312 16.1221 19.2773C16.2816 19.5234 16.4844 19.7171 16.7305 19.8584C16.9766 19.9951 17.2705 20.0635 17.6123 20.0635C18.0316 20.0635 18.3757 19.9746 18.6445 19.7969C18.918 19.6191 19.1367 19.3844 19.3008 19.0928C19.4648 18.8011 19.5924 18.4844 19.6836 18.1426V16.4951C19.6289 16.2445 19.5492 16.0029 19.4443 15.7705C19.3441 15.5335 19.2119 15.3239 19.0479 15.1416C18.8883 14.9548 18.6901 14.8066 18.4531 14.6973C18.2207 14.5879 17.945 14.5332 17.626 14.5332C17.2796 14.5332 16.9811 14.6061 16.7305 14.752C16.4844 14.8932 16.2816 15.0892 16.1221 15.3398C15.9626 15.5859 15.8441 15.873 15.7666 16.2012C15.6937 16.5247 15.6572 16.8711 15.6572 17.2402ZM24.4893 21H23.2246V12.8242C23.2246 12.291 23.3203 11.8421 23.5117 11.4775C23.7077 11.1084 23.988 10.8304 24.3525 10.6436C24.7171 10.4521 25.1501 10.3564 25.6514 10.3564C25.7972 10.3564 25.943 10.3656 26.0889 10.3838C26.2393 10.402 26.3851 10.4294 26.5264 10.4658L26.458 11.498C26.3623 11.4753 26.2529 11.4593 26.1299 11.4502C26.0114 11.4411 25.8929 11.4365 25.7744 11.4365C25.5055 11.4365 25.2731 11.4912 25.0771 11.6006C24.8857 11.7054 24.7399 11.8604 24.6396 12.0654C24.5394 12.2705 24.4893 12.5234 24.4893 12.8242V21ZM26.0615 13.6035V14.5742H22.0557V13.6035H26.0615Z" fill="white"/>
</svg>
