<svg width="32" height="32" viewBox="0 0 32 32" fill="none" xmlns="http://www.w3.org/2000/svg">
<rect width="32" height="32" rx="4" fill="#1E89E5"/>
<path d="M12.3262 17.0967H9.66699V16.0234H12.3262C12.8411 16.0234 13.2581 15.9414 13.5771 15.7773C13.8962 15.6133 14.1286 15.3854 14.2744 15.0938C14.4248 14.8021 14.5 14.4694 14.5 14.0957C14.5 13.7539 14.4248 13.4326 14.2744 13.1318C14.1286 12.8311 13.8962 12.5895 13.5771 12.4072C13.2581 12.2204 12.8411 12.127 12.3262 12.127H9.97461V21H8.65527V11.0469H12.3262C13.0781 11.0469 13.7139 11.1768 14.2334 11.4365C14.7529 11.6963 15.1471 12.0563 15.416 12.5166C15.6849 12.9723 15.8193 13.4941 15.8193 14.082C15.8193 14.7201 15.6849 15.2646 15.416 15.7158C15.1471 16.167 14.7529 16.5111 14.2334 16.748C13.7139 16.9805 13.0781 17.0967 12.3262 17.0967ZM21.6025 19.0381C21.6025 18.8558 21.5615 18.6872 21.4795 18.5322C21.402 18.3727 21.2402 18.2292 20.9941 18.1016C20.7526 17.9694 20.388 17.8555 19.9004 17.7598C19.4902 17.6732 19.1188 17.5706 18.7861 17.4521C18.458 17.3337 18.1777 17.1901 17.9453 17.0215C17.7174 16.8529 17.542 16.6546 17.4189 16.4268C17.2959 16.1989 17.2344 15.9323 17.2344 15.627C17.2344 15.3353 17.2982 15.0596 17.4258 14.7998C17.5579 14.54 17.7425 14.3099 17.9795 14.1094C18.221 13.9089 18.5104 13.7516 18.8477 13.6377C19.1849 13.5238 19.5609 13.4668 19.9756 13.4668C20.568 13.4668 21.0739 13.5716 21.4932 13.7812C21.9124 13.9909 22.2337 14.2712 22.457 14.6221C22.6803 14.9684 22.792 15.3535 22.792 15.7773H21.5273C21.5273 15.5723 21.4658 15.374 21.3428 15.1826C21.2243 14.9867 21.0488 14.8249 20.8164 14.6973C20.5885 14.5697 20.3083 14.5059 19.9756 14.5059C19.6247 14.5059 19.3398 14.5605 19.1211 14.6699C18.9069 14.7747 18.7497 14.9092 18.6494 15.0732C18.5537 15.2373 18.5059 15.4105 18.5059 15.5928C18.5059 15.7295 18.5286 15.8525 18.5742 15.9619C18.6243 16.0667 18.7109 16.1647 18.834 16.2559C18.957 16.3424 19.1302 16.4245 19.3535 16.502C19.5768 16.5794 19.8617 16.6569 20.208 16.7344C20.8141 16.8711 21.3132 17.0352 21.7051 17.2266C22.097 17.418 22.3887 17.6527 22.5801 17.9307C22.7715 18.2087 22.8672 18.5459 22.8672 18.9424C22.8672 19.266 22.7988 19.5622 22.6621 19.8311C22.5299 20.0999 22.3363 20.3324 22.0811 20.5283C21.8304 20.7197 21.5296 20.8701 21.1787 20.9795C20.8324 21.0843 20.4427 21.1367 20.0098 21.1367C19.3581 21.1367 18.8066 21.0205 18.3555 20.7881C17.9043 20.5557 17.5625 20.2549 17.3301 19.8857C17.0977 19.5166 16.9814 19.127 16.9814 18.7168H18.2529C18.2712 19.0632 18.3714 19.3389 18.5537 19.5439C18.736 19.7445 18.9593 19.888 19.2236 19.9746C19.488 20.0566 19.75 20.0977 20.0098 20.0977C20.3561 20.0977 20.6455 20.0521 20.8779 19.9609C21.1149 19.8698 21.2949 19.7445 21.418 19.585C21.541 19.4255 21.6025 19.2432 21.6025 19.0381Z" fill="white"/>
</svg>
