<svg width="32" height="32" viewBox="0 0 32 32" fill="none" xmlns="http://www.w3.org/2000/svg">
<rect width="32" height="32" rx="4" fill="#0E6F38"/>
<path d="M6.22266 11.4688L8.27344 14.7383L10.3242 11.4688H11.6426L8.94727 15.6934L11.707 20H10.377L8.27344 16.666L6.16992 20H4.83984L7.59961 15.6934L4.9043 11.4688H6.22266ZM14.0273 11V20H12.9375V11H14.0273ZM19.459 18.3184C19.459 18.1621 19.4238 18.0176 19.3535 17.8848C19.2871 17.748 19.1484 17.625 18.9375 17.5156C18.7305 17.4023 18.418 17.3047 18 17.2227C17.6484 17.1484 17.3301 17.0605 17.0449 16.959C16.7637 16.8574 16.5234 16.7344 16.3242 16.5898C16.1289 16.4453 15.9785 16.2754 15.873 16.0801C15.7676 15.8848 15.7148 15.6562 15.7148 15.3945C15.7148 15.1445 15.7695 14.9082 15.8789 14.6855C15.9922 14.4629 16.1504 14.2656 16.3535 14.0938C16.5605 13.9219 16.8086 13.7871 17.0977 13.6895C17.3867 13.5918 17.709 13.543 18.0645 13.543C18.5723 13.543 19.0059 13.6328 19.3652 13.8125C19.7246 13.9922 20 14.2324 20.1914 14.5332C20.3828 14.8301 20.4785 15.1602 20.4785 15.5234H19.3945C19.3945 15.3477 19.3418 15.1777 19.2363 15.0137C19.1348 14.8457 18.9844 14.707 18.7852 14.5977C18.5898 14.4883 18.3496 14.4336 18.0645 14.4336C17.7637 14.4336 17.5195 14.4805 17.332 14.5742C17.1484 14.6641 17.0137 14.7793 16.9277 14.9199C16.8457 15.0605 16.8047 15.209 16.8047 15.3652C16.8047 15.4824 16.8242 15.5879 16.8633 15.6816C16.9062 15.7715 16.9805 15.8555 17.0859 15.9336C17.1914 16.0078 17.3398 16.0781 17.5312 16.1445C17.7227 16.2109 17.9668 16.2773 18.2637 16.3438C18.7832 16.4609 19.2109 16.6016 19.5469 16.7656C19.8828 16.9297 20.1328 17.1309 20.2969 17.3691C20.4609 17.6074 20.543 17.8965 20.543 18.2363C20.543 18.5137 20.4844 18.7676 20.3672 18.998C20.2539 19.2285 20.0879 19.4277 19.8691 19.5957C19.6543 19.7598 19.3965 19.8887 19.0957 19.9824C18.7988 20.0723 18.4648 20.1172 18.0938 20.1172C17.5352 20.1172 17.0625 20.0176 16.6758 19.8184C16.2891 19.6191 15.9961 19.3613 15.7969 19.0449C15.5977 18.7285 15.498 18.3945 15.498 18.043H16.5879C16.6035 18.3398 16.6895 18.5762 16.8457 18.752C17.002 18.9238 17.1934 19.0469 17.4199 19.1211C17.6465 19.1914 17.8711 19.2266 18.0938 19.2266C18.3906 19.2266 18.6387 19.1875 18.8379 19.1094C19.041 19.0312 19.1953 18.9238 19.3008 18.7871C19.4062 18.6504 19.459 18.4941 19.459 18.3184ZM22.6992 13.6602L24.0879 15.9688L25.4941 13.6602H26.7656L24.6914 16.7891L26.8301 20H25.5762L24.1113 17.6211L22.6465 20H21.3867L23.5195 16.7891L21.4512 13.6602H22.6992Z" fill="white"/>
</svg>
