<svg width="34" height="33" viewBox="0 0 34 33" fill="none" xmlns="http://www.w3.org/2000/svg">
<path d="M16.9443 32.9984C25.7727 32.9984 32.9296 25.8416 32.9296 17.0131C32.9296 8.1847 25.7727 1.02783 16.9443 1.02783C8.11585 1.02783 0.958984 8.1847 0.958984 17.0131C0.958984 25.8416 8.11585 32.9984 16.9443 32.9984Z" fill="url(#paint0_radial_345_44490)"/>
<path opacity="0.2" d="M16.9443 1.8295C25.3164 1.8295 32.1279 8.64103 32.1279 17.0131C32.1279 25.3852 25.3164 32.1968 16.9443 32.1968C8.57218 32.1968 1.76065 25.3852 1.76065 17.0131C1.76065 8.64103 8.57218 1.8295 16.9443 1.8295ZM16.9443 1.02783C8.11523 1.02783 0.958984 8.18675 0.958984 17.0131C0.958984 25.8395 8.11523 32.9984 16.9443 32.9984C25.7733 32.9984 32.9296 25.8422 32.9296 17.0131C32.9296 8.18407 25.7707 1.02783 16.9443 1.02783Z" fill="#434343"/>
<path d="M16.9441 28.1457C23.0924 28.1457 28.0766 23.1615 28.0766 17.0131C28.0766 10.8648 23.0924 5.88062 16.9441 5.88062C10.7957 5.88062 5.81152 10.8648 5.81152 17.0131C5.81152 23.1615 10.7957 28.1457 16.9441 28.1457Z" fill="#FEFCE9"/>
<path d="M16.9442 24.1508C20.8861 24.1508 24.0817 20.9552 24.0817 17.0133C24.0817 13.0713 20.8861 9.87573 16.9442 9.87573C13.0022 9.87573 9.80664 13.0713 9.80664 17.0133C9.80664 20.9552 13.0022 24.1508 16.9442 24.1508Z" fill="url(#paint1_radial_345_44490)"/>
<path d="M16.9442 19.1537C18.1263 19.1537 19.0846 18.1954 19.0846 17.0133C19.0846 15.8311 18.1263 14.8728 16.9442 14.8728C15.762 14.8728 14.8037 15.8311 14.8037 17.0133C14.8037 18.1954 15.762 19.1537 16.9442 19.1537Z" fill="#FEFCE9"/>
<path d="M29.25 4.78783L29.3435 2.53247C29.3863 1.51702 28.4831 0.798188 27.481 1.04938L25.6211 1.51167C24.9798 1.67201 24.4667 2.19309 24.3197 2.8371L22.2915 11.7463L22.3075 11.7383L29.2553 4.79051L29.25 4.78783Z" fill="#09BCD4"/>
<path d="M29.2524 4.78786L31.5078 4.69433C32.5233 4.65157 33.2421 5.55479 32.9909 6.55688L32.5286 8.41675C32.3683 9.05809 31.8472 9.57116 31.2032 9.71813L22.2939 11.7464L22.302 11.7303L29.2498 4.78251L29.2524 4.78786Z" fill="#38A4DD"/>
<path d="M17.2998 17.3152C16.9257 17.6492 16.4046 17.1281 16.736 16.754L26.7649 5.67761C27.2058 5.23669 27.9219 5.23669 28.3628 5.67761C28.8038 6.11853 28.8038 6.83469 28.3628 7.27561L17.2998 17.3152Z" fill="#1B87C9"/>
<path opacity="0.2" d="M27.879 1.53298C28.1435 1.53298 28.384 1.63185 28.5577 1.81357C28.7314 1.99261 28.8196 2.24112 28.8089 2.51102L28.7154 4.76104C28.71 4.86526 28.7368 4.9668 28.7875 5.05231C28.8116 5.0924 28.8383 5.12714 28.8704 5.1592C28.9693 5.26075 29.1082 5.32221 29.2525 5.32221H29.2739L31.5239 5.22868H31.5693C31.8686 5.22868 32.1305 5.3516 32.3042 5.5734C32.4859 5.80321 32.5447 6.11586 32.4672 6.42584L32.0049 8.28572C31.8953 8.72664 31.5239 9.09273 31.0803 9.19428L23.6943 10.8778C23.6034 10.8992 23.5206 10.9419 23.4538 11.0034L18.9965 15.0545L23.0315 10.5972C23.093 10.5304 23.1358 10.4476 23.1571 10.3567L24.8433 2.95461C24.9449 2.51102 25.3083 2.13958 25.7519 2.03002L27.6118 1.56772C27.6999 1.54367 27.7908 1.53298 27.879 1.53298ZM27.879 0.998535C27.748 0.998535 27.6144 1.01457 27.4808 1.04931L25.6209 1.5116C24.9796 1.67194 24.4665 2.19302 24.3196 2.83703L22.6334 10.2391L16.7358 16.7514C16.4766 17.0426 16.7331 17.4194 17.0351 17.4194C17.1232 17.4194 17.2141 17.3873 17.2969 17.3125L23.8145 11.4015L31.2006 9.71803C31.8419 9.57106 32.3657 9.05799 32.526 8.41666L32.9883 6.55678C33.2315 5.57607 32.55 4.69423 31.572 4.69423C31.5506 4.69423 31.5266 4.69423 31.5025 4.69691L29.2525 4.79044H29.2472V4.78509L29.3407 2.53507C29.3781 1.65323 28.71 0.998535 27.879 0.998535Z" fill="#434343"/>
<defs>
<radialGradient id="paint0_radial_345_44490" cx="0" cy="0" r="1" gradientUnits="userSpaceOnUse" gradientTransform="translate(12.3761 9.52099) scale(16.6165)">
<stop offset="0.4707" stop-color="#EF5451"/>
<stop offset="0.8338" stop-color="#E53A35"/>
</radialGradient>
<radialGradient id="paint1_radial_345_44490" cx="0" cy="0" r="1" gradientUnits="userSpaceOnUse" gradientTransform="translate(15.5648 14.2571) scale(8.19093)">
<stop offset="0.4707" stop-color="#EF5451"/>
<stop offset="0.8338" stop-color="#E53A35"/>
</radialGradient>
</defs>
</svg>
