<svg width="170" height="14" viewBox="0 0 170 14" fill="none" xmlns="http://www.w3.org/2000/svg">
<path d="M6.89062 7.7583H8.59961C8.54492 8.40999 8.36263 8.99105 8.05273 9.50146C7.74284 10.0073 7.30762 10.4061 6.74707 10.6978C6.18652 10.9894 5.50521 11.1353 4.70312 11.1353C4.08789 11.1353 3.53418 11.0259 3.04199 10.8071C2.5498 10.5838 2.12826 10.2694 1.77734 9.86377C1.42643 9.45361 1.15755 8.95915 0.970703 8.38037C0.788411 7.8016 0.697266 7.15446 0.697266 6.43896V5.61182C0.697266 4.89632 0.79069 4.24919 0.977539 3.67041C1.16895 3.09163 1.44238 2.59717 1.79785 2.18701C2.15332 1.7723 2.57943 1.45557 3.07617 1.23682C3.57747 1.01807 4.1403 0.908691 4.76465 0.908691C5.55762 0.908691 6.22754 1.05452 6.77441 1.34619C7.32129 1.63786 7.74512 2.04118 8.0459 2.55615C8.35124 3.07113 8.53809 3.6613 8.60645 4.32666H6.89746C6.85189 3.89827 6.75163 3.53141 6.59668 3.22607C6.44629 2.92074 6.22298 2.68831 5.92676 2.52881C5.63053 2.36475 5.24316 2.28271 4.76465 2.28271C4.37272 2.28271 4.03092 2.35563 3.73926 2.50146C3.44759 2.6473 3.20378 2.86149 3.00781 3.14404C2.81185 3.4266 2.66374 3.77523 2.56348 4.18994C2.46777 4.6001 2.41992 5.0695 2.41992 5.59814V6.43896C2.41992 6.94027 2.46322 7.396 2.5498 7.80615C2.64095 8.21175 2.77767 8.56038 2.95996 8.85205C3.14681 9.14372 3.38379 9.3693 3.6709 9.52881C3.95801 9.68831 4.30208 9.76807 4.70312 9.76807C5.19076 9.76807 5.58496 9.69059 5.88574 9.53564C6.19108 9.3807 6.42122 9.15511 6.57617 8.85889C6.73568 8.55811 6.84049 8.19124 6.89062 7.7583ZM11.6211 0.498535V10.9985H9.98047V0.498535H11.6211ZM11.334 7.02686L10.8008 7.02002C10.8053 6.5096 10.876 6.03792 11.0127 5.60498C11.154 5.17204 11.3499 4.79606 11.6006 4.47705C11.8558 4.15348 12.1611 3.90511 12.5166 3.73193C12.8721 3.5542 13.2663 3.46533 13.6992 3.46533C14.0638 3.46533 14.3919 3.51546 14.6836 3.61572C14.9798 3.71598 15.235 3.87777 15.4492 4.10107C15.6634 4.31982 15.8252 4.60693 15.9346 4.9624C16.0485 5.31331 16.1055 5.7417 16.1055 6.24756V10.9985H14.4512V6.23389C14.4512 5.87842 14.3988 5.59587 14.2939 5.38623C14.1937 5.1766 14.0456 5.0262 13.8496 4.93506C13.6536 4.83936 13.4144 4.7915 13.1318 4.7915C12.8356 4.7915 12.5736 4.85075 12.3457 4.96924C12.1224 5.08773 11.9355 5.24951 11.7852 5.45459C11.6348 5.65967 11.5208 5.89665 11.4434 6.16553C11.3704 6.43441 11.334 6.72152 11.334 7.02686ZM21.9434 9.51514V5.98779C21.9434 5.72347 21.8955 5.49561 21.7998 5.3042C21.7041 5.11279 21.5583 4.96468 21.3623 4.85986C21.1709 4.75505 20.9294 4.70264 20.6377 4.70264C20.3688 4.70264 20.1364 4.74821 19.9404 4.83936C19.7445 4.9305 19.5918 5.05355 19.4824 5.2085C19.373 5.36344 19.3184 5.5389 19.3184 5.73486H17.6777C17.6777 5.4432 17.7484 5.16064 17.8896 4.88721C18.0309 4.61377 18.236 4.36995 18.5049 4.15576C18.7738 3.94157 19.0951 3.77295 19.4688 3.6499C19.8424 3.52686 20.2617 3.46533 20.7266 3.46533C21.2826 3.46533 21.7747 3.55876 22.2031 3.74561C22.6361 3.93245 22.9756 4.21501 23.2217 4.59326C23.4723 4.96696 23.5977 5.43636 23.5977 6.00146V9.28955C23.5977 9.62679 23.6204 9.92985 23.666 10.1987C23.7161 10.4631 23.7868 10.6932 23.8779 10.8892V10.9985H22.1895C22.112 10.8208 22.0505 10.5952 22.0049 10.3218C21.9639 10.0438 21.9434 9.7749 21.9434 9.51514ZM22.1826 6.50049L22.1963 7.51904H21.0137C20.7083 7.51904 20.4395 7.54867 20.207 7.60791C19.9746 7.6626 19.7809 7.74463 19.626 7.854C19.471 7.96338 19.3548 8.09554 19.2773 8.25049C19.1999 8.40544 19.1611 8.58089 19.1611 8.77686C19.1611 8.97282 19.2067 9.15283 19.2979 9.31689C19.389 9.4764 19.5212 9.60173 19.6943 9.69287C19.8721 9.78402 20.0863 9.82959 20.3369 9.82959C20.6742 9.82959 20.9681 9.76123 21.2188 9.62451C21.474 9.48324 21.6745 9.31234 21.8203 9.11182C21.9661 8.90674 22.0436 8.71305 22.0527 8.53076L22.5859 9.26221C22.5312 9.44906 22.4378 9.64958 22.3057 9.86377C22.1735 10.078 22.0003 10.283 21.7861 10.479C21.5765 10.6704 21.3236 10.8276 21.0273 10.9507C20.7357 11.0737 20.3984 11.1353 20.0156 11.1353C19.5326 11.1353 19.1019 11.0396 18.7236 10.8481C18.3454 10.6522 18.0492 10.3901 17.835 10.062C17.6208 9.72933 17.5137 9.35335 17.5137 8.93408C17.5137 8.54215 17.5866 8.1958 17.7324 7.89502C17.8828 7.58968 18.1016 7.33447 18.3887 7.12939C18.6803 6.92432 19.0358 6.76937 19.4551 6.66455C19.8743 6.55518 20.3529 6.50049 20.8906 6.50049H22.1826ZM26.9541 5.18115V10.9985H25.3066V3.60205H26.8584L26.9541 5.18115ZM26.6602 7.02686L26.127 7.02002C26.1315 6.49593 26.2044 6.01514 26.3457 5.57764C26.4915 5.14014 26.6921 4.76416 26.9473 4.44971C27.207 4.13525 27.5169 3.89372 27.877 3.7251C28.237 3.55192 28.638 3.46533 29.0801 3.46533C29.4355 3.46533 29.7568 3.51546 30.0439 3.61572C30.3356 3.71143 30.584 3.86865 30.7891 4.0874C30.9987 4.30615 31.1582 4.59098 31.2676 4.94189C31.377 5.28825 31.4316 5.71436 31.4316 6.22021V10.9985H29.7773V6.21338C29.7773 5.85791 29.7249 5.57764 29.6201 5.37256C29.5199 5.16292 29.3717 5.01481 29.1758 4.92822C28.9844 4.83708 28.7451 4.7915 28.458 4.7915C28.1755 4.7915 27.9225 4.85075 27.6992 4.96924C27.4759 5.08773 27.2868 5.24951 27.1318 5.45459C26.9814 5.65967 26.8652 5.89665 26.7832 6.16553C26.7012 6.43441 26.6602 6.72152 26.6602 7.02686ZM37.8506 3.60205H39.3477V10.7935C39.3477 11.4588 39.2064 12.0239 38.9238 12.4888C38.6413 12.9536 38.2471 13.3068 37.7412 13.5483C37.2354 13.7944 36.6497 13.9175 35.9844 13.9175C35.7018 13.9175 35.3874 13.8765 35.041 13.7944C34.6992 13.7124 34.3665 13.5802 34.043 13.3979C33.724 13.2202 33.4574 12.9855 33.2432 12.6938L34.0156 11.7231C34.2799 12.0376 34.5716 12.2677 34.8906 12.4136C35.2096 12.5594 35.5446 12.6323 35.8955 12.6323C36.2738 12.6323 36.5951 12.5617 36.8594 12.4204C37.1283 12.2837 37.3356 12.0809 37.4814 11.812C37.6273 11.5431 37.7002 11.215 37.7002 10.8276V5.27686L37.8506 3.60205ZM32.8262 7.38232V7.23877C32.8262 6.67822 32.8945 6.16781 33.0312 5.70752C33.168 5.24268 33.3639 4.84391 33.6191 4.51123C33.8743 4.17399 34.1842 3.9165 34.5488 3.73877C34.9134 3.55648 35.3258 3.46533 35.7861 3.46533C36.2646 3.46533 36.6725 3.55192 37.0098 3.7251C37.3516 3.89827 37.6364 4.14665 37.8643 4.47021C38.0921 4.78923 38.2699 5.17204 38.3975 5.61865C38.5296 6.06071 38.6276 6.5529 38.6914 7.09521V7.55322C38.6322 8.08187 38.5319 8.56494 38.3906 9.00244C38.2493 9.43994 38.0625 9.8182 37.8301 10.1372C37.5977 10.4562 37.3105 10.7023 36.9688 10.8755C36.6315 11.0487 36.2327 11.1353 35.7725 11.1353C35.3213 11.1353 34.9134 11.0418 34.5488 10.855C34.1888 10.6681 33.8789 10.4061 33.6191 10.0688C33.3639 9.73161 33.168 9.33512 33.0312 8.87939C32.8945 8.41911 32.8262 7.92008 32.8262 7.38232ZM34.4736 7.23877V7.38232C34.4736 7.71956 34.5055 8.03402 34.5693 8.32568C34.6377 8.61735 34.7402 8.87484 34.877 9.09814C35.0182 9.31689 35.196 9.49007 35.4102 9.61768C35.6289 9.74072 35.8864 9.80225 36.1826 9.80225C36.57 9.80225 36.8867 9.72021 37.1328 9.55615C37.3835 9.39209 37.5749 9.17106 37.707 8.89307C37.8438 8.61051 37.9395 8.29606 37.9941 7.94971V6.7124C37.9668 6.44352 37.9098 6.19287 37.8232 5.96045C37.7412 5.72803 37.6296 5.52523 37.4883 5.35205C37.347 5.17432 37.1693 5.0376 36.9551 4.94189C36.7409 4.84163 36.488 4.7915 36.1963 4.7915C35.9001 4.7915 35.6426 4.85531 35.4238 4.98291C35.2051 5.11051 35.0251 5.28597 34.8838 5.50928C34.7471 5.73258 34.6445 5.99235 34.5762 6.28857C34.5078 6.5848 34.4736 6.90153 34.4736 7.23877ZM44.3174 11.1353C43.7705 11.1353 43.276 11.0464 42.834 10.8687C42.3965 10.6864 42.0228 10.4334 41.7129 10.1099C41.4076 9.7863 41.1729 9.40576 41.0088 8.96826C40.8447 8.53076 40.7627 8.05908 40.7627 7.55322V7.27979C40.7627 6.70101 40.847 6.17692 41.0156 5.70752C41.1842 5.23812 41.4189 4.83708 41.7197 4.50439C42.0205 4.16715 42.376 3.90967 42.7861 3.73193C43.1963 3.5542 43.6406 3.46533 44.1191 3.46533C44.6478 3.46533 45.1104 3.5542 45.5068 3.73193C45.9033 3.90967 46.2314 4.16032 46.4912 4.48389C46.7555 4.8029 46.9515 5.18343 47.0791 5.62549C47.2113 6.06755 47.2773 6.55518 47.2773 7.08838V7.79248H41.5625V6.60986H45.6504V6.47998C45.6413 6.18376 45.582 5.90576 45.4727 5.646C45.3678 5.38623 45.2061 5.1766 44.9873 5.01709C44.7686 4.85758 44.4769 4.77783 44.1123 4.77783C43.8389 4.77783 43.5951 4.83708 43.3809 4.95557C43.1712 5.0695 42.9958 5.23584 42.8545 5.45459C42.7132 5.67334 42.6038 5.93766 42.5264 6.24756C42.4535 6.5529 42.417 6.89697 42.417 7.27979V7.55322C42.417 7.87679 42.4603 8.17757 42.5469 8.45557C42.638 8.729 42.7702 8.96826 42.9434 9.17334C43.1165 9.37842 43.3262 9.5402 43.5723 9.65869C43.8184 9.77262 44.0986 9.82959 44.4131 9.82959C44.8096 9.82959 45.1628 9.74984 45.4727 9.59033C45.7826 9.43083 46.0514 9.20524 46.2793 8.91357L47.1475 9.75439C46.988 9.98682 46.7806 10.2101 46.5254 10.4243C46.2702 10.634 45.958 10.8049 45.5889 10.937C45.2243 11.0692 44.8005 11.1353 44.3174 11.1353ZM54.0586 9.35791L55.7676 3.60205H56.8203L56.5332 5.32471L54.8105 10.9985H53.8672L54.0586 9.35791ZM53.0537 3.60205L54.3867 9.38525L54.4961 10.9985H53.4434L51.4404 3.60205H53.0537ZM58.4199 9.31689L59.7119 3.60205H61.3184L59.3223 10.9985H58.2695L58.4199 9.31689ZM56.998 3.60205L58.6865 9.28955L58.8984 10.9985H57.9551L56.2119 5.31787L55.9248 3.60205H56.998ZM62.125 7.38232V7.2251C62.125 6.69189 62.2025 6.19743 62.3574 5.7417C62.5124 5.28141 62.7357 4.88265 63.0273 4.54541C63.3236 4.20361 63.6836 3.93929 64.1074 3.75244C64.5358 3.56104 65.0189 3.46533 65.5566 3.46533C66.099 3.46533 66.582 3.56104 67.0059 3.75244C67.4342 3.93929 67.7965 4.20361 68.0928 4.54541C68.389 4.88265 68.6146 5.28141 68.7695 5.7417C68.9245 6.19743 69.002 6.69189 69.002 7.2251V7.38232C69.002 7.91553 68.9245 8.40999 68.7695 8.86572C68.6146 9.32145 68.389 9.72021 68.0928 10.062C67.7965 10.3993 67.4365 10.6636 67.0127 10.855C66.5889 11.0418 66.1081 11.1353 65.5703 11.1353C65.028 11.1353 64.5426 11.0418 64.1143 10.855C63.6904 10.6636 63.3304 10.3993 63.0342 10.062C62.738 9.72021 62.5124 9.32145 62.3574 8.86572C62.2025 8.40999 62.125 7.91553 62.125 7.38232ZM63.7725 7.2251V7.38232C63.7725 7.71501 63.8066 8.02946 63.875 8.32568C63.9434 8.62191 64.0505 8.88167 64.1963 9.10498C64.3421 9.32829 64.529 9.50374 64.7568 9.63135C64.9847 9.75895 65.2559 9.82275 65.5703 9.82275C65.8757 9.82275 66.14 9.75895 66.3633 9.63135C66.5911 9.50374 66.778 9.32829 66.9238 9.10498C67.0697 8.88167 67.1768 8.62191 67.2451 8.32568C67.318 8.02946 67.3545 7.71501 67.3545 7.38232V7.2251C67.3545 6.89697 67.318 6.58708 67.2451 6.29541C67.1768 5.99919 67.0674 5.73714 66.917 5.50928C66.7712 5.28141 66.5843 5.10368 66.3564 4.97607C66.1331 4.84391 65.8665 4.77783 65.5566 4.77783C65.2467 4.77783 64.9779 4.84391 64.75 4.97607C64.5267 5.10368 64.3421 5.28141 64.1963 5.50928C64.0505 5.73714 63.9434 5.99919 63.875 6.29541C63.8066 6.58708 63.7725 6.89697 63.7725 7.2251ZM72.0371 5.01025V10.9985H70.3896V3.60205H71.9619L72.0371 5.01025ZM74.2998 3.5542L74.2861 5.08545C74.1859 5.06722 74.0765 5.05355 73.958 5.04443C73.8441 5.03532 73.7301 5.03076 73.6162 5.03076C73.3337 5.03076 73.0853 5.07178 72.8711 5.15381C72.6569 5.23128 72.4769 5.34521 72.3311 5.49561C72.1898 5.64144 72.0804 5.81917 72.0029 6.02881C71.9255 6.23844 71.8799 6.47314 71.8662 6.73291L71.4902 6.76025C71.4902 6.29541 71.5358 5.86475 71.627 5.46826C71.7181 5.07178 71.8548 4.72314 72.0371 4.42236C72.224 4.12158 72.4564 3.88688 72.7344 3.71826C73.0169 3.54964 73.3428 3.46533 73.7119 3.46533C73.8122 3.46533 73.9193 3.47445 74.0332 3.49268C74.1517 3.5109 74.2406 3.53141 74.2998 3.5542ZM76.9932 0.498535V10.9985H75.3389V0.498535H76.9932ZM81.5869 3.60205L78.3672 7.17041L76.6035 8.9751L76.1729 7.58057L77.5059 5.93311L79.5977 3.60205H81.5869ZM79.9531 10.9985L77.5537 7.52588L78.5928 6.37061L81.8604 10.9985H79.9531ZM86.7822 8.99561C86.7822 8.83154 86.7412 8.68343 86.6592 8.55127C86.5771 8.41455 86.4199 8.2915 86.1875 8.18213C85.9596 8.07275 85.6224 7.97249 85.1758 7.88135C84.7839 7.79476 84.4238 7.69222 84.0957 7.57373C83.7721 7.45068 83.4941 7.30257 83.2617 7.12939C83.0293 6.95622 82.8493 6.75114 82.7217 6.51416C82.5941 6.27718 82.5303 6.00374 82.5303 5.69385C82.5303 5.39307 82.5964 5.10824 82.7285 4.83936C82.8607 4.57048 83.0498 4.3335 83.2959 4.12842C83.542 3.92334 83.8405 3.76156 84.1914 3.64307C84.5469 3.52458 84.9434 3.46533 85.3809 3.46533C86.0007 3.46533 86.5316 3.57015 86.9736 3.77979C87.4202 3.98486 87.762 4.26514 87.999 4.62061C88.236 4.97152 88.3545 5.368 88.3545 5.81006H86.707C86.707 5.6141 86.6569 5.4318 86.5566 5.26318C86.4609 5.09001 86.3151 4.95101 86.1191 4.84619C85.9232 4.73682 85.6771 4.68213 85.3809 4.68213C85.0983 4.68213 84.8636 4.7277 84.6768 4.81885C84.4945 4.90544 84.3577 5.01937 84.2666 5.16064C84.18 5.30192 84.1367 5.45687 84.1367 5.62549C84.1367 5.74854 84.1595 5.86019 84.2051 5.96045C84.2552 6.05615 84.3372 6.14502 84.4512 6.22705C84.5651 6.30452 84.7201 6.37744 84.916 6.4458C85.1165 6.51416 85.3672 6.58024 85.668 6.64404C86.2331 6.76253 86.7184 6.9152 87.124 7.10205C87.5342 7.28434 87.8486 7.52132 88.0674 7.81299C88.2861 8.1001 88.3955 8.46468 88.3955 8.90674C88.3955 9.23486 88.3249 9.53564 88.1836 9.80908C88.0469 10.078 87.8464 10.3127 87.582 10.5132C87.3177 10.7091 87.001 10.8618 86.6318 10.9712C86.2673 11.0806 85.8571 11.1353 85.4014 11.1353C84.7314 11.1353 84.1641 11.0168 83.6992 10.7798C83.2344 10.5382 82.8812 10.2306 82.6396 9.85693C82.4027 9.47868 82.2842 9.08675 82.2842 8.68115H83.877C83.8952 8.98649 83.9795 9.23031 84.1299 9.4126C84.2848 9.59033 84.4762 9.72021 84.7041 9.80225C84.9365 9.87972 85.1758 9.91846 85.4219 9.91846C85.7181 9.91846 85.9665 9.87972 86.167 9.80225C86.3675 9.72021 86.5202 9.61084 86.625 9.47412C86.7298 9.33285 86.7822 9.17334 86.7822 8.99561ZM91.4922 5.02393V13.8423H89.8447V3.60205H91.3623L91.4922 5.02393ZM96.3115 7.23193V7.37549C96.3115 7.91325 96.2477 8.41227 96.1201 8.87256C95.9971 9.32829 95.8125 9.72705 95.5664 10.0688C95.3249 10.4061 95.0264 10.6681 94.6709 10.855C94.3154 11.0418 93.9053 11.1353 93.4404 11.1353C92.9801 11.1353 92.5768 11.0509 92.2305 10.8823C91.8887 10.7091 91.5993 10.4653 91.3623 10.1509C91.1253 9.83643 90.9339 9.46729 90.7881 9.04346C90.6468 8.61507 90.5465 8.14567 90.4873 7.63525V7.08154C90.5465 6.53923 90.6468 6.04704 90.7881 5.60498C90.9339 5.16292 91.1253 4.78239 91.3623 4.46338C91.5993 4.14437 91.8887 3.89827 92.2305 3.7251C92.5723 3.55192 92.971 3.46533 93.4268 3.46533C93.8916 3.46533 94.304 3.55648 94.6641 3.73877C95.0241 3.9165 95.3271 4.17171 95.5732 4.50439C95.8193 4.83252 96.0039 5.229 96.127 5.69385C96.25 6.15413 96.3115 6.66683 96.3115 7.23193ZM94.6641 7.37549V7.23193C94.6641 6.89014 94.6322 6.5734 94.5684 6.28174C94.5046 5.98551 94.4043 5.72575 94.2676 5.50244C94.1309 5.27913 93.9554 5.10596 93.7412 4.98291C93.5316 4.85531 93.2786 4.7915 92.9824 4.7915C92.6908 4.7915 92.4401 4.84163 92.2305 4.94189C92.0208 5.0376 91.8454 5.17204 91.7041 5.34521C91.5628 5.51839 91.4535 5.72119 91.376 5.95361C91.2985 6.18148 91.2438 6.42985 91.2119 6.69873V8.0249C91.2666 8.35303 91.36 8.65381 91.4922 8.92725C91.6243 9.20068 91.8112 9.41943 92.0527 9.5835C92.2988 9.743 92.6133 9.82275 92.9961 9.82275C93.2923 9.82275 93.5452 9.75895 93.7549 9.63135C93.9645 9.50374 94.1354 9.32829 94.2676 9.10498C94.4043 8.87712 94.5046 8.61507 94.5684 8.31885C94.6322 8.02262 94.6641 7.70817 94.6641 7.37549ZM101.883 9.51514V5.98779C101.883 5.72347 101.835 5.49561 101.739 5.3042C101.644 5.11279 101.498 4.96468 101.302 4.85986C101.11 4.75505 100.869 4.70264 100.577 4.70264C100.308 4.70264 100.076 4.74821 99.8799 4.83936C99.6839 4.9305 99.5312 5.05355 99.4219 5.2085C99.3125 5.36344 99.2578 5.5389 99.2578 5.73486H97.6172C97.6172 5.4432 97.6878 5.16064 97.8291 4.88721C97.9704 4.61377 98.1755 4.36995 98.4443 4.15576C98.7132 3.94157 99.0345 3.77295 99.4082 3.6499C99.7819 3.52686 100.201 3.46533 100.666 3.46533C101.222 3.46533 101.714 3.55876 102.143 3.74561C102.576 3.93245 102.915 4.21501 103.161 4.59326C103.412 4.96696 103.537 5.43636 103.537 6.00146V9.28955C103.537 9.62679 103.56 9.92985 103.605 10.1987C103.656 10.4631 103.726 10.6932 103.817 10.8892V10.9985H102.129C102.051 10.8208 101.99 10.5952 101.944 10.3218C101.903 10.0438 101.883 9.7749 101.883 9.51514ZM102.122 6.50049L102.136 7.51904H100.953C100.648 7.51904 100.379 7.54867 100.146 7.60791C99.9141 7.6626 99.7204 7.74463 99.5654 7.854C99.4105 7.96338 99.2943 8.09554 99.2168 8.25049C99.1393 8.40544 99.1006 8.58089 99.1006 8.77686C99.1006 8.97282 99.1462 9.15283 99.2373 9.31689C99.3285 9.4764 99.4606 9.60173 99.6338 9.69287C99.8115 9.78402 100.026 9.82959 100.276 9.82959C100.614 9.82959 100.908 9.76123 101.158 9.62451C101.413 9.48324 101.614 9.31234 101.76 9.11182C101.906 8.90674 101.983 8.71305 101.992 8.53076L102.525 9.26221C102.471 9.44906 102.377 9.64958 102.245 9.86377C102.113 10.078 101.94 10.283 101.726 10.479C101.516 10.6704 101.263 10.8276 100.967 10.9507C100.675 11.0737 100.338 11.1353 99.9551 11.1353C99.472 11.1353 99.0413 11.0396 98.6631 10.8481C98.2848 10.6522 97.9886 10.3901 97.7744 10.062C97.5602 9.72933 97.4531 9.35335 97.4531 8.93408C97.4531 8.54215 97.526 8.1958 97.6719 7.89502C97.8223 7.58968 98.041 7.33447 98.3281 7.12939C98.6198 6.92432 98.9753 6.76937 99.3945 6.66455C99.8138 6.55518 100.292 6.50049 100.83 6.50049H102.122ZM108.281 9.82275C108.55 9.82275 108.792 9.77035 109.006 9.66553C109.225 9.55615 109.4 9.40576 109.532 9.21436C109.669 9.02295 109.744 8.80192 109.758 8.55127H111.31C111.3 9.02979 111.159 9.46501 110.886 9.85693C110.612 10.2489 110.25 10.561 109.799 10.7935C109.348 11.0213 108.849 11.1353 108.302 11.1353C107.737 11.1353 107.244 11.0396 106.825 10.8481C106.406 10.6522 106.057 10.3833 105.779 10.0415C105.501 9.69971 105.292 9.3055 105.15 8.85889C105.014 8.41227 104.945 7.93376 104.945 7.42334V7.18408C104.945 6.67367 105.014 6.19515 105.15 5.74854C105.292 5.29736 105.501 4.90088 105.779 4.55908C106.057 4.21729 106.406 3.95068 106.825 3.75928C107.244 3.56331 107.734 3.46533 108.295 3.46533C108.887 3.46533 109.407 3.58382 109.854 3.8208C110.3 4.05322 110.651 4.37907 110.906 4.79834C111.166 5.21305 111.3 5.69613 111.31 6.24756H109.758C109.744 5.97412 109.676 5.72803 109.553 5.50928C109.434 5.28597 109.266 5.10824 109.047 4.97607C108.833 4.84391 108.575 4.77783 108.274 4.77783C107.942 4.77783 107.666 4.84619 107.447 4.98291C107.229 5.11507 107.058 5.29736 106.935 5.52979C106.812 5.75765 106.723 6.01514 106.668 6.30225C106.618 6.5848 106.593 6.87874 106.593 7.18408V7.42334C106.593 7.72868 106.618 8.0249 106.668 8.31201C106.718 8.59912 106.805 8.85661 106.928 9.08447C107.055 9.30778 107.229 9.48779 107.447 9.62451C107.666 9.75667 107.944 9.82275 108.281 9.82275ZM115.835 11.1353C115.288 11.1353 114.794 11.0464 114.352 10.8687C113.914 10.6864 113.54 10.4334 113.23 10.1099C112.925 9.7863 112.69 9.40576 112.526 8.96826C112.362 8.53076 112.28 8.05908 112.28 7.55322V7.27979C112.28 6.70101 112.365 6.17692 112.533 5.70752C112.702 5.23812 112.937 4.83708 113.237 4.50439C113.538 4.16715 113.894 3.90967 114.304 3.73193C114.714 3.5542 115.158 3.46533 115.637 3.46533C116.165 3.46533 116.628 3.5542 117.024 3.73193C117.421 3.90967 117.749 4.16032 118.009 4.48389C118.273 4.8029 118.469 5.18343 118.597 5.62549C118.729 6.06755 118.795 6.55518 118.795 7.08838V7.79248H113.08V6.60986H117.168V6.47998C117.159 6.18376 117.1 5.90576 116.99 5.646C116.885 5.38623 116.724 5.1766 116.505 5.01709C116.286 4.85758 115.994 4.77783 115.63 4.77783C115.356 4.77783 115.113 4.83708 114.898 4.95557C114.689 5.0695 114.513 5.23584 114.372 5.45459C114.231 5.67334 114.121 5.93766 114.044 6.24756C113.971 6.5529 113.935 6.89697 113.935 7.27979V7.55322C113.935 7.87679 113.978 8.17757 114.064 8.45557C114.156 8.729 114.288 8.96826 114.461 9.17334C114.634 9.37842 114.844 9.5402 115.09 9.65869C115.336 9.77262 115.616 9.82959 115.931 9.82959C116.327 9.82959 116.68 9.74984 116.99 9.59033C117.3 9.43083 117.569 9.20524 117.797 8.91357L118.665 9.75439C118.506 9.98682 118.298 10.2101 118.043 10.4243C117.788 10.634 117.476 10.8049 117.106 10.937C116.742 11.0692 116.318 11.1353 115.835 11.1353ZM121.14 0.498535V1.4624C121.14 1.74951 121.087 2.04801 120.982 2.35791C120.882 2.66325 120.741 2.95719 120.559 3.23975C120.376 3.51774 120.167 3.75928 119.93 3.96436L119.103 3.44482C119.289 3.16227 119.44 2.86377 119.554 2.54932C119.672 2.23031 119.731 1.87256 119.731 1.47607V0.498535H121.14ZM125.679 8.99561C125.679 8.83154 125.638 8.68343 125.556 8.55127C125.474 8.41455 125.316 8.2915 125.084 8.18213C124.856 8.07275 124.519 7.97249 124.072 7.88135C123.68 7.79476 123.32 7.69222 122.992 7.57373C122.669 7.45068 122.391 7.30257 122.158 7.12939C121.926 6.95622 121.746 6.75114 121.618 6.51416C121.491 6.27718 121.427 6.00374 121.427 5.69385C121.427 5.39307 121.493 5.10824 121.625 4.83936C121.757 4.57048 121.946 4.3335 122.192 4.12842C122.438 3.92334 122.737 3.76156 123.088 3.64307C123.443 3.52458 123.84 3.46533 124.277 3.46533C124.897 3.46533 125.428 3.57015 125.87 3.77979C126.317 3.98486 126.659 4.26514 126.896 4.62061C127.132 4.97152 127.251 5.368 127.251 5.81006H125.604C125.604 5.6141 125.553 5.4318 125.453 5.26318C125.357 5.09001 125.212 4.95101 125.016 4.84619C124.82 4.73682 124.574 4.68213 124.277 4.68213C123.995 4.68213 123.76 4.7277 123.573 4.81885C123.391 4.90544 123.254 5.01937 123.163 5.16064C123.076 5.30192 123.033 5.45687 123.033 5.62549C123.033 5.74854 123.056 5.86019 123.102 5.96045C123.152 6.05615 123.234 6.14502 123.348 6.22705C123.462 6.30452 123.617 6.37744 123.812 6.4458C124.013 6.51416 124.264 6.58024 124.564 6.64404C125.13 6.76253 125.615 6.9152 126.021 7.10205C126.431 7.28434 126.745 7.52132 126.964 7.81299C127.183 8.1001 127.292 8.46468 127.292 8.90674C127.292 9.23486 127.221 9.53564 127.08 9.80908C126.943 10.078 126.743 10.3127 126.479 10.5132C126.214 10.7091 125.897 10.8618 125.528 10.9712C125.164 11.0806 124.754 11.1353 124.298 11.1353C123.628 11.1353 123.061 11.0168 122.596 10.7798C122.131 10.5382 121.778 10.2306 121.536 9.85693C121.299 9.47868 121.181 9.08675 121.181 8.68115H122.773C122.792 8.98649 122.876 9.23031 123.026 9.4126C123.181 9.59033 123.373 9.72021 123.601 9.80225C123.833 9.87972 124.072 9.91846 124.318 9.91846C124.615 9.91846 124.863 9.87972 125.063 9.80225C125.264 9.72021 125.417 9.61084 125.521 9.47412C125.626 9.33285 125.679 9.17334 125.679 8.99561ZM133.984 3.60205V10.9985H132.33V3.60205H133.984ZM132.221 1.66064C132.221 1.40999 132.303 1.20264 132.467 1.03857C132.635 0.869954 132.868 0.785645 133.164 0.785645C133.456 0.785645 133.686 0.869954 133.854 1.03857C134.023 1.20264 134.107 1.40999 134.107 1.66064C134.107 1.90674 134.023 2.11182 133.854 2.27588C133.686 2.43994 133.456 2.52197 133.164 2.52197C132.868 2.52197 132.635 2.43994 132.467 2.27588C132.303 2.11182 132.221 1.90674 132.221 1.66064ZM137.437 5.10596V10.9985H135.789V3.60205H137.341L137.437 5.10596ZM137.17 7.02686L136.609 7.02002C136.609 6.5096 136.673 6.03792 136.801 5.60498C136.928 5.17204 137.115 4.79606 137.361 4.47705C137.607 4.15348 137.913 3.90511 138.277 3.73193C138.646 3.5542 139.073 3.46533 139.556 3.46533C139.893 3.46533 140.201 3.51546 140.479 3.61572C140.761 3.71143 141.005 3.8641 141.21 4.07373C141.42 4.28337 141.579 4.55225 141.688 4.88037C141.802 5.2085 141.859 5.60498 141.859 6.06982V10.9985H140.212V6.21338C140.212 5.85335 140.157 5.5708 140.048 5.36572C139.943 5.16064 139.79 5.01481 139.59 4.92822C139.394 4.83708 139.159 4.7915 138.886 4.7915C138.576 4.7915 138.312 4.85075 138.093 4.96924C137.879 5.08773 137.703 5.24951 137.566 5.45459C137.43 5.65967 137.329 5.89665 137.266 6.16553C137.202 6.43441 137.17 6.72152 137.17 7.02686ZM141.757 6.58936L140.984 6.76025C140.984 6.31364 141.046 5.89209 141.169 5.49561C141.297 5.09456 141.481 4.74365 141.723 4.44287C141.969 4.13753 142.272 3.89827 142.632 3.7251C142.992 3.55192 143.404 3.46533 143.869 3.46533C144.247 3.46533 144.585 3.51774 144.881 3.62256C145.182 3.72282 145.437 3.88232 145.646 4.10107C145.856 4.31982 146.016 4.60465 146.125 4.95557C146.234 5.30192 146.289 5.72119 146.289 6.21338V10.9985H144.635V6.20654C144.635 5.83285 144.58 5.54346 144.471 5.33838C144.366 5.1333 144.215 4.99202 144.02 4.91455C143.824 4.83252 143.589 4.7915 143.315 4.7915C143.06 4.7915 142.835 4.83936 142.639 4.93506C142.447 5.0262 142.285 5.15609 142.153 5.32471C142.021 5.48877 141.921 5.6779 141.853 5.89209C141.789 6.10628 141.757 6.3387 141.757 6.58936ZM152.154 9.51514V5.98779C152.154 5.72347 152.106 5.49561 152.011 5.3042C151.915 5.11279 151.769 4.96468 151.573 4.85986C151.382 4.75505 151.14 4.70264 150.849 4.70264C150.58 4.70264 150.347 4.74821 150.151 4.83936C149.955 4.9305 149.803 5.05355 149.693 5.2085C149.584 5.36344 149.529 5.5389 149.529 5.73486H147.889C147.889 5.4432 147.959 5.16064 148.101 4.88721C148.242 4.61377 148.447 4.36995 148.716 4.15576C148.985 3.94157 149.306 3.77295 149.68 3.6499C150.053 3.52686 150.473 3.46533 150.938 3.46533C151.493 3.46533 151.986 3.55876 152.414 3.74561C152.847 3.93245 153.187 4.21501 153.433 4.59326C153.683 4.96696 153.809 5.43636 153.809 6.00146V9.28955C153.809 9.62679 153.831 9.92985 153.877 10.1987C153.927 10.4631 153.998 10.6932 154.089 10.8892V10.9985H152.4C152.323 10.8208 152.261 10.5952 152.216 10.3218C152.175 10.0438 152.154 9.7749 152.154 9.51514ZM152.394 6.50049L152.407 7.51904H151.225C150.919 7.51904 150.65 7.54867 150.418 7.60791C150.186 7.6626 149.992 7.74463 149.837 7.854C149.682 7.96338 149.566 8.09554 149.488 8.25049C149.411 8.40544 149.372 8.58089 149.372 8.77686C149.372 8.97282 149.418 9.15283 149.509 9.31689C149.6 9.4764 149.732 9.60173 149.905 9.69287C150.083 9.78402 150.297 9.82959 150.548 9.82959C150.885 9.82959 151.179 9.76123 151.43 9.62451C151.685 9.48324 151.885 9.31234 152.031 9.11182C152.177 8.90674 152.255 8.71305 152.264 8.53076L152.797 9.26221C152.742 9.44906 152.649 9.64958 152.517 9.86377C152.384 10.078 152.211 10.283 151.997 10.479C151.787 10.6704 151.535 10.8276 151.238 10.9507C150.947 11.0737 150.609 11.1353 150.227 11.1353C149.743 11.1353 149.313 11.0396 148.935 10.8481C148.556 10.6522 148.26 10.3901 148.046 10.062C147.832 9.72933 147.725 9.35335 147.725 8.93408C147.725 8.54215 147.798 8.1958 147.943 7.89502C148.094 7.58968 148.312 7.33447 148.6 7.12939C148.891 6.92432 149.247 6.76937 149.666 6.66455C150.085 6.55518 150.564 6.50049 151.102 6.50049H152.394ZM160.269 3.60205H161.766V10.7935C161.766 11.4588 161.624 12.0239 161.342 12.4888C161.059 12.9536 160.665 13.3068 160.159 13.5483C159.653 13.7944 159.068 13.9175 158.402 13.9175C158.12 13.9175 157.805 13.8765 157.459 13.7944C157.117 13.7124 156.785 13.5802 156.461 13.3979C156.142 13.2202 155.875 12.9855 155.661 12.6938L156.434 11.7231C156.698 12.0376 156.99 12.2677 157.309 12.4136C157.628 12.5594 157.963 12.6323 158.313 12.6323C158.692 12.6323 159.013 12.5617 159.277 12.4204C159.546 12.2837 159.754 12.0809 159.899 11.812C160.045 11.5431 160.118 11.215 160.118 10.8276V5.27686L160.269 3.60205ZM155.244 7.38232V7.23877C155.244 6.67822 155.312 6.16781 155.449 5.70752C155.586 5.24268 155.782 4.84391 156.037 4.51123C156.292 4.17399 156.602 3.9165 156.967 3.73877C157.331 3.55648 157.744 3.46533 158.204 3.46533C158.683 3.46533 159.09 3.55192 159.428 3.7251C159.77 3.89827 160.054 4.14665 160.282 4.47021C160.51 4.78923 160.688 5.17204 160.815 5.61865C160.948 6.06071 161.046 6.5529 161.109 7.09521V7.55322C161.05 8.08187 160.95 8.56494 160.809 9.00244C160.667 9.43994 160.48 9.8182 160.248 10.1372C160.016 10.4562 159.729 10.7023 159.387 10.8755C159.049 11.0487 158.651 11.1353 158.19 11.1353C157.739 11.1353 157.331 11.0418 156.967 10.855C156.607 10.6681 156.297 10.4061 156.037 10.0688C155.782 9.73161 155.586 9.33512 155.449 8.87939C155.312 8.41911 155.244 7.92008 155.244 7.38232ZM156.892 7.23877V7.38232C156.892 7.71956 156.924 8.03402 156.987 8.32568C157.056 8.61735 157.158 8.87484 157.295 9.09814C157.436 9.31689 157.614 9.49007 157.828 9.61768C158.047 9.74072 158.304 9.80225 158.601 9.80225C158.988 9.80225 159.305 9.72021 159.551 9.55615C159.801 9.39209 159.993 9.17106 160.125 8.89307C160.262 8.61051 160.357 8.29606 160.412 7.94971V6.7124C160.385 6.44352 160.328 6.19287 160.241 5.96045C160.159 5.72803 160.048 5.52523 159.906 5.35205C159.765 5.17432 159.587 5.0376 159.373 4.94189C159.159 4.84163 158.906 4.7915 158.614 4.7915C158.318 4.7915 158.061 4.85531 157.842 4.98291C157.623 5.11051 157.443 5.28597 157.302 5.50928C157.165 5.73258 157.062 5.99235 156.994 6.28857C156.926 6.5848 156.892 6.90153 156.892 7.23877ZM166.735 11.1353C166.188 11.1353 165.694 11.0464 165.252 10.8687C164.814 10.6864 164.441 10.4334 164.131 10.1099C163.826 9.7863 163.591 9.40576 163.427 8.96826C163.263 8.53076 163.181 8.05908 163.181 7.55322V7.27979C163.181 6.70101 163.265 6.17692 163.434 5.70752C163.602 5.23812 163.837 4.83708 164.138 4.50439C164.438 4.16715 164.794 3.90967 165.204 3.73193C165.614 3.5542 166.059 3.46533 166.537 3.46533C167.066 3.46533 167.528 3.5542 167.925 3.73193C168.321 3.90967 168.649 4.16032 168.909 4.48389C169.174 4.8029 169.369 5.18343 169.497 5.62549C169.629 6.06755 169.695 6.55518 169.695 7.08838V7.79248H163.98V6.60986H168.068V6.47998C168.059 6.18376 168 5.90576 167.891 5.646C167.786 5.38623 167.624 5.1766 167.405 5.01709C167.187 4.85758 166.895 4.77783 166.53 4.77783C166.257 4.77783 166.013 4.83708 165.799 4.95557C165.589 5.0695 165.414 5.23584 165.272 5.45459C165.131 5.67334 165.022 5.93766 164.944 6.24756C164.871 6.5529 164.835 6.89697 164.835 7.27979V7.55322C164.835 7.87679 164.878 8.17757 164.965 8.45557C165.056 8.729 165.188 8.96826 165.361 9.17334C165.535 9.37842 165.744 9.5402 165.99 9.65869C166.236 9.77262 166.517 9.82959 166.831 9.82959C167.228 9.82959 167.581 9.74984 167.891 9.59033C168.201 9.43083 168.469 9.20524 168.697 8.91357L169.565 9.75439C169.406 9.98682 169.199 10.2101 168.943 10.4243C168.688 10.634 168.376 10.8049 168.007 10.937C167.642 11.0692 167.218 11.1353 166.735 11.1353Z" fill="#565656"/>
<path d="M0 12.3657H170.126V13.0493H0V12.3657Z" fill="#565656"/>
</svg>
