<svg width="30" height="24" viewBox="0 0 30 24" fill="none" xmlns="http://www.w3.org/2000/svg">
<path d="M19.1932 4.41817H15.0413C14.7391 4.41817 14.442 4.17293 14.3781 3.87241L14.1588 2.83961C14.0949 2.53737 14.2866 2.29385 14.5888 2.29385H18.7407C19.043 2.29385 19.34 2.5391 19.4039 2.83961L19.6233 3.87241C19.6872 4.17293 19.4955 4.41817 19.1932 4.41817Z" fill="#946134"/>
<path d="M15.4784 4.41817H11.3265C11.0242 4.41817 10.7272 4.17293 10.6633 3.87241L10.4439 2.83961C10.38 2.53737 10.5717 2.29385 10.874 2.29385H15.0259C15.3281 2.29385 15.6252 2.5391 15.6891 2.83961L15.9084 3.87241C15.9723 4.17293 15.7806 4.41817 15.4784 4.41817Z" fill="#FF8F00"/>
<path d="M6.43373 2.29215C6.20575 2.31806 6.01404 2.53222 6.01577 2.76192C6.00195 8.87236 6.00195 11.216 6.00195 17.7928C6.00195 18.038 6.22647 18.2625 6.47172 18.2625H22.924C22.9913 18.2625 23.0569 18.2453 23.1174 18.2159C23.2746 18.1416 23.3678 17.9758 23.3834 17.8031L24.3264 6.97256C24.3281 6.95875 24.3281 6.94493 24.3281 6.93111C24.3367 6.1781 24.3315 5.55462 24.3281 4.8517C24.3264 4.30594 23.879 3.86035 23.3333 3.86035H12.3283C12.1055 3.86035 11.9086 3.72046 11.8343 3.51148C11.7411 3.24896 11.6098 2.87936 11.4889 2.54431C11.3974 2.29043 11.0226 2.29043 10.9224 2.29215H6.43373Z" fill="url(#paint0_linear_2428_63126)"/>
<path opacity="0.2" d="M18.7407 2.81027C18.7943 2.81027 18.8824 2.87935 18.8962 2.94671L19.1138 3.97087C19.1639 4.21094 19.3763 4.38192 19.6198 4.38192H23.3296C23.5869 4.38192 23.8046 4.59953 23.8063 4.85687L23.808 5.24547C23.8097 5.79641 23.8132 6.31626 23.8063 6.92074V6.9311C23.7994 7.07273 23.8512 7.21089 23.9479 7.31279C24.0463 7.41469 24.1811 7.47341 24.3227 7.47341H26.1672C26.181 7.47341 26.1931 7.47514 26.2035 7.47514L23.264 17.4819C23.2243 17.6149 23.0256 17.7738 22.8374 17.7738H6.55958C6.54231 17.7738 6.52849 17.772 6.51985 17.7703V17.7651C6.51985 11.254 6.52158 8.91553 6.53367 2.81027H10.8738H10.8859H18.7407ZM18.7407 2.29214H10.8738H10.8721H6.43177C6.2038 2.31805 6.01209 2.53221 6.01382 2.76191C6 8.87235 6 11.216 6 17.7928C6 17.8066 6.00345 17.8221 6.00518 17.8359C6.02418 18.1002 6.23834 18.2919 6.55958 18.2919H22.8374C23.2398 18.2919 23.6526 17.9948 23.7614 17.627L26.7026 7.61676C26.8097 7.24889 26.5713 6.95183 26.1689 6.95183H24.3244C24.3244 6.94492 24.3261 6.93801 24.3261 6.9311C24.3348 6.17809 24.3296 5.55461 24.3261 4.85169C24.3244 4.30593 23.8771 3.86034 23.3313 3.86034H19.6215L19.4039 2.83618C19.34 2.53739 19.043 2.29214 18.7407 2.29214Z" fill="#424242"/>
<path d="M24.6465 8.48035L22.3429 16.7112C22.2163 17.1639 21.6815 17.4137 21.1547 17.2662L8.70204 13.7812C8.17519 13.6337 7.8478 13.1427 7.97449 12.69L10.278 4.45912C10.4047 4.00642 10.9394 3.75667 11.4663 3.90412L23.9189 7.38918C24.4458 7.53663 24.7732 8.02766 24.6465 8.48035Z" fill="url(#paint1_linear_2428_63126)"/>
<path d="M9.76953 11.0599L11.2198 5.87772L12.225 6.15903L10.7747 11.3412L9.76953 11.0599Z" fill="#4CA4DF"/>
<path d="M10.8477 13.4943L13.036 5.67492L13.515 5.80897L11.3266 13.6283L10.8477 13.4943Z" fill="#BDBDBD"/>
<path d="M12.2832 13.8961L14.4716 6.07678L14.9505 6.21082L12.7622 14.0302L12.2832 13.8961Z" fill="#BDBDBD"/>
<path d="M13.7207 14.2982L15.9091 6.47888L16.388 6.61292L14.1997 14.4323L13.7207 14.2982Z" fill="#BDBDBD"/>
<path d="M15.1582 14.7004L17.3466 6.8811L17.8255 7.01514L15.6372 14.8345L15.1582 14.7004Z" fill="#BDBDBD"/>
<path d="M16.5957 15.1028L18.2082 9.34123L18.6871 9.47527L17.0747 15.2369L16.5957 15.1028Z" fill="#BDBDBD"/>
<path d="M18.0312 15.5047L19.4134 10.5662L19.8923 10.7002L18.5102 15.6387L18.0312 15.5047Z" fill="#BDBDBD"/>
<path d="M19.4688 15.9068L20.0444 13.85L20.5233 13.984L19.9477 16.0408L19.4688 15.9068Z" fill="#BDBDBD"/>
<path opacity="0.2" d="M10.6372 4.55965C10.7167 4.27569 11.0494 4.12029 11.3799 4.21277L23.8326 7.69784C24.163 7.79033 24.3667 8.09586 24.2873 8.37982L21.9837 16.6107C21.9043 16.8947 21.5716 17.0501 21.2411 16.9576L8.78842 13.4725C8.45795 13.38 8.25423 13.0745 8.33371 12.7905L10.6372 4.55965ZM10.278 4.45912L7.97449 12.69C7.8478 13.1427 8.17519 13.6337 8.70204 13.7812L21.1547 17.2662C21.6815 17.4137 22.2163 17.1639 22.3429 16.7112L24.6465 8.48035C24.7732 8.02766 24.4458 7.53663 23.9189 7.38918L11.4663 3.90412C10.9394 3.75667 10.4047 4.00642 10.278 4.45912Z" fill="#424242"/>
<g filter="url(#filter0_d_2428_63126)">
<path d="M23.2958 10.3989L22 17.5981C21.9341 18.0636 21.5859 17.8748 21 17.7919L7.06525 17.5981C6.47936 17.5152 6.05388 17.0666 6.11973 16.6011L7.31706 8.13826C7.38291 7.67281 7.91615 7.3598 8.50204 7.44269L22.3502 9.40193C22.9361 9.48482 23.3616 9.93347 23.2958 10.3989Z" fill="url(#paint2_linear_2428_63126)"/>
<path d="M7.78906 14.763L8.5429 9.43473L9.6607 9.59288L8.90687 14.9211L7.78906 14.763Z" fill="#4CA4DF"/>
<path d="M9.31641 17.0531L10.4539 9.01338L10.9865 9.08873L9.84903 17.1285L9.31641 17.0531Z" fill="#BDBDBD"/>
<path d="M10.9141 17.2789L12.0515 9.23921L12.5841 9.31456L11.4467 17.3543L10.9141 17.2789Z" fill="#BDBDBD"/>
<path d="M12.5117 17.505L13.6492 9.46528L14.1818 9.54064L13.0443 17.5804L12.5117 17.505Z" fill="#BDBDBD"/>
<path d="M14.1094 17.7311L15.2468 9.69139L15.7795 9.76674L14.642 17.8065L14.1094 17.7311Z" fill="#BDBDBD"/>
<path d="M15.707 17.9575L16.5452 12.0335L17.0778 12.1088L16.2397 18.0328L15.707 17.9575Z" fill="#BDBDBD"/>
<path d="M17.3047 18.1833L18.0231 13.1056L18.5557 13.181L17.8373 18.2587L17.3047 18.1833Z" fill="#BDBDBD"/>
<path opacity="0.2" d="M7.71652 8.19478C7.75783 7.90281 8.08963 7.70805 8.45714 7.76005L22.3053 9.71929C22.6729 9.77128 22.9376 10.0504 22.8963 10.3424L21.8293 17.5981C21.788 17.8901 21.8675 17.8439 21.5 17.7919L7.11015 17.2808C6.74264 17.2288 6.47789 16.9496 6.5192 16.6576L7.71652 8.19478ZM7.31706 8.13826L6.11973 16.6011C6.05388 17.0666 6.47936 17.5152 7.06525 17.5981L20.9584 17.5981C21.5442 17.681 21.937 17.1231 22.0028 16.6576L23.2958 10.3989C23.3616 9.93347 22.9361 9.48482 22.3502 9.40193L8.50204 7.44269C7.91615 7.3598 7.38291 7.67281 7.31706 8.13826Z" fill="#424242"/>
</g>
<path d="M22.8371 18.2918H6.55929C6.15687 18.2918 5.91854 17.9947 6.02562 17.6269L8.38061 11.1216C8.45227 10.9237 8.64023 10.7918 8.85075 10.7918H12.2496C12.6942 10.7918 13.117 10.5107 13.3182 10.1141C13.7619 9.23956 14.5412 7.79688 14.8591 7.21104C14.9463 7.05017 15.1139 6.95172 15.2969 6.95172H26.1686C26.5711 6.95172 26.8094 7.24878 26.7023 7.61665L23.7611 17.6269C23.6523 17.9947 23.2395 18.2918 22.8371 18.2918Z" fill="url(#paint3_linear_2428_63126)"/>
<path opacity="0.2" d="M6.55929 18.0419H22.8371C22.9786 18.0419 23.1323 17.9886 23.2632 17.8944C23.3944 17.8 23.4854 17.6771 23.5212 17.5565L6.55929 18.0419ZM6.55929 18.0419C6.41966 18.0419 6.33718 17.9917 6.29637 17.9409C6.25799 17.8931 6.23294 17.8158 6.26371 17.7037L8.61568 11.2068C8.65151 11.1078 8.74549 11.0419 8.85075 11.0419H12.2496C12.7964 11.0419 13.3011 10.7005 13.5412 10.2273C13.9831 9.35638 14.7607 7.91678 15.0788 7.33034C15.1218 7.25113 15.2044 7.20181 15.2969 7.20181H26.1686C26.3083 7.20181 26.3908 7.25195 26.4316 7.3028C26.4707 7.35156 26.496 7.43089 26.4624 7.5466C26.4623 7.54669 26.4623 7.54678 26.4623 7.54687L23.5214 17.556L6.55929 18.0419Z" stroke="#424242" stroke-width="0.5"/>
<defs>
<filter id="filter0_d_2428_63126" x="0.113281" y="0.429382" width="29.1895" height="22.8293" filterUnits="userSpaceOnUse" color-interpolation-filters="sRGB">
<feFlood flood-opacity="0" result="BackgroundImageFix"/>
<feColorMatrix in="SourceAlpha" type="matrix" values="0 0 0 0 0 0 0 0 0 0 0 0 0 0 0 0 0 0 127 0" result="hardAlpha"/>
<feOffset dy="-1"/>
<feGaussianBlur stdDeviation="3"/>
<feComposite in2="hardAlpha" operator="out"/>
<feColorMatrix type="matrix" values="0 0 0 0 0 0 0 0 0 0 0 0 0 0 0 0 0 0 0.15 0"/>
<feBlend mode="normal" in2="BackgroundImageFix" result="effect1_dropShadow_2428_63126"/>
<feBlend mode="normal" in="SourceGraphic" in2="effect1_dropShadow_2428_63126" result="shape"/>
</filter>
<linearGradient id="paint0_linear_2428_63126" x1="15.165" y1="2.30804" x2="15.165" y2="18.2125" gradientUnits="userSpaceOnUse">
<stop stop-color="#FFC107"/>
<stop offset="0.1894" stop-color="#F1AF06"/>
<stop offset="0.5692" stop-color="#CD7F02"/>
<stop offset="0.7232" stop-color="#BD6A00"/>
</linearGradient>
<linearGradient id="paint1_linear_2428_63126" x1="8.68722" y1="8.45169" x2="23.3271" y2="12.5489" gradientUnits="userSpaceOnUse">
<stop stop-color="#F5F5F5"/>
<stop offset="1" stop-color="#E0E0E0"/>
</linearGradient>
<linearGradient id="paint2_linear_2428_63126" x1="6.23015" y1="12.3006" x2="22.5107" y2="14.604" gradientUnits="userSpaceOnUse">
<stop stop-color="#F5F5F5"/>
<stop offset="1" stop-color="#E0E0E0"/>
</linearGradient>
<linearGradient id="paint3_linear_2428_63126" x1="16.3636" y1="6.90716" x2="16.3636" y2="18.2711" gradientUnits="userSpaceOnUse">
<stop stop-color="#FFEE58"/>
<stop offset="0.2852" stop-color="#FFEA54"/>
<stop offset="0.5961" stop-color="#FDDC48"/>
<stop offset="0.9179" stop-color="#FCC733"/>
<stop offset="1" stop-color="#FBC02D"/>
</linearGradient>
</defs>
</svg>
