<svg width="30" height="24" viewBox="0 0 30 24" fill="none" xmlns="http://www.w3.org/2000/svg">
<path d="M19.1932 4.4182H15.0413C14.7391 4.4182 14.442 4.17296 14.3781 3.87244L14.1588 2.83964C14.0949 2.5374 14.2866 2.29388 14.5888 2.29388H18.7407C19.043 2.29388 19.34 2.53913 19.4039 2.83964L19.6233 3.87244C19.6872 4.17296 19.4955 4.4182 19.1932 4.4182Z" fill="#946134"/>
<path d="M15.4784 4.4182H11.3265C11.0242 4.4182 10.7272 4.17296 10.6633 3.87244L10.4439 2.83964C10.38 2.5374 10.5717 2.29388 10.874 2.29388H15.0259C15.3281 2.29388 15.6252 2.53913 15.6891 2.83964L15.9084 3.87244C15.9723 4.17296 15.7806 4.4182 15.4784 4.4182Z" fill="#FF8F00"/>
<path d="M6.43373 2.29218C6.20575 2.31809 6.01404 2.53225 6.01577 2.76195C6.00195 8.87239 6.00195 11.216 6.00195 17.7928C6.00195 18.038 6.22647 18.2626 6.47172 18.2626H22.924C22.9913 18.2626 23.0569 18.2453 23.1174 18.2159C23.2746 18.1417 23.3678 17.9759 23.3834 17.8032L24.3264 6.97259C24.3281 6.95878 24.3281 6.94496 24.3281 6.93114C24.3367 6.17813 24.3315 5.55465 24.3281 4.85173C24.3264 4.30597 23.879 3.86038 23.3333 3.86038H12.3283C12.1055 3.86038 11.9086 3.72049 11.8343 3.51151C11.7411 3.24899 11.6098 2.87939 11.4889 2.54434C11.3974 2.29046 11.0226 2.29046 10.9224 2.29218H6.43373Z" fill="url(#paint0_linear_2428_62359)"/>
<path opacity="0.2" d="M18.7407 2.8103C18.7943 2.8103 18.8824 2.87939 18.8962 2.94674L19.1138 3.9709C19.1639 4.21097 19.3763 4.38195 19.6198 4.38195H23.3296C23.5869 4.38195 23.8046 4.59957 23.8063 4.8569L23.808 5.2455C23.8097 5.79644 23.8132 6.31629 23.8063 6.92077V6.93113C23.7994 7.07276 23.8512 7.21092 23.9479 7.31282C24.0463 7.41472 24.1811 7.47344 24.3227 7.47344H26.1672C26.181 7.47344 26.1931 7.47517 26.2035 7.47517L23.264 17.4819C23.2243 17.6149 23.0256 17.7738 22.8374 17.7738H6.55958C6.54231 17.7738 6.52849 17.7721 6.51985 17.7703V17.7652C6.51985 11.254 6.52158 8.91556 6.53367 2.8103H10.8738H10.8859H18.7407ZM18.7407 2.29218H10.8738H10.8721H6.43177C6.2038 2.31808 6.01209 2.53224 6.01382 2.76194C6 8.87238 6 11.216 6 17.7928C6 17.8066 6.00345 17.8222 6.00518 17.836C6.02418 18.1002 6.23834 18.2919 6.55958 18.2919H22.8374C23.2398 18.2919 23.6526 17.9949 23.7614 17.627L26.7026 7.61679C26.8097 7.24892 26.5713 6.95186 26.1689 6.95186H24.3244C24.3244 6.94495 24.3261 6.93804 24.3261 6.93113C24.3348 6.17812 24.3296 5.55465 24.3261 4.85172C24.3244 4.30596 23.8771 3.86037 23.3313 3.86037H19.6215L19.4039 2.83621C19.34 2.53742 19.043 2.29218 18.7407 2.29218Z" fill="#424242"/>
<path d="M24.6465 8.48039L22.3429 16.7113C22.2163 17.164 21.6815 17.4137 21.1547 17.2663L8.70204 13.7812C8.17519 13.6338 7.8478 13.1427 7.97449 12.69L10.278 4.45915C10.4047 4.00645 10.9394 3.7567 11.4663 3.90415L23.9189 7.38922C24.4458 7.53666 24.7732 8.02769 24.6465 8.48039Z" fill="url(#paint1_linear_2428_62359)"/>
<path d="M9.76953 11.0599L11.2198 5.87776L12.225 6.15906L10.7747 11.3412L9.76953 11.0599Z" fill="#4CA4DF"/>
<path d="M10.8477 13.4943L13.036 5.67499L13.515 5.80903L11.3266 13.6284L10.8477 13.4943Z" fill="#BDBDBD"/>
<path d="M12.2832 13.8962L14.4716 6.07684L14.9505 6.21088L12.7622 14.0302L12.2832 13.8962Z" fill="#BDBDBD"/>
<path d="M13.7207 14.2983L15.9091 6.47894L16.388 6.61298L14.1997 14.4323L13.7207 14.2983Z" fill="#BDBDBD"/>
<path d="M15.1582 14.7005L17.3466 6.88116L17.8255 7.0152L15.6372 14.8345L15.1582 14.7005Z" fill="#BDBDBD"/>
<path d="M16.5957 15.1029L18.2082 9.34129L18.6871 9.47533L17.0747 15.2369L16.5957 15.1029Z" fill="#BDBDBD"/>
<path d="M18.0312 15.5048L19.4134 10.5662L19.8923 10.7003L18.5102 15.6388L18.0312 15.5048Z" fill="#BDBDBD"/>
<path d="M19.4688 15.9069L20.0444 13.85L20.5233 13.9841L19.9477 16.0409L19.4688 15.9069Z" fill="#BDBDBD"/>
<path opacity="0.2" d="M10.6372 4.55968C10.7167 4.27572 11.0494 4.12032 11.3799 4.2128L23.8326 7.69787C24.163 7.79036 24.3667 8.09589 24.2873 8.37985L21.9837 16.6107C21.9043 16.8947 21.5716 17.0501 21.2411 16.9576L8.78842 13.4725C8.45795 13.3801 8.25423 13.0745 8.33371 12.7906L10.6372 4.55968ZM10.278 4.45915L7.97449 12.69C7.8478 13.1427 8.17519 13.6338 8.70204 13.7812L21.1547 17.2663C21.6815 17.4137 22.2163 17.164 22.3429 16.7113L24.6465 8.48039C24.7732 8.02769 24.4458 7.53666 23.9189 7.38921L11.4663 3.90415C10.9394 3.7567 10.4047 4.00645 10.278 4.45915Z" fill="#424242"/>
<g filter="url(#filter0_d_2428_62359)">
<path d="M23.2958 10.399L22 17.5982C21.9341 18.0636 21.5859 17.8748 21 17.7919L7.06525 17.5982C6.47936 17.5153 6.05388 17.0666 6.11973 16.6012L7.31706 8.13829C7.38291 7.67284 7.91615 7.35983 8.50204 7.44272L22.3502 9.40196C22.9361 9.48485 23.3616 9.9335 23.2958 10.399Z" fill="url(#paint2_linear_2428_62359)"/>
<path d="M7.78906 14.763L8.5429 9.43476L9.6607 9.59291L8.90687 14.9211L7.78906 14.763Z" fill="#4CA4DF"/>
<path d="M9.31641 17.0532L10.4539 9.01344L10.9865 9.08879L9.84903 17.1285L9.31641 17.0532Z" fill="#BDBDBD"/>
<path d="M10.9141 17.2789L12.0515 9.23921L12.5841 9.31456L11.4467 17.3543L10.9141 17.2789Z" fill="#BDBDBD"/>
<path d="M12.5117 17.5051L13.6492 9.46534L14.1818 9.5407L13.0443 17.5804L12.5117 17.5051Z" fill="#BDBDBD"/>
<path d="M14.1094 17.7311L15.2468 9.69142L15.7795 9.76677L14.642 17.8065L14.1094 17.7311Z" fill="#BDBDBD"/>
<path d="M15.707 17.9575L16.5452 12.0335L17.0778 12.1089L16.2397 18.0329L15.707 17.9575Z" fill="#BDBDBD"/>
<path d="M17.3047 18.1833L18.0231 13.1056L18.5557 13.181L17.8373 18.2587L17.3047 18.1833Z" fill="#BDBDBD"/>
<path opacity="0.2" d="M7.71652 8.19481C7.75783 7.90284 8.08963 7.70808 8.45714 7.76008L22.3053 9.71932C22.6729 9.77131 22.9376 10.0505 22.8963 10.3424L21.8293 17.5982C21.788 17.8901 21.8675 17.8439 21.5 17.7919L7.11015 17.2808C6.74264 17.2288 6.47789 16.9496 6.5192 16.6577L7.71652 8.19481ZM7.31706 8.13829L6.11973 16.6012C6.05388 17.0666 6.47936 17.5153 7.06525 17.5982L20.9584 17.5982C21.5442 17.6811 21.937 17.1231 22.0028 16.6577L23.2958 10.399C23.3616 9.9335 22.9361 9.48485 22.3502 9.40196L8.50204 7.44272C7.91615 7.35983 7.38291 7.67284 7.31706 8.13829Z" fill="#424242"/>
</g>
<path d="M22.8371 18.2918H6.55929C6.15687 18.2918 5.91854 17.9948 6.02562 17.6269L8.38061 11.1217C8.45227 10.9237 8.64023 10.7919 8.85075 10.7919H12.2496C12.6942 10.7919 13.117 10.5107 13.3182 10.1142C13.7619 9.23962 14.5412 7.79694 14.8591 7.2111C14.9463 7.05023 15.1139 6.95178 15.2969 6.95178H26.1686C26.5711 6.95178 26.8094 7.24884 26.7023 7.61671L23.7611 17.6269C23.6523 17.9948 23.2395 18.2918 22.8371 18.2918Z" fill="url(#paint3_linear_2428_62359)"/>
<path opacity="0.2" d="M6.55929 18.0419H22.8371C22.9786 18.0419 23.1323 17.9887 23.2632 17.8945C23.3944 17.8001 23.4854 17.6771 23.5212 17.5565L6.55929 18.0419ZM6.55929 18.0419C6.41966 18.0419 6.33718 17.9918 6.29637 17.9409C6.25799 17.8931 6.23294 17.8159 6.26371 17.7037L8.61568 11.2068C8.65151 11.1079 8.74549 11.0419 8.85075 11.0419H12.2496C12.7964 11.0419 13.3011 10.7005 13.5412 10.2274C13.9831 9.35641 14.7607 7.91681 15.0788 7.33037C15.1218 7.25116 15.2044 7.20184 15.2969 7.20184H26.1686C26.3083 7.20184 26.3908 7.25198 26.4316 7.30283C26.4707 7.35158 26.496 7.4309 26.4624 7.54659C26.4623 7.5467 26.4623 7.5468 26.4623 7.5469L23.5214 17.5561L6.55929 18.0419Z" stroke="#424242" stroke-width="0.5"/>
<rect x="17.3207" y="9.77771" width="9.44445" height="9.44445" rx="4.72223" fill="url(#paint4_linear_2428_62359)"/>
<path d="M22.8931 14.5659C22.8569 14.5298 22.8569 14.471 22.8931 14.4349L24.6591 12.6706C24.8753 12.4535 24.8753 12.1021 24.6591 11.885C24.443 11.6679 24.093 11.6679 23.8768 11.885L22.1093 13.6507C22.0732 13.6868 22.0144 13.6868 21.9783 13.6507L20.2145 11.8845C19.9974 11.6684 19.6456 11.6684 19.4285 11.8845C19.2113 12.1007 19.2113 12.4507 19.4285 12.6669L21.1941 14.434C21.2302 14.4701 21.2302 14.5289 21.1941 14.565L19.428 16.3293C19.2118 16.5464 19.2118 16.8978 19.428 17.1149C19.6442 17.332 19.9942 17.332 20.2104 17.1149L21.9774 15.3492C22.0135 15.3131 22.0723 15.3131 22.1084 15.3492L23.8726 17.1153C24.0897 17.3315 24.4411 17.3315 24.6582 17.1153C24.8753 16.8992 24.8753 16.5492 24.6582 16.333L22.8931 14.5659Z" fill="url(#paint5_linear_2428_62359)"/>
<path d="M22.8931 14.5659C22.8569 14.5298 22.8569 14.471 22.8931 14.4349L24.6591 12.6706C24.8753 12.4535 24.8753 12.1021 24.6591 11.885C24.443 11.6679 24.093 11.6679 23.8768 11.885L22.1093 13.6507C22.0732 13.6868 22.0144 13.6868 21.9783 13.6507L20.2145 11.8845C19.9974 11.6684 19.6456 11.6684 19.4285 11.8845C19.2113 12.1007 19.2113 12.4507 19.4285 12.6669L21.1941 14.434C21.2302 14.4701 21.2302 14.5289 21.1941 14.565L19.428 16.3293C19.2118 16.5464 19.2118 16.8978 19.428 17.1149C19.6442 17.332 19.9942 17.332 20.2104 17.1149L21.9774 15.3492C22.0135 15.3131 22.0723 15.3131 22.1084 15.3492L23.8726 17.1153C24.0897 17.3315 24.4411 17.3315 24.6582 17.1153C24.8753 16.8992 24.8753 16.5492 24.6582 16.333L22.8931 14.5659Z" fill="url(#paint6_linear_2428_62359)"/>
<g opacity="0.2">
<path d="M19.8215 11.8615C19.9331 11.8615 20.0377 11.9045 20.1159 11.9828L21.8802 13.7489C21.9237 13.7929 21.982 13.817 22.044 13.817C22.1056 13.817 22.1639 13.7929 22.2074 13.7494L23.9749 11.9837C24.0532 11.905 24.1573 11.8619 24.268 11.8619C24.3786 11.8619 24.4828 11.905 24.561 11.9837C24.723 12.1462 24.723 12.411 24.5615 12.573L22.7949 14.3368C22.7046 14.4271 22.7046 14.5739 22.7949 14.6641L24.5605 16.4317C24.6392 16.5099 24.6823 16.6141 24.6823 16.7247C24.6823 16.8353 24.6392 16.9395 24.5605 17.0177C24.4818 17.096 24.3772 17.1395 24.2656 17.1395C24.1541 17.1395 24.0495 17.0964 23.9712 17.0182L22.207 15.2516C22.1635 15.2076 22.1051 15.1836 22.0431 15.1836C21.9815 15.1836 21.9232 15.2076 21.8797 15.2512L20.1122 17.0168C20.034 17.0955 19.9298 17.1386 19.8192 17.1386C19.7085 17.1386 19.6044 17.0955 19.5261 17.0168C19.3641 16.8543 19.3641 16.5895 19.5257 16.4275L21.2918 14.6632C21.382 14.5729 21.382 14.4262 21.2918 14.3359L19.5266 12.5689C19.4479 12.4906 19.4049 12.3865 19.4049 12.2758C19.4049 12.1652 19.4479 12.061 19.5266 11.9828C19.6053 11.9045 19.7099 11.8615 19.8215 11.8615ZM19.8215 11.7226C19.6794 11.7226 19.5373 11.7768 19.4285 11.8846C19.2113 12.1008 19.2113 12.4508 19.4285 12.667L21.1941 14.4341C21.2302 14.4702 21.2302 14.529 21.1941 14.5651L19.428 16.3293C19.2118 16.5465 19.2118 16.8978 19.428 17.115C19.5359 17.2233 19.6775 17.2775 19.8192 17.2775C19.9608 17.2775 20.1025 17.2233 20.2104 17.115L21.9774 15.3493C21.9954 15.3312 22.019 15.322 22.0426 15.322C22.0663 15.322 22.0899 15.3312 22.1079 15.3493L23.8722 17.1154C23.9805 17.2233 24.1226 17.2775 24.2652 17.2775C24.4078 17.2775 24.5494 17.2233 24.6582 17.1154C24.8753 16.8992 24.8753 16.5492 24.6582 16.3331L22.8931 14.566C22.8569 14.5299 22.8569 14.4711 22.8931 14.435L24.6591 12.6707C24.8753 12.4536 24.8753 12.1022 24.6591 11.8851C24.5513 11.7768 24.4096 11.7226 24.268 11.7226C24.1263 11.7226 23.9846 11.7768 23.8768 11.8851L22.1093 13.6508C22.0913 13.6688 22.0676 13.6781 22.044 13.6781C22.0204 13.6781 21.9968 13.6688 21.9788 13.6508L20.2145 11.8846C20.1057 11.7768 19.9636 11.7226 19.8215 11.7226Z" fill="#424242"/>
<path d="M19.8215 11.8615C19.9331 11.8615 20.0377 11.9045 20.1159 11.9828L21.8802 13.7489C21.9237 13.7929 21.982 13.817 22.044 13.817C22.1056 13.817 22.1639 13.7929 22.2074 13.7494L23.9749 11.9837C24.0532 11.905 24.1573 11.8619 24.268 11.8619C24.3786 11.8619 24.4828 11.905 24.561 11.9837C24.723 12.1462 24.723 12.411 24.5615 12.573L22.7949 14.3368C22.7046 14.4271 22.7046 14.5739 22.7949 14.6641L24.5605 16.4317C24.6392 16.5099 24.6823 16.6141 24.6823 16.7247C24.6823 16.8353 24.6392 16.9395 24.5605 17.0177C24.4818 17.096 24.3772 17.1395 24.2656 17.1395C24.1541 17.1395 24.0495 17.0964 23.9712 17.0182L22.207 15.2516C22.1635 15.2076 22.1051 15.1836 22.0431 15.1836C21.9815 15.1836 21.9232 15.2076 21.8797 15.2512L20.1122 17.0168C20.034 17.0955 19.9298 17.1386 19.8192 17.1386C19.7085 17.1386 19.6044 17.0955 19.5261 17.0168C19.3641 16.8543 19.3641 16.5895 19.5257 16.4275L21.2918 14.6632C21.382 14.5729 21.382 14.4262 21.2918 14.3359L19.5266 12.5689C19.4479 12.4906 19.4049 12.3865 19.4049 12.2758C19.4049 12.1652 19.4479 12.061 19.5266 11.9828C19.6053 11.9045 19.7099 11.8615 19.8215 11.8615ZM19.8215 11.7226C19.6794 11.7226 19.5373 11.7768 19.4285 11.8846C19.2113 12.1008 19.2113 12.4508 19.4285 12.667L21.1941 14.4341C21.2302 14.4702 21.2302 14.529 21.1941 14.5651L19.428 16.3293C19.2118 16.5465 19.2118 16.8978 19.428 17.115C19.5359 17.2233 19.6775 17.2775 19.8192 17.2775C19.9608 17.2775 20.1025 17.2233 20.2104 17.115L21.9774 15.3493C21.9954 15.3312 22.019 15.322 22.0426 15.322C22.0663 15.322 22.0899 15.3312 22.1079 15.3493L23.8722 17.1154C23.9805 17.2233 24.1226 17.2775 24.2652 17.2775C24.4078 17.2775 24.5494 17.2233 24.6582 17.1154C24.8753 16.8992 24.8753 16.5492 24.6582 16.3331L22.8931 14.566C22.8569 14.5299 22.8569 14.4711 22.8931 14.435L24.6591 12.6707C24.8753 12.4536 24.8753 12.1022 24.6591 11.8851C24.5513 11.7768 24.4096 11.7226 24.268 11.7226C24.1263 11.7226 23.9846 11.7768 23.8768 11.8851L22.1093 13.6508C22.0913 13.6688 22.0676 13.6781 22.044 13.6781C22.0204 13.6781 21.9968 13.6688 21.9788 13.6508L20.2145 11.8846C20.1057 11.7768 19.9636 11.7226 19.8215 11.7226Z" fill="url(#paint7_linear_2428_62359)"/>
</g>
<rect x="17.3207" y="9.77771" width="9.44445" height="9.44445" rx="4.72223" stroke="#E9EAE8" stroke-width="0.555549"/>
<defs>
<filter id="filter0_d_2428_62359" x="0.113281" y="0.429382" width="29.1895" height="22.8293" filterUnits="userSpaceOnUse" color-interpolation-filters="sRGB">
<feFlood flood-opacity="0" result="BackgroundImageFix"/>
<feColorMatrix in="SourceAlpha" type="matrix" values="0 0 0 0 0 0 0 0 0 0 0 0 0 0 0 0 0 0 127 0" result="hardAlpha"/>
<feOffset dy="-1"/>
<feGaussianBlur stdDeviation="3"/>
<feComposite in2="hardAlpha" operator="out"/>
<feColorMatrix type="matrix" values="0 0 0 0 0 0 0 0 0 0 0 0 0 0 0 0 0 0 0.15 0"/>
<feBlend mode="normal" in2="BackgroundImageFix" result="effect1_dropShadow_2428_62359"/>
<feBlend mode="normal" in="SourceGraphic" in2="effect1_dropShadow_2428_62359" result="shape"/>
</filter>
<linearGradient id="paint0_linear_2428_62359" x1="15.165" y1="2.30807" x2="15.165" y2="18.2125" gradientUnits="userSpaceOnUse">
<stop stop-color="#FFC107"/>
<stop offset="0.1894" stop-color="#F1AF06"/>
<stop offset="0.5692" stop-color="#CD7F02"/>
<stop offset="0.7232" stop-color="#BD6A00"/>
</linearGradient>
<linearGradient id="paint1_linear_2428_62359" x1="8.68722" y1="8.45172" x2="23.3271" y2="12.5489" gradientUnits="userSpaceOnUse">
<stop stop-color="#F5F5F5"/>
<stop offset="1" stop-color="#E0E0E0"/>
</linearGradient>
<linearGradient id="paint2_linear_2428_62359" x1="6.23015" y1="12.3007" x2="22.5107" y2="14.604" gradientUnits="userSpaceOnUse">
<stop stop-color="#F5F5F5"/>
<stop offset="1" stop-color="#E0E0E0"/>
</linearGradient>
<linearGradient id="paint3_linear_2428_62359" x1="16.3636" y1="6.90722" x2="16.3636" y2="18.2711" gradientUnits="userSpaceOnUse">
<stop stop-color="#FFEE58"/>
<stop offset="0.2852" stop-color="#FFEA54"/>
<stop offset="0.5961" stop-color="#FDDC48"/>
<stop offset="0.9179" stop-color="#FCC733"/>
<stop offset="1" stop-color="#FBC02D"/>
</linearGradient>
<linearGradient id="paint4_linear_2428_62359" x1="22.0432" y1="9.40913" x2="22.0432" y2="19.3435" gradientUnits="userSpaceOnUse">
<stop stop-color="#FF5252"/>
<stop offset="0.4455" stop-color="#EE3030"/>
<stop offset="1" stop-color="#D50000"/>
</linearGradient>
<linearGradient id="paint5_linear_2428_62359" x1="22.0436" y1="11.6717" x2="22.0436" y2="17.1908" gradientUnits="userSpaceOnUse">
<stop stop-color="#FF5252"/>
<stop offset="0.4455" stop-color="#EE3030"/>
<stop offset="1" stop-color="#D50000"/>
</linearGradient>
<linearGradient id="paint6_linear_2428_62359" x1="22.0435" y1="11.5524" x2="22.0435" y2="17.2129" gradientUnits="userSpaceOnUse">
<stop stop-color="#F5F5F5"/>
<stop offset="1" stop-color="#E0E0E0"/>
</linearGradient>
<linearGradient id="paint7_linear_2428_62359" x1="22.0435" y1="11.5529" x2="22.0435" y2="17.2126" gradientUnits="userSpaceOnUse">
<stop stop-color="#F5F5F5"/>
<stop offset="1" stop-color="#E0E0E0"/>
</linearGradient>
</defs>
</svg>
