<svg width="49" height="48" viewBox="0 0 49 48" fill="none" xmlns="http://www.w3.org/2000/svg">
<path d="M0.5 24C0.5 10.7452 11.2452 0 24.5 0C37.7548 0 48.5 10.7452 48.5 24C48.5 37.2548 37.7548 48 24.5 48C11.2452 48 0.5 37.2548 0.5 24Z" fill="white"/>
<path d="M24.5 17.6209C26.4529 17.6209 27.7702 18.4645 28.5213 19.1694L31.4564 16.3036C29.6538 14.6281 27.308 13.5996 24.5 13.5996C20.4324 13.5996 16.9196 15.9338 15.2093 19.3312L18.572 21.9427C19.4156 19.4352 21.7498 17.6209 24.5 17.6209Z" fill="#EA4335"/>
<path d="M34.484 24.2307C34.484 23.3756 34.4147 22.7516 34.2644 22.1045H24.5V25.964H30.2316C30.116 26.9232 29.492 28.3676 28.1053 29.3383L31.3871 31.8805C33.3516 30.0663 34.484 27.3969 34.484 24.2307Z" fill="#4285F4"/>
<path d="M18.5836 26.0564C18.364 25.4093 18.2369 24.7159 18.2369 23.9995C18.2369 23.2831 18.364 22.5897 18.572 21.9426L15.2093 19.3311C14.5044 20.7408 14.1 22.3239 14.1 23.9995C14.1 25.6751 14.5044 27.2582 15.2093 28.6679L18.5836 26.0564Z" fill="#FBBC05"/>
<path d="M24.5 34.3998C27.308 34.3998 29.6653 33.4753 31.3871 31.8806L28.1053 29.3384C27.2271 29.9509 26.0484 30.3784 24.5 30.3784C21.7498 30.3784 19.4156 28.5642 18.5836 26.0566L15.2209 28.6682C16.9311 32.0655 20.4324 34.3998 24.5 34.3998Z" fill="#34A853"/>
</svg>
