<svg width="24" height="24" viewBox="0 0 24 24" fill="none" xmlns="http://www.w3.org/2000/svg">
<path fill-rule="evenodd" clip-rule="evenodd" d="M23.04 12.26C23.04 11.4445 22.9668 10.6604 22.8309 9.90771H12V14.3561H18.1891C17.9225 15.7936 17.1123 17.0116 15.8943 17.827V20.7125H19.6109C21.7855 18.7104 23.04 15.7623 23.04 12.26Z" fill="#4285F4"/>
<path fill-rule="evenodd" clip-rule="evenodd" d="M12 23.4986C15.105 23.4986 17.7081 22.4688 19.6109 20.7125L15.8943 17.827C14.8645 18.517 13.5472 18.9247 12 18.9247C9.00474 18.9247 6.46951 16.9018 5.56519 14.1836H1.72314V17.1631C3.61542 20.9215 7.50451 23.4986 12 23.4986Z" fill="#34A853"/>
<path fill-rule="evenodd" clip-rule="evenodd" d="M5.56523 14.1835C5.33523 13.4935 5.20455 12.7565 5.20455 11.9985C5.20455 11.2406 5.33523 10.5035 5.56523 9.81353V6.83398H1.72318C0.944318 8.38648 0.5 10.1428 0.5 11.9985C0.5 13.8542 0.944318 15.6106 1.72318 17.1631L5.56523 14.1835Z" fill="#FBBC05"/>
<path fill-rule="evenodd" clip-rule="evenodd" d="M12 5.0724C13.6884 5.0724 15.2043 5.65263 16.3961 6.79217L19.6945 3.49376C17.7029 1.63808 15.0997 0.498535 12 0.498535C7.50451 0.498535 3.61542 3.07558 1.72314 6.83399L5.56519 9.81353C6.46951 7.09535 9.00474 5.0724 12 5.0724Z" fill="#EA4335"/>
</svg>
