<svg width="65" height="64" viewBox="0 0 65 64" fill="none" xmlns="http://www.w3.org/2000/svg">
<path d="M48.8555 31.9999H40.3465C40.2002 31.9999 40.0829 32.1172 40.0783 32.265C39.9397 36.3306 36.5995 39.5824 32.5004 39.5824C28.4014 39.5824 25.0612 36.329 24.9225 32.2635C24.918 32.1187 25.0368 31.9999 25.1816 31.9999H32.1256C32.3328 31.9999 32.5004 31.8323 32.5004 31.625C32.5004 31.625 32.5004 24.0989 32.4989 23.0536C32.4989 22.9865 32.4456 22.9332 32.3785 22.9332C28.4029 22.8707 25.1709 19.7408 24.9484 15.8064C24.9347 15.561 24.7305 15.3721 24.4852 15.3721H16.3541C16.0875 15.3721 15.8711 15.5885 15.8711 15.8551V22.953V31.718C15.8711 41.353 23.7568 49.1077 33.3797 48.6079C42.0654 48.1553 48.9865 41.0391 49.1282 32.2757C49.1298 32.1233 49.0063 31.9999 48.8555 31.9999Z" fill="#1C8C44"/>
<path d="M32.2046 63.9984H1.54707C1.23927 63.9984 0.952789 63.8339 0.800408 63.5672C0.646503 63.3005 0.646503 62.9699 0.800408 62.7047L7.03127 51.9131C7.13793 51.7272 7.12422 51.4971 6.99622 51.328C2.33336 45.1855 0.0522175 37.5344 0.574884 29.7874C1.64765 13.8224 14.504 1.04377 30.4781 0.0624328C39.0678 -0.464805 47.3269 2.37405 53.7315 8.05939C60.1467 13.7539 63.9516 21.5908 64.4438 30.1272C64.9589 39.0445 61.9052 47.4925 55.845 53.9108C52.8659 57.0666 49.3322 59.5489 45.3429 61.2861C41.2134 63.0872 36.7943 63.9984 32.2046 63.9984ZM2.16422 62.7794H32.2046C40.9711 62.7794 49.0518 59.3325 54.9581 53.0758C60.7852 46.9028 63.7216 38.7779 63.2263 30.1988C62.7524 21.9885 59.0937 14.4487 52.9223 8.97215C46.7616 3.50472 38.8164 0.772528 30.5528 1.27996C15.1897 2.22319 2.82403 14.5142 1.78936 29.8681C1.28803 37.3226 3.48079 44.6811 7.96536 50.5889C8.39203 51.1512 8.43927 51.9085 8.08574 52.5211L2.16422 62.7794Z" fill="#1C8C44"/>
</svg>
