<svg width="21" height="14" viewBox="0 0 21 14" fill="none" xmlns="http://www.w3.org/2000/svg">
<path d="M20.3 14H0.7C0.315 14 0 13.685 0 13.3V0.7C0 0.315 0.315 0 0.7 0H20.3C20.685 0 21 0.315 21 0.7V13.3C21 13.685 20.685 14 20.3 14Z" fill="url(#paint0_linear_2274_110937)"/>
<path d="M21 1.085V0.7C21 0.315 20.685 0 20.3 0H0.7C0.315 0 0 0.315 0 0.7V1.05L10.4825 9.1175L21 1.085Z" fill="url(#paint1_linear_2274_110937)"/>
<path d="M7.01766 6.61457L0.350156 13.8946C0.192656 13.8071 0.0701563 13.6496 0.0351562 13.4571L6.65016 6.24707L7.01766 6.61457Z" fill="#FFB300"/>
<path d="M20.9648 13.5271C20.9123 13.7021 20.7898 13.8421 20.6148 13.9296L13.9648 6.59707L14.3498 6.24707L20.9648 13.5271Z" fill="#FFB300"/>
<path d="M21 0.874922V1.53992L10.4825 9.44992L0 1.50492V0.857422L10.4825 8.80242L21 0.874922Z" fill="#FFB300"/>
<path opacity="0.2" d="M20.3 0.525C20.405 0.525 20.475 0.6125 20.475 0.7V13.3C20.475 13.405 20.405 13.475 20.3 13.475H0.7C0.595 13.475 0.525 13.405 0.525 13.3V0.7C0.525 0.6125 0.595 0.525 0.7 0.525H20.3ZM20.3 0H0.7C0.315 0 0 0.315 0 0.7V13.3C0 13.685 0.315 14 0.7 14H20.3C20.685 14 21 13.685 21 13.3V0.7C21 0.315 20.685 0 20.3 0Z" fill="#444444"/>
<defs>
<linearGradient id="paint0_linear_2274_110937" x1="10.5" y1="2.24576" x2="10.5" y2="14.0578" gradientUnits="userSpaceOnUse">
<stop stop-color="#FFC107"/>
<stop offset="1" stop-color="#FFD54F"/>
</linearGradient>
<linearGradient id="paint1_linear_2274_110937" x1="10.5" y1="-2.72017" x2="10.5" y2="8.42695" gradientUnits="userSpaceOnUse">
<stop stop-color="#FFE082"/>
<stop offset="0.9931" stop-color="#FFCA28"/>
</linearGradient>
</defs>
</svg>
