<svg width="16" height="16" viewBox="0 0 16 16" fill="none" xmlns="http://www.w3.org/2000/svg">
<path fill-rule="evenodd" clip-rule="evenodd" d="M4.40576 2.34035C5.31176 1.55899 6.57359 0.998535 8 0.998535C10.6902 0.998535 12.9233 2.99797 13.1657 5.57752C14.7581 5.80264 16 7.1351 16 8.77126C16 10.568 14.5023 11.9985 12.6875 11.9985H10C9.72386 11.9985 9.5 11.7747 9.5 11.4985C9.5 11.2224 9.72386 10.9985 10 10.9985H12.6875C13.9793 10.9985 15 9.98696 15 8.77126C15 7.55557 13.9793 6.54399 12.6875 6.54399H12.1875V6.04399C12.1875 3.82414 10.3273 1.99854 8 1.99854C6.83758 1.99854 5.80253 2.45626 5.05886 3.09763C4.30231 3.75011 3.90625 4.53683 3.90625 5.15308V5.60113L3.46088 5.65009C2.06371 5.80366 1 6.95119 1 8.31672C1 9.78345 2.23059 10.9985 3.78125 10.9985H6C6.27614 10.9985 6.5 11.2224 6.5 11.4985C6.5 11.7747 6.27614 11.9985 6 11.9985H3.78125C1.70754 11.9985 0 10.3645 0 8.31672C0 6.55365 1.26586 5.09365 2.94223 4.72353C3.08479 3.86024 3.63985 3.0009 4.40576 2.34035Z" fill="black"/>
<path fill-rule="evenodd" clip-rule="evenodd" d="M7.64645 5.14498C7.84171 4.94972 8.15829 4.94972 8.35355 5.14498L11.3536 8.14498C11.5488 8.34024 11.5488 8.65683 11.3536 8.85209C11.1583 9.04735 10.8417 9.04735 10.6464 8.85209L8.5 6.70564V15.4985C8.5 15.7747 8.27614 15.9985 8 15.9985C7.72386 15.9985 7.5 15.7747 7.5 15.4985V6.70564L5.35355 8.85209C5.15829 9.04735 4.84171 9.04735 4.64645 8.85209C4.45118 8.65683 4.45118 8.34024 4.64645 8.14498L7.64645 5.14498Z" fill="black"/>
</svg>
