<svg width="32" height="32" viewBox="0 0 32 32" fill="none" xmlns="http://www.w3.org/2000/svg">
<path d="M14.0902 1.17868L0.226873 28.9107C-0.479761 30.3293 0.549524 31.9986 2.13612 31.9986H29.8628C31.4494 31.9986 32.4814 30.3293 31.7721 28.9107L17.9087 1.17868C17.1221 -0.391916 14.8769 -0.391916 14.0902 1.17868Z" fill="url(#paint0_linear_534_23703)"/>
<g opacity="0.2">
<path d="M15.9995 0.799962C16.5141 0.799962 16.9621 1.07462 17.1914 1.53593L31.0548 29.268C31.2654 29.6893 31.2441 30.1639 30.9961 30.5639C30.7481 30.9665 30.3348 31.1959 29.8628 31.1959H2.13612C1.66414 31.1959 1.25082 30.9665 1.00284 30.5639C0.754848 30.1612 0.733515 29.6893 0.944172 29.268L14.8075 1.53593C15.0368 1.07462 15.4848 0.799962 15.9995 0.799962ZM15.9995 0C15.2422 0 14.4849 0.391982 14.0902 1.17861L0.226873 28.9106C-0.479761 30.3292 0.549524 31.9985 2.13612 31.9985H29.8628C31.4494 31.9985 32.4814 30.3292 31.7721 28.9106L17.9087 1.17861C17.5141 0.391982 16.7568 0 15.9995 0Z" fill="#424242"/>
</g>
<g opacity="0.2">
<path d="M15.9996 7.99967C17.2342 7.99967 18.2102 8.97562 18.1275 10.1276L17.2156 22.935C17.1729 23.5323 16.6423 23.9989 15.9996 23.9989C15.357 23.9989 14.8263 23.5323 14.7837 22.935L13.8717 10.1276C13.7891 8.97562 14.765 7.99967 15.9996 7.99967ZM15.9996 7.19971C15.1623 7.19971 14.3624 7.54102 13.8051 8.13833C13.2797 8.70364 13.0184 9.42894 13.0718 10.1836L13.9837 22.991C14.0584 24.0043 14.9437 24.7989 15.9996 24.7989C17.0556 24.7989 17.9409 24.0043 18.0129 22.991L18.9248 10.1836C18.9781 9.42894 18.7195 8.70364 18.1915 8.13833C17.6369 7.54102 16.8369 7.19971 15.9996 7.19971Z" fill="#424242"/>
<path d="M15.9995 25.0656C16.8821 25.0656 17.5994 25.7829 17.5994 26.6655C17.5994 27.5481 16.8821 28.2654 15.9995 28.2654C15.1169 28.2654 14.3996 27.5481 14.3996 26.6655C14.3996 25.7829 15.1169 25.0656 15.9995 25.0656ZM15.9995 24.2656C14.6769 24.2656 13.5996 25.3429 13.5996 26.6655C13.5996 27.9881 14.6769 29.0654 15.9995 29.0654C17.3221 29.0654 18.3994 27.9881 18.3994 26.6655C18.3994 25.3429 17.3221 24.2656 15.9995 24.2656Z" fill="#424242"/>
</g>
<path d="M15.9995 7.99951C17.2341 7.99951 18.2101 8.97547 18.1274 10.1274L17.2154 22.9348C17.1728 23.5321 16.6421 23.9988 15.9995 23.9988C15.3569 23.9988 14.8262 23.5321 14.7835 22.9348L13.8716 10.1274C13.7889 8.97547 14.7649 7.99951 15.9995 7.99951Z" fill="url(#paint1_linear_534_23703)"/>
<path d="M15.9993 28.2653C16.883 28.2653 17.5993 27.549 17.5993 26.6654C17.5993 25.7817 16.883 25.0654 15.9993 25.0654C15.1157 25.0654 14.3994 25.7817 14.3994 26.6654C14.3994 27.549 15.1157 28.2653 15.9993 28.2653Z" fill="url(#paint2_linear_534_23703)"/>
<defs>
<linearGradient id="paint0_linear_534_23703" x1="15.9995" y1="8.79965" x2="15.9995" y2="33.8225" gradientUnits="userSpaceOnUse">
<stop stop-color="#FFEB3B"/>
<stop offset="0.419" stop-color="#FFDC28"/>
<stop offset="0.9954" stop-color="#FFC107"/>
</linearGradient>
<linearGradient id="paint1_linear_534_23703" x1="15.9995" y1="7.53287" x2="15.9995" y2="28.5159" gradientUnits="userSpaceOnUse">
<stop stop-color="#424242"/>
<stop offset="1" stop-color="#212121"/>
</linearGradient>
<linearGradient id="paint2_linear_534_23703" x1="15.9993" y1="7.53292" x2="15.9993" y2="28.5159" gradientUnits="userSpaceOnUse">
<stop stop-color="#424242"/>
<stop offset="1" stop-color="#212121"/>
</linearGradient>
</defs>
</svg>
