<svg width="48" height="48" viewBox="0 0 48 48" fill="none" xmlns="http://www.w3.org/2000/svg">
<rect width="48" height="48" rx="8" fill="#E7F6E9"/>
<path d="M31.9601 39.9203C32.0133 35.5543 35.5807 32.0401 39.9468 32.0401H40V8.08008C39.9734 8.08008 39.9734 8.08008 39.9468 8.08008C22.3228 8.08008 8.05324 22.323 8 39.9203H31.9601Z" fill="#F44336"/>
<path d="M31.9601 39.9207C32.0133 35.5546 35.5807 32.0405 39.9467 32.0405H40V12.0737C39.8935 12.0737 39.787 12.0737 39.6805 12.0737C24.2662 12.0737 11.7804 24.533 11.7271 39.9207H31.9601Z" fill="#FF9800"/>
<path d="M31.9601 39.9205C32.0133 35.5544 35.5807 32.0403 39.9468 32.0403H40V16.0669C39.9734 16.0669 39.9734 16.0669 39.9468 16.0669C26.7421 16.0669 16.0399 26.7424 15.9867 39.9205H31.9601Z" fill="#FFEB3B"/>
<path d="M31.9601 39.9203C32.0133 35.5542 35.5807 32.0401 39.9468 32.0401H40V20.0601C39.9734 20.0601 39.9734 20.0601 39.9468 20.0601C28.9518 20.0601 20.0333 28.9519 19.98 39.9203H31.9601Z" fill="#8BC34A"/>
<path d="M31.9601 39.9201C32.0133 35.5541 35.5807 32.0399 39.9468 32.0399H40V24.0532C39.9734 24.0532 39.9734 24.0532 39.9468 24.0532C31.1614 24.0532 24.0266 31.1348 23.9734 39.9201H31.9601Z" fill="#2196F3"/>
<path d="M31.9601 39.9204C32.0133 35.5544 35.5807 32.0402 39.9468 32.0402H40V28.0469C39.9734 28.0469 39.9734 28.0469 39.9468 28.0469C33.3711 28.0469 28.02 33.3447 27.9667 39.9204H31.9601Z" fill="#673AB7"/>
<path opacity="0.2" d="M9.06489 39.9203C9.09151 31.7207 12.3128 24.0002 18.1165 18.1966C23.9468 12.3663 31.6938 9.14497 39.9468 9.14497H40V8.08008C39.9734 8.08008 39.9734 8.08008 39.9468 8.08008C22.3228 8.08008 8.05324 22.323 8 39.9203H9.06489Z" fill="#424242"/>
<path opacity="0.2" d="M32.2263 39.9201C32.2795 35.7138 35.7138 32.3061 39.9201 32.3061H39.9734V31.2412C39.9467 31.2412 39.9467 31.2412 39.9201 31.2412C35.1015 31.2412 31.2146 35.1014 31.1348 39.9201H32.2263Z" fill="#424242"/>
</svg>
