<svg width="106" height="100" viewBox="0 0 106 100" fill="none" xmlns="http://www.w3.org/2000/svg">
<path d="M45.1033 99.4919C69.737 99.4919 89.7066 95.7605 89.7066 91.1577C89.7066 86.5548 69.737 82.8235 45.1033 82.8235C20.4696 82.8235 0.5 86.5548 0.5 91.1577C0.5 95.7605 20.4696 99.4919 45.1033 99.4919Z" fill="#F5F5F7" fill-opacity="0.8"/>
<path fill-rule="evenodd" clip-rule="evenodd" d="M80.7854 66.6734L65.0452 47.3017C64.29 46.3899 63.186 45.8379 62.0235 45.8379H28.1814C27.0196 45.8379 25.9156 46.3899 25.1604 47.3017L9.4209 66.6734V76.7938H80.786V66.6734H80.7854Z" fill="#AEB8C2"/>
<path fill-rule="evenodd" clip-rule="evenodd" d="M22.7566 20.8354H67.4493C68.1473 20.8354 68.8166 21.1127 69.3102 21.6062C69.8037 22.0997 70.0809 22.7691 70.0809 23.467V84.8775C70.0809 85.5755 69.8037 86.2448 69.3102 86.7383C68.8166 87.2319 68.1473 87.5091 67.4493 87.5091H22.7566C22.0586 87.5091 21.3893 87.2319 20.8958 86.7383C20.4023 86.2448 20.125 85.5755 20.125 84.8775V23.467C20.125 22.7691 20.4023 22.0997 20.8958 21.6062C21.3893 21.1127 22.0586 20.8354 22.7566 20.8354V20.8354Z" fill="#F5F5F7"/>
<path fill-rule="evenodd" clip-rule="evenodd" d="M28.5776 27.3833H61.6283C61.9773 27.3833 62.312 27.5219 62.5587 27.7687C62.8055 28.0154 62.9441 28.3501 62.9441 28.6991V45.1182C62.9441 45.4671 62.8055 45.8018 62.5587 46.0486C62.312 46.2953 61.9773 46.434 61.6283 46.434H28.5776C28.2287 46.434 27.894 46.2953 27.6472 46.0486C27.4005 45.8018 27.2619 45.4671 27.2619 45.1182V28.6991C27.2619 28.3501 27.4005 28.0154 27.6472 27.7687C27.894 27.5219 28.2287 27.3833 28.5776 27.3833V27.3833ZM28.75 53.5767H61.4559C61.8506 53.5767 62.2291 53.7335 62.5082 54.0126C62.7873 54.2917 62.9441 54.6702 62.9441 55.0649C62.9441 55.4596 62.7873 55.8381 62.5082 56.1172C62.2291 56.3963 61.8506 56.553 61.4559 56.553H28.75C28.3553 56.553 27.9768 56.3963 27.6977 56.1172C27.4186 55.8381 27.2619 55.4596 27.2619 55.0649C27.2619 54.6702 27.4186 54.2917 27.6977 54.0126C27.9768 53.7335 28.3553 53.5767 28.75 53.5767V53.5767ZM28.75 61.3155H61.4559C61.8507 61.3155 62.2293 61.4724 62.5085 61.7515C62.7876 62.0307 62.9444 62.4093 62.9444 62.804C62.9444 63.1988 62.7876 63.5774 62.5085 63.8565C62.2293 64.1357 61.8507 64.2925 61.4559 64.2925H28.75C28.3552 64.2925 27.9766 64.1357 27.6975 63.8565C27.4184 63.5774 27.2615 63.1988 27.2615 62.804C27.2615 62.4093 27.4184 62.0307 27.6975 61.7515C27.9766 61.4724 28.3552 61.3155 28.75 61.3155V61.3155ZM80.6402 89.9353C80.1303 91.9557 78.3395 93.4616 76.2092 93.4616H13.9967C11.8665 93.4616 10.0757 91.955 9.56646 89.9353C9.46934 89.5503 9.42029 89.1547 9.42041 88.7576V66.6741H26.7349C28.6474 66.6741 30.1888 68.2846 30.1888 70.2399V70.2662C30.1888 72.2208 31.748 73.7991 33.6605 73.7991H56.5454C58.4579 73.7991 60.0171 72.2063 60.0171 70.2511V70.2432C60.0171 68.2879 61.5586 66.6734 63.4711 66.6734H80.7855V88.7583C80.7855 89.1642 80.7349 89.5583 80.6402 89.9353V89.9353Z" fill="#DCE0E6"/>
<path fill-rule="evenodd" clip-rule="evenodd" d="M82.8166 21.9026L78.3232 23.6461C78.2078 23.6909 78.082 23.7023 77.9604 23.6789C77.8388 23.6555 77.7263 23.5982 77.6357 23.5137C77.5452 23.4292 77.4804 23.3208 77.4487 23.2011C77.4171 23.0813 77.4199 22.9551 77.4568 22.8368L78.7311 18.7533C77.0278 16.8164 76.0278 14.4546 76.0278 11.9059C76.0278 5.33026 82.6844 0 90.8962 0C99.1061 0 105.763 5.33026 105.763 11.9059C105.763 18.4816 99.1068 23.8118 90.8956 23.8118C87.9166 23.8118 85.143 23.1105 82.8166 21.9026Z" fill="#DCE0E6"/>
<path d="M96.7528 14.056C97.7879 14.056 98.6271 13.2268 98.6271 12.204C98.6271 11.1812 97.7879 10.3521 96.7528 10.3521C95.7176 10.3521 94.8784 11.1812 94.8784 12.204C94.8784 13.2268 95.7176 14.056 96.7528 14.056Z" fill="white"/>
<path fill-rule="evenodd" clip-rule="evenodd" d="M86.9132 13.8243H83.1646L85.0711 10.5835L86.9132 13.8243ZM89.256 10.5835H92.5356V13.8243H89.256V10.5835Z" fill="white"/>
</svg>
