<svg width="105" height="92" viewBox="0 0 105 92" fill="none" xmlns="http://www.w3.org/2000/svg">
<path d="M49.9984 91.6144C74.7015 91.6144 94.7274 71.5886 94.7274 46.8855C94.7274 22.1824 74.7015 2.15662 49.9984 2.15662C25.2953 2.15662 5.26953 22.1824 5.26953 46.8855C5.26953 71.5886 25.2953 91.6144 49.9984 91.6144Z" fill="#F5F5F7"/>
<path d="M24.353 28.3011H75.6422C77.0492 28.3011 78.1241 29.35 78.1241 30.5657V88.621C78.1241 89.8367 77.0492 90.8855 75.6422 90.8855H24.353C22.946 90.8855 21.8711 89.8367 21.8711 88.621V30.5657C21.8711 29.35 22.946 28.3011 24.353 28.3011Z" fill="white" stroke="#AEB8C2"/>
<path d="M44.0335 36.7468H28.5274C27.5393 36.7468 26.7383 37.5479 26.7383 38.536C26.7383 39.5241 27.5393 40.3251 28.5274 40.3251H44.0335C45.0216 40.3251 45.8226 39.5241 45.8226 38.536C45.8226 37.5479 45.0216 36.7468 44.0335 36.7468Z" fill="#EBEBEB"/>
<path d="M54.7684 44.4999H28.5274C27.5393 44.4999 26.7383 45.3009 26.7383 46.289C26.7383 47.2772 27.5393 48.0782 28.5274 48.0782H54.7684C55.7565 48.0782 56.5576 47.2772 56.5576 46.289C56.5576 45.3009 55.7565 44.4999 54.7684 44.4999Z" fill="#DCE0E6"/>
<path d="M44.0335 52.8495H28.5274C27.5393 52.8495 26.7383 53.6505 26.7383 54.6386C26.7383 55.6268 27.5393 56.4278 28.5274 56.4278H44.0335C45.0216 56.4278 45.8226 55.6268 45.8226 54.6386C45.8226 53.6505 45.0216 52.8495 44.0335 52.8495Z" fill="#EBEBEB"/>
<path d="M54.7684 60.6025H28.5274C27.5393 60.6025 26.7383 61.4036 26.7383 62.3917C26.7383 63.3798 27.5393 64.1809 28.5274 64.1809H54.7684C55.7565 64.1809 56.5576 63.3798 56.5576 62.3917C56.5576 61.4036 55.7565 60.6025 54.7684 60.6025Z" fill="#DCE0E6"/>
<path d="M44.0335 68.9519H28.5274C27.5393 68.9519 26.7383 69.7529 26.7383 70.7411C26.7383 71.7292 27.5393 72.5302 28.5274 72.5302H44.0335C45.0216 72.5302 45.8226 71.7292 45.8226 70.7411C45.8226 69.7529 45.0216 68.9519 44.0335 68.9519Z" fill="#EBEBEB"/>
<path d="M54.7684 76.705H28.5274C27.5393 76.705 26.7383 77.506 26.7383 78.4941C26.7383 79.4822 27.5393 80.2833 28.5274 80.2833H54.7684C55.7565 80.2833 56.5576 79.4822 56.5576 78.4941C56.5576 77.506 55.7565 76.705 54.7684 76.705Z" fill="#DCE0E6"/>
<path d="M75.6441 0.385498H24.355C22.7081 0.385498 21.373 1.72055 21.373 3.36743V21.259C21.373 22.9059 22.7081 24.2409 24.355 24.2409H75.6441C77.291 24.2409 78.6261 22.9059 78.6261 21.259V3.36743C78.6261 1.72055 77.291 0.385498 75.6441 0.385498Z" fill="#AEB8C2" fill-opacity="0.7"/>
<path d="M44.0354 6.9458H28.5294C27.5413 6.9458 26.7402 7.74683 26.7402 8.73496C26.7402 9.72308 27.5413 10.5241 28.5294 10.5241H44.0354C45.0235 10.5241 45.8246 9.72308 45.8246 8.73496C45.8246 7.74683 45.0235 6.9458 44.0354 6.9458Z" fill="#F5F5F7"/>
<path d="M54.7704 14.6989H28.5294C27.5413 14.6989 26.7402 15.4999 26.7402 16.488C26.7402 17.4761 27.5413 18.2772 28.5294 18.2772H54.7704C55.7585 18.2772 56.5595 17.4761 56.5595 16.488C56.5595 15.4999 55.7585 14.6989 54.7704 14.6989Z" fill="white"/>
<rect x="82.0391" y="38.4409" width="13.1782" height="1.31782" rx="0.65891" fill="#DCE0E6"/>
<rect x="0.556641" y="49.3424" width="13.1782" height="1.31782" rx="0.65891" fill="#DCE0E6"/>
<rect x="97.8535" y="38.4409" width="6.5891" height="1.31782" rx="0.65891" fill="#DCE0E6"/>
<rect x="85.334" y="43.276" width="6.5891" height="1.31782" rx="0.65891" fill="#DCE0E6"/>
<rect x="3.85156" y="54.1775" width="6.5891" height="1.31782" rx="0.65891" fill="#DCE0E6"/>
</svg>
