<svg width="104" height="87" viewBox="0 0 104 87" fill="none" xmlns="http://www.w3.org/2000/svg">
<circle cx="47.5566" cy="43.5" r="43.5" fill="#F5F5F7"/>
<rect x="81.5391" y="41.0554" width="13.1782" height="1.31782" rx="0.65891" fill="#DCE0E6"/>
<rect x="0.0566406" y="51.9569" width="13.1782" height="1.31782" rx="0.65891" fill="#DCE0E6"/>
<rect x="97.3535" y="41.0554" width="6.5891" height="1.31782" rx="0.65891" fill="#DCE0E6"/>
<rect x="84.834" y="45.8905" width="6.5891" height="1.31782" rx="0.65891" fill="#DCE0E6"/>
<rect x="3.35156" y="56.7921" width="6.5891" height="1.31782" rx="0.65891" fill="#DCE0E6"/>
<path d="M70.9264 22H25.5066C21.9265 22 19 24.9265 19 28.5066V54.743C19 58.1963 21.8241 61.0204 25.2774 61.0204C26.2432 61.0204 26.9943 61.8739 26.8626 62.8299C26.3456 66.6052 24.3312 68.4538 24.1312 69.1512C23.8239 70.2341 28.9161 71.0096 33.3839 66.7125C35.2569 64.9127 36.1543 63.1226 36.5592 62.0447C36.7933 61.4252 37.3884 61.0204 38.0517 61.0204H71.0824C74.6431 61.0204 77.5257 58.1329 77.5257 54.5771V28.6042C77.5306 24.9704 74.5601 22 70.9264 22Z" fill="#FFFEFF"/>
<path d="M70.9264 23.4633C73.7602 23.4633 76.0673 25.7703 76.0673 28.6042V54.5771C76.0673 57.3232 73.8334 59.5571 71.0873 59.5571H38.0566C36.7933 59.5571 35.6422 60.3521 35.1983 61.5325C34.813 62.547 34.0131 64.0883 32.3742 65.6638C29.7257 68.2099 27.1357 68.5172 26.2432 68.5415C26.9797 67.4051 27.9649 65.6101 28.3161 63.0348C28.4381 62.1617 28.1698 61.2789 27.5894 60.6155C27.0089 59.9473 26.1651 59.562 25.2774 59.562C22.6191 59.562 20.4633 57.4012 20.4633 54.7478V28.5066C20.4633 25.7264 22.7264 23.4633 25.5066 23.4633H70.9264ZM70.9264 22H25.5066C21.9265 22 19 24.9265 19 28.5066V54.743C19 58.1963 21.8241 61.0204 25.2774 61.0204C26.2432 61.0204 26.9943 61.8739 26.8626 62.8299C26.3456 66.6052 24.3312 68.4537 24.1312 69.1512C24.0044 69.6 24.814 69.9999 26.1212 69.9999C27.9552 69.9999 30.7744 69.2195 33.3839 66.7125C35.2569 64.9126 36.1543 63.1226 36.5592 62.0447C36.7933 61.4252 37.3884 61.0204 38.0517 61.0204H71.0824C74.6431 61.0204 77.5257 58.1329 77.5257 54.5771V28.6042C77.5306 24.9704 74.5601 22 70.9264 22Z" fill="#AEB8C2"/>
<circle cx="34" cy="41" r="3.65" fill="#DCE0E6" stroke="#AEB8C2" stroke-width="0.7"/>
<circle cx="48" cy="41" r="3.65" fill="#DCE0E6" stroke="#AEB8C2" stroke-width="0.7"/>
<circle cx="62" cy="41" r="3.65" fill="#DCE0E6" stroke="#AEB8C2" stroke-width="0.7"/>
</svg>
