<svg width="104" height="94" viewBox="0 0 104 94" fill="none" xmlns="http://www.w3.org/2000/svg">
<circle cx="47.5576" cy="43.5" r="43.5" fill="#F5F5F7"/>
<circle cx="46.9637" cy="44.3738" r="27.2801" fill="#DCE0E6" stroke="#AEB8C2" stroke-width="2"/>
<circle cx="46.9637" cy="44.3739" r="19.2001" fill="#FFFEFF" stroke="#AEB8C2" stroke-width="2"/>
<path d="M46.9641 29.5234C46.9641 29.2268 46.7235 28.9854 46.427 28.9957C42.7156 29.1252 39.1691 30.5936 36.4489 33.1395C33.7288 35.6854 32.0292 39.1272 31.6547 42.8219C31.6247 43.117 31.8498 43.3731 32.1457 43.3927C32.4417 43.4123 32.6965 43.188 32.7272 42.893C33.0832 39.4703 34.6619 36.2834 37.183 33.9238C39.7041 31.5642 42.9884 30.1996 46.4271 30.0706C46.7235 30.0595 46.9641 29.8201 46.9641 29.5234Z" fill="#DCE0E6"/>
<rect x="68.0125" y="74.3633" width="9.90692" height="28.3564" rx="4.95346" transform="rotate(-45 68.0125 74.3633)" fill="#DCE0E6" stroke="#AEB8C2" stroke-width="2"/>
<rect x="78.2314" y="76.584" width="1.28379" height="10.7642" rx="0.641896" transform="rotate(-45 78.2314 76.584)" fill="white"/>
<rect x="67.5576" y="67.8359" width="1.31782" height="5.27128" transform="rotate(-45 67.5576 67.8359)" fill="#DCE0E6"/>
<rect x="81.54" y="41.0557" width="13.1782" height="1.31782" rx="0.65891" fill="#DCE0E6"/>
<rect x="0.0576172" y="51.957" width="13.1782" height="1.31782" rx="0.65891" fill="#DCE0E6"/>
<rect x="97.3545" y="41.0557" width="6.5891" height="1.31782" rx="0.65891" fill="#DCE0E6"/>
<rect x="84.835" y="45.8906" width="6.5891" height="1.31782" rx="0.65891" fill="#DCE0E6"/>
<rect x="3.35254" y="56.792" width="6.5891" height="1.31782" rx="0.65891" fill="#DCE0E6"/>
</svg>
