<svg width="131" height="131" viewBox="0 0 131 131" fill="none" xmlns="http://www.w3.org/2000/svg">
<circle cx="65.5" cy="65.9985" r="64.5" fill="#E9EAE8" stroke="#E9EAE8"/>
<path fill-rule="evenodd" clip-rule="evenodd" d="M54.7173 52.024C57.4353 49.6799 61.2208 47.9985 65.5 47.9985C73.5707 47.9985 80.2699 53.9969 80.9971 61.7355C85.7743 62.4109 89.5 66.4082 89.5 71.3167C89.5 76.707 85.007 80.9985 79.5625 80.9985H71.5C70.6716 80.9985 70 80.327 70 79.4985C70 78.6701 70.6716 77.9985 71.5 77.9985H79.5625C83.4378 77.9985 86.5 74.9638 86.5 71.3167C86.5 67.6696 83.4378 64.6349 79.5625 64.6349H78.0625V63.1349C78.0625 56.4753 72.4819 50.9985 65.5 50.9985C62.0127 50.9985 58.9076 52.3717 56.6766 54.2958C54.4069 56.2532 53.2188 58.6134 53.2188 60.4622V61.8063L51.8826 61.9532C47.6911 62.4139 44.5 65.8565 44.5 69.9531C44.5 74.3533 48.1918 77.9985 52.8438 77.9985H59.5C60.3284 77.9985 61 78.6701 61 79.4985C61 80.327 60.3284 80.9985 59.5 80.9985H52.8438C46.6226 80.9985 41.5 76.0965 41.5 69.9531C41.5 64.6639 45.2976 60.2839 50.3267 59.1735C50.7544 56.5836 52.4196 54.0056 54.7173 52.024Z" fill="#878B87"/>
<path fill-rule="evenodd" clip-rule="evenodd" d="M64.4393 60.4379C65.0251 59.8521 65.9749 59.8521 66.5607 60.4379L75.5607 69.4379C76.1465 70.0237 76.1465 70.9734 75.5607 71.5592C74.9749 72.145 74.0251 72.145 73.4393 71.5592L67 65.1199V91.4985C67 92.327 66.3284 92.9985 65.5 92.9985C64.6716 92.9985 64 92.327 64 91.4985V65.1199L57.5607 71.5592C56.9749 72.145 56.0251 72.145 55.4393 71.5592C54.8536 70.9734 54.8536 70.0237 55.4393 69.4379L64.4393 60.4379Z" fill="#878B87"/>
</svg>
