<svg width="431" height="385" viewBox="0 0 431 385" fill="none" xmlns="http://www.w3.org/2000/svg">
<g clip-path="url(#clip0_109_5019)">
<path fill-rule="evenodd" clip-rule="evenodd" d="M364.586 370.345C363.003 371.446 361.383 372.5 359.716 373.506C358.059 374.513 356.393 375.443 354.708 376.297C310.141 398.977 257.233 370.525 215.128 367.307C171.422 363.975 131.901 390.67 88.6673 373.506C45.4335 356.342 29.0935 311.401 32.417 275.298C32.4726 274.691 32.5374 274.093 32.6022 273.494C32.6392 273.105 32.6855 272.716 32.7318 272.336C32.7781 271.976 32.8244 271.624 32.8707 271.273C32.8892 271.112 32.9077 270.96 32.9355 270.808C32.991 270.352 33.0558 269.906 33.1299 269.46C33.1669 269.232 33.1947 269.014 33.2317 268.786C33.3243 268.216 33.4261 267.647 33.528 267.086C33.6298 266.526 33.7316 265.976 33.8427 265.425C33.9909 264.685 34.1482 263.954 34.3056 263.232C34.4538 262.606 34.6019 261.979 34.7593 261.362C34.9074 260.745 35.074 260.137 35.2407 259.539C35.3703 259.065 35.4999 258.59 35.6387 258.125C35.7313 257.793 35.8332 257.47 35.935 257.156C36.0831 256.653 36.2405 256.16 36.4071 255.676C36.7775 254.555 37.1663 253.454 37.5736 252.381C37.7588 251.897 37.9439 251.413 38.1383 250.938C38.2587 250.625 38.3883 250.312 38.5179 249.999H411.402C411.643 250.53 411.875 251.062 412.097 251.603C412.245 251.954 412.393 252.305 412.532 252.666C412.661 252.989 412.782 253.321 412.911 253.644C412.995 253.862 413.069 254.09 413.152 254.308C413.282 254.669 413.402 255.03 413.522 255.381C413.671 255.827 413.819 256.274 413.958 256.729C413.967 256.777 413.985 256.824 413.995 256.872C414.106 257.242 414.217 257.622 414.319 258.001C414.467 258.533 414.606 259.084 414.735 259.625C414.846 260.08 414.948 260.536 415.041 260.992C419.966 284.886 406.338 341.514 364.586 370.345Z" fill="#F4F4F4"/>
<path d="M60.929 104.074C60.929 104.074 60.1008 108.452 55.7609 107.327C51.4211 106.202 49.5419 103.875 46.198 105.21C42.8541 106.545 40.4716 112.619 35.1162 108.896C29.7608 105.173 33.4529 94.8962 43.6669 92.0316C53.8809 89.1671 61.6961 95.2099 60.929 104.074Z" fill="#1C8C44"/>
<path d="M65.9198 89.4513C65.9198 89.4513 72.5548 82.0023 66.4649 74.1643C60.3759 66.3189 55.0229 66.6673 48.686 59.1061C42.3491 51.545 34.9171 56.5676 33.4573 61.2851C31.9221 66.234 33.9716 71.1161 41.8811 74.9396C49.7906 78.7631 51.7796 84.3385 54.9589 87.7774C58.1464 91.2099 63.305 90.3913 65.9198 89.4513Z" fill="#1C8C44"/>
<path d="M77.5846 88.7293C74.2175 87.3618 67.5458 77.8117 69.4399 68.6196C71.3339 59.4276 78.4116 50.3777 78.6466 44.4899C78.89 38.5955 90.1712 20.4821 101.693 27.4241C113.215 34.3662 110.8 45.3599 105.334 53.0749C99.8693 60.7898 95.6944 64.1045 94.657 73.597C93.6343 83.0914 87.5641 92.7856 77.5846 88.7293Z" fill="#1C8C44"/>
<path d="M69.0229 114.436C68.9228 114.453 68.8082 114.408 68.7522 114.318C63.4848 105.487 57.7196 100.579 51.6272 99.7296C45.0832 98.8215 40.4853 103.069 40.4425 103.108C40.3392 103.208 40.1744 103.201 40.075 103.098C39.9756 102.994 39.9821 102.829 40.0854 102.73C40.1366 102.684 44.9151 98.2642 51.7024 99.2117C57.9577 100.082 63.8474 105.074 69.201 114.052C69.2753 114.175 69.2318 114.335 69.1091 114.41C69.0776 114.421 69.046 114.432 69.0229 114.436Z" fill="#E7F6E9"/>
<path d="M72.8455 113.699C72.8381 113.698 72.8223 113.704 72.8149 113.703C72.6704 113.714 72.5497 113.6 72.5376 113.463C70.6733 82.6838 44.2392 65.3031 43.9764 65.1255C43.8583 65.0497 43.8194 64.8863 43.9025 64.769C43.9782 64.6507 44.1414 64.6117 44.2585 64.6949C44.5297 64.866 71.1787 82.388 73.0535 113.432C73.0666 113.562 72.9697 113.67 72.8455 113.699Z" fill="#E7F6E9"/>
<path d="M78.6961 113.175C78.5644 113.203 78.4251 113.117 78.3972 112.985C78.3159 112.628 70.1464 76.983 94.1088 42.6582C94.1919 42.5409 94.3541 42.5093 94.4712 42.5924C94.5883 42.6756 94.6198 42.838 94.5367 42.9554C70.7041 77.0936 78.8203 112.513 78.9099 112.864C78.9443 113.004 78.8583 113.143 78.7183 113.178C78.7044 113.168 78.7044 113.168 78.6961 113.175Z" fill="#E7F6E9"/>
<path d="M77.8369 94.0972C77.8456 94.0885 77.8544 94.0798 77.8544 94.0711C79.0146 92.5118 78.9361 90.3603 77.645 88.9056L71.9222 82.4684C70.4043 80.7611 70.5613 78.1566 72.2712 76.6409L77.6101 71.9023C79.3199 70.3866 81.9283 70.5434 83.4462 72.2507L89.1428 78.6531C90.4339 80.1078 92.5799 80.4649 94.2723 79.498C94.2898 79.4893 94.316 79.4719 94.3334 79.4632C96.0345 78.505 96.8284 76.4841 96.2352 74.62L93.6442 66.4581C92.9551 64.2804 94.1589 61.9633 96.3399 61.2752L103.153 59.1149C105.334 58.4268 107.654 59.6289 108.344 61.8065L110.943 69.9859C111.537 71.8413 113.351 73.0347 115.288 72.843C115.314 72.843 115.331 72.8343 115.358 72.8343C117.303 72.6427 118.847 71.127 119.065 69.1845L120.025 60.6654C120.278 58.4007 122.328 56.7718 124.596 57.0244L131.697 57.817C133.965 58.0696 135.596 60.1167 135.343 62.3815L134.384 70.8918C134.166 72.8256 135.335 74.6549 137.193 75.2646C137.219 75.2733 137.237 75.282 137.263 75.2907C139.112 75.9092 141.145 75.1427 142.131 73.4615L146.466 66.0748C147.618 64.1062 150.156 63.4529 152.128 64.6027L158.287 68.2089C160.258 69.3587 160.913 71.8936 159.761 73.8622L155.417 81.2576C154.431 82.9388 154.754 85.0816 156.202 86.3969C156.219 86.4143 156.237 86.4318 156.254 86.4405C157.694 87.7558 159.857 87.8777 161.445 86.7453L168.424 81.7541C170.282 80.4301 172.864 80.8569 174.19 82.7036L178.351 88.5049C179.677 90.3603 179.25 92.9387 177.4 94.2627L170.421 99.2539C168.834 100.386 168.258 102.477 169.043 104.263C169.052 104.289 169.061 104.306 169.069 104.332C169.846 106.118 171.774 107.12 173.693 106.728L182.103 105.003C184.336 104.541 186.525 105.987 186.988 108.217L188.427 115.203C188.89 117.433 187.441 119.62 185.208 120.081L176.798 121.806C174.888 122.198 173.51 123.87 173.501 125.822C173.501 125.848 173.501 125.865 173.501 125.891C173.483 127.843 174.844 129.532 176.746 129.951L185.13 131.789C187.363 132.276 188.767 134.48 188.279 136.71L186.744 143.679C186.255 145.909 184.048 147.311 181.815 146.823L173.44 144.985C171.538 144.567 169.593 145.534 168.79 147.311C168.781 147.337 168.773 147.355 168.764 147.381C167.953 149.158 168.502 151.257 170.073 152.415L176.982 157.503C178.822 158.853 179.215 161.44 177.854 163.278L173.614 169.018C172.262 170.856 169.671 171.248 167.831 169.889L160.921 164.802C159.351 163.644 157.179 163.748 155.722 165.046C155.705 165.063 155.687 165.081 155.67 165.098C154.213 166.396 153.855 168.53 154.824 170.22L159.063 177.668C160.189 179.654 159.499 182.171 157.51 183.295L151.299 186.823C149.31 187.947 146.789 187.258 145.664 185.272L141.424 177.816C140.456 176.117 138.44 175.333 136.582 175.917C136.556 175.926 136.539 175.934 136.512 175.934C134.646 176.518 133.45 178.33 133.642 180.272L134.48 188.8C134.707 191.074 133.04 193.095 130.764 193.312L123.654 194.009C121.377 194.236 119.353 192.572 119.135 190.298L118.297 181.771C118.105 179.828 116.579 178.286 114.642 178.069C114.616 178.069 114.59 178.06 114.572 178.06C112.636 177.842 110.804 179.009 110.193 180.856L107.489 188.983C106.765 191.143 104.427 192.319 102.263 191.596L95.4849 189.34C93.3215 188.617 92.1438 186.283 92.8678 184.123L95.5809 175.987C96.2003 174.14 95.4326 172.11 93.7489 171.126C93.7315 171.117 93.7053 171.1 93.6879 171.091C92.0042 170.098 89.8582 170.421 88.5409 171.867L82.7483 178.199C81.2043 179.88 78.5959 180.002 76.9035 178.461L71.6256 173.652C69.942 172.11 69.8198 169.506 71.3639 167.816L77.1477 161.492C78.465 160.055 78.5959 157.886 77.4531 156.309C77.4356 156.292 77.4269 156.266 77.4094 156.248C76.2754 154.663 74.1817 154.088 72.3933 154.863L64.5333 158.287C62.4396 159.201 60.0057 158.243 59.0897 156.152L56.2283 149.611C55.3123 147.52 56.2719 145.09 58.3656 144.175L66.2344 140.743C68.0227 139.959 69.0172 138.043 68.6247 136.135C68.616 136.109 68.616 136.092 68.6072 136.065C68.2147 134.158 66.5397 132.773 64.5856 132.764L55.9928 132.703C53.7072 132.686 51.8665 130.822 51.8839 128.548L51.9363 121.414C51.9537 119.132 53.8206 117.294 56.0975 117.311L64.6728 117.372C66.627 117.39 68.3194 116.031 68.7381 114.123C68.7468 114.097 68.7468 114.071 68.7555 114.053C69.1743 112.155 68.2059 110.212 66.4263 109.411L58.6186 105.874C56.5424 104.933 55.6177 102.486 56.5598 100.404L59.5084 93.9056C60.4506 91.8324 62.9019 90.9091 64.9869 91.8498L72.8382 95.4038C74.6091 96.2052 76.6941 95.639 77.8456 94.0798C77.8195 94.1146 77.8282 94.1059 77.8369 94.0972Z" fill="#DCE7F4"/>
<path d="M155.426 140.993C163.996 121.723 155.298 99.1646 135.999 90.608C116.7 82.0514 94.1079 90.7365 85.5386 110.007C76.9693 129.277 85.6674 151.835 104.966 160.392C124.265 168.948 146.857 160.263 155.426 140.993Z" fill="#EEF5FF"/>
<path d="M148.294 137.736C155.06 122.407 148.099 104.504 132.747 97.7484C117.396 90.9926 99.4656 97.9426 92.6998 113.272C85.934 128.601 92.8944 146.504 108.246 153.26C123.598 160.015 141.528 153.065 148.294 137.736Z" fill="white"/>
<path d="M49.0451 216.666C49.0451 216.657 49.0539 216.657 49.0539 216.648C49.6907 215.786 49.6471 214.601 48.9404 213.8L45.7825 210.255C44.945 209.314 45.0322 207.877 45.9744 207.04L48.923 204.427C49.8652 203.591 51.3046 203.678 52.142 204.619L55.2826 208.147C55.9979 208.948 57.1756 209.148 58.1091 208.617C58.1178 208.608 58.1352 208.6 58.1439 208.6C59.0774 208.068 59.5223 206.953 59.1908 205.934L57.7601 201.439C57.3763 200.237 58.0393 198.966 59.2431 198.582L62.9943 197.389C64.1982 197.006 65.4718 197.668 65.8557 198.87L67.2864 203.373C67.6092 204.401 68.6124 205.054 69.6854 204.95C69.6941 204.95 69.7116 204.95 69.7203 204.95C70.7933 204.845 71.6395 204.009 71.7616 202.938L72.2851 198.243C72.4246 196.997 73.55 196.091 74.8062 196.23L78.7231 196.666C79.9706 196.805 80.8779 197.929 80.7383 199.183L80.2149 203.87C80.0928 204.941 80.7383 205.943 81.759 206.283C81.7764 206.291 81.7852 206.291 81.8026 206.3C82.8233 206.64 83.9399 206.222 84.4895 205.29L86.8798 201.222C87.5166 200.142 88.9124 199.776 90.0029 200.412L93.3964 202.398C94.4781 203.034 94.8445 204.427 94.2077 205.516L91.8087 209.593C91.2678 210.516 91.4423 211.701 92.2361 212.424C92.2449 212.432 92.2536 212.441 92.2623 212.45C93.0562 213.173 94.2513 213.243 95.1237 212.615L98.9708 209.863C99.9915 209.131 101.422 209.366 102.155 210.385L104.449 213.582C105.182 214.601 104.947 216.03 103.926 216.762L100.079 219.514C99.2064 220.141 98.8836 221.291 99.3198 222.276C99.3285 222.284 99.3285 222.302 99.3372 222.31C99.7647 223.295 100.829 223.843 101.885 223.634L106.517 222.685C107.747 222.432 108.951 223.225 109.204 224.453L109.998 228.303C110.251 229.532 109.457 230.734 108.227 230.986L103.594 231.936C102.539 232.153 101.78 233.077 101.771 234.148C101.771 234.157 101.771 234.174 101.771 234.183C101.762 235.255 102.513 236.187 103.559 236.422L108.183 237.432C109.413 237.702 110.19 238.913 109.919 240.141L109.073 243.983C108.802 245.211 107.59 245.986 106.36 245.716L101.745 244.706C100.698 244.479 99.6251 245.011 99.1802 245.986C99.1715 245.995 99.1715 246.012 99.1628 246.021C98.7178 246.997 99.0145 248.155 99.8868 248.791L103.69 251.596C104.702 252.345 104.92 253.765 104.17 254.775L101.832 257.937C101.082 258.948 99.66 259.165 98.6481 258.416L94.8445 255.611C93.9809 254.976 92.7857 255.028 91.9744 255.742C91.9657 255.751 91.957 255.76 91.9483 255.768C91.1457 256.483 90.9538 257.658 91.4772 258.591L93.8151 262.693C94.4345 263.782 94.0507 265.176 92.9602 265.794L89.5318 267.737C88.4413 268.355 87.0455 267.972 86.4262 266.883L84.0882 262.772C83.5561 261.84 82.4482 261.404 81.4188 261.726C81.41 261.726 81.3926 261.735 81.3839 261.735C80.3545 262.057 79.7002 263.059 79.8049 264.122L80.2672 268.826C80.3894 270.08 79.4734 271.186 78.2172 271.317L74.3002 271.7C73.044 271.822 71.9361 270.908 71.8052 269.653L71.3429 264.949C71.2382 263.878 70.4007 263.033 69.3277 262.911C69.3103 262.911 69.3016 262.911 69.2841 262.902C68.2111 262.78 67.2079 263.425 66.8676 264.444L65.3759 268.921C64.9746 270.115 63.6922 270.759 62.4971 270.359L58.7633 269.122C57.5682 268.721 56.9226 267.441 57.3239 266.247L58.8157 261.761C59.1559 260.742 58.7372 259.627 57.8037 259.078C57.795 259.07 57.7775 259.061 57.7688 259.061C56.8441 258.512 55.6577 258.695 54.9336 259.488L51.7408 262.981C50.8946 263.913 49.4464 263.974 48.5217 263.129L45.6167 260.481C44.6833 259.636 44.6222 258.19 45.4684 257.267L48.6526 253.782C49.3766 252.99 49.4464 251.796 48.8183 250.925C48.8096 250.916 48.8009 250.899 48.7921 250.89C48.164 250.019 47.0125 249.697 46.0267 250.132L41.6998 252.023C40.5483 252.528 39.2048 251.997 38.6988 250.847L37.1198 247.24C36.6139 246.091 37.146 244.749 38.2975 244.244L42.6332 242.354C43.619 241.927 44.1686 240.864 43.9505 239.81C43.9505 239.802 43.9418 239.784 43.9418 239.775C43.7237 238.721 42.799 237.964 41.726 237.955L36.989 237.92C35.7328 237.911 34.7208 236.883 34.7295 235.629L34.7557 231.701C34.7644 230.446 35.7938 229.436 37.0501 229.444L41.7783 229.479C42.8513 229.488 43.7935 228.739 44.0203 227.694C44.0203 227.676 44.029 227.667 44.029 227.65C44.2558 226.605 43.7237 225.533 42.7466 225.089L38.4458 223.138C37.303 222.615 36.7883 221.274 37.3118 220.124L38.9344 216.544C39.4578 215.403 40.8012 214.889 41.9528 215.411L46.2797 217.371C47.2568 217.816 48.3996 217.502 49.0364 216.64C49.0364 216.675 49.0364 216.675 49.0451 216.666Z" fill="#DCE7F4"/>
<path d="M72.5559 255.019C84.1961 255.019 93.6324 245.597 93.6324 233.974C93.6324 222.351 84.1961 212.929 72.5559 212.929C60.9157 212.929 51.4795 222.351 51.4795 233.974C51.4795 245.597 60.9157 255.019 72.5559 255.019Z" fill="#EEF5FF"/>
<path d="M72.5562 250.69C81.8019 250.69 89.297 243.206 89.297 233.974C89.297 224.742 81.8019 217.258 72.5562 217.258C63.3105 217.258 55.8154 224.742 55.8154 233.974C55.8154 243.206 63.3105 250.69 72.5562 250.69Z" fill="white"/>
<path d="M344.869 207.453C344.869 207.453 338.657 202.986 343.567 197.048C348.478 191.111 353.474 189.878 353.845 183.704C354.215 177.53 346.483 169.402 356.181 163.778C365.879 158.153 379.186 171.365 376.204 189.338C373.221 207.301 358.119 215.078 344.869 207.453Z" fill="#1C8C44"/>
<path d="M358.878 222.409C358.878 222.409 365.622 238.106 382.226 234.341C398.838 230.575 402.191 222.011 418.547 217.648C434.913 213.285 432.501 198.111 426.241 192.42C419.668 186.454 410.588 186.094 398.895 195.607C387.203 205.119 377.096 204.162 369.441 206.608C361.804 209.055 359.325 217.658 358.878 222.409Z" fill="#1C8C44"/>
<path d="M353.617 237.755C357.008 234.616 371.597 232.064 381.153 239.187C390.708 246.31 397.309 259.303 403.968 262.746C410.617 266.189 425.387 288.904 411.187 298.436C396.977 307.967 385.636 299.289 379.699 288.847C373.763 278.414 372.196 271.832 361.833 265.544C351.461 259.256 343.577 247.059 353.617 237.755Z" fill="#1C8C44"/>
<path d="M322.842 212.508C322.889 212.328 323.041 212.195 323.231 212.176C340.822 210.393 352.667 204.987 358.432 196.119C364.625 186.597 361.358 176.354 361.329 176.249C361.253 176.012 361.377 175.766 361.614 175.69C361.851 175.614 362.098 175.737 362.174 175.974C362.212 176.079 365.603 186.73 359.182 196.603C353.265 205.708 341.192 211.246 323.326 213.058C323.079 213.086 322.861 212.906 322.842 212.66C322.823 212.612 322.832 212.565 322.842 212.508Z" fill="#E7F6E9"/>
<path d="M316.174 215.59C316.174 215.571 316.183 215.552 316.193 215.533C316.278 215.306 316.544 215.192 316.772 215.287C365.936 234.701 412.174 206.258 412.64 205.964C412.849 205.831 413.124 205.897 413.248 206.106C413.381 206.315 413.314 206.59 413.105 206.713C412.64 207.007 366.031 235.697 316.44 216.112C316.231 216.027 316.117 215.808 316.174 215.59Z" fill="#E7F6E9"/>
<path d="M324.893 225.909C324.931 225.738 325.102 225.634 325.273 225.672C325.729 225.767 371.16 235.507 397.756 281.525C397.851 281.677 397.794 281.885 397.632 281.971C397.471 282.056 397.271 282.009 397.186 281.848C370.742 236.086 325.596 226.402 325.14 226.317C324.96 226.279 324.846 226.108 324.884 225.928C324.884 225.919 324.884 225.919 324.893 225.909Z" fill="#E7F6E9"/>
<path d="M195.971 86.7082C198.216 86.7082 200.036 84.8908 200.036 82.6489C200.036 80.407 198.216 78.5896 195.971 78.5896C193.726 78.5896 191.906 80.407 191.906 82.6489C191.906 84.8908 193.726 86.7082 195.971 86.7082Z" fill="#93BBE5"/>
<path d="M364.397 113.577C366.642 113.577 368.462 111.76 368.462 109.518C368.462 107.276 366.642 105.458 364.397 105.458C362.152 105.458 360.332 107.276 360.332 109.518C360.332 111.76 362.152 113.577 364.397 113.577Z" fill="#93BBE5"/>
<path d="M365.062 107.877H363.969V105.639H365.062V107.877ZM365.062 102.31H363.969V98.9808H365.062V102.31ZM365.062 95.6519H363.969V92.3229H365.062V95.6519ZM365.062 88.9844H363.969V85.6554H365.062V88.9844ZM365.062 82.3169H363.969V78.988H365.062V82.3169ZM196.693 81.5203H195.601V78.1913H196.693V81.5203ZM365.062 75.659H363.969V72.3205H365.062V75.659ZM196.693 74.8528H195.601V71.5238H196.693V74.8528ZM365.062 68.9915H363.969V65.6625H365.062V68.9915ZM196.693 68.1853H195.601V64.8564H196.693V68.1853ZM365.062 62.3335H363.969V59.0045H365.062V62.3335ZM196.693 61.5274H195.601V58.1984H196.693V61.5274ZM365.062 55.6661H363.969V52.3371H365.062V55.6661ZM196.693 54.8599H195.601V51.5309H196.693V54.8599ZM365.062 48.9986H363.969V45.6696H365.062V48.9986ZM196.693 48.2019H195.601V44.873H196.693V48.2019ZM365.062 42.3406H363.969V39.0117H365.062V42.3406ZM196.693 41.5345H195.601V38.2055H196.693V41.5345ZM364.52 35.8629H361.547V34.7627H365.071V35.6732H364.52V35.8629ZM358.204 35.8629H354.87V34.7627H358.204V35.8629ZM352.362 35.8629H349.028V34.7627H352.362V35.8629ZM345.685 35.8629H342.351V34.7627H345.685V35.8629ZM339.017 35.8629H335.683V34.7627H339.017V35.8629ZM332.34 35.8629H329.006V34.7627H332.34V35.8629ZM325.662 35.8629H322.328V34.7627H325.662V35.8629ZM318.994 35.8629H315.661V34.7627H318.994V35.8629ZM313.371 35.8629H310.037V34.7627H313.371V35.8629ZM306.694 35.8629H303.36V34.7627H306.694V35.8629ZM300.026 35.8629H296.692V34.7627H300.026V35.8629ZM293.349 35.8629H290.015V34.7627H293.349V35.8629ZM286.681 35.8629H283.347V34.7627H286.681V35.8629ZM280.004 35.8629H276.67V34.7627H280.004V35.8629ZM273.326 35.8629H269.992V34.7627H273.326V35.8629ZM266.658 35.8629H263.324V34.7627H266.658V35.8629ZM259.981 35.8629H256.647V34.7627H259.981V35.8629ZM253.313 35.8629H249.979V34.7627H253.313V35.8629ZM246.636 35.8629H243.302V34.7627H246.636V35.8629ZM239.968 35.8629H236.634V34.7627H239.968V35.8629ZM233.29 35.8629H229.956V34.7627H233.29V35.8629ZM226.613 35.8629H223.279V34.7627H226.613V35.8629ZM219.945 35.8629H216.611V34.7627H219.945V35.8629ZM213.268 35.8629H209.934V34.7627H213.268V35.8629ZM206.6 35.8629H203.266V34.7627H206.6V35.8629ZM199.922 35.8629H196.588V34.7627H199.922V35.8629Z" fill="#93BBE5"/>
<path d="M219.442 51.6447L194.223 66.7057C193.274 67.2748 192.039 66.9618 191.469 66.0134L176.376 40.8326C175.806 39.8841 176.12 38.6512 177.069 38.0821L202.288 23.0211C203.237 22.452 204.472 22.765 205.042 23.7134L220.126 48.8942C220.696 49.8426 220.392 51.0756 219.442 51.6447Z" fill="#E4ECF9"/>
<path d="M186.131 45.0342C188.129 45.0342 189.75 43.4163 189.75 41.4206C189.75 39.425 188.129 37.8071 186.131 37.8071C184.132 37.8071 182.512 39.425 182.512 41.4206C182.512 43.4163 184.132 45.0342 186.131 45.0342Z" fill="#F9FBFC"/>
<path d="M211.064 36.4792L219.223 50.1081L219.109 50.222L192.96 65.8426L189.721 60.446C190.681 56.5859 194.613 54.2338 198.479 55.2107L200.131 55.628L203.874 40.7756C204.681 37.5984 207.892 35.6825 211.064 36.4792Z" fill="#F9FBFC"/>
<path d="M314.996 124.209L321.341 85.9303C321.445 85.2948 322.044 84.8585 322.68 84.9534L344.821 88.2444L350.169 98.0227L345.334 128.278C345.134 129.511 343.966 130.355 342.731 130.156L316.174 125.85C315.395 125.726 314.863 124.996 314.996 124.209Z" fill="#E4ECF9"/>
<path d="M343.548 130.431C343.263 130.478 342.978 130.488 342.693 130.44L316.136 126.134C315.68 126.058 315.281 125.812 315.015 125.442C314.749 125.072 314.644 124.617 314.711 124.162L321.056 85.8829C321.189 85.0957 321.93 84.5551 322.718 84.6689L345.001 87.9789L350.472 97.9754L345.619 128.325C345.514 128.999 345.144 129.587 344.593 129.994C344.27 130.222 343.919 130.364 343.548 130.431ZM315.281 124.256C315.233 124.56 315.3 124.863 315.48 125.11C315.661 125.357 315.927 125.518 316.221 125.575L342.779 129.881C343.301 129.966 343.824 129.843 344.26 129.53C344.688 129.217 344.973 128.761 345.058 128.24L349.883 98.0892L344.65 88.5196L322.652 85.2475C322.177 85.1716 321.721 85.5036 321.635 85.9872L315.281 124.256Z" fill="#E4ECF9"/>
<path d="M344.821 88.2446L343.301 97.2168L350.169 98.0324L344.821 88.2446Z" fill="#D9E1E8"/>
<path d="M339.464 95.6139C339.416 95.6234 339.369 95.6234 339.312 95.6139L325.805 93.2049C325.568 93.1669 325.416 92.9393 325.454 92.7117C325.492 92.4746 325.72 92.3228 325.947 92.3608L339.454 94.7698C339.692 94.8077 339.844 95.0353 339.806 95.263C339.777 95.4527 339.635 95.5854 339.464 95.6139Z" fill="#93BBE5"/>
<path d="M344.878 103.116C344.83 103.125 344.783 103.125 344.726 103.116L325.026 99.6067C324.789 99.5688 324.637 99.3412 324.675 99.1135C324.713 98.8764 324.941 98.7247 325.169 98.7626L344.868 102.272C345.106 102.31 345.258 102.537 345.22 102.765C345.191 102.955 345.049 103.087 344.878 103.116Z" fill="#93BBE5"/>
<path d="M343.31 111.234C343.263 111.244 343.215 111.244 343.159 111.234L323.459 107.725C323.221 107.687 323.069 107.46 323.107 107.232C323.145 106.995 323.373 106.843 323.601 106.881L343.301 110.39C343.538 110.428 343.69 110.656 343.652 110.883C343.624 111.073 343.481 111.206 343.31 111.234Z" fill="#93BBE5"/>
<path d="M342.028 118.471C341.981 118.48 341.933 118.48 341.876 118.471L322.177 114.962C321.939 114.924 321.787 114.696 321.825 114.469C321.863 114.231 322.091 114.08 322.319 114.118L342.019 117.627C342.256 117.665 342.408 117.892 342.37 118.12C342.342 118.31 342.199 118.442 342.028 118.471Z" fill="#93BBE5"/>
<path d="M341.079 124.579C341.031 124.588 340.984 124.588 340.927 124.579L321.227 121.07C320.989 121.032 320.837 120.804 320.875 120.576C320.913 120.339 321.141 120.188 321.369 120.226L341.069 123.735C341.307 123.773 341.459 124 341.421 124.228C341.402 124.408 341.259 124.541 341.079 124.579Z" fill="#93BBE5"/>
<path d="M380.098 78.4663H353.645C352.353 78.4663 351.308 77.423 351.308 76.1331V53.5795C351.308 52.2896 352.353 51.2463 353.645 51.2463H380.098C381.39 51.2463 382.434 52.2896 382.434 53.5795V76.1331C382.444 77.423 381.39 78.4663 380.098 78.4663Z" fill="#F89D13"/>
<path d="M358.023 73.8664H354.813C354.158 73.8664 353.616 73.3352 353.616 72.6713V65.3874C353.616 64.733 354.148 64.1924 354.813 64.1924H358.023C358.679 64.1924 359.22 64.7235 359.22 65.3874V72.6713C359.211 73.3352 358.679 73.8664 358.023 73.8664Z" fill="white"/>
<path d="M364.995 73.8662H361.785C361.129 73.8662 360.588 73.3351 360.588 72.6712V69.4655C360.588 68.8111 361.12 68.2705 361.785 68.2705H364.995C365.651 68.2705 366.192 68.8016 366.192 69.4655V72.6712C366.182 73.3351 365.651 73.8662 364.995 73.8662Z" fill="white"/>
<path d="M371.967 73.8664H368.757C368.101 73.8664 367.56 73.3353 367.56 72.6714V63.1586C367.56 62.5042 368.092 61.9636 368.757 61.9636H371.967C372.623 61.9636 373.164 62.4947 373.164 63.1586V72.6714C373.155 73.3353 372.623 73.8664 371.967 73.8664Z" fill="white"/>
<path d="M378.939 73.8663H375.729C375.073 73.8663 374.532 73.3352 374.532 72.6713V59.9055C374.532 59.2511 375.064 58.7104 375.729 58.7104H378.939C379.594 58.7104 380.136 59.2416 380.136 59.9055V72.6713C380.136 73.3352 379.594 73.8663 378.939 73.8663Z" fill="white"/>
<path d="M308.965 63.9268H247.823C244.831 63.9268 242.409 61.5083 242.409 58.5208V6.40458C242.409 3.41703 244.831 0.998535 247.823 0.998535H308.965C311.957 0.998535 314.379 3.41703 314.379 6.40458V58.5208C314.379 61.4988 311.957 63.9268 308.965 63.9268Z" fill="#297EEC"/>
<path d="M278.389 57.7525C264.426 57.7525 253.076 46.4093 253.076 32.4579C253.076 25.5534 255.954 18.8669 260.969 14.1248C265.68 9.63873 271.873 7.16333 278.389 7.16333C284.914 7.16333 291.107 9.63873 295.828 14.1248C300.843 18.8669 303.721 25.5534 303.721 32.4579C303.721 46.4093 292.352 57.7525 278.389 57.7525ZM278.389 9.34472C272.433 9.34472 266.782 11.602 262.47 15.7087C257.882 20.043 255.251 26.1509 255.251 32.4674C255.251 45.2143 265.633 55.5806 278.389 55.5806C291.155 55.5806 301.537 45.2143 301.537 32.4674C301.537 26.1604 298.906 20.0525 294.318 15.7182C290.015 11.602 284.354 9.34472 278.389 9.34472Z" fill="white"/>
<path d="M278.389 22.6512C271.883 22.6512 265.69 20.1853 260.969 15.7087C260.75 15.5001 260.627 15.2155 260.627 14.9215C260.627 14.6275 260.75 14.343 260.969 14.1343C265.68 9.64825 271.873 7.17285 278.389 7.17285C284.914 7.17285 291.107 9.64825 295.828 14.1343C296.047 14.343 296.17 14.6275 296.17 14.9215C296.17 15.2155 296.047 15.5001 295.828 15.7087C291.098 20.1853 284.905 22.6512 278.389 22.6512ZM263.343 14.912C267.532 18.5066 272.832 20.4698 278.389 20.4698C283.955 20.4698 289.255 18.5066 293.444 14.912C289.255 11.308 283.955 9.34475 278.389 9.34475C272.823 9.34475 267.532 11.3175 263.343 14.912Z" fill="white"/>
<path d="M261.719 51.0946C261.434 51.0946 261.14 50.9807 260.931 50.7531C260.513 50.3168 260.532 49.6245 260.969 49.2167C265.68 44.7401 271.864 42.2742 278.389 42.2742C284.924 42.2742 291.117 44.7401 295.828 49.2167C296.265 49.634 296.284 50.3168 295.866 50.7531C295.448 51.1894 294.764 51.2084 294.327 50.7911C290.024 46.7033 284.373 44.4461 278.398 44.4461C272.433 44.4461 266.782 46.7033 262.479 50.7911C262.261 50.9902 261.985 51.0946 261.719 51.0946Z" fill="white"/>
<path d="M278.398 57.7431C270.344 57.7431 264.027 46.637 264.027 32.458C264.027 18.279 270.344 7.17285 278.398 7.17285C286.453 7.17285 292.77 18.279 292.77 32.458C292.77 46.637 286.453 57.7431 278.398 57.7431ZM278.398 9.34475C271.788 9.34475 266.212 19.9292 266.212 32.458C266.212 44.9867 271.797 55.5712 278.398 55.5712C285.009 55.5712 290.585 44.9867 290.585 32.458C290.585 19.9292 285 9.34475 278.398 9.34475Z" fill="white"/>
<path d="M278.398 57.7431C277.8 57.7431 277.306 57.2594 277.306 56.6524V8.25402C277.306 7.65651 277.791 7.16333 278.398 7.16333C278.997 7.16333 279.491 7.64703 279.491 8.25402V56.6524C279.481 57.2594 278.997 57.7431 278.398 57.7431Z" fill="white"/>
<path d="M267.675 33.5676C260.152 33.5676 254.358 33.5581 254.092 33.5486C253.494 33.5107 253.038 32.9891 253.076 32.3915C253.114 31.794 253.627 31.3388 254.225 31.3767C255.213 31.4147 286.311 31.3957 302.629 31.3767C303.228 31.3767 303.721 31.8604 303.721 32.4674C303.721 33.0649 303.237 33.5581 302.629 33.5581C299.514 33.5486 280.925 33.5676 267.675 33.5676Z" fill="white"/>
<path d="M196.77 351.5C241.26 351.5 277.326 350.022 277.326 348.199C277.326 346.377 241.26 344.899 196.77 344.899C152.28 344.899 116.214 346.377 116.214 348.199C116.214 350.022 152.28 351.5 196.77 351.5Z" fill="#E9EAE8"/>
<path d="M221.78 331.137H171.761V345.164H221.78V331.137Z" fill="#78A6D1"/>
<path d="M318.236 177.084V325.987C318.236 329.402 315.463 332.171 312.043 332.171H81.4979C78.0785 332.171 75.3145 329.402 75.3145 325.987V177.084C75.3145 173.67 78.0785 170.9 81.4884 170.9H312.043C315.472 170.91 318.236 173.67 318.236 177.084Z" fill="#93BBE5"/>
<path d="M318.236 177.084V318.22H75.3047V177.084C75.3047 173.67 78.0687 170.9 81.4787 170.9H312.043C315.472 170.91 318.236 173.67 318.236 177.084Z" fill="#93BBE5"/>
<path d="M312.262 177.094H81.2793V311.704H312.262V177.094Z" fill="#EEF5FF"/>
<path d="M237.557 348.2H155.994V346.805C155.994 345.155 157.333 343.808 158.995 343.808H234.565C236.217 343.808 237.566 345.146 237.566 346.805V348.2H237.557Z" fill="#78A6D1"/>
<path d="M218.273 131.759C218.748 131.967 219.195 132.138 219.641 132.271C221.759 132.916 223.678 132.802 226.204 132.403C227.363 132.214 227.677 131.284 227.202 130.81C228.028 130.696 228.854 130.516 229.69 130.269C230.887 129.909 230.868 128.761 230.127 128.382C230.526 128.287 230.935 128.183 231.343 128.05C232.958 127.538 232.464 125.802 230.83 126.324C228.645 127.016 226.556 126.855 224.438 126.466C226.109 126.542 227.8 126.447 229.491 126.191C231.058 125.954 230.773 124.01 229.206 124.247C226.252 124.693 223.203 124.294 220.296 123.45C221.199 123.128 222.12 122.9 223.089 122.862C224.666 122.796 224.39 120.861 222.804 120.927C219.517 121.079 217.276 121.61 214.255 122.957C214.236 122.967 214.217 122.986 214.189 122.995L212.432 123.118C213.381 126.305 214.151 129.539 214.787 132.792C216.962 132.157 218.273 131.759 218.273 131.759Z" fill="#FE7D6B"/>
<path d="M224.722 126.59L224.751 126.419C224.713 126.409 220.819 125.764 220.154 125.025L220.03 125.138C220.277 125.404 220.895 125.66 221.598 125.878C222.937 126.296 224.618 126.58 224.722 126.59Z" fill="#995033"/>
<path d="M230.127 128.458L230.108 128.287C230.042 128.297 223.868 128.923 220.154 127.14L220.078 127.291C220.515 127.5 220.98 127.671 221.465 127.823C225.188 128.961 230.07 128.458 230.127 128.458Z" fill="#995033"/>
<path d="M227.202 130.886V130.715C227.135 130.715 220.942 130.763 220.068 129.331L219.926 129.416C220.154 129.786 220.676 130.061 221.36 130.27C223.469 130.914 227.012 130.886 227.202 130.886Z" fill="#995033"/>
<path d="M97.3779 237.66C97.3779 237.66 99.2776 235.83 100.493 235.317L112.48 230.348C112.48 230.348 116.688 225.074 117.923 223.472C118.502 222.722 119.519 222.504 120.326 222.95L124.429 225.236C125.332 225.738 125.645 226.895 125.123 227.815L118.303 240.638C116.118 242.582 113.981 244.147 111.597 245.836L97.3779 237.66Z" fill="#FE7D6B"/>
<path d="M100.132 234.378L108.243 231.011L108.842 230.48C109.592 229.816 110.675 229.665 111.577 230.11C113.344 230.993 115.006 232.339 116.061 233.288C116.792 233.942 117.067 234.957 116.763 235.886L116.25 237.461C116.459 237.537 116.678 237.603 116.896 237.65C120.344 238.381 119.907 237.034 120.164 237.186C120.325 237.281 119.109 242.431 118.226 246.063C117.799 247.818 115.795 248.671 114.227 247.77L96.3418 237.423C96.3798 237.337 96.4178 237.252 96.4558 237.167C97.2726 235.573 98.9919 234.853 100.132 234.378Z" fill="#191919"/>
<path d="M189.664 125.812C180.479 123.82 168.749 65.985 160.039 97.5961C156.315 105.032 176.775 140.55 184.136 139.308C190.471 137.857 221.075 138.075 215.12 127.955C214.436 126.428 214.303 123.962 213.163 122.948C205.45 124.522 197.557 126.04 189.664 125.812Z" fill="#2276D3"/>
<path d="M165.775 86.6796C160.238 83.7016 154.462 81.4822 148.004 81.4917C138.581 81.5012 129.168 83.7774 120.81 88.1307C117.219 89.9991 117.552 96.107 117.514 99.5403C117.457 104.216 118.236 108.93 120.259 113.179C122.348 117.57 125.663 121.269 128.18 125.432C129.805 128.117 131.875 131.54 131.818 134.765C131.771 137.553 132.075 140.133 132.464 142.912C132.692 144.572 132.635 147.55 134.012 148.754C134.706 149.361 135.618 149.627 136.51 149.826C141.013 150.841 145.695 150.632 150.293 150.253C158.841 149.542 167.865 148.015 174.324 142.381C171.655 133.38 171.047 124.152 169.85 114.876C169.214 109.907 168.615 104.927 168.017 99.9482C167.637 96.7709 167.646 93.7549 167.732 90.5492C167.798 88.6334 167.447 87.5806 165.775 86.6796Z" fill="#297EEC"/>
<path d="M118.084 149.817C111.606 146.592 106.268 142.144 103.029 135.638C102.488 134.556 101.956 133.447 101.728 132.261C101.405 130.582 101.718 128.856 102.07 127.187C103.76 119.078 106.363 111.159 109.782 103.609C111.445 99.9482 112.841 96.0975 115.292 92.8539C117.229 90.2837 120.734 87.6281 124.154 88.5955C127.763 89.6198 129.644 93.8213 130.669 97.1029C132.332 102.452 130.394 106.673 128.494 111.623C126.053 117.978 122.881 124.029 120.326 130.336C126.072 134.461 131.914 138.445 137.85 142.286C139.237 143.178 140.795 143.974 142.096 144.999C143.644 146.213 143.017 146.516 142.077 147.986C141.593 148.745 138.05 156.968 137.945 156.939C131.135 155.298 124.363 152.937 118.084 149.817Z" fill="#2276D3"/>
<path d="M165.035 144.619C164.55 143.87 163.99 143.348 163.544 142.997C161.292 143.614 159.507 143.661 158.272 143.585C157.18 143.509 155.973 143.358 154.606 143.955C153.998 144.221 153.523 144.723 153.038 145.188C151.576 146.611 149.904 147.825 148.09 148.783C148.403 149.76 149.59 150.348 150.559 150.016C150.835 149.921 151.091 149.76 151.329 149.598C152.497 148.83 153.618 147.986 154.682 147.066C154.843 146.924 155.147 146.81 155.223 147.009C154.378 147.91 153.466 148.745 152.497 149.504C151.832 150.025 151.139 150.518 150.483 151.059C149.676 151.742 148.945 152.51 148.251 153.307C147.957 153.648 147.653 154.009 147.539 154.445C147.425 154.881 147.558 155.412 147.957 155.63C148.47 155.915 149.087 155.555 149.543 155.194C151.481 153.658 153.124 151.685 155.394 150.689C152.829 152.453 150.331 154.303 147.9 156.247C147.767 156.351 147.634 156.465 147.567 156.617C147.425 156.958 147.681 157.338 147.938 157.603C148.061 157.726 148.194 157.859 148.365 157.907C148.65 157.982 148.925 157.812 149.163 157.651C151.699 155.924 154.245 154.198 156.781 152.472C156.296 153.601 155.299 154.435 154.235 155.061C153.171 155.678 152.012 156.124 150.939 156.731C150.702 156.863 150.445 157.034 150.369 157.29C150.255 157.67 150.559 158.039 150.835 158.333C150.939 158.438 151.053 158.552 151.196 158.608C151.424 158.694 151.68 158.599 151.908 158.504C153.941 157.641 155.84 156.474 157.531 155.052C157.949 154.701 158.452 154.303 158.984 154.407C157.759 156.114 156.021 157.376 154.387 158.722C154.188 158.893 153.96 159.121 154.036 159.377C154.131 159.709 154.615 159.699 154.948 159.585C158.082 158.561 160.39 155.962 162.537 153.468C163.107 152.804 163.677 152.15 164.123 151.4C164.683 150.471 165.396 149.665 165.586 149.39C165.814 149.077 165.994 148.811 166.127 148.621C166.165 147.872 166.089 146.222 165.035 144.619Z" fill="#E5A589"/>
<path d="M124.79 229.39C130.888 222.694 138.211 214.566 146.456 205.243C154.492 196.147 163.591 185.715 171.484 170.606C175.91 162.127 178.39 155.166 175.435 150.471C174.429 148.868 171.798 145.956 167.989 145.416C165.263 145.027 162.803 145.975 161.872 146.336C161.539 146.469 159.773 147.161 157.968 148.584C148.659 155.924 140.605 171.004 140.605 171.004C129.264 192.24 134.573 181.561 129.919 190.808C125.911 198.756 120.573 209.454 114.304 222.305C117.799 224.657 121.295 227.028 124.79 229.39Z" fill="#114175"/>
<path d="M177.174 156.171H120.24C118.977 156.171 117.96 155.147 117.96 153.895C117.286 142.798 116.602 131.702 115.928 120.595C115.928 120.406 115.928 119.381 116.745 118.566C117.647 117.655 118.815 117.741 118.986 117.75C138.876 117.817 158.766 117.883 178.655 117.949C178.959 118.006 179.653 118.177 180.289 118.765C181.049 119.457 181.248 120.301 181.305 120.595C180.697 131.692 180.08 142.789 179.472 153.895C179.453 155.156 178.427 156.171 177.174 156.171Z" fill="#1C8C44"/>
<path d="M178.475 153.942H118.54C118.265 153.942 117.999 153.895 117.742 153.809C117.742 153.838 117.742 153.876 117.752 153.904C117.752 155.166 118.778 156.18 120.031 156.18H176.965C178.228 156.18 179.244 155.156 179.244 153.904C179.244 153.876 179.244 153.847 179.254 153.819C179.007 153.885 178.75 153.942 178.475 153.942Z" fill="#C6D1D1"/>
<path d="M148.813 141.13C150.444 141.124 151.762 139.799 151.757 138.17C151.751 136.541 150.424 135.225 148.793 135.23C147.161 135.236 145.843 136.561 145.849 138.19C145.854 139.819 147.181 141.135 148.813 141.13Z" fill="#3F6FA2"/>
<path d="M180.954 169.164C172.51 168.861 162.309 168.444 150.721 167.865C139.408 167.296 126.519 166.566 111.283 161.975C102.744 159.405 96.4656 156.522 95.2593 151.495C94.8414 149.779 94.6134 146.137 96.7316 143.253C98.2418 141.186 100.483 140.171 101.329 139.782C101.633 139.64 103.247 138.919 105.366 138.644C116.327 137.231 131.648 141.679 131.648 141.679C153.219 147.948 142.628 144.534 151.841 147.455C159.763 149.968 170.382 153.373 183.053 157.556C182.35 161.435 181.657 165.304 180.954 169.164Z" fill="#184785"/>
<path d="M138.581 74.5683L136.929 70.6892L138.078 71.391C138.078 71.391 138.61 72.9085 138.819 73.8949C139.018 74.8718 138.581 74.5683 138.581 74.5683Z" fill="#184785"/>
<path d="M139.009 70.1389C139.009 70.5752 138.876 87.4952 138.876 87.4952C138.876 87.4952 140.747 89.7904 143.578 89.8093C146.408 89.8283 148.992 86.4709 148.992 86.4709L148.593 76.6546L139.009 70.1389Z" fill="#FE7D6B"/>
<path d="M148.745 80.3535C142.704 82.9522 139.674 75.9054 139.617 75.8105C141.536 76.759 148.204 78.855 148.688 78.9214L148.745 80.3535Z" fill="#856758"/>
<path d="M145.525 79.9077C141.042 79.9457 138.116 75.6303 138.069 71.3908L138.002 64.6665C137.964 60.427 141.232 56.9557 145.297 56.9178C149.372 56.8799 152.696 60.2847 152.744 64.5337L152.81 71.258C152.858 75.4975 150.008 79.8603 145.525 79.9077Z" fill="#FE7D6B"/>
<path d="M137.299 66.6393C136.492 66.6867 135.932 67.5972 135.932 67.5972C135.932 67.5972 133.927 63.9647 134.051 61.6601C134.174 59.3554 135.97 58.6156 135.97 58.6156C135.97 58.6156 135.922 57.0317 136.568 55.8841C137.746 53.7786 140.415 54.5184 140.415 54.5184C140.415 54.5184 141.545 52.65 142.903 52.4034C145.876 51.8628 146.902 53.0104 146.902 53.0104C146.902 53.0104 148.052 51.6826 150.179 52.5267C152.297 53.3708 151.813 55.4763 151.813 55.4763C151.813 55.4763 155.489 54.0821 156.344 57.174C156.895 59.1657 156.505 61.698 153.941 62.0394C152.449 62.2386 151.148 61.072 151.148 61.072C151.148 61.072 150.721 62.0394 148.783 62.2196C146.351 62.4473 145.202 60.5883 145.202 60.5883C145.202 60.5883 145.202 61.0151 143.682 62.2196C142.163 63.4336 139.522 61.8592 139.522 61.8592L139.161 64.7235L138.154 68.0714L138.04 66.8574C138.04 66.8574 137.812 66.6109 137.299 66.6393Z" fill="#184785"/>
<path d="M135.599 69.0672C135.608 70.4044 136.444 71.4762 137.451 71.4667C139.332 71.4477 139.275 70.3665 139.256 69.0292C139.246 67.6919 138.411 66.6202 137.404 66.6297C136.387 66.6392 135.58 67.7299 135.599 69.0672Z" fill="#FE7D6B"/>
<path d="M136.33 68.3371C136.406 68.0146 136.587 67.6352 136.919 67.5119C137.204 67.3981 137.603 67.5783 137.613 67.9103C137.613 67.9767 137.508 67.9956 137.499 67.9292C137.47 67.768 137.328 67.6732 137.176 67.6732C137.014 67.6732 136.862 67.7965 136.777 67.9198C136.577 68.1948 136.511 68.5647 136.539 68.8966C136.568 69.2286 136.691 69.5795 136.919 69.8356C137.024 69.9494 137.157 70.0537 137.309 70.1012C137.442 70.1391 137.622 70.1486 137.746 70.0917C137.793 70.0632 137.869 70.1201 137.831 70.177C137.746 70.3003 137.632 70.3857 137.48 70.3952C137.318 70.3952 137.157 70.3383 137.014 70.2529C136.71 70.0727 136.501 69.7502 136.387 69.4183C136.264 69.0579 136.245 68.688 136.33 68.3371Z" fill="#DEAC93"/>
<path d="M196.304 168.51C193.644 170.568 191.079 172.275 189.341 172.247L176.851 166.367C175.882 166.016 174.666 165.646 174.989 164.697L176.471 160.344C176.765 159.491 177.639 158.997 178.532 159.178C180.46 159.576 186.881 160.799 186.881 160.799C190.823 159.462 194.765 158.125 198.707 156.788C199.913 156.38 201.157 155.924 202.354 156.427C202.402 156.446 196.304 168.51 196.304 168.51Z" fill="#FE7D6B"/>
<path d="M188.429 169.108C188.562 168.927 188.667 168.747 188.771 168.548L187.194 167.581C186.501 167.154 186.112 166.376 186.188 165.561C186.33 164.128 186.672 161.814 187.47 159.86C187.793 159.054 188.591 158.542 189.455 158.552L190.025 158.561L199.637 151.951C200.768 151.571 202.458 150.993 204.073 151.666C204.301 151.761 204.5 151.979 204.671 152.292L193.691 174.153C193.359 174.817 192.542 175.073 191.887 174.713C188.676 172.93 184.383 170.066 184.611 169.99C185.941 169.582 186.415 171.887 188.429 169.108Z" fill="#191919"/>
<path d="M148.08 70.6891C148.09 70.6891 148.109 70.6891 148.118 70.6891C148.47 70.6417 150.198 70.3477 150.303 69.4182C150.388 68.6026 149.049 66.1272 148.774 65.6435C148.698 65.5107 148.536 65.4633 148.413 65.5391C148.28 65.615 148.232 65.7762 148.308 65.8995C148.897 66.9713 149.818 68.8586 149.771 69.3613C149.733 69.7502 148.717 70.0726 148.042 70.1675C147.9 70.1864 147.795 70.3192 147.814 70.471C147.833 70.5943 147.947 70.6891 148.08 70.6891Z" fill="#C6493C"/>
<path d="M152.297 66.0228C152.335 66.4781 152.022 66.8764 151.613 66.9049C151.205 66.9333 150.835 66.5919 150.797 66.1366C150.759 65.6814 151.072 65.283 151.48 65.2546C151.898 65.2261 152.259 65.5676 152.297 66.0228Z" fill="#363435"/>
<path d="M142.904 63.9268C142.97 63.9268 143.027 63.9078 143.084 63.8604C144.243 62.8171 145.734 63.5759 145.753 63.5854C145.886 63.6518 146.048 63.6043 146.114 63.4716C146.181 63.3388 146.133 63.1775 146 63.1112C145.924 63.0732 144.157 62.1817 142.723 63.4621C142.609 63.5569 142.6 63.7276 142.704 63.8414C142.761 63.8889 142.828 63.9268 142.904 63.9268Z" fill="black"/>
<path d="M150.303 63.2534C150.36 63.2534 150.417 63.2344 150.464 63.1965C150.502 63.168 151.424 62.4662 152.336 63.1111C152.459 63.1965 152.62 63.168 152.706 63.0447C152.791 62.9214 152.763 62.7602 152.639 62.6748C151.642 61.973 150.559 62.4377 150.132 62.7792C150.018 62.874 149.999 63.0352 150.084 63.1585C150.141 63.2155 150.217 63.2534 150.303 63.2534Z" fill="black"/>
<path d="M145.439 72.2635C149.144 72.9559 150.721 72.2256 150.721 72.2256C150.721 72.2256 150.939 74.5208 148.792 74.8053C145.734 75.2131 145.439 72.2635 145.439 72.2635Z" fill="#D65E42"/>
<path d="M150.588 72.2729C150.588 72.2729 150.512 72.6997 150.474 72.785C150.436 72.8704 150.094 73.1359 148.593 73.2782C147.33 73.4015 145.991 73.0885 145.611 72.9842C145.459 72.5764 145.43 72.2539 145.43 72.2539C145.649 72.2918 145.858 72.3298 146.057 72.3582C148.755 72.785 150.179 72.4151 150.588 72.2729Z" fill="white"/>
<path d="M145.319 67.6671C145.748 67.6342 146.066 67.2264 146.03 66.7564C145.994 66.2863 145.617 65.9319 145.188 65.9648C144.759 65.9977 144.441 66.4055 144.477 66.8755C144.513 67.3456 144.89 67.7 145.319 67.6671Z" fill="#363435"/>
<path d="M305.317 195.085V298.104C305.317 300.626 303.275 302.665 300.748 302.665H178.352C175.825 302.665 173.783 300.617 173.783 298.104V195.085C173.783 192.562 175.825 190.523 178.352 190.523H300.748C303.275 190.533 305.317 192.572 305.317 195.085Z" fill="#E4ECF9"/>
<path d="M178.352 300.095C177.25 300.095 176.357 299.204 176.357 298.104V206.409C176.357 205.309 177.25 204.418 178.352 204.418H300.749C301.841 204.418 302.734 205.309 302.734 206.409V298.104C302.734 299.204 301.841 300.095 300.749 300.095H178.352Z" fill="white"/>
<path d="M180.527 200.339C181.592 200.339 182.455 199.477 182.455 198.414C182.455 197.351 181.592 196.489 180.527 196.489C179.462 196.489 178.599 197.351 178.599 198.414C178.599 199.477 179.462 200.339 180.527 200.339Z" fill="#1C8C44"/>
<path d="M185.666 200.339C186.731 200.339 187.594 199.477 187.594 198.414C187.594 197.351 186.731 196.489 185.666 196.489C184.601 196.489 183.738 197.351 183.738 198.414C183.738 199.477 184.601 200.339 185.666 200.339Z" fill="#1C8C44"/>
<path d="M190.814 200.339C191.879 200.339 192.742 199.477 192.742 198.414C192.742 197.351 191.879 196.489 190.814 196.489C189.749 196.489 188.886 197.351 188.886 198.414C188.886 199.477 189.749 200.339 190.814 200.339Z" fill="#1C8C44"/>
<path d="M359.572 370.355C357.948 371.455 356.285 372.508 354.576 373.513C352.875 374.518 351.166 375.448 349.437 376.301C342.617 376.425 335.246 376.501 327.562 376.501C292.751 376.501 264.531 375.021 264.531 373.2C264.531 372.375 270.268 371.626 279.747 371.047C282.312 370.895 285.152 370.753 288.239 370.62C299.01 370.165 312.688 369.899 327.562 369.899C339.245 369.899 350.197 370.07 359.572 370.355Z" fill="#E9EAE8"/>
<path d="M235.323 119.742L234.402 114.668C234.25 113.805 234.858 112.998 235.722 112.913L265.262 109.878L264.445 105.743C264.255 104.776 264.939 103.856 265.927 103.761L289.645 101.504C290.452 101.428 291.174 102.006 291.259 102.812L296.797 151.979C296.863 152.567 296.445 153.098 295.856 153.164L294.299 153.354L235.323 119.742Z" fill="#F89D13"/>
<path d="M235.323 119.742L234.402 114.668C234.25 113.805 234.858 112.998 235.722 112.913L265.262 109.878L264.445 105.743C264.255 104.776 264.939 103.856 265.927 103.761L289.645 101.504C290.452 101.428 291.174 102.006 291.259 102.812L296.797 151.979C296.863 152.567 296.445 153.098 295.856 153.164L294.299 153.354L235.323 119.742Z" fill="#F89D13"/>
<path d="M231.448 126.902L229.976 117.665L289.74 111.984L294.318 153.354L231.448 126.902Z" fill="#F3F6F9"/>
<path d="M238.144 157.888L227.525 124.228C227.164 123.071 227.953 121.876 229.159 121.762L281.904 116.622C282.682 116.546 283.404 117.029 283.623 117.779L294.318 153.364L240.357 159.339C239.37 159.443 238.439 158.836 238.144 157.888Z" fill="#F89D13"/>
<path d="M269.28 251.782C269.261 252.209 269.233 252.617 269.166 252.996C268.881 254.826 268.103 256.221 266.887 257.975C266.326 258.781 265.509 258.677 265.319 258.146C264.93 258.724 264.503 259.284 264.009 259.815C263.306 260.583 262.451 260.147 262.432 259.455C262.214 259.72 261.986 259.986 261.748 260.251C260.779 261.285 259.649 260.28 260.627 259.237C261.938 257.842 262.584 256.211 263.059 254.485C262.508 255.765 261.824 257.008 261.017 258.184C260.266 259.275 258.908 258.355 259.658 257.264C261.064 255.206 261.881 252.768 262.29 250.274C261.72 250.834 261.216 251.45 260.836 252.161C260.209 253.318 258.851 252.417 259.487 251.241C260.789 248.823 262.014 247.334 264.123 245.551C264.142 245.541 264.151 245.532 264.17 245.513C266.564 241.16 268.967 236.797 271.36 232.444C278.209 220.636 280.251 218.663 280.849 218.947C281.457 219.232 281.248 222.115 276.366 235.374C274.001 240.847 271.645 246.31 269.28 251.782Z" fill="#CC724A"/>
<path d="M359.496 348.721C359.496 348.721 358.461 361.136 361.054 360.927C364.445 360.652 369.574 342.139 369.574 342.139L370.78 343.182L372.433 340.773L368.168 336.572L359.496 348.721Z" fill="#297EEC"/>
<path d="M326.964 310.774L359.458 339.957C359.458 339.957 358.67 355.294 360.902 354.639C364.131 353.691 368.168 336.572 368.168 336.572L342.655 305.198L326.964 310.774Z" fill="#CC724A"/>
<path d="M287.166 362.758C287.166 362.758 277.781 370.971 279.795 372.612C282.435 374.765 298.991 365.005 298.991 365.005L299.134 366.589L302.002 366.001L301.86 360.026L287.166 362.758Z" fill="#297EEC"/>
<path d="M290.727 320.866L293.235 356.432C293.235 356.432 281.998 366.921 284.06 367.993C287.042 369.548 301.86 360.036 301.86 360.036L305.336 319.765L290.727 320.866Z" fill="#CC724A"/>
<path d="M311.121 237.925C302.591 238.637 294.403 239.016 285.988 237.11C285.703 237.043 285.418 236.967 285.124 236.901V321.292L358.537 315.744C358.537 315.744 342.94 258.203 336.282 236.579C327.914 237.328 319.384 237.243 311.121 237.925Z" fill="#F89D13"/>
<path d="M322.861 237.309L323.269 240.742L315.129 241.7L307.065 242.687L306.562 238.257C306.4 238.267 306.239 238.276 306.077 238.286L306.638 242.971C306.657 243.094 306.771 243.189 306.894 243.17L315.186 242.117L323.469 241.027C323.554 241.017 323.611 240.932 323.602 240.847L323.127 237.281C323.041 237.299 322.956 237.299 322.861 237.309Z" fill="#CC7A0D"/>
<path d="M344.745 285.186C343.548 280.652 342.313 276.128 341.088 271.604C339.853 267.08 338.618 262.556 337.374 258.042L335.465 251.27L333.518 244.508C332.853 242.26 332.207 240.003 331.504 237.764C331.419 237.48 331.324 237.205 331.238 236.92C331.096 236.93 330.944 236.939 330.801 236.949L331.086 237.888C331.78 240.126 332.416 242.383 333.071 244.631L334.99 251.393L336.88 258.165C338.144 262.679 339.397 267.194 340.642 271.718L344.365 285.281L348.088 298.843L351.831 312.396C350.681 307.853 349.504 303.32 348.326 298.777L344.745 285.186Z" fill="#CC7A0D"/>
<path d="M290.823 209.197C290.908 226.43 287.46 240.429 287.46 240.429C287.46 240.429 302.99 248.311 321.455 242.506C321.674 242.44 334.658 238.77 334.658 238.77C334.354 238.068 332.616 219.934 332.321 219.298C328.427 210.943 327.363 207.433 326.898 204.863C326.043 200.064 326.024 195.104 326.451 190.419C327.582 178.032 330.925 167.742 330.925 167.742C325.9 166.604 321.189 164.65 315.956 162.687C314.749 164.185 311.073 165.693 307.872 165.617C304.196 165.532 303.009 163.967 303.19 162.25C299.276 164.432 296.151 166.48 296.151 166.48C292.817 172.256 286.064 177.871 285.58 186.729C285.447 188.92 290.823 208.714 290.823 209.197Z" fill="white"/>
<path d="M322.025 211.123C323.611 213.361 326.651 226.981 334.212 228.697C330.317 218.995 327.354 214.736 326.898 211.749C326.043 206.181 326.024 200.415 326.451 194.981C323.925 190.551 322.035 187.516 322.035 187.516C321.835 186.796 318.007 174.988 316.782 185.544C315.547 196.09 320.249 208.619 322.025 211.123Z" fill="#5F9AA8"/>
<path d="M301.442 163.919C294.442 165.133 290.253 168.415 287.774 171.033C277.99 181.352 283.138 193.719 272.937 216.576C267.533 228.697 263.534 240.562 263.534 240.562L273.07 249.676C273.08 249.676 289.217 230.85 301.442 163.919Z" fill="#297EEC"/>
<path d="M303.19 162.26C303.19 162.26 294.537 183.618 294.28 187.934C294.024 192.259 293.264 258.611 293.264 258.611C293.264 258.611 293.767 261.665 287.916 260.384C282.065 259.113 280.536 257.842 280.536 257.842C280.536 257.842 281.932 247.609 283.148 235.602C284.772 219.441 283.69 212.773 284.611 202.682C285.399 193.985 287.555 181.503 293.815 166.461C296.93 165.058 300.065 163.663 303.19 162.26Z" fill="#297EEC"/>
<path d="M316.677 257.34C316.677 257.34 318.881 265.307 326.527 264.292C334.164 263.277 345.03 258.696 345.03 258.696C345.03 258.696 341.763 248.396 337.707 234.872C332.796 218.492 326.708 197.38 323.839 184.064C323.032 180.327 322.481 177.217 322.281 174.978L315.946 162.706C315.946 162.706 306.495 183.884 305.992 189.214C305.479 194.544 316.677 257.34 316.677 257.34Z" fill="#297EEC"/>
<path d="M321.807 181.399L330.916 167.761L315.946 162.696L315.87 165.039L321.807 181.399Z" fill="#297EEC"/>
<path d="M280.298 151.855C280.669 154.274 281.049 156.711 281.457 159.158C283.091 169.06 284.943 178.658 286.976 187.934C289.939 186.473 292.903 185.003 295.866 183.542C293.805 173.129 291.744 162.715 289.692 152.292C286.558 152.149 283.423 151.998 280.298 151.855Z" fill="#CC724A"/>
<path d="M313.201 158.172C314.974 158.172 316.412 156.159 316.412 153.676C316.412 151.194 314.974 149.181 313.201 149.181C311.428 149.181 309.991 151.194 309.991 153.676C309.991 156.159 311.428 158.172 313.201 158.172Z" fill="#F89D13"/>
<path d="M301.67 152.149C301.67 152.149 300.958 159.206 299.818 159.993C299.818 159.993 302.743 160.989 306.6 160.704C310.456 160.42 303.674 151.296 303.674 151.296L301.67 152.149Z" fill="#F89D13"/>
<path d="M312.603 149.816C312.603 150.215 312.603 165.428 312.603 165.428C312.603 165.428 308.67 171.166 306.125 171.166C303.579 171.166 303.978 166.196 303.978 166.196L303.931 155.611L312.603 149.816Z" fill="#CC724A"/>
<path d="M311.786 154.843C311.729 154.928 309.421 161.387 303.959 158.921L303.95 157.565C304.054 157.603 310.01 155.706 311.786 154.843Z" fill="#CC724A"/>
<path d="M305.821 158.229C309.791 158.912 313.021 155.498 313.667 151.742L314.693 145.776C315.338 142.011 312.935 138.464 309.326 137.847C305.717 137.231 302.269 139.773 301.623 143.538L300.597 149.503C299.942 153.259 301.851 157.546 305.821 158.229Z" fill="#CC724A"/>
<path d="M313.952 137.316C313.952 137.316 321.237 140.161 319.518 152.074C319.309 153.515 320.705 156.209 320.591 157.205C320.221 160.306 317.751 160.467 317.751 160.467L309.772 160.524C309.772 160.524 313.382 158.039 313.667 151.742L314.864 144.591L313.952 137.316Z" fill="#F89D13"/>
<path d="M316.203 150.034C316.003 151.22 315.11 152.055 314.208 151.903C312.546 151.618 312.755 150.66 312.954 149.475C313.154 148.289 314.047 147.455 314.949 147.606C315.842 147.758 316.402 148.849 316.203 150.034Z" fill="#CC724A"/>
<path d="M315.652 149.276C315.633 148.982 315.528 148.612 315.253 148.451C315.015 148.308 314.635 148.413 314.578 148.697C314.569 148.754 314.654 148.783 314.673 148.726C314.721 148.593 314.854 148.527 314.996 148.546C315.139 148.574 315.253 148.697 315.319 148.821C315.452 149.096 315.462 149.428 315.386 149.722C315.319 150.016 315.148 150.31 314.911 150.499C314.797 150.585 314.664 150.651 314.521 150.68C314.398 150.698 314.237 150.68 314.142 150.604C314.104 150.575 314.028 150.613 314.056 150.67C314.113 150.793 314.208 150.888 314.341 150.907C314.483 150.936 314.635 150.907 314.768 150.85C315.072 150.727 315.291 150.471 315.443 150.196C315.604 149.93 315.671 149.598 315.652 149.276Z" fill="#CC724A"/>
<path d="M311.425 136.225C308.946 135.552 307.226 136.216 306.125 137.051C305.754 136.804 305.08 136.662 303.826 137.013C302.857 137.288 301.993 138.71 301.67 139.858C301.034 142.106 301.527 144.856 301.527 144.856C301.527 144.856 303.655 141.925 304.101 140.787C304.253 140.408 304.377 140.086 304.481 139.801C304.472 141.214 304.747 143.917 307.027 144.297C307.245 144.334 307.464 144.363 307.701 144.382L306.885 141.337L308.509 144.458C309.164 144.505 309.848 144.553 310.522 144.647L309.164 141.84L311.396 144.818C312.061 144.97 312.688 145.207 313.229 145.586C314.227 146.279 313.533 149.684 313.476 149.978L314.227 147.692L314.236 147.673L314.265 147.682C314.483 147.597 314.721 147.569 314.949 147.616C315.338 147.682 315.671 147.929 315.899 148.289L315.908 148.299C315.908 148.299 317.076 146.279 317.2 143.974C317.323 141.66 316.44 137.572 311.425 136.225Z" fill="#F89D13"/>
<path d="M280.299 151.856C280.299 151.856 279.672 151.116 279.415 150.755C278.18 149.001 277.706 147.208 277.307 144.761C277.126 143.642 277.895 143.064 278.475 143.358C278.332 142.561 278.237 141.745 278.228 140.911C278.199 139.706 279.263 139.374 279.833 139.943C279.795 139.545 279.776 139.147 279.767 138.729C279.748 137.089 281.495 137.022 281.514 138.672C281.543 140.882 282.312 142.77 283.319 144.591C282.74 143.073 282.312 141.499 282.037 139.858C281.78 138.34 283.661 138.028 283.908 139.536C284.392 142.381 285.675 145.074 287.337 147.483C287.356 146.563 287.289 145.643 287.033 144.742C286.625 143.272 288.486 142.94 288.904 144.42C289.759 147.483 289.949 149.712 289.617 152.899C289.617 152.927 289.607 152.946 289.598 152.965C289.047 154.578 288.486 156.19 287.935 157.802C289.806 159.927 290.338 162.914 289.294 165.494C287.793 169.221 283.87 169.971 283.642 170.009C282.54 163.958 280.299 151.856 280.299 151.856Z" fill="#CC724A"/>
<path d="M283.101 144.363L283.243 144.287C283.262 144.325 285.038 147.701 285.922 148.1L285.855 148.252C285.532 148.109 285.114 147.616 284.706 147.028C283.917 145.909 283.158 144.458 283.101 144.363Z" fill="#995033"/>
<path d="M279.757 139.962L279.918 139.924C279.928 139.981 281.22 145.852 283.984 148.726L283.86 148.84C283.537 148.508 283.233 148.128 282.948 147.73C280.783 144.648 279.766 140.01 279.757 139.962Z" fill="#995033"/>
<path d="M278.399 143.386L278.56 143.339C278.579 143.396 280.413 149.115 281.999 149.475L281.961 149.636C281.552 149.541 281.134 149.134 280.745 148.574C279.501 146.829 278.456 143.566 278.399 143.386Z" fill="#995033"/>
<path d="M330.915 167.761C330.915 167.761 338.248 175.035 334.658 183.41C332.179 189.195 314.217 215.182 297.006 210.886C291.753 209.577 289.673 203.839 286.976 198.272C281.248 186.464 281.761 175.253 282.445 169.639C283.623 168.956 285.114 168.235 286.9 167.647C289.607 166.755 292.029 166.509 293.815 166.461C295.04 170.672 296.398 175.035 297.908 179.502C299.362 183.818 300.862 187.953 302.382 191.908C311.89 183.856 321.398 175.813 330.915 167.761Z" fill="#3B93F4"/>
<path d="M305.688 151.542C305.678 151.542 305.669 151.542 305.659 151.542C305.403 151.505 304.111 151.286 304.035 150.594C303.968 149.987 304.966 148.147 305.165 147.787C305.222 147.692 305.336 147.654 305.431 147.711C305.526 147.768 305.564 147.882 305.507 147.976C305.07 148.773 304.386 150.177 304.424 150.547C304.453 150.831 305.203 151.068 305.707 151.144C305.811 151.163 305.887 151.258 305.878 151.372C305.868 151.467 305.783 151.542 305.688 151.542Z" fill="#C6493C"/>
<path d="M302.553 148.081C302.525 148.422 302.753 148.716 303.066 148.735C303.38 148.754 303.645 148.508 303.674 148.166C303.702 147.825 303.475 147.531 303.161 147.512C302.848 147.483 302.582 147.739 302.553 148.081Z" fill="#363435"/>
<path d="M309.534 146.516C309.487 146.516 309.439 146.497 309.401 146.468C308.537 145.7 307.435 146.26 307.416 146.26C307.321 146.307 307.198 146.269 307.15 146.174C307.103 146.08 307.141 145.956 307.236 145.909C307.293 145.88 308.604 145.217 309.667 146.174C309.753 146.25 309.753 146.374 309.686 146.459C309.639 146.497 309.582 146.516 309.534 146.516Z" fill="black"/>
<path d="M304.035 146.023C303.987 146.023 303.949 146.013 303.911 145.985C303.883 145.966 303.199 145.444 302.525 145.918C302.439 145.985 302.306 145.956 302.249 145.871C302.183 145.786 302.211 145.653 302.297 145.596C303.038 145.074 303.835 145.416 304.158 145.672C304.244 145.738 304.263 145.861 304.187 145.947C304.149 145.994 304.092 146.023 304.035 146.023Z" fill="black"/>
<path d="M307.644 152.709C304.89 153.221 303.721 152.681 303.721 152.681C303.721 152.681 303.56 154.388 305.156 154.596C307.435 154.9 307.644 152.709 307.644 152.709Z" fill="#D65E42"/>
<path d="M303.816 152.718C303.816 152.718 303.873 153.041 303.902 153.098C303.93 153.164 304.187 153.354 305.298 153.468C306.239 153.563 307.226 153.325 307.511 153.25C307.625 152.946 307.644 152.709 307.644 152.709C307.483 152.737 307.331 152.766 307.179 152.785C305.184 153.098 304.13 152.823 303.816 152.718Z" fill="white"/>
<path d="M308.369 148.694C308.396 148.344 308.159 148.04 307.84 148.016C307.521 147.991 307.24 148.255 307.213 148.605C307.186 148.955 307.423 149.259 307.742 149.283C308.061 149.308 308.342 149.044 308.369 148.694Z" fill="#363435"/>
<g clip-path="url(#clip1_109_5019)">
<path d="M204.133 227.998H200.942C200.888 227.998 200.844 228.042 200.842 228.098C200.79 229.622 199.537 230.842 198 230.842C196.463 230.842 195.21 229.622 195.158 228.097C195.157 228.043 195.201 227.998 195.256 227.998H197.86C197.937 227.998 198 227.936 198 227.858C198 227.858 198 225.036 198 224.644C198 224.618 197.98 224.598 197.954 224.598C196.464 224.575 195.252 223.401 195.168 221.926C195.163 221.834 195.086 221.763 194.994 221.763H191.945C191.845 221.763 191.764 221.844 191.764 221.944V224.606V227.893C191.764 231.506 194.721 234.414 198.33 234.226C201.587 234.057 204.182 231.388 204.236 228.102C204.236 228.045 204.19 227.998 204.133 227.998Z" fill="#1C8C44"/>
<path d="M197.889 239.998H186.393C186.277 239.998 186.17 239.936 186.113 239.836C186.055 239.736 186.055 239.612 186.113 239.513L188.449 235.466C188.489 235.396 188.484 235.31 188.436 235.246C186.687 232.943 185.832 230.074 186.028 227.169C186.43 221.182 191.251 216.39 197.242 216.022C200.463 215.824 203.56 216.889 205.962 219.021C208.367 221.156 209.794 224.095 209.979 227.296C210.172 230.64 209.027 233.808 206.754 236.215C205.637 237.398 204.312 238.329 202.816 238.981C201.267 239.656 199.61 239.998 197.889 239.998ZM186.624 239.541H197.889C201.177 239.541 204.207 238.248 206.422 235.902C208.607 233.587 209.708 230.54 209.522 227.323C209.345 224.244 207.973 221.417 205.658 219.363C203.348 217.313 200.369 216.288 197.27 216.478C191.509 216.832 186.871 221.441 186.483 227.199C186.295 229.994 187.118 232.754 188.799 234.969C188.959 235.18 188.977 235.464 188.845 235.694L186.624 239.541Z" fill="#1C8C44"/>
</g>
<path d="M196.24 248.401L193.558 256.999H192.514L190.336 250.441C190.316 250.377 190.296 250.309 190.276 250.237C190.26 250.165 190.242 250.089 190.222 250.009C190.202 250.089 190.182 250.165 190.162 250.237C190.142 250.309 190.122 250.377 190.102 250.441L187.912 256.999H186.868L184.186 248.401H185.152C185.256 248.401 185.342 248.427 185.41 248.479C185.482 248.531 185.528 248.597 185.548 248.677L187.324 254.653C187.352 254.761 187.378 254.877 187.402 255.001C187.43 255.125 187.456 255.257 187.48 255.397C187.508 255.257 187.536 255.125 187.564 255.001C187.596 254.873 187.63 254.757 187.666 254.653L189.688 248.677C189.712 248.609 189.758 248.547 189.826 248.491C189.898 248.431 189.984 248.401 190.084 248.401H190.42C190.524 248.401 190.608 248.427 190.672 248.479C190.736 248.531 190.784 248.597 190.816 248.677L192.832 254.653C192.868 254.757 192.9 254.869 192.928 254.989C192.96 255.109 192.99 255.235 193.018 255.367C193.038 255.235 193.06 255.109 193.084 254.989C193.108 254.869 193.134 254.757 193.162 254.653L194.944 248.677C194.964 248.605 195.008 248.541 195.076 248.485C195.148 248.429 195.234 248.401 195.334 248.401H196.24ZM199.15 250.825C199.594 250.825 199.994 250.899 200.35 251.047C200.706 251.195 201.01 251.405 201.262 251.677C201.514 251.949 201.706 252.279 201.838 252.667C201.974 253.051 202.042 253.481 202.042 253.957C202.042 254.437 201.974 254.869 201.838 255.253C201.706 255.637 201.514 255.965 201.262 256.237C201.01 256.509 200.706 256.719 200.35 256.867C199.994 257.011 199.594 257.083 199.15 257.083C198.702 257.083 198.298 257.011 197.938 256.867C197.582 256.719 197.278 256.509 197.026 256.237C196.774 255.965 196.58 255.637 196.444 255.253C196.312 254.869 196.246 254.437 196.246 253.957C196.246 253.481 196.312 253.051 196.444 252.667C196.58 252.279 196.774 251.949 197.026 251.677C197.278 251.405 197.582 251.195 197.938 251.047C198.298 250.899 198.702 250.825 199.15 250.825ZM199.15 256.249C199.75 256.249 200.198 256.049 200.494 255.649C200.79 255.245 200.938 254.683 200.938 253.963C200.938 253.239 200.79 252.675 200.494 252.271C200.198 251.867 199.75 251.665 199.15 251.665C198.846 251.665 198.58 251.717 198.352 251.821C198.128 251.925 197.94 252.075 197.788 252.271C197.64 252.467 197.528 252.709 197.452 252.997C197.38 253.281 197.344 253.603 197.344 253.963C197.344 254.683 197.492 255.245 197.788 255.649C198.088 256.049 198.542 256.249 199.15 256.249ZM204.411 252.139C204.603 251.723 204.839 251.399 205.119 251.167C205.399 250.931 205.741 250.813 206.145 250.813C206.273 250.813 206.395 250.827 206.511 250.855C206.631 250.883 206.737 250.927 206.829 250.987L206.751 251.785C206.727 251.885 206.667 251.935 206.571 251.935C206.515 251.935 206.433 251.923 206.325 251.899C206.217 251.875 206.095 251.863 205.959 251.863C205.767 251.863 205.595 251.891 205.443 251.947C205.295 252.003 205.161 252.087 205.041 252.199C204.925 252.307 204.819 252.443 204.723 252.607C204.631 252.767 204.547 252.951 204.471 253.159V256.999H203.397V250.921H204.009C204.125 250.921 204.205 250.943 204.249 250.987C204.293 251.031 204.323 251.107 204.339 251.215L204.411 252.139ZM208.842 248.161V253.363H209.118C209.198 253.363 209.264 253.353 209.316 253.333C209.372 253.309 209.43 253.263 209.49 253.195L211.41 251.137C211.466 251.069 211.524 251.017 211.584 250.981C211.648 250.941 211.732 250.921 211.836 250.921H212.802L210.564 253.303C210.456 253.439 210.34 253.545 210.216 253.621C210.288 253.669 210.352 253.725 210.408 253.789C210.468 253.849 210.524 253.919 210.576 253.999L212.952 256.999H211.998C211.906 256.999 211.826 256.985 211.758 256.957C211.694 256.925 211.638 256.869 211.59 256.789L209.592 254.299C209.532 254.215 209.472 254.161 209.412 254.137C209.356 254.109 209.268 254.095 209.148 254.095H208.842V256.999H207.768V248.161H208.842ZM217.402 251.923C217.354 252.011 217.28 252.055 217.18 252.055C217.12 252.055 217.052 252.033 216.976 251.989C216.9 251.945 216.806 251.897 216.694 251.845C216.586 251.789 216.456 251.739 216.304 251.695C216.152 251.647 215.972 251.623 215.764 251.623C215.584 251.623 215.422 251.647 215.278 251.695C215.134 251.739 215.01 251.801 214.906 251.881C214.806 251.961 214.728 252.055 214.672 252.163C214.62 252.267 214.594 252.381 214.594 252.505C214.594 252.661 214.638 252.791 214.726 252.895C214.818 252.999 214.938 253.089 215.086 253.165C215.234 253.241 215.402 253.309 215.59 253.369C215.778 253.425 215.97 253.487 216.166 253.555C216.366 253.619 216.56 253.691 216.748 253.771C216.936 253.851 217.104 253.951 217.252 254.071C217.4 254.191 217.518 254.339 217.606 254.515C217.698 254.687 217.744 254.895 217.744 255.139C217.744 255.419 217.694 255.679 217.594 255.919C217.494 256.155 217.346 256.361 217.15 256.537C216.954 256.709 216.714 256.845 216.43 256.945C216.146 257.045 215.818 257.095 215.446 257.095C215.022 257.095 214.638 257.027 214.294 256.891C213.95 256.751 213.658 256.573 213.418 256.357L213.67 255.949C213.702 255.897 213.74 255.857 213.784 255.829C213.828 255.801 213.884 255.787 213.952 255.787C214.024 255.787 214.1 255.815 214.18 255.871C214.26 255.927 214.356 255.989 214.468 256.057C214.584 256.125 214.724 256.187 214.888 256.243C215.052 256.299 215.256 256.327 215.5 256.327C215.708 256.327 215.89 256.301 216.046 256.249C216.202 256.193 216.332 256.119 216.436 256.027C216.54 255.935 216.616 255.829 216.664 255.709C216.716 255.589 216.742 255.461 216.742 255.325C216.742 255.157 216.696 255.019 216.604 254.911C216.516 254.799 216.398 254.705 216.25 254.629C216.102 254.549 215.932 254.481 215.74 254.425C215.552 254.365 215.358 254.303 215.158 254.239C214.962 254.175 214.768 254.103 214.576 254.023C214.388 253.939 214.22 253.835 214.072 253.711C213.924 253.587 213.804 253.435 213.712 253.255C213.624 253.071 213.58 252.849 213.58 252.589C213.58 252.357 213.628 252.135 213.724 251.923C213.82 251.707 213.96 251.519 214.144 251.359C214.328 251.195 214.554 251.065 214.822 250.969C215.09 250.873 215.396 250.825 215.74 250.825C216.14 250.825 216.498 250.889 216.814 251.017C217.134 251.141 217.41 251.313 217.642 251.533L217.402 251.923ZM220.127 255.535C220.323 255.799 220.537 255.985 220.769 256.093C221.001 256.201 221.261 256.255 221.549 256.255C222.117 256.255 222.553 256.053 222.857 255.649C223.161 255.245 223.313 254.669 223.313 253.921C223.313 253.525 223.277 253.185 223.205 252.901C223.137 252.617 223.037 252.385 222.905 252.205C222.773 252.021 222.611 251.887 222.419 251.803C222.227 251.719 222.009 251.677 221.765 251.677C221.417 251.677 221.111 251.757 220.847 251.917C220.587 252.077 220.347 252.303 220.127 252.595V255.535ZM220.073 251.863C220.329 251.547 220.625 251.293 220.961 251.101C221.297 250.909 221.681 250.813 222.113 250.813C222.465 250.813 222.783 250.881 223.067 251.017C223.351 251.149 223.593 251.347 223.793 251.611C223.993 251.871 224.147 252.195 224.255 252.583C224.363 252.971 224.417 253.417 224.417 253.921C224.417 254.369 224.357 254.787 224.237 255.175C224.117 255.559 223.943 255.893 223.715 256.177C223.491 256.457 223.215 256.679 222.887 256.843C222.563 257.003 222.197 257.083 221.789 257.083C221.417 257.083 221.097 257.021 220.829 256.897C220.565 256.769 220.331 256.593 220.127 256.369V259.057H219.053V250.921H219.695C219.847 250.921 219.941 250.995 219.977 251.143L220.073 251.863ZM229.074 254.263C228.582 254.279 228.162 254.319 227.814 254.383C227.47 254.443 227.188 254.523 226.968 254.623C226.752 254.723 226.594 254.841 226.494 254.977C226.398 255.113 226.35 255.265 226.35 255.433C226.35 255.593 226.376 255.731 226.428 255.847C226.48 255.963 226.55 256.059 226.638 256.135C226.73 256.207 226.836 256.261 226.956 256.297C227.08 256.329 227.212 256.345 227.352 256.345C227.54 256.345 227.712 256.327 227.868 256.291C228.024 256.251 228.17 256.195 228.306 256.123C228.446 256.051 228.578 255.965 228.702 255.865C228.83 255.765 228.954 255.651 229.074 255.523V254.263ZM225.624 251.779C225.96 251.455 226.322 251.213 226.71 251.053C227.098 250.893 227.528 250.813 228 250.813C228.34 250.813 228.642 250.869 228.906 250.981C229.17 251.093 229.392 251.249 229.572 251.449C229.752 251.649 229.888 251.891 229.98 252.175C230.072 252.459 230.118 252.771 230.118 253.111V256.999H229.644C229.54 256.999 229.46 256.983 229.404 256.951C229.348 256.915 229.304 256.847 229.272 256.747L229.152 256.171C228.992 256.319 228.836 256.451 228.684 256.567C228.532 256.679 228.372 256.775 228.204 256.855C228.036 256.931 227.856 256.989 227.664 257.029C227.476 257.073 227.266 257.095 227.034 257.095C226.798 257.095 226.576 257.063 226.368 256.999C226.16 256.931 225.978 256.831 225.822 256.699C225.67 256.567 225.548 256.401 225.456 256.201C225.368 255.997 225.324 255.757 225.324 255.481C225.324 255.241 225.39 255.011 225.522 254.791C225.654 254.567 225.868 254.369 226.164 254.197C226.46 254.025 226.846 253.885 227.322 253.777C227.798 253.665 228.382 253.601 229.074 253.585V253.111C229.074 252.639 228.972 252.283 228.768 252.043C228.564 251.799 228.266 251.677 227.874 251.677C227.61 251.677 227.388 251.711 227.208 251.779C227.032 251.843 226.878 251.917 226.746 252.001C226.618 252.081 226.506 252.155 226.41 252.223C226.318 252.287 226.226 252.319 226.134 252.319C226.062 252.319 226 252.301 225.948 252.265C225.896 252.225 225.852 252.177 225.816 252.121L225.624 251.779ZM235.974 252.001C235.942 252.045 235.91 252.079 235.878 252.103C235.846 252.127 235.802 252.139 235.746 252.139C235.686 252.139 235.62 252.115 235.548 252.067C235.476 252.015 235.386 251.959 235.278 251.899C235.174 251.839 235.044 251.785 234.888 251.737C234.736 251.685 234.548 251.659 234.324 251.659C234.024 251.659 233.76 251.713 233.532 251.821C233.304 251.925 233.112 252.077 232.956 252.277C232.804 252.477 232.688 252.719 232.608 253.003C232.532 253.287 232.494 253.605 232.494 253.957C232.494 254.325 232.536 254.653 232.62 254.941C232.704 255.225 232.822 255.465 232.974 255.661C233.13 255.853 233.316 256.001 233.532 256.105C233.752 256.205 233.998 256.255 234.27 256.255C234.53 256.255 234.744 256.225 234.912 256.165C235.08 256.101 235.218 256.031 235.326 255.955C235.438 255.879 235.53 255.811 235.602 255.751C235.678 255.687 235.752 255.655 235.824 255.655C235.912 255.655 235.98 255.689 236.028 255.757L236.328 256.147C236.196 256.311 236.046 256.451 235.878 256.567C235.71 256.683 235.528 256.781 235.332 256.861C235.14 256.937 234.938 256.993 234.726 257.029C234.514 257.065 234.298 257.083 234.078 257.083C233.698 257.083 233.344 257.013 233.016 256.873C232.692 256.733 232.41 256.531 232.17 256.267C231.93 255.999 231.742 255.671 231.606 255.283C231.47 254.895 231.402 254.453 231.402 253.957C231.402 253.505 231.464 253.087 231.588 252.703C231.716 252.319 231.9 251.989 232.14 251.713C232.384 251.433 232.682 251.215 233.034 251.059C233.39 250.903 233.798 250.825 234.258 250.825C234.686 250.825 235.062 250.895 235.386 251.035C235.714 251.171 236.004 251.365 236.256 251.617L235.974 252.001ZM241.437 253.297C241.437 253.049 241.401 252.823 241.329 252.619C241.261 252.411 241.159 252.233 241.023 252.085C240.891 251.933 240.729 251.817 240.537 251.737C240.345 251.653 240.127 251.611 239.883 251.611C239.371 251.611 238.965 251.761 238.665 252.061C238.369 252.357 238.185 252.769 238.113 253.297H241.437ZM242.301 256.147C242.169 256.307 242.011 256.447 241.827 256.567C241.643 256.683 241.445 256.779 241.233 256.855C241.025 256.931 240.809 256.987 240.585 257.023C240.361 257.063 240.139 257.083 239.919 257.083C239.499 257.083 239.111 257.013 238.755 256.873C238.403 256.729 238.097 256.521 237.837 256.249C237.581 255.973 237.381 255.633 237.237 255.229C237.093 254.825 237.021 254.361 237.021 253.837C237.021 253.413 237.085 253.017 237.213 252.649C237.345 252.281 237.533 251.963 237.777 251.695C238.021 251.423 238.319 251.211 238.671 251.059C239.023 250.903 239.419 250.825 239.859 250.825C240.223 250.825 240.559 250.887 240.867 251.011C241.179 251.131 241.447 251.307 241.671 251.539C241.899 251.767 242.077 252.051 242.205 252.391C242.333 252.727 242.397 253.111 242.397 253.543C242.397 253.711 242.379 253.823 242.343 253.879C242.307 253.935 242.239 253.963 242.139 253.963H238.077C238.089 254.347 238.141 254.681 238.233 254.965C238.329 255.249 238.461 255.487 238.629 255.679C238.797 255.867 238.997 256.009 239.229 256.105C239.461 256.197 239.721 256.243 240.009 256.243C240.277 256.243 240.507 256.213 240.699 256.153C240.895 256.089 241.063 256.021 241.203 255.949C241.343 255.877 241.459 255.811 241.551 255.751C241.647 255.687 241.729 255.655 241.797 255.655C241.885 255.655 241.953 255.689 242.001 255.757L242.301 256.147Z" fill="#878B87"/>
</g>
<defs>
<clipPath id="clip0_109_5019">
<rect width="431" height="384" fill="white" transform="translate(0 0.998535)"/>
</clipPath>
<clipPath id="clip1_109_5019">
<rect width="24" height="23.9994" fill="white" transform="translate(186 215.999)"/>
</clipPath>
</defs>
</svg>
